<?xml version="1.0" encoding="UTF-8"?>
<svg id="Layer_1" data-name="Layer 1" xmlns="http://www.w3.org/2000/svg" viewBox="0 0 248.4 97.06">
  <defs>
    <style>
      .cls-1 {
      fill: #231f20;
      }

      .cls-1, .cls-2, .cls-3 {
      stroke-width: 0px;
      }

      .cls-2 {
      fill: #f1d213;
      }

      .cls-3 {
      fill: #010002;
      }
    </style>
  </defs>
  <path class="cls-1"
    d="m44.65,41.6c2.73-.09,2.88,1.18,2.75,3.28-.18,1.63-.86,1.56-2.75,1.74-1.56-.24-15.28.57-16.29-.55-.85-.44-.34-3.68-.47-4.47h16.76ZM2.23,2.39h68.24v15.08H25.87v8.57h33.96c7.72,0,13.28,4.81,13.28,11.43-.06,10.63,2.68,25.08-13.17,25.23,0,0-44.43,0-44.43,0-8.64.03-14.05-5.87-13.28-13.33l23.59-8.25c-.14,3.55-.45,7.81,4.81,7.56,0,0,14.02,0,14.02,0,3.94.08,5.16-2.27,4.81-5.34,0-2.43-1.75-3.81-4.81-3.81H2.23V2.39ZM.16.33v41.27h18.03L.16,47.9c-1.31,9.47,5.57,17.15,15.34,16.86,8.35-1.3,49.2,3.4,55.23-3.74,6.44-4.39,4.02-17.02,4.44-23.56.07-20.7-35.15-11.6-47.24-13.49v-4.44h44.59V.33H.16Zm88.81,15.55c-.81-7.53,4.55-13.52,13.28-13.49,0,0,40.1.05,40.1.05,9.52,0,15.92,6.35,15.92,15.13.63,6.33-1.19,12.86-7.35,14.76,15.5,5.08,10.17,31.65-7.51,30.36,0,0-41.15,0-41.15,0-11.09.02-14.35-8.3-13.28-17.19l23.59-8.25c.29,3.82-1.68,10.77,4.81,10.31,0,0,14.07,0,14.07,0,3.97.08,5.16-2.31,4.81-5.4.35-6.08-11.85-3.16-15.34-3.81v-11.64c3.43-.51,14.09,1.97,13.75-3.81.34-3.09-.84-5.48-4.81-5.4,0,0-12.48,0-12.48,0-4.71-.17-5.09,3.23-4.81,6.61l-23.59-8.25ZM102.25.33c-9.86-.3-16.69,7.51-15.34,17.02l27.72,9.7c.23-.88-.49-6.43.47-6.91.98-1.11,13.25-.32,14.76-.55,2.76-.1,2.88,1.23,2.75,3.33.57,3.2-12.08,1.23-13.75,1.74v15.77c1.59.23,13.81-.57,14.87.55.72.6.71,3.38,0,3.98-.92,1.11-14.85.33-16.35.55-1.9-.19-2.56-.11-2.75-1.74,0,0,0-9.42,0-9.42l-27.72,9.7c-1.25,11.1,2.59,20.7,15.34,20.72,0,0,41.15,0,41.15,0,17.62,1.21,25.42-23.15,11.99-32.56,7.44-5.64,6.46-20.83-.08-26.98-6.9-8.78-43.41-3.53-53.06-4.9Zm72.94,15.55c-.81-7.53,4.55-13.52,13.28-13.49,0,0,40.1.05,40.1.05,9.52,0,15.92,6.35,15.92,15.13.63,6.33-1.19,12.86-7.35,14.76,15.5,5.08,10.17,31.65-7.51,30.36,0,0-41.15,0-41.15,0-11.09.02-14.35-8.3-13.28-17.19l23.59-8.25c.29,3.82-1.68,10.77,4.81,10.31,0,0,14.07,0,14.07,0,3.97.08,5.16-2.31,4.81-5.4.35-6.08-11.85-3.16-15.34-3.81v-11.64c3.43-.51,14.09,1.97,13.75-3.81.34-3.09-.84-5.48-4.81-5.4,0,0-12.48,0-12.48,0-4.71-.17-5.09,3.23-4.81,6.61l-23.59-8.25ZM188.47.33c-9.86-.3-16.69,7.51-15.34,17.02l27.72,9.7c.23-.88-.49-6.43.47-6.91.99-1.11,13.25-.32,14.76-.55,2.76-.1,2.88,1.23,2.75,3.33.57,3.2-12.08,1.23-13.75,1.74v15.77c1.58.23,13.81-.57,14.87.55.72.6.71,3.38,0,3.98-.92,1.11-14.85.33-16.35.55-1.89-.19-2.56-.11-2.75-1.74,0,0,0-9.42,0-9.42l-27.72,9.7c-1.25,11.1,2.59,20.7,15.34,20.72,0,0,41.15,0,41.15,0,17.62,1.21,25.43-23.15,11.99-32.56,7.44-5.64,6.46-20.83-.08-26.98-6.9-8.78-43.41-3.53-53.06-4.9Z" />
  <g>
    <path class="cls-2"
      d="m2.23,51.27v-1.91l23.59-8.25c-.14,3.55-.45,7.81,4.81,7.56,0,0,14.02,0,14.02,0,3.94.08,5.16-2.27,4.81-5.34,0-2.43-1.75-3.81-4.81-3.81H2.23V2.39h68.24v15.08H25.87v8.57h33.96c7.72,0,13.28,4.81,13.28,11.43-.06,10.63,2.67,25.08-13.17,25.23,0,0-44.44,0-44.44,0-7.72,0-13.28-4.81-13.28-11.43Z" />
    <path class="cls-2"
      d="m159.76,45.13c.97,9.7-5.8,17.65-16.45,17.56,0,0-41.16,0-41.16,0-11.1.02-14.35-8.3-13.28-17.19l23.59-8.25c.29,3.82-1.68,10.77,4.81,10.32,0,0,14.07,0,14.07,0,3.97.08,5.16-2.31,4.81-5.4.35-6.08-11.85-3.16-15.34-3.81v-11.64c3.43-.51,14.1,1.97,13.75-3.81.34-3.09-.84-5.48-4.81-5.4,0,0-12.49,0-12.49,0-4.71-.17-5.1,3.23-4.81,6.61l-23.59-8.25c-.81-7.53,4.55-13.52,13.28-13.49,0,0,40.1.05,40.1.05,9.52,0,15.92,6.35,15.92,15.13.63,6.33-1.19,12.86-7.35,14.76,5.18,1.85,8.94,5.66,8.94,12.8Z" />
    <path class="cls-2"
      d="m245.98,45.13c.97,9.7-5.8,17.65-16.45,17.56,0,0-41.16,0-41.16,0-11.1.02-14.35-8.3-13.28-17.19l23.59-8.25c.29,3.82-1.68,10.77,4.81,10.32,0,0,14.07,0,14.07,0,3.97.08,5.16-2.31,4.81-5.4.35-6.08-11.85-3.16-15.34-3.81v-11.64c3.43-.51,14.1,1.96,13.75-3.81.34-3.09-.84-5.48-4.81-5.4,0,0-12.49,0-12.49,0-4.71-.17-5.09,3.23-4.81,6.61l-23.59-8.25c-.81-7.53,4.55-13.52,13.28-13.49,0,0,40.1.05,40.1.05,9.52,0,15.92,6.35,15.92,15.13.63,6.33-1.19,12.86-7.35,14.76,5.18,1.85,8.94,5.66,8.94,12.8Z" />
  </g>
  <g>
    <path class="cls-3"
      d="m12.57,90.95h-3.04v5.93H2.22v-18.27h16.49c2.88,0,4.98,1.92,4.98,4.58.22,3.03.05,7.02-3.72,7.63l4.55,6.06h-8.01l-3.94-5.93Zm-3.04-4.65c1.28-.41,7.72,1.2,7.1-1.57.14-2.14-5.98-.8-7.1-1.15v2.72Z" />
    <path class="cls-3"
      d="m61.4,93.83h-7.63l-1.09,3.04h-7.19l7.16-18.27h9.87l7.16,18.27h-7.19l-1.09-3.04Zm-1.6-4.49l-2.23-6.22-2.21,6.22h4.44Z" />
    <path class="cls-3"
      d="m91.45,93.44v-11.38c0-2,1.68-3.46,3.99-3.46h12.98c2.55,0,4.22,1.7,4.02,3.91l-7.15,2.5c.08-2.15-4.01-1.12-5.21-1.35-2.62-.23-1.11,5.51-1.49,6.79-.08,2.15,4.01,1.12,5.21,1.35,1.21.02,1.62-.99,1.49-1.99l7.15,2.5c.32,2.45-1.1,4.57-4.02,4.55-3.2-.73-17.21,2.37-16.97-3.43Z" />
    <path class="cls-3" d="m136.09,78.61h7.31v18.27h-7.31v-18.27Z" />
    <path class="cls-3"
      d="m190.16,78.61v18.27h-7.95l-6.86-10.41v10.41h-6.67v-18.27h7.95l6.87,10.57v-10.57h6.65Z" />
    <path class="cls-3"
      d="m214.93,93.44v-11.38c0-2,1.68-3.46,3.99-3.46h13.46c2.55,0,4.22,1.7,4.02,3.91l-7.15,2.5c.09-2.23-4.47-1.08-5.69-1.35-2.62-.23-1.11,5.51-1.49,6.79-.09,2.22,4.44,1.08,5.66,1.35,1.46.03,1.63-1.28,1.52-2.37h-3.91l1.12-2.05h9.93c-.23,3.23,1.4,9.72-4.02,9.49-3.19-.72-17.82,2.36-17.45-3.43Z" />
  </g>
</svg>