<?xml version="1.0" encoding="UTF-8"?>
<svg id="Layer_2" data-name="Layer 2" xmlns="http://www.w3.org/2000/svg" viewBox="0 0 644.42 644.4">
  <defs>
    <style>
      .cls-1 {
        fill: #231f20;
      }

      .cls-1, .cls-2, .cls-3, .cls-4 {
        stroke-width: 0px;
      }

      .cls-2 {
        fill: #a8aaad;
      }

      .cls-3 {
        fill: #fff;
      }

      .cls-4 {
        fill: #010101;
      }
    </style>
  </defs>
  <g id="Layer_1-2" data-name="Layer 1">
    <g>
      <path class="cls-4" d="m442.17,97.17c8.7.4,5.93,8.22,1.88,13.02-6.34,9.65-14.06,18.28-22.02,26.62-8.37,8.75-17.1,17.25-25,26.29-7.91,9.07-15,18.68-20.09,29.7.06,3.54,3.35,6.1,6.33,7.35,25.7,6.52,12.35,40.12-10.78,40.12-1.16,0-2.34-.08-3.54-.26-47.09-1.57-40.98-54.9-21.45-73.21,15.54-17.32,39.1-24.69,56.83-39.55,11.54-8.5,22.36-17.96,32.75-27.84,1.38-1.56,3.27-2.24,5.09-2.24m.34-15h-.34c-5.98,0-11.68,2.43-15.76,6.68-11.02,10.48-21.16,19.09-30.98,26.33l-.38.28-.36.3c-6.56,5.5-14.38,10.01-22.66,14.79-12.22,7.05-24.86,14.34-35.28,25.78-7.72,7.45-13.63,18.23-16.69,30.45-3.27,13.09-2.79,26.37,1.35,37.39,3.38,8.99,9.23,16.52,16.9,21.77,8.02,5.49,17.89,8.53,29.36,9.03,1.61.2,3.22.3,4.82.3,9.98,0,19.6-3.88,27.07-10.93,6.81-6.42,11.34-15.12,12.43-23.88.98-7.83-.71-15.24-4.89-21.42-2.11-3.12-5.58-6.93-11.07-9.93,3.26-5.13,7.3-10.42,12.3-16.15,5.15-5.89,10.67-11.53,16.51-17.51,2.63-2.69,5.36-5.48,8.03-8.28,7.51-7.88,16.11-17.34,23.26-28.08,6.56-8.21,8.49-17.58,5.14-25.23-1.46-3.33-6.17-11.13-18.42-11.69l-.34-.02h0Z"/>
      <path class="cls-4" d="m322.21,27c39.87,0,78.52,7.8,114.9,23.19,35.15,14.87,66.72,36.16,93.84,63.27,27.12,27.12,48.41,58.69,63.28,93.84,15.39,36.38,23.19,75.03,23.19,114.89s-7.8,78.52-23.19,114.9c-14.87,35.15-36.16,66.72-63.28,93.84-27.12,27.12-58.69,48.41-93.84,63.28-36.38,15.39-75.04,23.19-114.9,23.19-51.52,0-102.22-13.46-146.63-38.93-43.11-24.72-79.59-60.22-105.51-102.66-28.18-46.11-43.07-99.24-43.07-153.62,0-63.06,19.6-123.21,56.67-173.96,17.86-24.44,39.28-45.94,63.65-63.89,24.65-18.16,51.8-32.29,80.69-42.01,30.25-10.18,61.94-15.34,94.19-15.34m0-27c-35.94,0-70.51,5.88-102.8,16.75C91.86,59.66,0,180.19,0,322.19c0,61.43,17.19,118.86,47.04,167.7,56.59,92.67,158.66,154.51,275.17,154.51,177.95,0,322.21-144.25,322.21-322.21S500.16,0,322.21,0h0Z"/>
      <g>
        <path class="cls-2" d="m246.42,560.38c-3.86,0-7.5-1.54-10.25-4.34-6.55-6.67-9.02-15.69-7.18-132.98-.02,0-.66,0-.66,0-23.98,0-93.89,14.26-145.45,56.63-2.43,2-5.47,3.07-8.57,3.07-.73,0-1.46-.06-2.18-.18-3.83-.63-7.21-2.88-9.27-6.17-23.77-38.07-37.47-80.88-40.71-127.26-3.03-43.32,3.6-88.42,19.17-130.42,15.54-41.94,39.86-80.39,70.32-111.2,32.65-33.03,70.94-56.56,113.83-69.95,1.32-.41,2.68-.61,4.02-.61,3.32,0,6.58,1.22,9.1,3.53l87.08,79.42c12.56-7.04,34.41-19.33,37.57-21.13,2.06-1.17,4.36-1.76,6.67-1.76,1.71,0,3.43.33,5.06.99,4.88,1.97,47.96,29.04,78.5,49,75.95,49.63,83.39,59.74,86.19,63.55,2.19,2.98,3.06,6.72,2.42,10.36-.41,2.33-1.43,4.49-2.92,6.28-7.47,12.33-76.85,159.57-95,213.88-1.84,5.52-7.01,9.22-12.8,9.22-.08,0-.42,0-.42,0-7.67,0-50.32,5.64-92.66,22.54-34.06,13.6-75.28,37.67-78.24,75.11-.47,5.91-4.74,10.83-10.53,12.11-1.01.23-2.05.34-3.08.34Z"/>
        <path class="cls-4" d="m229.49,50.46l94.26,85.97c4.78-2.61,42.55-23.87,46.15-25.91,5.02,2.03,145.15,89.38,158.88,108.03-3.92,2.6-79.32,164.06-97.42,218.23-.13,0-.28,0-.42,0-21.28,0-177.7,25.97-184.35,110.08-.05.01-.1.02-.15.02-9.99,0,.09-224-3.38-224.02h0l-.05.32v-.32l-13.91,86.69c-.24,0-.49,0-.75,0-28.76,0-101.16,16.26-154.02,59.7C-18.73,320.26,61.13,103.03,229.49,50.46m0-27c-2.69,0-5.4.4-8.05,1.23-22.72,7.1-44.58,17.11-64.96,29.78-19.57,12.16-37.89,26.82-54.45,43.57-31.8,32.17-57.17,72.28-73.37,116-16.23,43.78-23.14,90.83-19.98,136.05,1.64,23.52,5.98,46.6,12.9,68.58,7.2,22.89,17.24,44.72,29.83,64.89,4.12,6.59,10.87,11.09,18.54,12.34,1.45.24,2.91.36,4.36.36,6.21,0,12.28-2.14,17.14-6.14,39.45-32.42,93.41-48.6,123.79-52.57-.27,18.71-.44,37.24-.36,53.8.08,16.87.42,29.76,1.03,39.4,1.07,16.96,3.01,26.99,10.63,34.76,5.31,5.41,12.37,8.39,19.88,8.39,2.03,0,4.06-.22,6.04-.67,11.57-2.58,20.1-12.41,21.03-24.22.98-12.34,7.41-23.67,19.68-34.67,11.95-10.71,28.78-20.44,50-28.93,39.79-15.91,80.77-21.59,87.73-21.62.15,0,.3,0,.45,0,11.59,0,21.92-7.41,25.6-18.44,17.08-51.1,83.93-194,93.4-210.56,2.53-3.36,4.26-7.3,5.01-11.52,1.29-7.27-.46-14.76-4.84-20.71-3.79-5.16-11.69-15.89-89.68-66.85-22.54-14.73-42.03-26.98-51.64-32.98-24.8-15.46-27.02-16.36-29.17-17.23-3.26-1.32-6.7-1.97-10.12-1.97-4.62,0-9.21,1.18-13.33,3.52-2.54,1.44-16.95,9.55-29.01,16.33L247.68,30.51c-5.04-4.6-11.56-7.05-18.2-7.05h0Z"/>
      </g>
      <g>
        <path class="cls-3" d="m372.49,246.27c-1.34,0-2.71-.09-4.06-.27-19.1-.73-32.8-9.6-38.59-24.99-7.84-20.83.81-46.45,13.36-58.39,9.52-10.54,21.62-17.52,33.33-24.27,8.63-4.98,16.78-9.68,23.95-15.68l.14-.12.15-.11c10.18-7.5,20.65-16.4,32.02-27.21,2.39-2.57,5.8-4.04,9.38-4.04h.27c6.95.32,9.62,4.09,10.59,6.31,2.91,6.65-2.15,13.82-4.15,16.29-6.81,10.31-15.19,19.52-22.5,27.19-2.63,2.76-5.3,5.48-7.97,8.21-5.67,5.8-11.54,11.8-16.86,17.89-8.19,9.39-14.01,17.77-18.16,26.18.39.36,1.01.83,1.87,1.23,14.91,4.01,18.99,15.44,17.81,24.88-1.62,12.95-13.77,26.92-30.57,26.92Z"/>
        <path class="cls-1" d="m442.17,97.17c8.7.4,5.93,8.22,1.88,13.02-6.34,9.65-14.06,18.28-22.02,26.62-8.37,8.75-17.1,17.25-25,26.29-7.91,9.07-15,18.68-20.09,29.7.06,3.54,3.35,6.1,6.33,7.35,25.7,6.52,12.35,40.12-10.78,40.12-1.16,0-2.34-.08-3.54-.26-47.09-1.57-40.98-54.9-21.45-73.21,15.54-17.32,39.1-24.69,56.83-39.55,11.54-8.5,22.36-17.96,32.75-27.84,1.38-1.56,3.27-2.24,5.09-2.24m.27-12h-.27c-5.18,0-10.12,2.11-13.64,5.81-11.14,10.59-21.39,19.3-31.32,26.62l-.3.22-.29.24c-6.76,5.67-14.69,10.24-23.09,15.08-12.05,6.95-24.5,14.13-34.63,25.28-7.35,7.06-13,17.37-15.93,29.09-3.13,12.51-2.68,25.15,1.25,35.6,3.87,10.29,14.69,27.65,43.7,28.86,1.52.19,3.06.29,4.57.29,9.22,0,18.1-3.59,25.01-10.11,6.31-5.95,10.5-13.99,11.51-22.07,1.66-13.3-5-24.46-17.27-29.71,3.62-6.16,8.29-12.47,14.32-19.38,5.21-5.95,10.75-11.62,16.63-17.63,2.63-2.69,5.35-5.47,8.01-8.25,7.45-7.81,15.97-17.19,23.01-27.78,5.92-7.34,7.72-15.61,4.81-22.26-1.23-2.81-5.24-9.41-15.81-9.89h-.27Z"/>
      </g>
    </g>
  </g>
</svg>