<?xml version="1.0" encoding="UTF-8"?>
<svg id="Layer_1" data-name="Layer 1" xmlns="http://www.w3.org/2000/svg"
  xmlns:xlink="http://www.w3.org/1999/xlink" viewBox="0 0 2017.24 1134.7">
  <defs>
    <style>
      .cls-1 {
      clip-path: url(#clippath);
      }

      .cls-2 {
      fill: none;
      }

      .cls-2, .cls-3, .cls-4, .cls-5, .cls-6 {
      stroke-width: 0px;
      }

      .cls-3 {
      fill: gray;
      }

      .cls-4 {
      fill: #191718;
      }

      .cls-5 {
      fill: #1d1c1a;
      }

      .cls-6 {
      fill: #fff;
      }
    </style>
    <clipPath id="clippath">
      <rect class="cls-2" x="53.24" y="27.35" width="1927" height="1081" />
    </clipPath>
  </defs>
  <g class="cls-1">
    <g>
      <path class="cls-5"
        d="m915.49,987.28c56.63-156.52,362.16-106.94,287.46-182.57-96.38-115.44-134.8-42.73-211.96-107.97-44.46-28.04-103.88-32.39-141.57-73.21-24.79-25.25-52.36-48.12-83.72-63.35-12.09-5.39-15.43-14.68-15.65-26.41-.68-20.98-8.01-41.38-6.62-62.61-7.65-14.41,58.32-100.07,48.61-78.27-39.47,46.48-54.25,71.33-29.46,132.37,2.34,28.5,33.92,33.79,49.58,50.96-42.4-33.43-41.36-22.79-56.29-79.64-24.61-66.7,82.3-148.22,120.09-195.56,58.99-47.55-46.26,116.82-25.96,144.7,2.82-45.55,31.28-84.85,52.26-123.72,37.45-123.53-36.56-12.57-67.28,17.28,7.98-19.15,29.34-36.62,41.47-55.2,9.67-7.24,35.95-66.12,45.42-44.96,23.03,94.35-64.06,139.58-51.71,227.5,8.02,40.19,44.52,72.26,84.33,62.15,81.08-27.42,147.11-36.47,183.1,62.52,37.53,69.78,95.84,172.56,184.78,145.93,79.85-28.49,166.89-2.85,245.92-30.69,68.66-24.65,156.31-74.01,154.84-160.9-15.49-85.15-16.23-88.32,44.83-146.89,9.13-11.4-14.27-17.65-7.64-30.05,13.22-30.53,36.05-56.01,53.79-83.8,2.14-2.1,3.69-6.32,6.87-5.43-12.27,18.41-24.74,38.26-37.03,57.09-6.52,12.15-17.94,27.53-.28,36.22,5.48,2.94,12.9,7.24,14.01,13.47,2.91-3.99,2.85-8.22-.73-12.44-47.79-28.28,75.15-124,71.66-205.1-.94-69-33.93-93.91,7.2-166.38,0,0-10.66,0-10.66,0-6.22,10.66-12.01,21.46-16.58,32.71-9.77,24.71-15.18,51.08-8.48,77.26,47.59,139.89-98.4,226.53-151.59,334.59-9.49,22.35-2.26,45.07,5.35,66.5,32.15,74.03-26.18,140.97-89.81,168.5-91.96,52.47-198.93,15.56-296.6,43.17,40.54-.96,80.36-11.88,121.1-8.54-66.71-3.14-145.49,44.55-201.22-12.64-31.33-35.3-71.82-67.68-84.9-116.04-22.42-99.25-95.16-98.51-174.25-86.24-61.33-6.29-80.39-99.78-48.6-148.2,28.78-39.66,12.88-87.62,14.6-133.11-3.31-48.85-39.25,31.49-48.5,42.77-43.14,66.39-101.56,121.78-142.65,189.45-12.81,26.48-.54,57.44-7.64,85.45-5.42,16.43,8.37,28.66,22.37,33.13,8.56,2.78,15.96,6.87,22.62,12.08,15.21,12.71,38.07,16.93,52.42,31.08,46.43,53.89,124.09,54.4,173.54,102.5,42.44,38.52,122.82,13.44,153.21,71.49,14.35,81.74-179.26,48.76-213.57,111.86-56.66,84.69-111.89,169.15-194.2,228.77,49.72-4.95,129.77-100.49,163.75-141.59ZM1843.23,235.71c43.83-83.68-26.46-137.15,16.99-214.76-36.45,85.1,34.89,135.93-16.99,214.76Z" />
      <path class="cls-5"
        d="m880.66,1053.43c168.9-173.19,135.94-147.55,366.06-192.42,5.03-2.62,7.75-5.63,8.12-9.32-3.89,6.66-18.61,8.34-26.73,8.9-290.65,14.45-245.42,112.3-451.22,268.29,29.03-1.14,75.25-57.31,103.76-75.45Z" />
      <path class="cls-5"
        d="m1565.7,490.23c-.76,1.17-1.52,2.33-2.29,3.5,1.61-.32,2.57-2.05,2.29-3.5Z" />
      <path class="cls-5"
        d="m1555.54,505.63c-61.36,104.35-189.76-26.15-216.08-101.69-7.47-16.58-10.02-20.52-.85-1.19,26.51,83.95,162.24,212.29,223.53,96.23,3.51-10.75-3.52,2.73-6.6,6.65Z" />
      <path class="cls-3"
        d="m50.72,535.04c89.42-54.92,194.62-9.5,288.67-40.87,43.55-16.13,97.51,11.55,133.45-27.17,32.88-28.6,66.57-56.59,85.42-97.52,3.45-20.51,172.73-154.79,90.93-107.47-14.58,2.76,9.76-24.46,11.57-31.1,17.03-26.35,9.73-53.22,4.58-81.48,3.23-29.38-15.41-52.44-40.58-62.36-14.98-8.56-34.77-8.35-48.94-18.69-20.63-12.92-44.74-27.78-70.19-22.35-79.41,34.69-50.66,91.74-158.21,90.03-66.69,1.03-133.36-9.17-199.88-1.38-12.96-.16-119.08,14.3-87.75-10.06,46.78-25.52,100.39-37.83,145.95-65.62,32.49-22.43,38.11-67.07-6.77-56.65C212.71,66.02,44.43,96.43,1.78,116.29c0,0,0,46.92,0,46.92,67.23-.69,133.3-13.62,200.03-18.68,74.57-3.37,150.28,14.79,224.11.43,30.97-4.46,24.66-18.35,31.8-39.11,7.66-11.42,13.47-23.1,28.81-24.83,17.69-3.06,35.99-2.89,50.91,8.5,8.65,2.47,21.94,4.76,23.5,15.64,14.14,60.04,78.32,53.13,80.79,80.66,9.9,78.45-90.3,122.13-131,176.1-24.47,19.68-37.64,49.65-66.43,63.46-15.53,5.73-24.33,19.64-40.59,22.71-59.67,10.59-118.44,29.91-179.76,25.66-74.3-7.07-148.01,6.25-222.18,5.54,8.17,61.46-28.64,104.7,48.95,55.74ZM657.22,190.8c-1.6-18.13-8.74-38.94-29.12-40.61-23.8-.11-55.37-70.14-10.65-49.87,12.11,9.15,35.13,13.57,37.5,31.01.34,15.17,13.46,50.85,2.27,59.46Zm-119.17,157.62c22.26-23.39,45.05-46.14,71.19-65.11-21.64,22.59-46.44,48.12-71.19,65.11Zm-13.24,26.43c22.75-23.81-10.15,33.28-26.18,41.37,2.28-8.12,16.79-31.25,26.18-41.37Zm-126.08,92.69c.41-5.45,24.92,1.29,32.93-.33,13.01.88,23.48-4.95,35.35-8.7-17.41,17.82-46.52,16.74-68.29,9.02Z" />
      <path class="cls-3"
        d="m41.83,333.21c177.13,18.19,190.42-38.58,19.05-90.85-19.75-3.85-39.42-1.89-59.11.72,0,0,0,39.11,0,39.11,9.11,2.81,5.73,10.16,0,14.35-.23,57.61-6.77,36.84,40.05,36.67Z" />
      <path class="cls-5"
        d="m1055.8,1059.87c125.83-33.8,251.21-12.86,376.52,9.96,18.7,1.31,23.31,18.38,34.01,30.96,19.8,23.59-11.6-15.64-14.35-28.41-183.37-66.9-401.39-52.44-570.39,56.51,56.99-17.13,111.67-59.22,174.21-69.02Z" />
      <path class="cls-5"
        d="m2002.64,786.15c-49.9-5.73-122.16,158.52-140.22,204.4-17.53,52.04,37.38,91.75,50.86,138.34,0,0,13.09,0,13.09,0-15.46-46.43-63.63-88.62-50.13-141.34,19.97-66.24,55.16-157.19,117.01-187.43,8.89-1.68,24.6-1.28,22.4-13.42-4.07.92-8.34.87-13.01-.55Z" />
      <path class="cls-5"
        d="m1931.82,677.45c-109.55,10.62-25.61,99-60.37,159.11-35.04,46.25-72.17,91.02-114.13,131.57-33.67,32.44-76.69,56.63-108.03,92.02-21.13,28.39-58.06,44.44-84.3,68.74,0,0,290.91,0,290.91,0-16.49-25.86-42.67-43.28-64.14-64.22-33.64-41.41,34.23-79.37,52.82-111.72,28.74-37.96,46.86-80.83,67.21-123.55,12.88-30.69-2.15-62.76,3.39-94.26,2.14-18.53,25.24-23.49,39.15-30.44,22.81-10.35,39.04-27.93,61.31-39.18,0,0,0-17.62,0-17.62-28.3,9.97-53.53,26.32-83.83,29.56Z" />
      <path class="cls-5"
        d="m1451.16,1099.86c-167.59-76.59-377.83-63.43-539.84,29.03,53.03,7.86,100.04-24.35,152.33-31.72,107.65-10.45,241.13-39.78,334.29,31.72,0,0,73.8,0,73.8,0-6.48-10.04-12.53-20.2-20.58-29.03Z" />
      <path class="cls-5"
        d="m788.15,115.34c-15.24,129.43-137.65,186.32-186.3,297.82-15.41,17.77-37.22,32.78-56.77,45.2-55.04,42.1-76.63,105.91-93.87,171.96-4.14,9.19-3.02,23.25,5.92,28.92.81-5.59.08-11.2,3.12-16.68,8.95-17.33,1.37-36.43,6.84-54.57,34.22-136.31,123.15-118.03,174.49-213.45,28.34-63.49,94.72-102.19,124.45-163.79,36.93-70.62,33.12-161.69,105.1-208.4-50.94-3.38-71.27,70.33-82.98,112.99Z" />
      <path class="cls-5"
        d="m770.06,95.5c-8.91,39.3-13.34,84.53-38.71,115.99,44.13-46.44,30.58-161.05,87.92-209.14-29.17,15.09-41.23,62.22-49.22,93.15Z" />
      <path class="cls-5" d="m731.01,211.62c.22-.07.41-.13.34-.42,0,0-.34.42-.34.42Z" />
      <path class="cls-5" d="m2015.64,24.68V2.35h-9.23c2.61,7.64,5.85,15,9.23,22.34Z" />
      <path class="cls-5"
        d="m119.07,658.83c67.91-66.21,65.03-45.83,142.33-59.83,23.58-14.24,51.42-15.96,77.04-6.45,27.05,3.01,44.88-33.29,75.81-34.51,7.26-1.37,39.01-8.25,25.6-15.65-55.33-15.35-109.99,5.57-165.33-.55-90.33-24.78-182.61-19.42-256.69,46.42-17.43,10.21-17.08,11.84-16.05,32.95,27.43-13.01,74.92-64.99,102.65-55.47-32.87,44.22-42.99,96.25-102.65,108,0,0,0,24.76,0,24.76,40.35-3.98,86.62-11.61,117.29-39.67Z" />
      <path class="cls-5"
        d="m2005.6,252.82c-12.61,27.76-2.11,56.54,10.05,82.11-3.98-.17,10.14-129.06-10.05-82.11Z" />
      <path class="cls-5"
        d="m2015.64,68.77c1.83-11.49-5.32-21.03-9.63-30.85-6.23-8.1-10.08-36.21-18.77-35.57,6.21,23.29,19.11,44.38,28.39,66.43Z" />
      <path class="cls-5"
        d="m1992.63,582.65c-23.76-19.21,10.25-18.83,23.02-15.95,1-16.92-.07-14.78-15.09-19.49-281.17-139.43-88.33-43.1-296.52,175.86-14.17,17.08-15.74,37.12-11.8,57.82,6.95,54.97-126.19,114.77-161.27,156.09-271.17,125.75-326.28-111.41-708.25,191.9,0,0,11.45,0,11.45,0,363.7-301.66,616.31,2.27,767.02-227.17,25.55-52.8,109.08-40.88,121.2-104.7,1.75-39.63-21.33-45.83,13.24-87.9,28.47-33.41,57.64-64.51,93.15-89.3,14.22-16.86,23.73-36.49,40.36-51.11,43.77-21.68,77,53.39,128.69,44.17,20.2,1.41,18.48.04,17.82-20.84-7.98-1.94-16.05-5.19-23.01-9.38Z" />
      <path class="cls-5"
        d="m1999.35,495.63c-11.91,9.1,10.43,17.28,16.29,22.05-2.95-20.87,10.09-37.95-16.29-22.05Z" />
      <path class="cls-5"
        d="m1986.06,516.5c-302.38-153.52-134.27,19.2-274.4,153.48-58.55,53.26-135.06,78.84-206.59,108.25-31.52,27.54,40.5,41.23,58.52,31.53,78.24-20,70.57,25.86,16.39,62.48-14.83,10.2-30.01,19.95-44.65,30.44,21.64-14.18,44.05-27.93,64.82-43.31,124.35-109.04-119.2-46.88,53.26-137.69,77.48-42.58,133.18-118.67,138.32-212.55,19.41-132,227.3,74.53,223.92,16.27-10-2.13-20.11-5.35-29.58-8.9Z" />
      <path class="cls-3"
        d="m1977.81,81.9c13.03,33.91-9.32,58.72-21.21,87.96-37.85,96.42-66.43,105.26,20.14,182.5,17.97,18.56,31.38,38.95,38.9,61.56v-40.22c-44.47-65.4-60.36-83.13-45.81-165.24-9.95-38.97,42.28-46.09,39.65-78.72-5.76-45.13-36.5-83.14-43.82-127.4h-10.59c-.1,28.05,16.73,52.98,22.74,79.55Zm-25.03,214.66c6.36,14.83,13.88,28.9,22.55,42.42,16.94,25.41-21.92-16.32-25.08-27.55-3.98-4.48-4.65-24.33,2.53-14.87Zm37.65-206.03c5.89,17.11,9.69,38.23-4.44,51.99-9.05,6.69-24.3,30.16-27.11,28.26,15.46-26.42,42.47-47.77,28.09-82.24,1.02.58,3.19,1.13,3.45,1.98Z" />
      <path class="cls-5"
        d="m985.38,1013.51c152.99-122.47,355.77-3.66,511.34-101.96-331.76,108.86-296.68-102.49-686.3,217.33,58.07-34.03,115.31-80.27,174.96-115.37Z" />
      <path class="cls-3"
        d="m1115.44,21.02c86.92,26.9,74.99,59.33,86.91,140.01,4.51,80.16,75.24,149.59,154.13,123.15,28.67-6.33,43.9,28.11,50.09,52.01,5.45,38.19,20.36,72.6,26.95,110.7,10.04,34.63,60.82,50.87,90.33,35.15-116.63,35.67-82.11-115.22-120.26-184.96-10.59-14.34-26.07-56.71-47.45-45.89-79.13,64.14-146.73-42.7-148.95-121.44-.71-75.51-18.85-94.2-86.49-113.26-18.18-5.29-36.16-15.94-55.4-14.14,16.86,5.79,33.63,12.13,50.15,18.67Z" />
      <path class="cls-5"
        d="m857.87,58.34c-41.03,63.43-42.89,144.65-83.48,209.46-27.51,48.42-36.64,111.73-87.65,139.99-79.3,40.81-180.15,91.72-191.83,196.1,16.33,91.56,122.36,115.47,179.69,170.49,21.42,24.65,33.38,57.2,23.3,89.04,52.02-152.28-225.83-140.12-193.38-284.57,22.95-70.96,82.27-112.63,141.48-146.83C832.04,374.12,765.16,58.4,944.16,2.35c-34.4,3.36-66.62,30.89-86.29,55.99Z" />
      <path class="cls-5"
        d="m21.36,1105.27c-3.23-14.26-13.47-47.26-19.58-50.87,9.59,23.55,20.76,48.42,18.71,74.48,6.77-.08,1.13-17.68.87-23.61Z" />
      <path class="cls-5"
        d="m22.57,877.78c239.52-117.91,262.1,55.58,456.85,91.69,33.93,7.79,72.28,14.97,103.81-3.19,40.65-24.78,95.13-40.95,120.16-85.05-24.32,39.04-75.83,55.2-115.58,73.09-64.28,27.52-165.56-14.99-220.28-53.31-43.58-36.34-91.7-73.78-150.43-72.81-40.73-2.3-80.97-1.97-121.03,3.02-38.42-11.6-68.2,11.01-94.31,36.8-.09,32.42-3.26,28.75,20.8,9.75Z" />
      <path class="cls-5" d="m674.28,275.28c.57-1.14-.09-.33-.62.08.21-.03.41-.05.62-.08Z" />
      <path class="cls-5"
        d="m401.47,71.3c-36.02,39.11-103.31,30.72-150.6,21.78-23.64-8.46-4.18-23.58-29.88,1.02-21.72,29.87,177.57,30.24,188.55-.89,28.05-24.72,36.61-62.43,59.85-90.87,0,0-30.2,0-30.2,0-10.26,24.75-19.26,48.98-37.72,68.96Z" />
      <path class="cls-5"
        d="m585.5,36.3c28.64,25.88,67.31,41.27,89.83,74.76,20.46,32.28,31.69,12.83,38.38-15.32,7.8-31.99,19.17-63.62,33.59-93.39,0,0-28.4,0-28.4,0,5.55,10.74-19.5,75.81-28.25,84.58-15.66,7.7-28.63-15.82-41.57-22.81-29.22-18.22-55.13-41.18-82.7-61.77,0,0-32.62,0-32.62,0,18.8,9.46,35.64,21.52,51.74,33.96Z" />
      <path class="cls-5" d="m674.55,275.24c-.25-.03-.35.12-.43.36,0,0,.43-.36.43-.36Z" />
      <path class="cls-5"
        d="m272.98,34.78c12.89,49.21,9.82-15.21-3.89-32.43,0,0-10.75,0-10.75,0,6.54,10.11,11.29,21.21,14.63,32.43Z" />
      <path class="cls-5"
        d="m766.65,68.64c-10.42,80.72-32.95,159.4-99.83,207.56,116.38-74.34,67.96-184.95,137.63-273.85-18.5,2.5-31.86,48.7-37.8,66.29Z" />
      <path class="cls-5"
        d="m111.51,780.87c9.49.6,18.97,1.36,28.38,2.04,3.88-2.19,3.89-11.06,9.91-9.37,20.63,31.99,69.65,57.72,100.57,23.46,5.1-7.28,11.97-8.15,19.61-5.08,104.71,24.7,182.9,147.16,299.95,99.93,37.48-8.98,83.25-38.03,61.17-84.64-43.92-101.48-207.99-149.15-118.04-282.75.41-6.95-7.19,4.44-7.08,6.61-96.15,153.85,138.6,186.49,81.12,312.73-109.93,117.36-293.89-131-337.89-53.67-7.63,31.36-56.73,25.33-71.87,3.83-2.81-8.86-16.68-12.33-15.83-22.79.09-10.25,6.34-21.85,16.78-24.69-33.97.88-25.81,28.76-70.29,16.49-23.24-2.89-42.28-14.7-64-21.31-3.43-1.94-3.13-.95-1.42,2.53,4.3,19.23,23.43,15.61,18.76,27.52,10.4,7.23,34.72,6.82,50.19,9.14Z" />
      <path class="cls-5" d="m513.1,521.64c-.02.26.03.29.25.18,0,0-.25-.18-.25-.18Z" />
      <path class="cls-5"
        d="m827.55,1112.77c366.53-329.46,432.17-58.64,726.48-239.84,13.73-7.35,43.47-37.13,9.77-34.48-39.23,6.75-78.61,13.79-118.05,4.91-9.52-2.89-62.6-7.83-39.06-22.66,30.9-11.75,10.41-30.08,33.73-42.18,96.28-22.13,197.49-43.03,273.99-115.96,116.96-109.5-36.35-293.12,209.21-186.65,117.97,20.29,74.61-72.62,12.85-121.49-56.14-40.22-68.21-55.39-34.1-122.43,22.43-48.17,45.46-111.85,16.16-161.23-21.47-28.43-.8-74.21-15.1-68.41-18.73,42.77,6.44,84.07,13.79,125.77,19.17,67.75-66.94,144.13-32.1,191.83,16.12,16.66,35.61,30.35,53.18,45.42,42.76,36.2,81.36,116.37-6,104.79-46.77-5.44-87.22-33.07-136.26-26.1-101.52,10.23,96.94,244.29-310.73,316.62-134.77,6.8-79.27,75.01-218.94,37.78,1.05,28.96,204.85,64.64,240.01,64.36,9.46-1.41,29.11,3.27,13.79,13.89-313.31,163.43-300.69-125.1-719.68,252.17,10.37.71,18.19-10.96,27.05-16.12Z" />
      <path class="cls-3"
        d="m1194.32,16.05c68.44,31.39,23.06,122.61,73.95,172.06,84.53,71.33,37.97-135.83,82.26-161.13,20.19-20.93,27.8,23.49,32.25,38.29,1.35,16.03-.56,34.45-10.7,47.53-45.27,69.98,44.55,139.64,65.16,203.34,11.45,37.43,52.76,160.45,92.34,81.51,46.1-100.76,2.94-89.9-2.82-182.99-4.31-29.5,31.97-37.39,49.8-52.84,35.93-27.22,56.7-63.04,85.95-95.74,19.84-19.65,40.05-40.42,55.48-63.74-15.44,7.69-24.84,31.49-40.88,43.37-45.85,39.76-78.32,95.99-135.39,120.01-10.63,4.26-22.59,10.94-27.59,21.55-8.56,15.38-6.16,32.76-6.17,49.69,1.22,31.34-10.52,61.86,1.97,92.33,6.37,18.16-6.88,52.4-28.52,39.41-15.13-9.44-20.82-27.46-28.74-42.71-20.3-64.82-119.83-136.47-77.19-207.67,20.64-22.42,16.48-57.98,5.53-84.67-11.3-26.07,5.48-34.57-29.32-31.3-1.65,5.79-4.94,10.8-10.88,14.68-41.64,40.02-3.85,91.69-38,150.51-7.77,10.66-21.26,2.59-27.76-5.94-55.35-85.19,17.15-167.45-139.96-159.24,19.77,3.39,40.98,5.21,59.25,13.7Z" />
      <path class="cls-5" d="m906.5,5.85s.01-.03-.02-.02c0,0,.02.02.02.02Z" />
      <path class="cls-5" d="m906.53,5.82c3.92-.2,7.05-1.79,10.48-3.48-3.57-.4-8.25-.04-10.48,3.48Z" />
      <path class="cls-5" d="m457.45,587.15c-1.42,0-1.31,3.55-2.12,4.81.7-1.6,1.41-3.2,2.12-4.81Z" />
      <path class="cls-5"
        d="m50.63,719.92c19.36,3.34,93.97,1.81,44.51,1.05-30.51,1.03-65.88-7.85-93.37,2.63,16.32-1.17,32.62-6.57,48.85-3.68Z" />
      <path class="cls-5"
        d="m327.07,718.9c92.67,10.86,103.89,11.12,97.29-90.58,1.15-18.56,25.73-24.54,30.62-41.04-5.16,7.62-9.99,14.95-19.74,19.36-47.73,42.29,9.68,113.98-95.74,93.23-68.74-15.93-140.54-21.24-208.36,1.95,36.26-13.01,68.39.93,101.24,15.94,31.6-2.49,63.25-3.07,94.69,1.13Z" />
      <path class="cls-5" d="m457.52,587c-.1.15-.03.18.12.2-.03-.05-.12-.2-.12-.2Z" />
      <path class="cls-5" d="m528.77,432.12c-.5.4-.61,1.25-.94,1.83,1.19-1.09,3.98-2.95.94-1.83Z" />
      <path class="cls-5"
        d="m353.1,509.38c-73.22,26.15-148.5-4.55-222.72,8.56,31.81-4.69,64.85-3.18,96.81.5,55.78,13.61,108.87-10.79,164.05-11.28-12.91-1.36-25.62-.45-38.14,2.22Z" />
      <path class="cls-5"
        d="m36.03,559.1c-7.72,4.72-32.21,12.34-34.26,21.61,11.51-7.11,22.89-14.34,34.26-21.61Z" />
      <path class="cls-5"
        d="m421.85,504.06c46.19,1.13,70.25-50.53,106.88-71.97,33.55-35.11,54.08-79.63,93.27-109.71,2.48-1.81,6.62-6.12,1.16-2.7-1.36,1.16-3.99,2.32-2.51-.33.5-4.69,23-20.4,16.12-19.36-15.05,13.17-28.99,28.02-43.99,41.75-27.62,23.58-37.62,58.43-64.1,83.15-34.01,23.94-53.91,79.35-111.92,78.72-17.86-1.8-5.72-.1,5.11.45Zm130.49-105.14c12.01-25.25,33.74-54.05,57.05-69.42-9.53,13.89-25.88,24.68-34.85,39.25-7.42,9.65-13.06,23.46-22.21,30.17Z" />
      <path class="cls-5"
        d="m480.71,468.68c5.91-5.09,11.41-10.5,17.1-15.76-3.99,3.76-25.63,23.21-17.1,15.76Z" />
      <path class="cls-5" d="m795.32,196.06c-.17.46-.08.43.24.16,0,0-.24-.16-.24-.16Z" />
      <path class="cls-5"
        d="m674.01,404.05c43.1-27.63,43.93-83.96,76.3-122.3,13.24-23.67,44.74-66.25,42.31-83.17-24.39,59.53-73.85,107.64-95.12,168.37-5.13,14.21-14.59,26.44-29.11,35.68-42.43,25.34-24.56,20.2,5.62,1.42Z" />
      <path class="cls-5" d="m906.47,5.86s.02,0,.03,0c-.02-.02-.02-.02-.03,0Z" />
      <path class="cls-5" d="m824.91,98.11c.2-.38-.02-.28-.28-.22.05.04.28.22.28.22Z" />
      <path class="cls-5"
        d="m884.38,17.93c-28.09,8.36-75.61,107.14-51.19,67.53,13.7-31.53,36.35-56.5,65.94-73.79,18.13-11.71-9.43.46-14.75,6.26Z" />
      <path class="cls-4"
        d="m692.53,734.82c56.17,21.19,76.19,96.67,49.51,149.4-29.3,68.04-114.43,97.77-141.32,167.41-8.77,23.38,43.59,28.18,13.54,45.77-52,34.07-109.18-2.63-164.18-6.33-24.5-1-47.73-10.47-72.39-7.72-12.98,2.17-24.1-4.85-36.52-6.58-20.3-3.05-30.82-23.14-43.92-37.09-38.34-48.5-105.09-105.38-160.56-97.05,72.81,6.67,129.34,58.03,175.27,114.5,9.4,8.96,14.78,19.58,29.7,20.31,12.3,1.84,23.63,8.95,36.5,6.42,78.47-6.55,183.32,61.33,249.68,7.37,24.77-26.47-71-7.08,18.44-98.38,111.36-79.27,173.16-228.59,2.79-275.55,14.11,6.79,28.86,11.87,43.47,17.53Z" />
      <path class="cls-4"
        d="m1761.43,77.24c-25.12,51.62-2.47,110.47-29.75,160.83-32.79,46.95-59.63,95.94-86.42,146.17-35.45,48.07-68.41,97.9-98.34,149.99-103.53,130.27-225.71-158.84-322.22-193.66-136.13-113.4-62.39-144.76-107.82-228.74-42.49-66-152.71-100.4-212-42.84-47.41,46.64-48.06,118.44-70.51,178.95-17.79,54.56-50.52,101.95-87.91,143.74-31,37-89.7,46.58-121.05,83.61-13.24,16.61-37.42,28.42-42.96,50.02-2.58,12.62-20.93,15.47-25.67,26.87-54.15,69.27-1.93,108.78,54.58,146.32-60.32-39.34-116.17-92.02-37.65-159.57,6.03-3.2,9.48-7.47,10.51-13.33,4.89-20.74,28.47-31.94,40.8-47.76,33.11-39.69,97.17-49.82,127.83-91.68,118.81-110.37,78.7-295.12,189.99-336.49,73.97-26.91,146.81,31,175.73,99.75,10.71,29.45-6.27,62.19,13.79,89.3,26.92,48.09,54.48,95.64,104.25,120.74,99.1,45.12,191.25,308.36,310.58,183.88,30.02-52.92,59.65-105.34,97.85-152.34,26.39-37.11,38.48-79.44,67.21-115.17,18.49-24.26,35.89-52.07,37.41-83.58-1.5-69.03,16.33-135.68,57-190.61-19.66-.14-36.07,57.84-45.18,75.62Z" />
      <path class="cls-3"
        d="m867.71,1015.12c118.53-185.22,82.47-125.54,264.07-181.99,23.62-11.47,43.91-34.82,18.59-57.3-34.01-43.66-105.64-22.84-144.07-59.06-40.83-43.42-108.46-44.22-151.57-83.52-15.86-12.76-28.79-27.94-48.21-35.32-18.72-6.28-30.04-21.07-48.78-26.83-10.96-3.95-24.09-12.28-23.39-25.43,8.41-50.82-9.07-85.37,30.81-127.31,47.95-61.54,101.35-119.55,140.25-188.33,6.45-12.7,29.74-44.82,28.76-9.72-3.43,36.31,11.49,74.2-2.68,108.86-10.5,23.39-26.28,46.4-27.51,72.66-1.56,40.26,19.75,98.28,64.19,99.78,27.95-.56,55.48-8.28,83.57-5.8,87.05,6.42,77.55,99.83,124.21,152.47,64.77,75.16,98.36,94.29,7.34,5.13-8.74-9.63-17.69-23.03-22.18-32.76,20.35,18.56,35.43,42.99,64,54.77,11.19,7.6-6.04,3.81-10.27,2.35,69.85,77.44,114.71,33.11,197.93,33.9,111.16,15.21,329.93-37.45,281.09-198.27-7.67-21.42-14.8-44.16-5.36-66.5,46.51-98.42,168.52-170,160.45-291.63-4.14-25.39-13.71-50.71-11.56-76.72,2.98-27.19,13.77-53.07,27.75-76.22-10.62-2.42-12.28,9.75-17.5,17.09-72.07,154.73,72.97,136.45-112.39,342.74-171.37,165.81,11.1,139.43-72.31,266.31-82.57,96.78-211.82,73.87-321.66,77.15-24.38.87-53.54,4.85-74.39-11.27-6.53-6.65-4.38-12.45,5.92-14.27,87.34-2.82-1.66-20.5-14.03-82.51-31.08-78.35-57.12-176.94-144.85-179.22-47.45,1.3-198.73,24.89-148.24-59.54,39.38-44.14-11.36-94.69,3.73-145.02,36.85-120.42-35.68-105.78-70.92-13.64-41.48,108.86-128.37,185.5-192.64,277.45-15.35,34.38-48.97,54.66-69.67,84.71-29.54,37.11-14.14,106.93,35.93,110.78,56.19,5.45,109.83-37.33,165.67-24.64,17.11,17.58,89.25,37.2,120.91,67.31-26.21-26.85-67.19-36.82-98.13-56.69,42.24,18.96,95.7,32.67,124.25,73.09,2.55,12.07,64.37,59.18,43.61,58.14-12.96-5.05-23.44-14.3-32.89-24.14,7.6,12.27,32.33,30.6,10.84,42.46-71.5,24.06-65.99,33.14-103.41,98.37-10.32,13.19-3.61-5.12.06-12.11-50.36,91.81-110.76,177.66-197.52,234,68.77,11.39,118.21-66.86,162.24-113.76Zm376.7-408.25c1.61,14.16.19,26.72-.21,41.57-12.73-2.35-14.55,16.01-26.32,12.09-27.67-16.13-56.35-43.28-60.49-77.19.35-42.94,23.4-41.09,55.43-31.84,17.71,10.94,29.27,34.31,31.58,55.37Zm-74.85-132.38c18.73,16.82,68.98,71.24,73.01,93.5,2.49-6.92-3.21.35-7.57-9.52-6.66-14.64-27.22-19.06-33.98-33.67-.95-12.28-46.26-60.89-31.47-50.31Zm-202.63-276.3c3.34-12.56,5.47-25.34,8.58-40.13,2.14,23.37-7.32,43.14-9.77,65.72-5.22,30.29,9.97,58.55,14.94,87.69,2.88,40.54-65.16,88.14-5.37,116.29,16.01,6.94,33.9,7.81,51.16,9.07-68.19,5.62-106.83-26.59-60.76-94.77,22.84-40.01-19.27-87.92,1.22-143.87Z" />
      <path class="cls-4"
        d="m126.3,60.2c22.75-10.62,59.74-25.76,53.76-57.86,0,0-39.61,0-39.61,0C184.82,49.07,29.77,90.51,1.77,102.6c34.06.92,86.48-29.08,124.52-42.4Z" />
      <path class="cls-3"
        d="m72.74,477.04c124.29-14.83,257.97,17.63,371.56-51.65,28.79-13.78,41.97-43.78,66.42-63.46,32.51-42.53,196.23-147.18,108.39-197.48-67.28-23.32-44.05-71.69-81.67-74.92,25.2,9.21,18.24,47.64-5.2,53.8-17.67,7.81-36.59,4.47-55.38,1.52-18.91-.53-18.58-10.81-21.73-25.25-18.21,60.54-198.85,15.45-253.32,24.96-66.71,5.09-132.84,17.98-200.03,18.66,0,0,0,9.29,0,9.29,120.21-9.1,235.99-38.48,356.87-17.28-29.37,6.5-75.4-3.92-110.32-2.77,98.27,5.35,199.17,18.02,296.07-3.57,8.49-2.67,15.2,2.56,21.78,7.13,20.54,15.88,57.62,25.76,57.98,56.9-7.46,66-118.24,134.39-161.46,184.23-19.45,18.69-50.58,15.49-74.88,23.24-24.16,4.64-29.05,29.71-54.15,32.06-109.02,21.33-221.45,7.76-331.88,13.78v13.07c23.69.32,47.39.37,70.97-2.26Z" />
      <path class="cls-4"
        d="m396.1,408.87c-9.2-.72-17.54,1.83-26.02,3.86,8.87,2.15,17.35-2.43,26.02-3.86Z" />
      <path class="cls-3"
        d="m80.29,449.9c98-3,198.86,16.65,288.71-34.79-7.6-4.46-30.69,8.15-41.8,12-104.82,31.67-217.68,8.34-325.43,12.73-6.81,19.29,64.7,7.05,78.52,10.06Z" />
      <path class="cls-4" d="m410.18,406.45c.37,1.22,3.23.17,4.48.5-.37-1.22-3.23-.17-4.48-.5Z" />
      <path class="cls-4"
        d="m1979.57,805.26c-49.65,45.53-128.55,167.93-97.12,238.29,14.97,28.23,31.37,56.17,43.92,85.33,0,0,37.81,0,37.81,0-19.64-50.91-34.19-105.5-15.07-159.17,8.27-26.34,9.01-64.01,30.78-81.39,23.56-12.8,25.16,28.98,26.36,44.2,21.21,45.02,4.26-142.72,9.41-138.9-10.15,7.45-26.09,3.85-36.08,11.63Z" />
      <path class="cls-4" d="m626.07,433.88c-.31.06-.27.11-.05.28,0-.1.03-.19.05-.28Z" />
      <path class="cls-4"
        d="m833.19,85.97c-17.12,40.73-23.37,83.87-42.05,123.84-19.15,45.51-53.53,85.47-72.2,131.39-12.67,48.05-46.13,67.24-86.07,86.93-23.46,16.03,47.98-19.81,52.6-26.32,15.11-12.27,22.54-27.83,27.85-44.17,13.95-46.59,47.31-85.48,68.67-128.19,41.93-81.77,41.91-194.88,140.32-227.1-42.94,12.78-72.6,47.91-89.13,83.61Z" />
      <path class="cls-4"
        d="m1163.02,19.57c44.09,9.05,57.36,51.26,55.36,93.19,5.43,48.02,18.14,108.41,65.86,127.62,55.57,17.76,54.3-41.41,57.33-81.55,3.78-9.36,7.51,6.35,8.99,10.7,13.99,50.75,49.93,91.7,70.54,139.2,14.73,45.25,22.7,92.75,38.16,137.74,33.64,56.95,100.22-1.57,119.62-44.24,21.17-46.89,35.43-97.5,48.03-147.57,1.8-32.71-27.97-44.36-1.88-78.92,3.78-12.76,21.2-3.66,8.93,5.12-19.64,3.67-14.29,27.2-.94,36.09,61.06,74.75-118.17,383.43-199.51,229.95-11.63-50.37-22.93-122.73-38.89-21.92-8.49,54.1,49.73,83.16,91.69,98.26,85.8,25.92,172.52-213.03,224.84-269.9,43.2-61.04,13.85-143.78,51.26-208.87.18-9.41,29.34-47.16,15.69-42.12-66.05,101.33-24.39,172.85-66.86,243.91-22.14,30.82-45.49,62.53-61.66,96.85-7.48,13.16-15.14,34.47-24.86,40.48,18.27-48.98,45.53-98.24,76.36-142.13,15.64-24.99,17.7-53.92,12.93-82.28-9.7-30.87-39.23-26.13-19.29-79,13.87-27.24,31.72-52.41,48.47-77.82,0,0-20,0-20,0-11.86,17.21-24.17,33.73-39,49.12-34.96,33.43-47.09,77.46-78.77,113.22-73.6,78.49-2.38,59.52-12.31,129.83-31.71,115.61-95.51,249.14-150.35,54.6-10.19-79.51-124.59-161.98-72.61-241.46,18.5-35.76-4.94-107.86-30.47-35.34-13.64,42.81-6.89,91.94-23.92,132.66-27.52,31.47-62.8-13.61-71.27-41.27-15.88-34.19-10.38-72.29-18.49-108.01-16.91-48.91-82.41-52.24-124.6-53.36,20.34,6.43,41.13,11.41,61.62,17.22Z" />
      <path class="cls-4"
        d="m1024.25,1046.04c139.67-52.45,286.58-20.06,427.97,4.28,18.16,4.66,9.89,31.37,22.31,43.17,20.1,29.72,85.17,33.56,91.21-9.85,9.4-4.34,9.63-17.14,15.1-25.65,7.24-15.64,16.37-30.15,25.62-44.19,8.67-11.63,22.83,18.94,21.17,9.89-1.83-31.22-.04-63.53-21.47-88.77-16.93-12.82-38.95,23.53-51,34.16-187.9,116.29-350.04-118.42-719,159.79,0,0,23.56,0,23.56,0,51.24-33.58,105.59-60.64,164.53-82.84Zm502.09-15.65c2.54,1.58,4.65,4.26,4.45,7.46-.24,16.96,12.87,30.79,21.58,44.36,6.25,17.4-24.37,31.14-38.6,27.86-31.91,1.06-50.21-49.02-22.22-65.67,11.38-7.02,19.03-22.3,34.79-14.01Zm-307.91-23.98c-21.1-12.43,120.89,5.32,135.23,16.59-41.64,5.05-90.75-15.8-135.23-16.59Z" />
      <path class="cls-6"
        d="m64.94,629.52c11.25-22.59,26.16-42.4,39.48-63.77-27.84-9.49-75.01,42.34-102.65,55.45,0,0,0,52.54,0,52.54,26.57-6.32,51.77-21.51,63.17-44.22Z" />
      <path class="cls-4"
        d="m691.95,829.75c-28.72-113.31-272.93-138.9-180.32-291.51,22.87-48.39,70.19-72.59,111.05-100.47,7.41-13.14-47.08,30.05-55.44,32.96-229.77,203.71,96.76,237.99,103.04,379.27-10.52-42.69-13.65,1.17-24.29,14.8-19.6,28.34-56.83,38.59-87.57,50-132.28,37.57-174.92-69.52-282.21-108.02-37-19.6-39.58,28.76-100.2,1.3-11.88-6.48-18.43-20.91-29.97-27.26-6.6,9.26-17.04,1.29-25.59,1.21-20.09-1.94-40.07-4.56-59.86-8.48-3.45,10.26-6.73,16.01-16.61,25.05,30.24-5.1,61.25-4.16,91.77.02,29.59,4.89,51.63,27.5,84.6,20.19,17.27-1.35,29.72-16.32,47.57-9.73,93.12,24.98,144.37,113.23,243.81,128.44,64.18,12.78,191.34-19.08,180.2-107.78Z" />
      <path class="cls-4"
        d="m375.17,896.79c-26.81-22.43-51.36-46.54-83.64-60.91,36.97,27.46,68.43,62.18,110.75,81.16-9.59-6.18-18.58-12.98-27.11-20.25Z" />
      <path class="cls-4" d="m625.8,433.96c-.22.21.07.14.22.2,0,0-.22-.2-.22-.2Z" />
      <path class="cls-3"
        d="m935.31,1051.65c293.42-209.08,460.99,51.85,685.73-224.69,5.52-40.4-58.36-13.26-79.54-13.94-39.08,1.77-66.84-31.89-14.65-44.37,427.86-140.24,109.42-404.63,412.95-282.02,14,2.5,28.96,3.21,42.19-.6-8.39.08-16.43-1.08-24.59-4.68,25.63.41,45.91,8.94,52.66-18.14-4.7-116.22-105.53-115.35-117.13-175.52,1.19-25.76,14.72-48.37,25.21-71.23,18.27-43.48,36.11-94.51,25.6-141.98-7.94-23.18-18.97-46.81-15.27-72.13-22.08-4.7-11.7,39.92-7.49,54.61,21.49,57.81,8.7,121.92-18.61,175.03-34.6,68.25-21.47,81.94,34.11,122.43,26.29,16.51,95.1,102.5,44.58,120.47-30.97,10.91-60.73,2.55-89.05-12.15-283.8-91.13,95.6,208.51-445.36,317.32-17.28,9.04,1.57,27.8-9.29,40.76-17.47,34.74,102.71,22.49,118.63,14.41,94.04-14.39-37.74,66.38-59.29,76.31-271.65,124.12-334.44-83.22-675.53,217.35,36.68-27.96,74.9-52.77,114.13-77.23Z" />
      <path class="cls-4"
        d="m321.73,42.92c27.05,28.68,74.52-4.74,78.06-40.57-37.76-7.34-41.04,24.62-70.84,7.84-7.43-8.94-26.18-8.45-36.21-7.84,10.65,13.03,17.23,28.29,28.99,40.57Z" />
      <path class="cls-4"
        d="m649.08,64.12c13.92,9.15,37.54,41.47,48.6,12.86,5.54-21.73,26.33-52.95,16.47-74.63.12,1.24-32.75-2.35-27.79,1.55,10.5,16.64.97,47.89-21.5,42.84-26.3-6.11-47.87-27.03-67.63-44.38-54.78-10.18,38.67,46.02,51.84,61.77Z" />
      <path class="cls-4"
        d="m1292.07,44.97c17.02,13.64,26.79-34.19,43.64-42.62-17.05-4.13-20.02,13.58-29.35,25.19-12.38,15.6-33.67-10.66-28.71-25.19,0,0-23.86,0-23.86,0,11.58,15.73,22.45,30.88,38.28,42.63Z" />
      <path class="cls-4"
        d="m831.35,45.81c-44.12,68.55-38.87,154.63-98.21,215.3-31.98,37.56-73.96,73.05-92.42,119.72-8.97,23.93-32.75,39.1-51.62,54.47-14.31,18.25,64.42-43.1,61.44-56.16,19.26-50.23,62.61-84.61,94.09-125.79,66.14-78.05,46.94-198.09,140.8-251.01-23.23,0-40.05,27.33-54.08,43.46Z" />
      <path class="cls-4" d="m585.78,439.99c-.03-.17-.03-.26-.21-.19,0,0,.21.19.21.19Z" />
      <path class="cls-4" d="m464.63,546.59c-.08.51-.07.64.3.22,0,0-.3-.22-.3-.22Z" />
      <path class="cls-4"
        d="m39.18,708.9c70.83,3.23,122.36-53.95,189.9-60.9,21.87-1.6,31.08,22.64,52.9,24.64,75.02,23.12,84.69-54.21,136.59-83.04,10.58-3.86,25.08-5.59,31.24-15.95,4.73-8.81,13.14-16.51,14.77-26.5-15.04,19.95-21.63,30.96-47.74,33.82-21.88,6.6-39.79,24.27-54.29,41.47-6.79,10.42-20.32-3.71-30.05-2.99,45.12,51.49-58.96,66.31-65.51,12.05-1.83-6.59,1.19-12.29,8.3-15.82-6.38-3.15-26.54,14.79-39.66,11.91-68.81-11.18-108.26,69.34-175.84,72.06-12.52,5.48-58.03.49-58.03,13.01,12.45-1.43,24.91-2.65,37.4-3.74Z" />
      <path class="cls-4" d="m53.49,544.42c37.42-16.46,12.13-12.78-3.4.27.42-.31,2.37.33,3.4-.27Z" />
      <path class="cls-4"
        d="m25.71,562.9c3.43-6.06,13.07-8.48,18.58-13.21,20.25-16.45-35.99,16.68-42.52,20.47,0,0,0,7.52,0,7.52,8.1-4.72,15.93-9.87,23.94-14.77Z" />
      <path class="cls-4"
        d="m522.26,435.86c-44.14,37.95-69.25,81.4-132.59,65.45-28.79-2.47-56.34,7.68-84.4,12.67-71.63,10.83-148.31-18.78-217.78,12.13-34.75,15.2,30.09-7.88,42.89-8.16,64.01-14.14,129.46,14.6,193.03-2.1,22.41-4.78,44.69-11.5,67.83-8.68,23.1,2.14,49.18,7.77,68.14-9.57,9.78-9.06,80.39-70.96,62.87-61.73Z" />
      <path class="cls-4" d="m528.69,432.05c-.1.17-.06.15.08.07,0,0-.08-.07-.08-.07Z" />
      <path class="cls-4"
        d="m770.28,104.47c-9.1,98.83-76.44,163.84-148.29,217.9-39.31,28.6-56.51,73.52-91.62,106.3-1.79,1.98-1.73,4.58,1.46,2.48,28.48-21.97,41-56.77,67.05-81.64,73.28-68.86,156.17-116.69,175.76-228.29-6.71,57.28-34.98,107.59-74.74,148.49-4.58,4.58-2.73,7.24,1.96,2.64,89.1-73.09,62.46-192.63,136.47-270.01-43.26-4.4-58.33,67.14-68.05,102.13Z" />
      <path class="cls-4" d="m528.73,432.09c.06.07.05-.01.08-.06-.04.02-.17,0-.08.06Z" />
      <path class="cls-4" d="m474.17,569.83c-.09.58-.1.69.29.19,0,0-.29-.19-.29-.19Z" />
      <path class="cls-4"
        d="m433.81,611.14c-33.83,39.11,24.83,105.48-12.73,143.64-10.52,23.4,32.4,6.99,42.82,11.69,17.87-.07,15.83-19.59,23.2-31.4,8.32-18.7-2.94-37.43-10.63-54.08-9.77-17-2.54-35.31-5.96-53.53-3.98-19.32-.76-37.96,3.59-57.03-15.67,21.2-3.28,49.33-13.85,72.13-8.71,23.16,11.19,46.49,4.46,70.76-9.65,32.64-38.14-61.39-34.95-71.47-5.32-23.26,24.25-33.18,27.11-54.82-3.68.24-12.53,19.76-23.07,24.11Z" />
      <path class="cls-4"
        d="m573.4,422.13c28-24.15,42.19-65.85,68.91-94.86-30.77,24.44-44.65,64.22-68.91,94.86Z" />
      <path class="cls-4"
        d="m626.27,357.95c-8.97,16.8-21.74,34.7-28.5,51.11,8.25-5.15,44.68-74.28,28.5-51.11Z" />
      <path class="cls-4" d="m633.53,351.18l-.28-.23c-.3.41-.05.27.28.23Z" />
      <path class="cls-4"
        d="m693.6,276.16c-14.16,14.8-32.34,26.81-44.18,43.35,5.99-2.34,56.2-46.88,44.18-43.35Z" />
      <path class="cls-4"
        d="m486.37,544.61c.92-9.96,17.07-28.04,14.46-32.26-8.8,5.72-26.52,57.07-14.46,32.26Z" />
      <path class="cls-4" d="m502.99,511.84c-.2.23.13.14.3.2,0,0-.3-.2-.3-.2Z" />
      <path class="cls-4" d="m481.51,554.22c.05-.43.04-.51-.31-.22,0,0,.31.22.31.22Z" />
      <path class="cls-4" d="m740.41,232.37l.39.77c.33-.7.47-.9-.39-.77Z" />
      <path class="cls-4" d="m735.72,239.35c.13.82.21.71.68.16,0,0-.68-.16-.68-.16Z" />
      <path class="cls-4" d="m726.56,251.11l-.29.68c.71.05.59-.12.29-.68Z" />
      <path class="cls-4"
        d="m767.03,1079.25c68.34-60.93,112.78-141.78,155.02-223.65,5.5-6.59,8.73-16.76,18.32-17.71,24.07-21.15,99.89-23.5,65.35-59.46-52.78-70.75-47.39-73.7-128.93-109.16-53.39-38.62-113.11-5.71-167.97,11.28-21.36-3.08,17.32-14.47,22.63-16.19-54.1,18.08-114.8,10.25-109.4-65.37,4.09-53.45,64.86-75.88,83.78-122.09,48.46-72.95,116.59-132.68,159.41-210.18,25.54-33.01,55.73-164.12,107.36-134.59,19.17,22.71-.05,55.12-3.2,80.95-15.08,50.31,35.62,100.86-3.73,145.02-31.18,47.49,1.98,74.31,47.69,74.82,128.08-13.49,194.21,42.43,245.41,163.94,4.3,41.76,82.22,82.08,38.68,79.92-12.3.2-50.44,2.77-26.22,20.11,20.93,11.85,47.07,9.08,70.05,8.02,68.66-7.21,139.66,11.23,206.84-8.66,66.83-19.08,168.69-78.67,128.91-165.3-12.11-23.72-29.06-49.84-14.69-76.91,55.36-97.46,185.93-172.04,171.46-300.24-16.62-52.97-8.06-107.15,23.88-152.19-121,162.37,101.38,127-177.52,419.77-30.44,30.23-39.98,72.78-16.51,110.59,41.29,86.13-66.21,150.03-134.91,155.37-.38-4.64,7.27-5.42,6.27-10.65-6.9-2.1-14.58-.92-21.64-.46-338.85,41.87-198.43-226.5-442.31-248.52-60.8,3.75-152.87,1.7-89.08-85.98,22.81-34.97-14.09-70.69-10.12-107.66.32-28.66,14.99-54.66,17.1-82.88,1.6-46.32-51.41-40.8-66.7-7.59-51.58,110.7-110.04,216.59-198.39,299.66-20.42,18.04-26.87,43.28-49.94,58.3-26.08,16.49-36.63,44.45-55.17,68-15.37,17.18-9.12,40.07-9.98,61.2,5.58,33.94,40.49,53.21,70.38,59.85,42.94,4.17,79.07-30.57,122.56-33.43,42.51-9.57,161.79,48.35,165.33,99.63,2.11,10.11-.67,19.44-11.74,23-56.74,24.11-40.57-2.61-73.43-39.06-99.17-85.71-11.05,108.79-124.56,180.51-9.71,2.78-2.34-12.5-1.76-17.37,41-93.46-2.27-171.95-96.14-189.5-46.03-18.41-96.88-49.1-112.78-100.65-.55-18.63,11.12-35.08,18.75-51.53,4.5-14.3,28.39-15.28,29.46-30.76,68.32-110.32,145.08-84.74,219.88-221.24,61.57-82.38,50.11-294.4,194.2-243.41,51.23,21.89,53.77,72.11,29.98,118.08-9.62,17.73-5.94,57.72,20.9,46.23,58.59-28.01,78.42,87.86,123.13,109.67,86.24,43.31,141.54,120.25,206.41,190.54,33.5,40.65,63.1,70.65,116.95,49.65,60.44-19.34,63.38-89.87,101.08-134.23,48.65-55.94,76.28-125.83,120.22-185.24,54.2-81.01,4.36-166.23,86.96-259.89,0,0-7.94,0-7.94,0-40.78,55.01-58.39,121.51-56.99,190.62-1.57,31.55-18.92,59.3-37.42,83.58-28.74,35.74-40.81,78.05-67.21,115.17-19.99,28.21-43.01,55.47-60.12,85.58-119.83,267.34-241.22-76.49-376.57-136.25-36.8-24.82-52.67-65.08-75.98-101.62-13.23-18.94-10.71-39.89-10.01-61.52-6.52-110.25-164.93-186.77-232.16-87.24-42.47,68.01-38.69,154.79-83.38,222.3-31.75,49.17-64.33,99.39-120.37,122.43-37.34,14.29-59.2,42.58-87.41,68.27-7.46,6.59-13.24,13.68-14.81,22.65-1.03,5.86-4.48,10.13-10.51,13.34-92.32,75.2,2.48,147.64,75.39,177.64,170.24,50.24,110.12,193.87-2.8,275.54-104.58,102.59,49.03,70.96-46.77,113.82-24.63,9.52-53.1,8.93-78.12.25-37.81-12.78-78.58-14.04-117.39-21.99-15.43-4.73-32.54,2.68-47.8-3.56-18.72-4.71-32.02-6.92-44.23-24.25-44.04-51.26-96.07-106.82-165.33-111.53,74.61,27.61,112.81,107.39,181.09,145.21,19.35,8.97,38.75,21.59,51.33,38.09,61.2-11.63,354.33,33.44,387.99-48.91Z" />
      <path class="cls-6"
        d="m88.73,86.57c33.44-13.85,71.51-23.33,98.98-48.06,16.27-17.88,21.11-42.12-7.65-36.16C184.15,63.13,44.68,86.69,1.78,106.21c0,0,0,10.08,0,10.08,29.41-8.46,58.18-19.35,86.96-29.72Z" />
      <path class="cls-5"
        d="m98.34,464.49c85.13-10.44,186.67,20.7,262.82-27.36,24.51-30.55,74.68-13.89,101.52-39.99,35.2-45.65,228.96-166.42,135.67-221.42-66.69-44.65-42.12-19.32-110.36-17.83-80.1,4.91-159.63,1.27-239.67-5.45-48.34-6.09-93.69,10.44-141.25,14.01-35.53.46-67.13,3.05-105.29,6.05.25,1.87-1.57,8.88,2.23,6.84,39.42-5.49,79.42-5.35,119.13-6.96,137.89-39.83,282.63,21.95,420.35-22.38,21.39-.94,49.36,31.88,49.42,53.52,4.29,30.89-204.04-20.3-233.12-20.54-62.8-8.35-130.78-21.5-192.81-3.92-42.66,13.68-88.6.57-132.53,5.21-49.52-.93-28.61,21.02-32.68,58.82,36.65-6.77,76.12-1.22,109.13,16.35,13.47,10.79,99.93,39.69,67.66,61.6-53.23,33.49-117.59.87-173.66,17.42-7.04-3.95-1.39,100.36-3.13,101.39,125.37,5.7,285.62,5.78,354.38-19.82-109.08,55.17-235.57,22.28-352.82,29.04-3.6-2.46-.62,16.53-1.56,17.17,32.21.28,64.39.46,96.57-1.74Zm311.84-57.54c.36-1.22,3.23-.17,4.47-.5-.36,1.22-3.23.17-4.47.5Zm-40.1,5.78c8.47-2.03,16.82-4.58,26.02-3.86-8.67,1.43-17.14,6.01-26.02,3.86Z" />
      <path class="cls-6"
        d="m94.73,65.95c18.5-9.66,40.81-17.98,51.96-36.85C175.13-21.32,12.85,11.02,1.77,2.34c2.43,2.31-5.48,49.42,4.92,41.94,37.59-.59,14.16,20.42-4.92,29.03,0,0,0,29.3,0,29.3,31.75-10,63.2-22.45,92.96-36.65Z" />
      <path class="cls-6"
        d="m2006.24,932.53c-3.94,25.08-13.28,31.14-32.04,3.92-2.98-5.53-12-7.06-11.59-13.53-29.37,76.32-29.39,130.47,1.57,205.97,0,0,13.41,0,13.41,0-10.15-28.84-29.67-71.62-19.86-98.97,5.42,18.31,8.74,37.24,16.39,55.24,5.89,14.92,5.16,31.21,15.99,43.73,0,0,25.53,0,25.53,0v-10.64c-9.55-13.51,14.1-173.34-9.4-185.72Z" />
      <path class="cls-6"
        d="m1351.59,1101.69c-94.1-30.2-192.14-17.51-287.95-4.53-17.85,1.43-121.77,32.29-87.89,31.72,84.17-36.2,350.4-69.02,417.45-.01,12.74-2.68-28.89-26.61-41.61-27.18Z" />
      <path class="cls-3"
        d="m1954.33,704.69c-79.7,23.44-10.45,85.41-52.49,146.44-48.4,132.64-170.63,175.42-95.09,227.22,17.63,15.31,36.38,30.58,49.15,50.54,36.02-5.27,76.85,20.3,38.77-38.34-36.81-54.75-49.32-80.54-14.68-142.07,133.32-294.32,142.17-41.47,135.66-282.97-22.28,11.26-38.51,28.84-61.32,39.18Zm32.54,28.96c10.82,7.6-33.1,32.26-32.94,47.89-23.18,62.06-60.5,116.67-90.28,175.32-49.06,71.02-13.79,82.08,16.36,144.49,7.15,16.09.17,22.76-11.34,9.53-133.22-109.29-36.32-92.97,16.47-216.29,74.84-113.46,15.64-156.06,101.73-160.94Z" />
      <path class="cls-6"
        d="m1382.08,31.29c7.99,9.19,3.75-23.9,6.79-28.94,0,0-12.58,0-12.58,0,.83,9.92.93,19.95,5.79,28.94Z" />
      <path class="cls-3"
        d="m1915.97,639.26c-19.21-10.14-42.29-11.51-56.86,6.79-18.78,24.78-44.02,48.72-48.85,80.78-4.52,39.27,4.64,82.78-32.01,108.77-3.29,3.51-5.3.33-4.59-4.17.24-26.85-1.93-54.06-15.58-77.67-4.26-7-6.41-14.59-6.54-22.45-1.56-8.67,3.65-19.07-2.68-25.99-25.08,11.37-41.58,43.26-27.46,70.8,9.07,26.34-6.81,52-23.64,71.25-11.21,12.34-30.51,13.59-45.07,19.98-19.55,8.35-42.05,27.62-39.26,51.05,7.65,33.71,15.71,67.03,32.49,97.46-2.83,36.49-20.79,67.45-58.05,72.07-35.07,22.64-70.65,63.4-111.91,22.92-17.03-12.39-20.35-38.91-43.65-41.04-66.21-5.43-129.85-27.21-196.34-29.47-86.12,1.21-175.27,10.8-255.8,44.35-19.89,8.88-113.29,48.78-68.87,44.18,120.69-67.87,265.76-96.09,400.43-68.91,54.65,18.45,130.74,5.46,160,68.91,22.94-2.61,91.03,10.09,103.51-20.53,30.94-27.87,59.88-19.78,75.79-70.94,7.15-20.77,35.8-20.02,49.57-33.4,37.83-26.86,68-66.15,74.26-114.28,13.7-37.78,65.36-62.12,60.04-109.56-6.74-49.74,6.86-122.82,66.88-121.21,33.4,6.98,65.73-.31,97.28-12.1,6.91-3.61,19.19-1.53,16.57-12.71-32.04,8.27-68.04,20.13-99.67,5.1Zm-226.42,228.22c10.49,8.47,21.96,19.31,19.04,33.68-3.08,18.45-.96,38.96-24.24,44.21-26.83,7.18-49.05,2.89-54.35-29.45-6.77-14.93,20.27-15.89,18.86-29.41.39-12.1,32.03-25.89,40.68-19.03Z" />
      <path class="cls-3"
        d="m939.64,1016.01c39.31-31.52,74.45-65.99,121.96-85.05,3.26-1.51,18.53-7.29,8.47-11.04-1.73-.66-4.79.42-5.35-2.48,53.52-46.09,487.67,25.2,239.92-76.99-96.26-28.22-146.76-143.95-245.47-154.15-15.75,3.42-32.22,2.61-46.75-4.84-28.57-14.23-61.57-20.04-91.3-31.74-56.17-15.73-71.51-73.11-102.87-117.13-10.06-12.55-16.62-26.35-21.91-40.62-7.65-53.63,64.01,91.81,69.5,100.38,30.27,50.97,103.96,70.04,153.01,39.82,15.72-10.2,29.17-31.17,49.48-28.08,80.11,37.58,118.96,150.38,211.84,167.66,37.43,8.74,73.51-8.56,108.83-19.37,116.54-20.82,195.6-4.37,298.61-93.1,130.83-99.47-47.63-281.22,200.48-220.16.55-4.75,5.04-7.68,10.16-10.28,10.88-9.76-3.95-26.08-10.29-35.06-15.41-28.04-77.46-44.55-66.74-81.24,117.54-205.51,18.22-150.24,49.83-288.5,2.86-11.26,14.51-23.37,4.75-21.69-66.41,136.7,68.89,106.62-68.94,318.61-9.33,14.83-.35,27.6,12.89,33.89,27.58,15.37,84.36,63.66,15.48,57.19-248.51,11.86,120.42,297.93-458.27,333.81-199.64,107.36-254.13-279.53-359.12-146.12-11.3,13.34-21.89,26.69-39.93,30.19-65.27,17.95-111.97-40.56-132.77-99.11-15.76-33.65-41.32-66.51-43.04-104.92-.02-3.44-1.65-7.98-5.84-6.33-34.18,20.51-28.32,61.01-8.97,90.85,10.28,26.16,38.11,43.47,49.32,69.03,32.34,79.89,118.9,79.42,182.21,115.3,23.07,12.77,51.43-2.65,74.61,8.89,76.39,33.43,126.28,106.68,201.93,143.52,76.13,45.92-33.75,38.97-63.66,34.77-54.62-6.67-108.35,9.42-161.95,18.1-52.47,8.43-88.53,49.9-123.34,88.63-46.24,53.04-103.77,95.35-157.12,140.25,52.69-26.54,101.44-76.32,150.36-112.88Z" />
      <path class="cls-6"
        d="m101.39,819.44c44.06-11.44,87,11.84,130.91,2.81,98.94.15,152.8,113.38,251.09,130.14,33.72,11.29,71.16,18.96,104.42,1.94,53.6-23.1,131.12-48.58,128.9-123.02-3.86-103.63-129.38-106.8-181.92-174.24-80.02-80.94,65.01-191.54,128.58-224.81,4.8-.73,11.77-7.18,2.54-4.16-64.99,32.8-127.14,79.52-155.86,151.92-32.76,130.02,195.97,129.14,194.13,251.53.91,37.77-25.33,66.16-57.95,81.13-104.76,62.19-220.39,6.19-303.03-68.12-101.57-76.67-108.77,4.96-182.56-38.67-51.37-15.57-106.24,7.03-158.88,4.75,0,0,0,28.07,0,28.07,32.36-9.44,66.54-12.76,99.61-19.25Z" />
      <path class="cls-6" d="m671.33,427.02c-.22.28.05.23.19.17-.04-.03-.19-.17-.19-.17Z" />
      <path class="cls-3"
        d="m867.67,61.18c-51.7,128.61-80.57,311.6-181.35,360.79,173.91-73.6,95.33-384.53,288.02-408.43,62.75-6.26,145.08,21.18,174.25,83.75,5.33,15.17,5.64,31.44,8.62,47.18,8.23,33.98-10.21,69,10.6,100.2,25.22,53.33,70.15,88.25,121.15,115.38,47.8,35.84,58.35,100.71,105.77,138.66,35.94,26.41,82.08,75.96,128.31,48.36,11.64-3.25,39.42-40.91,27.78-32.97-30.64,47.94-75.17,37.79-114.33,8.7-55.33-30.51-82.06-80.23-105.86-136.16-2.18-14.48-49.48-41.01-36.18-37.99,10.65,4.35,20.07,11.62,29.12,18.54,11.63,4.08,30.35,45.49,38.81,31.45,26.88-97.3-105.03-61.73-151.23-151-36.22-47.62-7.37-157.07-49.3-192.19-81.16-60.91-225.82-86.68-294.17,5.73Zm-4.17,14.9c-.46-1.64.19-2.79,2.08-3.4.04,1.42.5,3.01-2.08,3.4Zm3.88-4.79c-1.41,1.01-.91.32-.23-.77.09.27.34.69.23.77ZM985.13,4.12c6.21-2.18,9.93-1.78,13.44,0h-13.44Z" />
      <path class="cls-6" d="m671.51,427.2c.21-.17-.05-.17-.18-.17.02.02.15.14.18.17Z" />
      <path class="cls-6" d="m1555.63,511.09c.13.02.26.04.4.07-.1-.04-.34-.37-.4-.07Z" />
      <path class="cls-3"
        d="m74.32,693.46c49.43-9.02,77.75-54.92,126.03-64.46,17.4-5.84,38.09,3.94,53.8-5.73,11.82-8.51,26.67-11.09,39.55-17.1,11.09-6.64,19.82,3.57,30.97,3.96,8.99,1.1,17.87,2.37,26.11,5.88,9.64,4.24,11.7-15.18,22.01-19.55,24.68-31.18,53.37-21.49,76.17-42.89,15.66-22.44,30.04-45.4,44.11-69.24-39.68,35.82-38.67,51.99-96.26,40.82-28.1-4.12-55.27,3.61-82.94,7.35-77.75,6.97-161.01-31.79-234.32,9.96-14.54,8.86-83.93,41.64-77.8,56.61,89.03-72.99,164.6-85.74,272.75-57.24,28.13,5.02,56.51-.78,84.45-4.59,16.04-3.2,125.36-.2,66.34,21.08-40.78,2.66-62.71,43.75-84.91,37.72-26.26-11.38-55.35-10.02-79.74,5.51-32.68,13.06-66.61-7.71-99.46,20.63-45.37,44.66-94.93,75.56-159.44,76.31-3.84,14.12,62.43-3.98,72.55-5.04Z" />
      <path class="cls-3"
        d="m1709.08,54.72c-16.06,23.27-33.32,61.75-7.68,84.19,7.73,5.39,10.91,12.47,12.61,20.26,4.78,28.36,2.7,57.29-12.93,82.28-14.2,13.46-93.01,159.63-67.48,131.85,18.2-33.06,33.07-66.49,56.11-97,68.77-69.52,23.09-183.49,88.4-273.96-47.61-6.67-43.55,17.7-69.03,52.38Z" />
      <path class="cls-6"
        d="m6.56,291.24c2.92-4.04-.47-7.59-4.78-9.04,1.26,4.02-3.33,22.43,4.78,9.04Z" />
      <path class="cls-6"
        d="m2009.32,575.86c-12.85,4.58-1.37,12.87,6.33,14.24-1.3-5.47,4.21-20.95-6.33-14.24Z" />
      <path class="cls-6"
        d="m2015.64,46.11c1.29-7.85-2.52-14.97-6.15-21.39-5.57-6.55-5.15-23.69-14-22.38,4.66,15.28,13.37,29.39,20.15,43.77Z" />
      <path class="cls-6" d="m1557.63,506.66c0-.25-.02-.28-.23-.16,0,0,.23.16.23.16Z" />
      <path class="cls-6"
        d="m1557.62,506.4c3.66-1.54,4.98-3.98,4.27-7.19-2.31,2.05-4.46,4.16-4.27,7.19Z" />
      <path class="cls-6" d="m1561.89,499.2c.34-.22.18-.29-.09-.44.04.15.05.29.09.44Z" />
      <path class="cls-6" d="m1631.88,398.14c.25,1.18.38.07.49-.55-.17.18-.45.35-.49.55Z" />
      <path class="cls-6" d="m1622.45,411.17c.26.78.3.7.66.03,0,0-.66-.03-.66-.03Z" />
      <path class="cls-6" d="m1594.42,447.75c-.12.09-.42.19-.17.26,2.5,2.01.79-3.31.17-.26Z" />
      <path class="cls-6" d="m1594.11,447.92s.32-.17.32-.17c-.06.02-.42.23-.32.17Z" />
      <path class="cls-6" d="m1594.13,447.94c.09-.06.18-.12.29-.19,0,.02-.41.18-.29.19Z" />
      <path class="cls-6"
        d="m1594.13,447.94c-1.49,1.02.94,1.64,1.74,1.25-.57-.42-1.15-.84-1.74-1.25Z" />
      <path class="cls-6" d="m1582.85,464.65c.63-.21,1.27-.42,1.9-.64-.53.18-1.92.52-1.9.64Z" />
      <path class="cls-6" d="m1582.85,464.59c-.27.72-.12,1.63-.24,2.38.08-.79.16-1.59.24-2.38Z" />
      <path class="cls-6" d="m1578.11,475.57c.05-.24-.08-.5-.21-1.02-.34.89-.69,1.53.21,1.02Z" />
      <path class="cls-6" d="m1572.5,481.55c-.01.67.11.93.83.86.64-.94-.09-.76-.83-.86Z" />
      <path class="cls-6" d="m1565.94,489.87c1.12.66,1.94.86,2.8-.41-.64-.19-3.3.05-2.8.41Z" />
      <path class="cls-6" d="m1565.64,489.74s-.02-.01-.04-.02c0,.03.02.02.04.02Z" />
      <path class="cls-6" d="m1565.6,489.75s0-.02,0-.02c0,0,0,.02,0,.02Z" />
      <path class="cls-6" d="m1563.35,493.74s.13.12.16.15c.6-.32.35-.25-.16-.15Z" />
      <path class="cls-6" d="m1565.61,489.72c.42,1.6-.11,2.94-1.66,3.9,2.89-.43,2.53-1.23,1.66-3.9Z" />
      <path class="cls-6" d="m1563.37,493.79c.12.41.32.21.01-.02-.06-.06-.02-.01-.01.02Z" />
      <path class="cls-6" d="m1562.14,498.98c.18-.45.01-.32-.33-.22,0,0,.34.22.33.22Z" />
      <path class="cls-6" d="m1557.63,506.66s-.23-.16-.23-.16c.04.18.06.25.23.16Z" />
      <path class="cls-6"
        d="m1555.83,510.81c1.45-1.13,2.17-2.45,1.63-4.09-2.74.85-2.52,2.4-1.63,4.09Z" />
      <path class="cls-6" d="m1555.72,510.94c.06.04.29.21.31.23-.09-.17-.22-.49-.31-.23Z" />
      <path class="cls-6"
        d="m1773.36,75.36c-22.3,42.55-12.95,89.37-21.09,134.74-6.39,30.21-27.46,55.93-45.05,80.51-36.29,73.3-87.9,134.81-128.51,204.63-89.07,199.94-194.29,33.22-280-66.03-38.1-53.04-115.86-68.93-150.38-125.19-14.81-27.99-32.51-55.56-58.26-74.41-9.41-7.17-20.61-2.84-30.28,2.25-14.36,7.83-24.95-5.95-25.89-19.57-.62-25.1,15.96-47.21,19.74-71.49,2.47-109.49-155.92-110.37-179.21,13.61-26.68,112.37-82.85,230.16-183.15,285.12-36.92,16.96-58.83,44.8-85.13,72.83-16.36,13.67-5.63,27.25-23.06,34.31-20.33,9.16-25.65,33.53-34.23,52.55-10.17,26.98,15.56,48.83,31.37,66.56,62.51,69.25,199.28,47.82,190.45,177.43,6.53,17.74-41.15,105.46-1.91,70.54,48.65-43.72,58.36-109.63,58.6-173.42,9.47-46.56,61.02.65,71.05,24.62,7.46,10.6,11.89,30.44,28.14,24.61,15.51-5.58,46.86-7.21,40.48-31.99-10.99-57.61-80.34-74.85-124.89-97.04-67.77-24.8-131.45,61.14-196.33,18.53-33.11-17.4-40.8-47.09-37.34-83.37,2.48-25.2,26.43-43.16,37.1-65.13,11.97-21.47,40.93-32.2,52.88-54,7.14-11.52,14.7-22.83,25.4-32.55,54.18-54.11,101.69-115.68,140.91-181.98,29.37-39.64,50.09-172.37,114.49-137.27,30.05,35.02-24.08,94.73-3.22,140.76,6.47,25.34,23.24,52.05,5.93,76.95-46.43,62.85-10.85,88.95,52.39,86.58,298.21-8.57,112.2,295.21,500.64,248.38-30.75,38.85,148.38-31.16,138.21-105.97-.42-39.53-39.46-74.73-16.66-114.75,52.14-85.89,146.88-148.54,171.54-251.78,7.3-66.07-30.33-114.84,11.85-179.69,26.24-37.48.57-18.48-25.37-22.9-16.99,22.18-30.11,47.67-41.19,73.02Z" />
      <path class="cls-4"
        d="m1400,54.3c7.71,43.92-18.51,61.3-21.12,94.96-.44,41.18,61,139.53,104.74,114.71,15.96-14.75,10.7-39.81,14.16-59.74,0-40.71,52.39-46.22,76.16-69.35,43.39-44.16,95.77-82.54,133.16-132.53,0,0-307.33,0-307.33,0-1.99,17.31-1.69,34.64.24,51.95Z" />
      <path class="cls-3"
        d="m342.68,1098.6c-97.4-44.74-177.11-222.16-298.29-138.71-50.27,41.17,5.54,108.93,5.99,161.32-12.77,18.95,328.17,2.39,328.67,7.69-9.91-11.75-21.09-22.61-36.36-30.3Z" />
      <path class="cls-6"
        d="m1353.96,1103.43c-103.58-22.51-213.79-13.53-317.33,5-263.53,33.62,520.17,38.1,317.33-5Z" />
      <path class="cls-6"
        d="m631.28,15.53c12.58,4.11,25.43-.25,26.22-13.19h-52.87c8.21,5.55,16.78,9.96,26.65,13.19Z" />
      <path class="cls-6"
        d="m243.54,60.24c-26.23,47.47,51.03,37.54,76.18,38.67,54.29,1.95,90.73-44.36,100.96-96.56-24.41-1.16-19.38-1.54-27.52,21.38-14.66,53.69-110.46,83.68-120.19,11.04-7.52-20.04-8.59-36.98-33.03-32.42,9.88,18.11,11.69,37.32,3.59,57.89Z" />
      <path class="cls-6" d="m737.29,197.29c.12-.38.04-.34-.25-.18,0,0,.25.18.25.18Z" />
      <path class="cls-6"
        d="m765.97,85.86c-7.72,35.64-10.27,71.89-27.01,104.88-4.23,11.05,3.89,2.37,4.95-3.06,26.94-61.2,19.13-134.47,66.94-185.33-24.71,6.34-38.7,58.97-44.89,83.51Z" />
      <path class="cls-6"
        d="m26.3,54.51c4.51-12.09-17.74-9.94-24.52-9.99,0,0,0,28.78,0,28.78,9.12-4.79,18.78-9.86,24.53-18.79Z" />
      <path class="cls-3"
        d="m44.4,718.09c34.72,6.34,72.47-3.93,104.75,14.37,33.21,7.39,58.11-17.3,97.86,11.26,32.94,19.91,74.26,26.65,105.8,48.53,34.98,20.62,63.04,47.84,100.64,64.14,35.75,18.55,160.54,30,128.49-44.33-11.95-36.24-25.68-70.51-54.38-96.6-22.79-22.63-32.8-49.41-44.5-77.28,7.64,73.26,84.58,89.7,62.23,171.15-30.4,71.98-127.17.91-169.59-24.91-44.03-27.4-93.96-48.73-143.34-66.65-26.61-9.19-50.2-27.03-79.79-20.1-49.51,13.05-100.16,14.07-150.81,19.02-2.76,13.02,33.89-3.03,42.63,1.4Z" />
      <path class="cls-3"
        d="m107.67,884.88c170.64-25.64,139.31,82.76,249.4,115.46,62.88,26.1,107.5,59.57,178.87,37.23,105.9-26.65,319.59-209.71,151.87-300.92,26.67,15.24,47.27,39.89,53.31,71.83,22.7,99.52-84.35,146.26-147.42,192.22-42.48,28.31-98.75,14.28-146.19,9.91-147.61-15.1-127.62-96.92-228.73-139.01-45.72-19.57-222.75-3.21-217.02,62.47,28.9-25.22,63.41-42.78,105.91-49.2Z" />
      <path class="cls-6" d="m687.57,736.63c.21.03.28.06.19-.18,0,0-.19.18-.19.18Z" />
      <path class="cls-6"
        d="m13.37,1084.1c-3.54-9.98-7.52-19.85-11.6-29.69-3.22,23.23,7.18,52.19,4.4,74.48,0,0,14.31,0,14.31,0,1.06-15.21-1.92-30.15-7.11-44.78Z" />
      <path class="cls-6"
        d="m34.45,184.26c43.92-4.64,89.88,8.48,132.53-5.19,16.44-5.88,33.72-8.38,51.84-8.23,121.29-.74,239.24,34.74,359.74,43.77,16.8,1.41,16.69-15.94,10.84-27.15-33.76-53.59-45.45-34.11-94.79-26.45-113.47,23.36-230.59-23.34-342.69,6.32-48.93,11.46-100.66,3.27-150.15,12.3,0,0,0,9.22,0,9.22,10.85-1.67,21.72-4.18,32.68-4.58Z" />
      <path class="cls-6"
        d="m931.5,983.94c69.74-122.69,211.51-98.93,323.35-132.23,3.58-11.88-12.25-22.31-19.57-30.12-54.96-47.11-108.3-113.37-186.2-104.31-34.88-.41-56.11-32.49-89.52-40.69-112.83-28.82-100.81-71.05-176.46-121.09-7-4.19-14.82-10.05-17.11-17.96-24.49-70.06-22.46-88.37,26.05-144.64,6.17-16.59-30.27,34.38-34.25,40.73-25.55,31.72-9.06,70.54-7.05,106.9.87,18.88,25.31,22.56,37.51,31.97,15.52,11.27,31.28,22.23,45.32,35.37,45.03,58.93,123.43,58.17,176.37,103.46,38.49,29.08,97.84,6.94,135.31,40.96,15.9,14.09,96.24,69.73,61.45,86.91-52.91,21.03-109.05,31.06-164.8,40.7-59.45,8.91-92.77,60.84-126.4,107.38-39.02,54.84-94.38,98.75-145.66,141.6,59.27-32.89,116.45-92.04,161.66-144.95Z" />
      <path class="cls-6" d="m793.39,386.75c.11.08.19.41.29.24.03.02-.29-.24-.29-.24Z" />
      <path class="cls-6"
        d="m1948.77,742.39c-11.67,5.43-16.47,19.06-17.24,31.37-11.05,90.73-74.22,166.33-124.93,237.5-24.82,45.02,40.25,70.28,62.07,99.63,29.61,25.79,4.22-30.5-5.24-40.49-34.76-40.29-28.21-71.99.23-113.54,29.78-58.64,67.1-113.25,90.28-175.31-1.38-14.13,49.45-45.23,30.65-48.26-12.7,1.01-24.82,3.71-35.82,9.1Z" />
      <path class="cls-3"
        d="m882.93,529.87c74.43,116.44,151.82-116.1,253.13,69.79-43.69-103.3-102.3-87.72-187.22-52.12-33.03,9.65-54.39-21.36-66.76-48.79-26.72-45.66-7.56-96.21,15.19-139.76,25.62-34.68,32-77.04,24.59-119.84-2.51-29.76-71.49,86.25-84.35,93.52-10.01,22.31,54.67-62.44,64.8-67.92,8.36-5.73,9.35,8.08,9.93,13.77-12.92,105.4-110.06,124.04-29.31,251.36Z" />
      <path class="cls-6" d="m1137.32,606.85c-.23-.54-.21-.04-.37.25,0,0,.37-.25.37-.25Z" />
      <path class="cls-6"
        d="m815.09,290.88c35.82-70.04,31.45-158.91,83.63-219.44,75.96-83.72,264.59-7.9,237.8,123.64-2.14,59.54,64.16,133.72,112.63,159.27,80.87,39.32,185.98,286.28,288.73,190.07-83.72,62.66-178.53-75.3-223.3-140.3-55.02-71.82-155.6-84.7-170.65-201.84,31.62-141.59-143.4-221.94-238.54-143.82-46.56,39.49-50.83,101.94-68.45,157.57.28,10.12-34.12,93.63-21.85,74.85Z" />
      <path class="cls-6" d="m810.61,296.08l.24.17c.05-.25-.04-.22-.24-.17Z" />
      <path class="cls-6" d="m1538.09,542.57c-.04.28,0,.35.23.17,0,0-.23-.17-.23-.17Z" />
      <path class="cls-4"
        d="m1212.83,551.51c-15.05-4.31-45.07-12.49-51.51,7.95-6.79,20.34-4.17,40.9,9.42,57.36,11.79,14.01,42.91,60.25,61.66,36.34,2.43-3.61,6.16-4.71,11.81-4.71,3.42-35.44.09-76.98-31.37-96.94Z" />
      <path class="cls-6"
        d="m33.46,804.23c12.66-2,38.82-34.39,23.59-42.29-16.44-5.31-10.69-29.89-31.23-27.3-8.17-.02-15.98.2-24.05.07,0,0,0,71.6,0,71.6,10.13,1.84,20.7.78,31.69-2.08Z" />
      <path class="cls-6"
        d="m476.86,144.85c91.7,25.81,107.23-76.61,9.68-63.82-30,2.52-47.95,61.61-9.68,63.82Z" />
      <path class="cls-6"
        d="m41.11,547.86c101.67-67.03,204.62-11,312.19-44.09,39.59-9.51,87.1,15.04,118.12-22.32,6.82-5.87,46.04-42.06,26.39-28.53-62.09,66.16-70.84,36.69-144.42,45.3-134.68,34.7-217.97-25.41-351.62,64.51,0-.01,0,7.44,0,7.44,13.15-7.32,26.06-15.08,39.34-22.3Z" />
      <path class="cls-6" d="m74.24,532.78c-.19.01-.32.16-.46.29,0,0,.46-.29.46-.29Z" />
      <path class="cls-6" d="m50.52,544.32c-.14.13-.29.25-.43.38,0,0,.47-.39.43-.38Z" />
      <path class="cls-6"
        d="m1659.66,873.64c-15.28,5.76-7.22,23.63-24.74,28.55-12.79,8.15-.47,24.26,3.05,34.93,8.61,15.38,32.08,11.12,46.4,8.26,25.12-5.82,21.09-29.45,24.92-49.35-1.4-12.31-10.03-20.85-19.73-28.54-8.99-6.86-20.74,3.31-29.9,6.15Z" />
      <path class="cls-6"
        d="m857.64,48.05c-42.7,52.42-42.12,123.37-75.65,181.4-21.36,42.71-54.72,81.61-68.67,128.19-5.31,16.34-12.74,31.9-27.85,44.17,47.33-8.68,63.38-90.58,88.92-134,54.04-90.43,45.26-224.4,155.23-265.46-28.88,3.45-53.99,26.26-71.98,45.7Z" />
      <path class="cls-6"
        d="m170.51,750.73c-10.36,9.67-13.35,26.68-.04,34.52,13.67,21.2,41.87,34.53,65.09,22.05,43.74-25.55-25.5-85.03-65.05-56.57Z" />
      <path class="cls-6"
        d="m1502.44,1034.86c-5.91,10.65-26.45,13.38-23.18,29.07-9.79,43.48,49.52,63.02,72.37,29.19,8.8-15.37-24.94-35.08-20.82-55.26-.58-13.13-24.13-11.19-28.36-3Z" />
      <path class="cls-3"
        d="m1277.46,10.56c.36,9.5,7,16.18,16.6,20.98,14.91,5.05,19.98-20.23,28.77-29.18,0,0-45.2,0-45.2,0-.22,2.74-.28,5.49-.18,8.21Z" />
      <path class="cls-6"
        d="m266.99,631.49c2.2,36.67,69.46,48.86,76.12,13.93.6-16.17-5.81-26.03-19.09-29.94-9.82-1.29-15.92-12.63-25.78-9.81-10.57,5.9-35.09,8.84-31.24,25.82Z" />
      <path class="cls-3"
        d="m318.66,1008.6c-22.36-.99-3.41,22.05,3.09,30.99,3.05,8.14,10.99,12.89,17.64,18.69,1.09,5.07,5.24,5.62,10.47,5.68,39.03,10.36,58.07,4.83,24.45-35.18-9.75-10.83-25.31-11.9-38.73-15.67-5.25-3.08-10.78-5.08-16.92-4.5Z" />
      <path class="cls-6"
        d="m1717.14,496.69c18.08,53.47,4.49,107.64-31.78,146.98,94.49-79.15-6.32-162.17,65.15-217.38,96.57-59.88,15.2-36.47,25.07-72.69,1.87-12.01,57.29-87.15,38.53-68.68-10.98,23.64-64.89,73.49-50.88,97.47,4.64,4.5,10.07,10.26,4.72,16.38-25.06,26.89-63.37,54.18-50.8,97.93Z" />
      <path class="cls-6" d="m1820.67,279.28c-.23.24.12.18.29.21,0,0-.29-.21-.29-.21Z" />
      <path class="cls-6"
        d="m1606.47,1013.81c-9.25,14.03-18.38,28.56-25.63,44.19-5.41,8.54-5.77,21.29-15.09,25.65,1.72,8.36-5.5,14.89-10.61,21.3-1.91,11.33,13.72-6.31,17.62-9.7,10.99-13.44,32.96-12.97,44.1-26.39,8.22-11.95,18.09-26.65,11.24-41.3-3.81-6.57-13.07-21.57-21.63-13.74Z" />
      <path class="cls-6"
        d="m660.93,172.59c-4.89-20.86,1.2-49.3-21.25-59.62-11.82-5.34-42.12-30.78-45.08-5.55.57,15.25,10.23,24.81,19.3,35.29,5.77,9.56,20.06,5.73,27.72,12.79,12.86,8.4,13.01,21.86,15.6,35.31,6.4.25,3.54-13.18,3.72-18.21Z" />
      <path class="cls-6"
        d="m2003.96,181.67c-8.53-1.08-33.1,10.31-18.46,18.46,10.14,1.29,13.86,12,23.91,10.95,11.85,6.58,4.15-30.32,6.24-34.26-2.85,2.69-7.12,4.12-11.69,4.85Z" />
      <path class="cls-6"
        d="m1970.07,931.91c48.78,75.24,43.89-66.06,9.82-43.59-12.6,9.65-27.21,33.71-9.82,43.59Z" />
      <path class="cls-6" d="m1160.7,620.73c.14-.07.48,0,.31-.2,0,0-.31.2-.31.2Z" />
      <path class="cls-6"
        d="m1281.43,721.67c-8.7-3.65-20.86-5.92-28.35-11.01.26-2.84-1.42-4.21-3.83-5.35-12.46-7.27-28.78-16.34-34.44-27.54,4.87.26,9.06,4.26,15.16,1.57-28.81-14.64-48.12-37.42-68.89-58.69,14.49,29.79,39.99,51.7,63.99,73.46,3.42,3.02,7.68,5.52,7.71,10.38,49.93,59.37,132.32,6.52,195.72,12.05-49.1-5.74-98.78,16.56-147.08,5.12Z" />
      <path class="cls-6"
        d="m2011.17,1107.39c.48,3.96,1.93,7.83,4.47,10.86,0,0,0-20.92,0-20.92-3.45,1.98-5.23,5.53-4.47,10.07Z" />
      <path class="cls-6" d="m860.53,659.08c.42.1.71.19.21-.18,0,0-.21.18-.21.18Z" />
      <path class="cls-6"
        d="m978.61,743.74c13.68,19.4,31.36,44.91,55.97,46.47-2.45-7.37-6.72-11.21-12.01-16.07-33.07-28.14-49.68-70.23-92.59-84.73-23.01-9.77-45.35-22.18-68.91-30.22,40.96,25.2,94.09,36.31,117.53,84.54Z" />
      <path class="cls-6"
        d="m1979.84,1107.86c-1.02-4.36-24.86-97.8-24.96-73.44-.08,32.49,10.51,64.95,22.72,94.47,24.53,2.55,2.12-7.36,2.25-21.03Z" />
      <path class="cls-6"
        d="m962.22,252.06c.81,30.61,22.26,61.24,3.49,90.01-46.31,67.16-6.66,100.98,60.77,94.77-70.51-1.01-98.4-32.41-51.98-97.16,22.22-45.73-28.45-72.39-.87-156.93,9.79-59.42-17.77,47.44-11.4,69.32Z" />
      <path class="cls-6"
        d="m254.16,521.14c-77.74-10.7-164.93-11.54-228.45,41.76,53.21-26.08,113.91-49.72,174.66-42.29,35.21,1.43,73.43,14.69,107.22.93-18.3.08-35.36,1.92-53.43-.4Z" />
      <path class="cls-6" d="m74.09,532.99c.05-.07.1-.14.15-.21-.08.11-.89.44-.15.21Z" />
      <path class="cls-6" d="m50.1,544.7c.29.03.41-.05.44-.38,0,0-.44.38-.44.38Z" />
      <path class="cls-6"
        d="m107.07,166.46c24.38.4,46.68-7.49,70.31-11.83,60.53-8.58,121.78,4.55,182.42,1.92-96.83-17.76-194.09-6.65-290.27,10.78,4.16,1.29,27.73-1.19,37.55-.87Z" />
      <path class="cls-6"
        d="m1350.62,1025.52c9.15-2.38-7.37-7.62-11.34-8.02-39.92-7.73-79.91-16.98-120.76-14.84-29.3,2.45,120.18,20.67,132.1,22.86Z" />
      <path class="cls-6" d="m842.17,652.49c-.12-.03-.15-.03-.1.11,0,0,.1-.11.1-.11Z" />
      <path class="cls-6"
        d="m702.14,678.21c3.8,7.25,13.24.44,18.81-.67,38.7-12.26,79.95-32.49,121.09-25.06-20.3-20.13-116.68,11.37-139.9,25.74Z" />
      <path class="cls-6" d="m1843.23,235.71l.26.19c.13-.24-.09-.15-.26-.19Z" />
      <path class="cls-6" d="m1860.23,20.96c-.25.8-.22.9.33.24,0,0-.33-.24-.33-.24Z" />
      <path class="cls-6"
        d="m1846.42,233.7c43.51-85.19-19.09-128.53,12.18-210.16-40.08,89.52,24.76,105.98-12.18,210.16Z" />
      <path class="cls-6" d="m1242.15,734.57c.31.11.42.17.25-.21,0,0-.25.21-.25.21Z" />
      <path class="cls-6" d="m1532.98,720.63l-.23-.21c-.53.35-.19.25.23.21Z" />
      <path class="cls-6"
        d="m1450.7,724.79c-70.71-10.07-141.16,46.14-208.19,9.9,32.81,27.09,81.72,15.07,118.96,3.34,54.95-20.38,116.14-1.69,170.93-17.34-27.14,3.63-54.36,4.72-81.71,4.1Z" />
      <path class="cls-6"
        d="m1201.02,524.81c6.75,14.61,27.32,19.03,33.97,33.67,2.1,3.29,3.88,6.98,8.44,5.98-23.23-32.33-47.23-73.66-81.12-92.9,17.87,15.75,29.34,34.04,38.7,53.24Z" />
      <path class="cls-6" d="m623.59,472.76c-.14.33,0,.27.25.18,0,0-.25-.18-.25-.18Z" />
      <path class="cls-6"
        d="m541.61,642.85c-28.17-34.24-.44-80.43,25.7-105.05,16.01-9.78,13.34-29.78,31.11-39.9,8.68-7.87,18.92-15.11,25.09-24.85-12.09,5.65-21.11,17.79-32.04,25.86-14.91,9.74-12.51,27.43-27.35,36.5-16.12,10.71-21.2,31.1-31.87,46.87-22.18,30.19,19.2,81.38,9.36,60.58Z" />
      <path class="cls-6"
        d="m931.86,843.16c-16.36,20.16-27.43,44.88-35.29,69.74,6.96-3.84,60.74-92.36,35.29-69.74Z" />
      <path class="cls-6"
        d="m446.88,505.67c-19.92,12.67-46.38,3.82-66.81,9.48,32.14,6.33,69.15,10.6,88.93-24.34-8.43,5.92-13.66,10.09-22.12,14.86Z" />
      <path class="cls-6"
        d="m1978.8,141.68c-8.13,8.38-13.82,19.64-19.91,29.1,10.03-6.16,16.6-20.17,27.11-28.26,5.58-5.57,8.74-12.23,9.37-19.54-.14-10.83.93-28-8.38-34.44,5.13,18.72,6.81,37.71-8.19,53.14Z" />
      <path class="cls-6" d="m1986.97,88.54s.02,0,.01-.02c0,0-.01.02-.01.02Z" />
      <path class="cls-6"
        d="m1950.25,311.43c3.15,11.23,42.03,52.95,25.08,27.55-8.67-13.52-16.19-27.58-22.55-42.42-7.18-9.46-6.51,10.39-2.53,14.87Z" />
      <path class="cls-6"
        d="m535.67,365.71c-6.29,1.87-8.03,6.08-10.87,9.14-49.7,64.28-4.85,31.15,10.87-9.14Z" />
      <path class="cls-6" d="m2012.21,469.03c-.03-.24-.03-.43-.25-.19,0,0,.25.19.25.19Z" />
      <path class="cls-6" d="m1993.41,381.41c.12.26.17-.14.3-.25,0,0-.3.25-.3.25Z" />
      <path class="cls-6"
        d="m1993.49,381.53c1.84,12.94,11.37,25.46,12.98,39,5.09,8.24,4.04,50.74,7.7,46.29,3.66-29.35-3.53-60.64-20.68-85.29Z" />
      <path class="cls-6"
        d="m467.01,458.51c-22.21,10.85-45.73,9.03-69.67,6.87,19.34,12.31,52.72,10.09,69.67-6.87Z" />
      <path class="cls-6"
        d="m607.36,286.81c.63-.59.82-1.49,1.88-3.5-26.13,18.96-48.94,41.73-71.19,65.11,24.61-15.37,46-42.24,69.31-61.61Z" />
      <path class="cls-6"
        d="m553.94,416.87c5.12-5.95,32.99-45.82,24.23-40.26-15.45,25.83-35.88,47.45-56.5,68.95,12.24-5.4,22.86-19.03,32.27-28.69Z" />
      <path class="cls-6" d="m609.37,329.25c0,.24.04.28.25.18,0,0-.25-.18-.25-.18Z" />
      <path class="cls-6"
        d="m574.55,368.75c2-7.6,42.87-41.43,31.17-37.88-22.07,20.23-41.92,42.23-53.37,68.05,9.15-6.72,14.79-20.52,22.21-30.17Z" />
      <path class="cls-6" d="m689.9,259.41c-.23.29.02.18.24.18,0,0-.24-.18-.24-.18Z" />
      <path class="cls-6"
        d="m626.56,312.52c10.99-3.28,22.82-18.67,33.92-26.1,7.89-8.5,25.93-17.81,28.28-26.67-20.67,16.71-43.85,34.14-62.2,52.77Z" />
      <path class="cls-6"
        d="m1942.55,323.95c-6.96-12.59-18.47-23.09-24.04-36.12,2.55,14.89,13.38,30.77,24.04,36.12Z" />
      <path class="cls-6" d="m666.53,360.5c-.07.24.07.16.24.16,0,0-.24-.16-.24-.16Z" />
      <path class="cls-6"
        d="m655.91,390.63c3.54-4.62,15.49-38.82,7.09-25.83-2.1,6.44-20.87,45.31-7.09,25.83Z" />
      <path class="cls-6" d="m649.6,397.04l.23.18c-.01-.2-.04-.29-.23-.18Z" />
      <path class="cls-6"
        d="m1987.21,484.44c-5.91-1.97-14.69-2.84-29.8-3.1,6.68,4.1,34.02,6.92,29.8,3.1Z" />
      <path class="cls-6" d="m1958.84,173.14c.68-.08-.05-1.7.05-2.36-.14.76,0,1.61-.05,2.36Z" />
      <path class="cls-6" d="m582.21,375.23c-.03-.45-.06-.88-.07-1.1.06.06-.12,1.1.07,1.1Z" />
      <path class="cls-6" d="m582.14,374.13h0c-.01-.2-.01-.16,0,0Z" />
      <path class="cls-6" d="m1243.44,564.46c-.19.79-.39,1.58-.88,3.54.46-1.97.93-2.8.88-3.54Z" />
    </g>
  </g>
</svg>