<?xml version="1.0" encoding="UTF-8"?>
<svg id="Layer_1" data-name="Layer 1" xmlns="http://www.w3.org/2000/svg" viewBox="0 0 216.02 82.01">
  <defs>
    <style>
      .cls-1 {
      fill: #3c547d;
      }

      .cls-1, .cls-2 {
      stroke-width: 0px;
      }

      .cls-2 {
      fill: #b44f4e;
      }
    </style>
  </defs>
  <path class="cls-1"
    d="m15.65,26.87s3.54-.56,5.11-.8c0,0,8.71-1.53,8.56,6.97-.14,7.75-6.62,11.27-13.02,12.45-.14,1.5-.29,3-.42,4.51,2.79-.33,12.36-.69,12.07,10.11-.28,10.36-6.43,15.32-14.61,17.4-.13,1.39-.25,2.77-.38,4.17,2.5-.32,5.13-.87,7.75-1.67.9-.27,1.79-.57,2.67-.91.23-.09.46-.17.69-.26.08-.03.15-.05.23-.09.14-.06.28-.13.42-.2,8.52-3.57,15.89-10.06,16.16-20.14.28-10.51-7.26-12.17-11.87-12.21,6.92-3.19,12.78-8.77,13.01-17.2.3-11.26-9.88-10.8-12.64-10.47-.02,0-.03,0-.05,0-.91.08-1.82.22-2.73.36l-.02-.02c-6.27.97-10.25,1.54-16.51,2.53-1.75.28-3.49.6-5.22.91v.07L0,72.34l2.34-.37s0,0,0,0l15.33-2.34s-5.69-1.37-5.45-5.73c0-.08,0-.14,0-.22,1.13-12.27,2.21-24.47,3.42-36.61v-.21Z" />
  <path class="cls-1"
    d="m213.25,11.8c-1.35-1.83-2.91-3.44-4.7-4.83-1.04,1.36-2.49,3.09-4.34,5.19-2.25,2.54-4.16,4.52-5.73,5.94l1.1,2.72,6.75-6.93c.81.72,1.42,1.34,1.81,1.86,1.23,1.62,1.95,3.36,2.17,5.22.22,1.83-.15,3.28-1.08,4.33-.73.81-1.75,1.33-3.07,1.53-.95.15-1.71-.03-2.27-.54-.57-.51-.91-1.27-1.03-2.27l-.04-.91-2.53.4-.5,5.99c.77.17,1.39.28,1.84.32,1.39.16,2.58.17,3.57,0,3.17-.5,5.8-1.83,7.91-4,2.25-2.31,3.2-4.94,2.86-7.89-.23-1.92-1.13-3.97-2.7-6.15m-18.43-.74c-2.57.4-4.93,2.23-7.1,5.49-1.38,2.08-2.36,3.41-2.93,3.96l.9-7.41-6.28.98-1.57,20.04,5.76-.9c.25-1.09.51-2.18.78-3.28.68-2.44,1.43-4.47,2.25-6.09,1.15-2.25,2.33-3.47,3.53-3.66.51-.08.99.12,1.43.59.44.47.72,1.14.82,2l.08.99,2.5-.39.94-12.49-1.11.17Zm-20.6,5.59c-1.62-1.09-3.84-1.41-6.63-.97-3.47.54-6.3,2.24-8.48,5.1-2.02,2.65-2.87,5.38-2.54,8.19.3,2.58,1.28,4.47,2.93,5.67,1.78,1.3,4.22,1.7,7.32,1.22,1.97-.31,3.85-.94,5.66-1.89,1.81-.95,3.25-2.09,4.32-3.39l-2.21-2.59c-.79,1.29-1.75,2.35-2.88,3.17-1.13.82-2.28,1.32-3.46,1.51-1.46.23-2.63-.11-3.53-1-.89-.9-1.44-2.22-1.65-3.97-.27-2.32.13-4.48,1.2-6.47,1.07-1.99,2.32-3.1,3.73-3.32.81-.13,1.48.04,2.02.5.54.46.85,1.07.94,1.82.12.98-.19,1.84-.9,2.57-.88.9-2.34,1.51-4.38,1.83l-1.04.16-.15,2.04,12.56-1.97c.09-.28.13-.52.13-.72.04-.62,0-1.46-.12-2.52-.26-2.21-1.2-3.85-2.82-4.94m-18.46,15.37c-.15.17-.26.29-.35.36-.53.49-1.04.78-1.53.85-.76.12-1.35-.33-1.75-1.35-.27-.72-.51-1.98-.73-3.78l-.3-2.58c-.28-2.41-.66-4.13-1.14-5.16-.69-1.5-1.72-2.14-3.09-1.92-.83.13-1.65.68-2.46,1.65-.53.67-1.32,1.87-2.37,3.61-1.24,2.09-2.18,3.61-2.82,4.56.1-1.56.16-2.75.18-3.57.12-2.56.22-4.02.3-4.38l-6.66,1.04-1.61,20.04,5.31-.83c.32-1.07.65-2.15,1-3.22.82-2.43,1.62-4.43,2.41-5.98,1.11-2.19,2.1-3.35,2.98-3.49,1.18-.18,2.07,1.86,2.66,6.13.59,4.27,1.92,6.24,3.98,5.92,1.39-.22,3.03-1.31,4.92-3.27.61-.62,1.41-1.56,2.39-2.83l-1.34-1.8Zm-26.77,4.68c-.14.17-.26.29-.35.36-.53.46-1.01.73-1.43.79-.56.09-1.49-.79-2.82-2.62-1.32-1.84-2.72-2.64-4.21-2.41.95-.91,2.23-2.36,3.83-4.37,1.46-1.81,2.51-3.18,3.16-4.13l-2.23-2.72c-.84,1.45-2.06,3.18-3.66,5.22-2.2,2.77-4.25,4.9-6.18,6.4.22-1.72.5-5.31.84-10.77.34-5.46.47-8.48.4-9.08l-5.66.89-2.47,30.77,4.37-.69c.34-1.54.64-2.7.9-3.47.81-2.34,1.69-3.59,2.64-3.74.79-.12,2.13,1.07,4.02,3.57,1.9,2.5,3.47,3.66,4.72,3.46,1.11-.17,2.31-1.22,3.59-3.15.42-.62.94-1.55,1.55-2.78l-1.03-1.55Zm-29.66-10.06c-3.47.54-6.38,2.18-8.72,4.91-2.24,2.6-3.2,5.29-2.87,8.07.3,2.55,1.35,4.47,3.15,5.77,1.8,1.29,4.02,1.73,6.66,1.32,2.57-.4,4.87-1.33,6.92-2.79.67-.48,1.44-1.17,2.3-2.07l-1.69-2.63c-.81.77-1.46,1.35-1.95,1.75-1.51,1.2-2.82,1.89-3.93,2.06-1.16.18-2.12-.11-2.89-.86-.77-.75-1.24-1.83-1.4-3.24-.25-2.15.11-4.1,1.1-5.84.98-1.74,2.14-2.72,3.46-2.93.92-.14,1.67.15,2.22.88.47.63.79,1.58.94,2.87l2.81-.44.63-7.89-6.73,1.06Zm-11.64,16.71c-.42.45-.75.77-.98.99-.73.64-1.34,1-1.85,1.08-.42.07-.78-.06-1.09-.38-.31-.32-.5-.76-.56-1.33-.04-.37-.05-.95-.03-1.75.02-.79.07-1.63.13-2.52l.83-10.42-5.45.85c-.42,1.26-.84,2.51-1.26,3.74-.99,2.78-1.96,5.12-2.89,7.02-1.23,2.53-2.27,3.86-3.1,3.99-.42.07-.79-.07-1.11-.4-.32-.33-.52-.81-.59-1.44-.06-.54.09-2.66.46-6.33.12-1.21.31-3,.57-5.34l-5.93.93c-.39,2.48-.66,4.41-.81,5.77-.48,4.1-.64,6.89-.47,8.35.18,1.55.74,2.82,1.68,3.81.94.99,1.98,1.4,3.11,1.22,1.48-.23,2.99-1.33,4.53-3.29,1.35-1.73,2.78-4.16,4.27-7.28l.14,2.13c.32,2.74.84,4.64,1.57,5.71.73,1.07,1.77,1.5,3.14,1.29,1.43-.22,2.92-.99,4.47-2.29.51-.43,1.15-1.06,1.9-1.89l-.68-2.22Zm-26.67-11.32c-2.57.4-4.93,2.23-7.1,5.49-1.38,2.08-2.36,3.41-2.93,3.96l.9-7.41-6.28.98-1.57,20.04,5.76-.9c.25-1.09.51-2.18.78-3.28.68-2.44,1.43-4.47,2.25-6.09,1.15-2.25,2.33-3.47,3.53-3.66.51-.08.99.12,1.43.59.44.47.72,1.14.82,2l.08.99,2.5-.39.94-12.49-1.11.17Z" />
  <polygon class="cls-2" points="43.27 65.52 43.81 58.62 215.84 31.6 215.56 38.46 43.27 65.52" />
  <polygon class="cls-1"
    points="200.45 12.25 203.64 6.62 203.39 0 196.78 .74 197.27 7.3 198.98 7.11 197.56 12.79 200.45 12.25" />
  <path class="cls-1"
    d="m215.43,72.65v-2.29h-9.45v2.29h3.47v9.02h2.51v-9.02h3.47Zm-11.37,9.02v-11.31h-2.48v6.96l-5.34-6.96h-2.31v11.31h2.48v-7.19l5.52,7.19h2.13Zm-12.38,0v-2.21h-6.19v-2.38h5.37v-2.21h-5.37v-2.29h6.11v-2.21h-8.58v11.31h8.66Zm-11.42,0v-11.31h-2.7l-2.99,4.78-2.99-4.78h-2.7v11.31h2.48v-7.34l3.15,4.78h.07l3.22-4.83v7.38h2.48Zm-15.78-7.32c0,.48-.17.89-.52,1.22-.35.33-.84.49-1.47.49h-1.99v-3.46h1.94c.63,0,1.13.15,1.49.44.36.29.55.72.55,1.28v.03Zm2.54-.08c0-.58-.1-1.11-.3-1.59-.2-.48-.49-.89-.86-1.24-.37-.34-.83-.61-1.37-.8-.54-.19-1.15-.28-1.83-.28h-4.66v11.31h2.51v-3.39h1.91c.64,0,1.24-.08,1.8-.25.56-.17,1.05-.42,1.47-.75.42-.33.75-.75.99-1.24.24-.5.36-1.07.36-1.73v-.03Zm-11.87-3.91h-2.51v11.31h2.51v-11.31Zm-5.18,6.38v-6.38h-2.51v6.48c0,.9-.22,1.58-.65,2.04-.43.45-1.04.68-1.81.68s-1.37-.23-1.81-.7c-.43-.47-.65-1.17-.65-2.09v-6.4h-2.51v6.46c0,1.67.44,2.92,1.32,3.76.88.84,2.08,1.26,3.62,1.26.76,0,1.45-.11,2.07-.32.62-.21,1.15-.53,1.58-.95.43-.43.77-.96,1-1.59.23-.64.35-1.38.35-2.25m-14.61-.69c0,.58-.1,1.1-.31,1.55l-1.87-1.68-1.6,1.78,1.86,1.57c-.47.2-.97.31-1.5.31s-.97-.09-1.39-.28c-.42-.19-.78-.44-1.09-.77-.31-.32-.55-.7-.72-1.13-.17-.43-.25-.89-.25-1.37v-.03c0-.48.08-.94.25-1.37.17-.43.4-.8.7-1.12.3-.32.66-.58,1.07-.76.42-.18.88-.27,1.39-.27s.96.09,1.38.28c.42.19.79.44,1.1.77s.55.7.72,1.13c.17.43.25.89.25,1.37v.03Zm2.78,4.2l-1.17-.99c.33-.47.58-.99.75-1.53.17-.55.26-1.12.26-1.71v-.03c0-.81-.15-1.56-.45-2.27s-.72-1.32-1.25-1.84c-.54-.52-1.18-.94-1.91-1.24-.74-.31-1.55-.46-2.43-.46s-1.69.15-2.43.46c-.74.31-1.38.73-1.92,1.26-.54.53-.96,1.15-1.26,1.86-.3.71-.46,1.46-.46,2.27v.03c0,.81.15,1.56.45,2.27.3.71.72,1.32,1.25,1.84.54.52,1.18.94,1.91,1.24.74.31,1.55.46,2.43.46.64,0,1.24-.08,1.81-.25.56-.17,1.09-.41,1.58-.72l1.25,1.11,1.6-1.76Zm-14.02,1.42v-2.21h-6.19v-2.38h5.37v-2.21h-5.37v-2.29h6.11v-2.21h-8.58v11.31h8.66Z" />
  <path class="cls-1"
    d="m210.97,64.55c-.26.2-.53.36-.81.48-.28.11-.56.17-.84.17-.47,0-.85-.12-1.15-.36-.3-.24-.45-.57-.45-.98,0-.28.08-.55.24-.82.16-.26.43-.49.81-.69l2.18,2.2Zm-.25-5.08c-.26.23-.63.44-1.13.62-.24-.27-.41-.51-.51-.72-.1-.21-.15-.44-.15-.7,0-.34.1-.62.3-.84.2-.22.47-.32.81-.32.32,0,.57.09.77.27.2.18.3.45.3.79,0,.37-.13.67-.38.9m4.81,6.55l-1.68-1.66c.28-.38.55-.77.8-1.18.25-.41.48-.81.7-1.21l-1.84-1c-.18.34-.37.68-.55,1.01-.18.33-.37.64-.55.93l-1.51-1.5c.71-.27,1.28-.64,1.73-1.11.45-.47.67-1.09.67-1.86,0-.4-.08-.77-.23-1.12-.15-.35-.37-.65-.65-.91-.28-.26-.62-.46-1.01-.61-.39-.15-.83-.22-1.32-.22-.55,0-1.05.08-1.47.25-.43.17-.79.39-1.08.66-.29.27-.52.59-.67.95-.15.36-.23.74-.23,1.12s.06.78.19,1.14c.12.36.33.74.61,1.14-.72.32-1.26.74-1.64,1.25-.38.51-.57,1.13-.57,1.87,0,.51.1.96.29,1.37.2.4.46.75.81,1.03.34.29.75.5,1.21.65.47.15.97.23,1.51.23.66,0,1.27-.12,1.82-.35.55-.23,1.06-.54,1.52-.91l1.32,1.33,1.84-1.28Zm-15.59,1.05l-4.85-6.51,4.64-4.8h-3.03l-4.62,4.94v-4.94h-2.51v11.31h2.51v-3.46l1.32-1.36,3.53,4.82h3.01Zm-12.38-1.83l-1.6-1.6c-.45.41-.89.73-1.34.97-.45.24-1,.36-1.65.36-.49,0-.94-.09-1.34-.28-.41-.19-.75-.44-1.04-.77-.29-.32-.51-.7-.68-1.13-.16-.43-.24-.89-.24-1.37v-.03c0-.48.08-.94.24-1.37.16-.43.39-.8.68-1.12.29-.32.64-.58,1.05-.76.41-.18.85-.27,1.33-.27.58,0,1.09.11,1.56.34.46.23.91.54,1.36.94l1.6-1.83c-.26-.26-.54-.5-.85-.71-.3-.22-.64-.4-.99-.55s-.76-.27-1.2-.36c-.44-.09-.93-.13-1.46-.13-.88,0-1.68.15-2.41.46-.73.31-1.35.73-1.87,1.26s-.93,1.15-1.22,1.86-.44,1.46-.44,2.27v.03c0,.81.15,1.57.44,2.28.29.71.7,1.33,1.22,1.85.52.52,1.14.93,1.86,1.24.72.3,1.49.45,2.33.45.55,0,1.05-.05,1.5-.14.45-.09.86-.23,1.23-.4.37-.18.72-.39,1.03-.64s.62-.53.91-.84m-12.57-3.1v-6.38h-2.51v6.48c0,.9-.22,1.58-.65,2.04-.43.45-1.04.68-1.81.68s-1.37-.23-1.81-.7c-.43-.47-.65-1.17-.65-2.09v-6.4h-2.51v6.46c0,1.67.44,2.92,1.32,3.76.88.84,2.08,1.26,3.62,1.26.76,0,1.45-.11,2.07-.32.62-.21,1.15-.53,1.58-.95.43-.43.77-.96,1-1.59.23-.64.35-1.38.35-2.25m-14.56-2.49c0,.48-.17.87-.5,1.16-.33.29-.81.44-1.42.44h-2.54v-3.25h2.49c.62,0,1.1.14,1.45.4.35.27.52.67.52,1.21v.03Zm2.88,7.42l-2.79-4.04c.73-.27,1.32-.69,1.77-1.27.45-.58.68-1.32.68-2.24v-.03c0-1.17-.38-2.09-1.13-2.75-.75-.66-1.81-.99-3.17-.99h-5.21v11.31h2.51v-3.62h1.97l2.44,3.62h2.93Zm-11.77-9.02v-2.29h-9.45v2.29h3.47v9.02h2.51v-9.02h3.47Z" />
</svg>