<?xml version="1.0" encoding="UTF-8"?><svg id="Layer_2" xmlns="http://www.w3.org/2000/svg" viewBox="0 0 94.42 185.95"><defs><style>.cls-1{fill:none;}.cls-1,.cls-2,.cls-3,.cls-4{stroke-width:0px;}.cls-2{fill:#231f20;}.cls-3{fill:#6b6b6b;}.cls-4{fill:#fff;}</style></defs><g id="Layer_1-2"><path class="cls-3" d="M94.42,35.41V5.2l-27.83,10.13V.95l-6.02,2.21.03,14.36-21.42,7.8V7.26l-6.19,2.25v18.05s-28.39,10.34-28.39,10.34v30.2l29.12-10.6v17.91l-29.12,10.6v30.2l29.56-10.76v19.6l-29.56,10.76v30.2l29.65-10.79v16.49h0s0,0,0,0l.14.28s0,0,0,0c.14.28.25.53.42.78h0s0,0,0,0c3.59,6.96,8.91,11.57,15.02,12.98l.65.17.65-.17c6.11-1.41,11.4-6.02,15.02-12.98,0,0,0,0,0,0h0c.17-.25.28-.51.42-.79l.14-.28h0s0,0,0,0v-28.31l27.71-10.09v-30.2l-27.71,10.09v-19.6l27.71-10.09v-30.2l-27.71,10.09v-17.91l27.71-10.09ZM40.24,153.05l20.44-7.44v25.41c-2.54,5.09-5.63,7.86-10.21,9.11-4.52-1.24-7.72-4.07-10.24-9.11v-17.97ZM60.68,47.68v17.91l-20.95,7.63v-17.91l20.95-7.63ZM60.68,95.8v19.6l-20.34,7.4v-19.6l20.34-7.4Z"/><path class="cls-2" d="M56.09,142.43v26.8c-2.54,5.09-5.63,7.86-10.21,9.11-4.52-1.24-7.72-4.07-10.24-9.11v-18.97l-5.99,2.18v17.5l.14.28c.14.28.25.54.42.79,3.59,6.96,8.91,11.57,15.02,12.98l.65.17.65-.17c6.11-1.41,11.4-6.02,15.02-12.98.17-.25.28-.51.42-.79l.14-.28v-29.69l-6.02,2.18ZM57.51,143.42v26.18c-.25.48-.48.96-.74,1.41-2.71,4.86-6.11,7.58-10.89,8.79-4.75-1.22-8.2-3.93-10.89-8.79-.25-.45-.48-.93-.74-1.41v-17.27l-3.2,1.16v16.11c.23.48.48.96.74,1.41,3.25,5.94,7.97,10.26,13.77,11.62l.31.06.34-.06c5.8-1.36,10.49-5.68,13.74-11.62.25-.45.51-.93.74-1.41v-27.34l-3.2,1.16Z"/><path class="cls-4" d="M60.7,169.6c-.23.48-.48.96-.74,1.41-3.25,5.94-7.95,10.26-13.74,11.62l-.34.06-.31-.06c-5.8-1.36-10.52-5.68-13.77-11.62-.25-.45-.51-.93-.74-1.41h3.2c.25.48.48.96.74,1.41,2.69,4.86,6.14,7.58,10.89,8.79,4.78-1.22,8.17-3.93,10.89-8.79.25-.45.48-.93.74-1.41h3.2Z"/><path class="cls-2" d="M60.7,168.19v1.41c-.23.48-.48.96-.74,1.41-3.25,5.94-7.95,10.26-13.74,11.62l-.34.06-.31-.06c-5.8-1.36-10.52-5.68-13.77-11.62-.25-.45-.51-.93-.74-1.41v-1.41h3.2v1.41c.25.48.48.96.74,1.41,2.69,4.86,6.14,7.58,10.89,8.79,4.78-1.22,8.17-3.93,10.89-8.79.25-.45.48-.93.74-1.41v-1.41h3.2Z"/><path class="cls-4" d="M3.81,152.27l3.18-1.16c0,3.07,0,3.83.16,5.04.1.61.29.87.8.68.45-.16.7-.55.8-1.23.06-.42.16-1.58.16-2.66,0-1.91-.1-2.09-.7-2.67l-2.74-2.4c-1.05-.92-1.65-2.21-1.65-5.43,0-1.16.06-2.77.47-4,.67-1.94,1.88-3.07,3.66-3.72,1.72-.63,3.16-.35,3.7,1.04.45,1.1.45,4.21.45,6.99l-3.19,1.16c0-2.24.03-4.78-.1-5.63-.09-.62-.41-.68-.86-.52-.44.16-.76.53-.86,1.14-.1.68-.1,1.73-.1,2.38,0,2.17.19,2.6.86,3.23l2.77,2.42c.99.86,1.47,1.88,1.47,4.56,0,1.01-.03,3.12-.54,4.68-.6,1.85-1.66,2.99-3.6,3.7-1.75.64-3.09.33-3.69-1.04-.48-1.12-.44-2.4-.44-6.56Z"/><path class="cls-2" d="M6.38,161.68c-1.81,0-2.96-1.05-3.5-2.25-.58-1.35-.58-2.61-.57-6.35v-1.86l3.32-1.21-1.15-1.01c-1.56-1.36-2.17-3.2-2.17-6.56,0-1.22.06-3,.55-4.48.79-2.3,2.29-3.82,4.57-4.65,2.59-.94,4.79-.2,5.61,1.9.51,1.26.55,3.8.55,7.53v1.05l-3.02,1.1,1.04.91c1.44,1.26,1.98,2.8,1.98,5.69,0,2.19-.2,3.87-.62,5.14-.76,2.32-2.2,3.79-4.52,4.64-.77.28-1.47.4-2.09.4ZM5.31,153.32c0,3.02,0,4.17.32,4.92.11.23.33.76,1.8.22.06-.02.12-.04.17-.07-.39,0-.69-.13-.91-.26-.83-.49-.98-1.44-1.03-1.75-.13-.97-.16-1.67-.17-3.13l-.19.07ZM5.52,139.64c-.21,1.08-.21,2.34-.21,2.81,0,3.05.56,3.8,1.14,4.3l2.74,2.4c1.13,1.06,1.22,1.8,1.22,3.8,0,.7-.04,1.42-.08,1.99.18-.89.27-2.04.27-3.44,0-2.41-.4-2.94-.95-3.43l-2.77-2.42c-1.17-1.08-1.37-2.08-1.37-4.35,0-.46,0-1.07.03-1.65ZM8.33,136.19c.42,0,.74.13.97.26.37.22.85.68.99,1.6.1.66.12,1.87.12,3.72l.18-.07c0-2.12-.05-4.67-.34-5.38-.24-.61-1.11-.44-1.79-.19-.04.02-.09.03-.13.05Z"/><path class="cls-4" d="M13.67,145.12c0-4.58,0-8.34.6-10.41.51-1.74,1.94-3.09,3.54-3.67s3.03-.27,3.54,1.1c.61,1.62.61,5.38.61,9.96s0,8.27-.61,10.41c-.51,1.78-1.91,3.08-3.54,3.67-1.62.59-3.03.31-3.54-1.1-.6-1.69-.6-5.19-.6-9.96ZM17.81,153.14c.38-.14.76-.49.83-1.31.13-1.49.13-5.1.13-8.57s0-7.04-.13-8.51c-.07-.77-.51-.79-.83-.67-.35.13-.76.46-.83,1.28-.13,1.56-.13,5.28-.13,8.6s0,7.08.13,8.48c.06.77.45.85.83.71Z"/><path class="cls-2" d="M16.33,157.97c-.6,0-1.16-.12-1.66-.35-.84-.39-1.47-1.1-1.8-2.03-.69-1.94-.69-5.34-.69-10.47,0-4.78,0-8.56.67-10.83.61-2.09,2.32-3.88,4.46-4.66,2.48-.9,4.68-.11,5.46,1.98.7,1.87.7,5.49.7,10.49s0,8.48-.67,10.82c-.61,2.13-2.28,3.87-4.47,4.67-.7.25-1.37.38-2,.38ZM15.41,136.73c-.24,2.05-.24,5.04-.24,8.38,0,4.48,0,8.01.52,9.46.09.25.2.3.25.33.21.1.68.12,1.36-.13.06-.02.12-.05.18-.07-.36,0-.71-.11-1.01-.31-.4-.26-.89-.78-.98-1.84-.13-1.45-.13-5.09-.13-8.6,0-2.53,0-5.32.06-7.22ZM18.13,132.53c.37,0,.72.11,1.02.31.4.25.89.77.98,1.79.13,1.53.13,5.15.13,8.64,0,2.64,0,5.35-.06,7.19.24-2.03.24-4.91.24-8.35,0-4.15,0-8.07-.51-9.44-.24-.64-1.21-.36-1.62-.21-.06.02-.13.05-.19.07Z"/><path class="cls-4" d="M23.84,129.2l3.19-1.16v21.52l2.87-1.04v3.03l-6.06,2.2v-24.56Z"/><path class="cls-2" d="M22.34,155.9v-27.75l6.19-2.25v21.52l2.87-1.04v6.23l-9.06,3.3ZM25.34,130.25v21.37l.19-.07v-21.37l-.19.07Z"/><path class="cls-4" d="M31.06,142.67v-38.86l3.19-1.16v41.39c0,.43,0,1.77.13,2.44.13.68.45.74.83.6.38-.14.7-.43.83-1.2.13-.77.13-2.14.13-2.54v-18.42l3.19-1.16v15.89c0,4.01-.16,5.55-.6,6.87-.6,1.81-1.91,3.01-3.54,3.6s-2.93.35-3.54-1.02c-.45-.99-.61-2.42-.61-6.43Z"/><path class="cls-2" d="M33.68,151.92c-1.54,0-2.74-.77-3.38-2.22-.57-1.27-.74-2.85-.74-7.03v-39.91l6.19-2.25v22.97l5.1-1.86v18.03c0,4.08-.16,5.79-.68,7.35-.71,2.14-2.29,3.75-4.45,4.53-.72.26-1.41.39-2.04.39ZM32.56,104.86v37.81c0,3.51.12,5.03.48,5.81.11.26.31.72,1.66.23.05-.02.11-.04.17-.06-.38,0-.68-.13-.9-.25-.56-.32-.91-.87-1.06-1.64-.14-.73-.15-1.9-.15-2.72v-39.25l-.19.07ZM37.66,125.97v17.37c0,.49,0,.92-.02,1.31.14-.99.21-2.44.21-5v-13.75l-.19.07Z"/><path class="cls-4" d="M43.42,125.39l-2.23.81v-3.03l7.65-2.78v3.03l-2.23.81v21.53l-3.19,1.16v-21.53Z"/><path class="cls-2" d="M41.92,149.06v-21.53l-2.23.81v-6.22l10.65-3.88v6.22l-2.23.81v21.53l-6.19,2.25ZM44.92,123.41v21.37l.19-.07v-21.37l-.19.07Z"/><path class="cls-4" d="M50.84,119.58l3.19-1.16v24.56l-3.19,1.16v-24.56Z"/><path class="cls-2" d="M49.34,146.28v-27.75l6.19-2.25v27.75l-6.19,2.25ZM52.34,120.63v21.37l.19-.07v-21.37l-.19.07Z"/><path class="cls-4" d="M55.79,130.06c0-4.58,0-8.34.6-10.41.51-1.74,1.94-3.09,3.53-3.67s3.03-.27,3.54,1.1c.61,1.62.61,5.38.61,9.96s0,8.27-.61,10.41c-.51,1.78-1.91,3.08-3.54,3.67-1.62.59-3.03.31-3.53-1.1-.6-1.69-.6-5.19-.6-9.96ZM59.93,138.09c.38-.14.77-.49.83-1.31.13-1.49.13-5.1.13-8.57s0-7.04-.13-8.51c-.06-.77-.51-.79-.83-.67-.35.13-.76.46-.83,1.28-.13,1.56-.13,5.28-.13,8.6s0,7.08.13,8.48c.06.77.44.85.83.71Z"/><path class="cls-2" d="M58.45,142.91c-.6,0-1.16-.12-1.66-.35-.84-.39-1.47-1.1-1.8-2.03-.69-1.94-.69-5.34-.69-10.47,0-4.78,0-8.56.67-10.83.61-2.09,2.32-3.88,4.46-4.66,2.49-.9,4.68-.11,5.46,1.98.7,1.87.7,5.49.7,10.49s0,8.48-.67,10.82c-.61,2.13-2.28,3.88-4.47,4.67-.7.25-1.37.38-2,.38ZM57.54,121.67c-.25,2.05-.25,5.05-.25,8.39,0,4.48,0,8.01.52,9.46.09.25.2.3.25.33.21.1.68.12,1.36-.13.06-.02.12-.04.18-.07-.46-.01-.81-.18-1.01-.31-.4-.26-.89-.79-.98-1.84-.13-1.45-.13-5.08-.13-8.6,0-2.53,0-5.32.06-7.23ZM60.25,117.47c.37,0,.72.11,1.03.31.4.26.89.78.97,1.8.13,1.52.13,5.14.13,8.63,0,2.65,0,5.36-.06,7.2.25-2.03.25-4.92.25-8.36,0-4.15,0-8.07-.51-9.44-.24-.64-1.21-.36-1.62-.21-.06.02-.13.05-.19.07Z"/><path class="cls-4" d="M65.67,114.18l2.61-.95,3.79,13.06.1-.07s-.76-7.81-.76-10.01v-4.78l3.19-1.16v25.23l-2.62.95-3.79-13.07-.09.07s.76,7.74.76,9.98v4.15l-3.19,1.16v-24.56Z"/><path class="cls-2" d="M64.17,140.88v-27.75l5.11-1.86.63,2.18v-3.08l6.19-2.25v28.42l-5.11,1.86-.63-2.16v2.39l-6.19,2.25ZM67.17,130.01v6.59l.19-.07v-3.1c0-.7-.08-1.99-.19-3.41ZM71.31,128.74l1.67,5.75.12-.04v-7.03l-1.79,1.33ZM67.17,115.23v7.04l1.78-1.36-1.66-5.72-.12.04ZM72.91,112.48v3.73c0,.68.08,1.96.19,3.37v-7.17l-.19.07Z"/><path class="cls-4" d="M76.2,126.1l3.19-1.16c0,3.07,0,3.83.16,5.03.09.62.29.87.8.68.45-.16.7-.54.8-1.23.06-.42.16-1.57.16-2.66,0-1.91-.1-2.09-.7-2.67l-2.74-2.4c-1.05-.92-1.66-2.21-1.66-5.43,0-1.16.06-2.77.48-4,.67-1.94,1.88-3.07,3.66-3.72,1.72-.62,3.16-.35,3.7,1.04.45,1.1.45,4.21.45,6.99l-3.19,1.16c0-2.24.03-4.78-.1-5.63-.1-.62-.41-.68-.86-.52s-.76.53-.86,1.14c-.1.68-.1,1.73-.1,2.38,0,2.17.19,2.6.86,3.23l2.78,2.42c.99.87,1.47,1.89,1.47,4.56,0,1.01-.03,3.12-.54,4.68-.6,1.84-1.66,2.99-3.6,3.69-1.75.64-3.09.33-3.69-1.04-.48-1.12-.45-2.4-.45-6.55Z"/><path class="cls-2" d="M78.76,135.51c-1.81,0-2.96-1.05-3.49-2.25-.58-1.35-.58-2.62-.57-6.4v-1.8l3.32-1.21-1.15-1.01c-1.56-1.36-2.17-3.2-2.17-6.56,0-1.9.18-3.36.55-4.48.8-2.3,2.29-3.82,4.57-4.65,2.59-.94,4.79-.19,5.61,1.9.51,1.26.55,3.8.55,7.53v1.05l-3.02,1.1,1.04.9c1.44,1.27,1.98,2.81,1.98,5.69,0,2.19-.2,3.87-.62,5.14-.76,2.32-2.2,3.79-4.51,4.64-.77.28-1.47.4-2.09.4ZM77.7,127.15c0,3.01,0,4.17.33,4.91.1.24.33.76,1.8.22.06-.02.12-.04.17-.07-.39,0-.69-.13-.91-.26-.83-.49-.98-1.45-1.03-1.76-.13-.96-.16-1.66-.17-3.12l-.19.07ZM77.91,113.46c-.14.73-.22,1.67-.22,2.81,0,3.04.56,3.79,1.14,4.3l2.74,2.4c1.13,1.06,1.22,1.8,1.22,3.8,0,.7-.04,1.41-.08,1.98.18-.89.27-2.03.27-3.42,0-2.41-.4-2.94-.96-3.43l-2.77-2.42c-1.17-1.09-1.37-2.09-1.37-4.36,0-.46,0-1.07.03-1.65ZM80.72,110.02c.42,0,.74.13.97.26.37.22.85.68.99,1.6.1.67.12,1.88.12,3.72l.18-.07c0-2.12-.05-4.67-.34-5.38-.24-.61-1.11-.44-1.8-.19-.04.02-.09.03-.13.05Z"/><path class="cls-4" d="M7.64,36.72l3.22-1.17.67,7.38c.22,2.34.48,10.26.48,10.26l.22-.08s.25-8.11.57-10.65l1.02-7.99,2.42-.88,1.02,7.25c.32,2.31.57,10.23.57,10.23l.22-.08s.25-8.11.48-10.61l.67-7.86,3.22-1.17-2.42,25.44-3.38,1.23-.64-4.82c-.32-2.3-.86-8.32-.86-8.32l-.19.07s-.54,6.41-.86,8.94l-.64,5.29-3.38,1.23-2.42-23.68Z"/><path class="cls-2" d="M8.77,62.47l-2.74-26.76,6.15-2.24.11,1.19.17-1.29,5.02-1.83.2,1.39.13-1.5,6.35-2.32-2.74,28.75-6.03,2.19-.28-2.14-.28,2.35-6.05,2.21ZM11.03,55.14l.33,3.19.7-.26.42-3.46-1.45.52ZM17.45,52.8c0,.06.02.12.02.18l.39,2.98.73-.27.33-3.42-1.48.53ZM9.25,37.73l1.07,10.43c-.09-2.02-.19-4.1-.28-5.1l-.49-5.44-.29.11ZM15.11,36.27l-.81,6.39c-.03.26-.07.59-.1.96l1.76-.64c-.06-.8-.12-1.48-.18-1.93l-.67-4.78ZM20.62,33.59l-.59,6.91c-.02.22-.04.48-.06.78l.73-7.72-.09.03Z"/><path class="cls-4" d="M29.89,11.52l3.19-1.16v28.44l1.91-.7v-11.34l3.19-1.16v24.56l-3.19,1.16v-10.18l-1.91.69v10.04s-3.18,1.16-3.18,1.16V11.52Z"/><path class="cls-2" d="M28.4,55.19V10.47s6.18-2.25,6.18-2.25v17.1l5.1-1.85v27.75l-6.19,2.26v-.14l-5.09,1.86ZM31.39,12.57v38.33s.2-.07.2-.07v-10.05s0,0,0,0V12.5l-.19.07ZM36.49,39.15v10.03l.19-.07v-21.37l-.19.07v11.34Z"/><path class="cls-4" d="M46.16,34.98c0-4.58,0-8.34.6-10.41.51-1.74,1.94-3.09,3.54-3.67s3.03-.27,3.53,1.1c.61,1.62.61,5.38.61,9.96s0,8.27-.61,10.41c-.51,1.78-1.91,3.08-3.53,3.67-1.63.59-3.03.31-3.54-1.1-.6-1.69-.6-5.19-.6-9.96ZM50.3,43.01c.38-.14.76-.49.83-1.31.13-1.49.13-5.1.13-8.57s0-7.04-.13-8.51c-.06-.77-.51-.79-.83-.67-.35.13-.77.46-.83,1.28-.13,1.56-.13,5.28-.13,8.6s0,7.08.13,8.48c.06.77.44.85.83.71Z"/><path class="cls-2" d="M48.82,47.84c-.6,0-1.16-.12-1.66-.35-.84-.39-1.47-1.1-1.8-2.03-.69-1.94-.69-5.34-.69-10.47,0-4.78,0-8.56.67-10.83.61-2.09,2.32-3.88,4.46-4.66,2.48-.9,4.68-.11,5.45,1.98.7,1.87.7,5.48.7,10.49s0,8.48-.67,10.82c-.61,2.13-2.28,3.87-4.46,4.67-.7.25-1.37.38-2,.38ZM47.9,26.6c-.24,2.05-.24,5.04-.24,8.38,0,4.48,0,8.01.52,9.46.09.25.2.3.25.33.21.1.68.12,1.36-.13.06-.02.12-.05.18-.07-.47-.01-.81-.18-1.02-.31-.4-.26-.89-.79-.97-1.84-.13-1.45-.13-5.08-.13-8.59,0-2.53,0-5.32.06-7.22ZM50.63,22.39c.37,0,.72.11,1.03.31.4.26.89.78.97,1.8.13,1.52.13,5.13.13,8.63,0,2.64,0,5.35-.06,7.2.24-2.03.24-4.92.24-8.35,0-4.15,0-8.07-.51-9.44-.24-.64-1.21-.36-1.62-.21-.06.02-.13.05-.19.07Z"/><path class="cls-4" d="M62.42,16.79l3.19-1.16v21.52l2.87-1.04v3.03l-6.06,2.21v-24.56Z"/><path class="cls-2" d="M60.92,43.49V15.74l6.19-2.26v21.53l2.87-1.04v6.22l-9.06,3.3ZM63.92,17.84v21.36l.19-.07v-21.36l-.19.07Z"/><path class="cls-4" d="M76.13,11.79l6.06-2.2v3.03l-2.87,1.04v7.44l2.55-.93v2.82l-2.55.93v8.23l2.87-1.04v3.03l-6.06,2.21V11.79Z"/><path class="cls-2" d="M74.63,38.5V10.74l9.06-3.29v6.22l-2.87,1.04v4.25l2.55-.93v6.01l-2.55.93v5.04l2.87-1.04v6.23l-9.06,3.3ZM77.63,12.84v21.37l.19-.07V12.78l-.19.07Z"/><path class="cls-4" d="M13.31,85.28c-.54-1.44-1.98-1.78-3.79-1.13l-3.82,1.39v24.57l3.82-1.41c1.98-.71,3.28-1.89,3.85-3.93.62-2.12.62-5.2.62-9.95s-.06-7.89-.68-9.53ZM10.68,104.11c-.08.79-.48,1.3-1.16,1.56l-.62.23v-18.49l.62-.23c.71-.25,1.07.06,1.16.93.11,1.47.11,4.52.11,7.86s0,6.65-.11,8.14Z"/><path class="cls-2" d="M14.64,84.8c-.79-2.15-3-2.94-5.6-1.98l-4.75,1.72v27.57l5.71-2.09c2.52-.9,4.07-2.49,4.72-4.86.68-2.32.68-5.51.68-10.35s-.06-8.12-.76-10.01ZM9.04,85.85l-1.56.57v21.52l-.37.14v-21.55l1.92-.68.96-.37c1.64-.59,1.89.08,1.98.31.54,1.44.59,4.92.59,9.02,0,4.41,0,7.38-.48,9.33.11-1.58.11-4.64.11-8.17s0-6.45-.14-7.97c-.06-.93-.4-1.61-.99-2.01-.42-.25-1.07-.48-2.04-.14Z"/><path class="cls-4" d="M24.37,91.28v-.03c.4-.34.71-.68.96-1.07.85-1.33.85-2.77.85-4.84,0-1.89,0-4.75-1.16-5.74-.68-.59-1.84-.42-3.05.03l-4.07,1.47v24.57l3.17-1.16v-10.26l.71-.25c.57-.2.85-.08,1.02.2.2.45.2,1.58.2,2.12v7.49l3.2-1.16v-7.15c0-2.06-.14-3.31-.88-3.87-.28-.17-.57-.34-.93-.34ZM21.71,91.19l-.65.23v-8.43l.79-.31c.62-.2.88,0,.96.45.17.85.17,2.94.17,3.39,0,.74,0,2.83-.23,3.56-.2.62-.51.9-1.05,1.1Z"/><path class="cls-2" d="M27.59,85.34c0-2.26,0-5.4-1.64-6.82-1.5-1.33-3.73-.51-4.47-.23l-5.01,1.81v27.57l5.06-1.84h.03l6.02-2.21v-8.14c0-1.87-.08-3.51-1.05-4.61,1.05-1.64,1.05-3.37,1.05-5.54ZM19.64,103.52l-.34.11v-21.55l.34-.11v21.55ZM24.08,80.67c.68.57.68,3.56.68,4.67,0,1.7,0,2.83-.45,3.73.06-.65.08-1.47.08-2.55,0-1.78-.06-3-.2-3.68-.17-.82-.62-1.22-.96-1.41-.54-.31-1.16-.31-1.87-.08l1.07-.4c1.24-.45,1.64-.28,1.64-.28ZM24.03,93.54c-.17-.34-.45-.65-.85-.85l1.27.06c.11.11.31.59.31,2.74v6.16l-.37.14v-5.49c0-1.22-.06-2.09-.37-2.77ZM23.04,92.1l.03.54c-.2-.08-.45-.14-.74-.17.25-.08.48-.23.71-.37Z"/><path class="cls-4" d="M30.53,55.9v45.07l3.2-1.16v-45.07l-3.2,1.16Z"/><path class="cls-2" d="M29.12,54.91v48.1l6.02-2.21v-48.07l-6.02,2.18ZM32.31,98.83l-.37.14v-42.08l.37-.14v42.08Z"/><path class="cls-4" d="M57.51,143.42v26.18h3.2v-27.34l-3.2,1.16Z"/><path class="cls-1" d="M57.51,143.42v26.18c-.25.48-.48.96-.74,1.41h3.2c.25-.45.51-.93.74-1.41v-27.34l-3.2,1.16ZM58.92,168.19v-23.78l.37-.11v23.89h-.37ZM62.12,169.94l-.14.28c-.14.28-.25.54-.42.79"/><path class="cls-2" d="M56.09,44.02v21.92l6.02-2.18v-21.92l-6.02,2.18ZM58.92,46l.37-.11v15.89l-.37.14v-15.92Z"/><path class="cls-4" d="M57.51,45.01v18.92l3.2-1.16v-18.92l-3.2,1.16Z"/><path class="cls-4" d="M57.51,3.17l-.11.03.03,12.66.08-.03,3.08-1.13V2.04l-3.08,1.13Z"/><path class="cls-2" d="M55.98,2.21l.03,15.66,5.99-2.18V0l-6.02,2.21ZM59.18,13.71l-.34.14-.03-9.67.37-.14v9.67Z"/><path class="cls-4" d="M41.28,94.1v-21.52l-3.2,1.16v24.57l6.08-2.21v-3.05l-2.88,1.05Z"/><path class="cls-2" d="M42.69,92.1v-21.52l-6.02,2.18v27.57l8.91-3.22v-6.05l-2.88,1.05ZM39.49,74.73l.37-.11v21.52l-.37.14v-21.55Z"/><path class="cls-4" d="M50.92,90.6v-21.52l-3.2,1.16v24.57l6.05-2.21v-3.05l-2.86,1.05Z"/><path class="cls-2" d="M52.33,88.59v-21.52l-6.02,2.18v27.57l8.88-3.22v-6.05l-2.86,1.05ZM49.14,71.23l.37-.11v21.52l-.37.14v-21.55Z"/><path class="cls-2" d="M56.09,65.63v50.22l6.02-2.21v-50.19l-6.02,2.18ZM59.29,111.66l-.37.14v-44.2l.37-.11v44.17Z"/><path class="cls-4" d="M57.51,66.62v47.2l3.2-1.16v-47.2l-3.2,1.16Z"/><path class="cls-4" d="M70.8,61.9v4.07c0,2.21.76,10.01.76,10.01l-.08.06-3.79-13.06-2.63.96v24.55l3.2-1.16v-4.16c0-2.23-.76-9.95-.76-9.95l.08-.08,3.82,13.06,2.6-.93v-24.52l-3.2,1.16Z"/><path class="cls-2" d="M69.38,60.91v2.88l-.76-2.66-4.98,1.81v27.57l6.02-2.21v-2.91l.76,2.63,4.98-1.78v-27.54l-6.02,2.21ZM66.47,77.68c.2,2.12.37,4.47.37,5.49v3.17l-.37.14v-8.79ZM68.28,70.86l-1.81,1.33v-7.27l.28-.08,3.37,11.59.65,1.87,1.81-1.3v7.27l-.25.08-3.39-11.62-.65-1.87ZM72.58,71.45c-.2-2.15-.37-4.47-.37-5.49v-3.08l.37-.14v8.71Z"/><path class="cls-4" d="M82.02,73.07l.96-.34v5.26c0,.99-.4,1.39-.96,1.58-.37.14-.74.03-.82-.71-.14-1.39-.14-5.01-.14-8.48s0-7.04.14-8.6c.08-.79.48-1.16.82-1.27.34-.11.74-.06.79.68.14,1.13.17,3.48.17,6.19l3.2-1.16c-.03-3.65-.06-6.31-.62-7.66-.57-1.33-1.92-1.67-3.53-1.1-1.58.59-3.03,1.95-3.53,3.68-.59,2.06-.59,5.83-.59,10.41s0,8.4.59,9.95c.54,1.41,1.61,1.81,2.83,1.36,1.61-.57,2.38-1.5,2.71-3.08l.11-.03.37,1.67,1.67-.59v-12.3l-4.16,1.53v3.03Z"/><path class="cls-2" d="M86.86,58.02c-.85-2.01-2.94-2.74-5.32-1.89-2.12.79-3.79,2.55-4.41,4.61-.65,2.26-.65,6.02-.65,10.8,0,5.03,0,8.65.71,10.49.59,1.56,1.78,2.43,3.22,2.43.45,0,.93-.08,1.41-.28.65-.23,1.22-.54,1.7-.9l4.07-1.47v-15.61c-.03-3.79-.06-6.53-.74-8.17ZM84.77,78.01l-.37.11v-7.44l.37-.14v7.47ZM79.82,81.01c-.51-1.36-.51-5.12-.51-9.47s0-7.8.48-9.76c-.14,1.67-.14,5.34-.14,8.6,0,3.51,0,7.15.14,8.68.14.99.62,1.47,1.02,1.7.28.2.65.28.99.28-.25.2-.57.34-.96.48-.51.2-.76.17-1.02-.51ZM84.26,59.1c.4.99.45,3.34.48,6.14l-.34.11c-.03-2.12-.08-3.48-.17-4.27-.08-.99-.54-1.5-.93-1.72-.31-.2-.65-.31-1.02-.31-.14,0-.25.03-.37.03.2-.11.4-.2.59-.28.93-.34,1.53-.23,1.75.31Z"/><polygon class="cls-2" points="89.83 82.38 0 115.07 0 84.87 89.83 52.17 89.83 82.38"/><polygon class="cls-2" points="89.83 132.19 0 164.88 0 134.68 89.83 101.98 89.83 132.19"/><path class="cls-1" d="M29.65,169.94l.14.28c.14.28.25.54.42.79M34.26,169.6v-17.27l-3.2,1.16v16.11c.23.48.48.96.74,1.41h3.2c-.25-.45-.48-.93-.74-1.41ZM32.48,154.42l.34-.11v13.88h-.34v-13.77Z"/><path class="cls-4" d="M31.06,142.67v-38.84l3.19-1.16v41.37c0,.43,0,1.77.13,2.44.13.68.45.74.83.6.38-.14.7-.43.83-1.2.13-.77.13-2.14.13-2.54v-18.42l3.19-1.16v15.89c0,4.01-.16,5.55-.6,6.87-.6,1.81-1.91,3.01-3.54,3.6s-2.93.35-3.54-1.02c-.45-.99-.61-2.42-.61-6.43Z"/><path class="cls-4" d="M3.81,152.27l3.18-1.16c0,3.07,0,3.83.16,5.04.1.61.29.87.8.68.45-.16.7-.55.8-1.23.06-.42.16-1.58.16-2.66,0-1.91-.1-2.09-.7-2.67l-2.74-2.4c-1.05-.92-1.65-2.21-1.65-5.43,0-1.16.06-2.77.47-4,.67-1.94,1.88-3.07,3.66-3.72,1.72-.63,3.16-.35,3.7,1.04.45,1.1.45,4.21.45,6.99l-3.19,1.16c0-2.24.03-4.78-.1-5.63-.09-.62-.41-.68-.86-.52-.44.16-.76.53-.86,1.14-.1.68-.1,1.73-.1,2.38,0,2.17.19,2.6.86,3.23l2.77,2.42c.99.86,1.47,1.88,1.47,4.56,0,1.01-.03,3.12-.54,4.68-.6,1.85-1.66,2.99-3.6,3.7-1.75.64-3.09.33-3.69-1.04-.48-1.12-.44-2.4-.44-6.56Z"/><path class="cls-4" d="M13.67,145.12c0-4.58,0-8.34.6-10.41.51-1.74,1.94-3.09,3.54-3.67s3.03-.27,3.54,1.1c.61,1.62.61,5.38.61,9.96s0,8.27-.61,10.41c-.51,1.78-1.91,3.08-3.54,3.67-1.62.59-3.03.31-3.54-1.1-.6-1.69-.6-5.19-.6-9.96ZM17.81,153.14c.38-.14.76-.49.83-1.31.13-1.49.13-5.1.13-8.57s0-7.04-.13-8.51c-.07-.77-.51-.79-.83-.67-.35.13-.76.46-.83,1.28-.13,1.56-.13,5.28-.13,8.6s0,7.08.13,8.48c.06.77.45.85.83.71Z"/><path class="cls-4" d="M23.84,129.2l3.19-1.16v21.52l2.87-1.04v3.03l-6.06,2.2v-24.56Z"/><path class="cls-4" d="M43.42,125.39l-2.23.81v-3.03l7.65-2.78v3.03l-2.23.81v21.53l-3.19,1.16v-21.53Z"/><path class="cls-4" d="M50.84,119.58l3.19-1.16v24.56l-3.19,1.16v-24.56Z"/><path class="cls-4" d="M55.79,130.06c0-4.58,0-8.34.6-10.41.51-1.74,1.94-3.09,3.53-3.67s3.03-.27,3.54,1.1c.61,1.62.61,5.38.61,9.96s0,8.27-.61,10.41c-.51,1.78-1.91,3.08-3.54,3.67-1.62.59-3.03.31-3.53-1.1-.6-1.69-.6-5.19-.6-9.96ZM59.93,138.09c.38-.14.77-.49.83-1.31.13-1.49.13-5.1.13-8.57s0-7.04-.13-8.51c-.06-.77-.51-.79-.83-.67-.35.13-.76.46-.83,1.28-.13,1.56-.13,5.28-.13,8.6s0,7.08.13,8.48c.06.77.44.85.83.71Z"/><path class="cls-4" d="M65.67,114.18l2.61-.95,3.79,13.06.1-.07s-.76-7.81-.76-10.01v-4.78l3.19-1.16v25.23l-2.62.95-3.79-13.07-.09.07s.76,7.74.76,9.98v4.15l-3.19,1.16v-24.56Z"/><path class="cls-4" d="M76.2,126.1l3.19-1.16c0,3.07,0,3.83.16,5.03.09.62.29.87.8.68.45-.16.7-.54.8-1.23.06-.42.16-1.57.16-2.66,0-1.91-.1-2.09-.7-2.67l-2.74-2.4c-1.05-.92-1.66-2.21-1.66-5.43,0-1.16.06-2.77.48-4,.67-1.94,1.88-3.07,3.66-3.72,1.72-.62,3.16-.35,3.7,1.04.45,1.1.45,4.21.45,6.99l-3.19,1.16c0-2.24.03-4.78-.1-5.63-.1-.62-.41-.68-.86-.52s-.76.53-.86,1.14c-.1.68-.1,1.73-.1,2.38,0,2.17.19,2.6.86,3.23l2.78,2.42c.99.87,1.47,1.89,1.47,4.56,0,1.01-.03,3.12-.54,4.68-.6,1.84-1.66,2.99-3.6,3.69-1.75.64-3.09.33-3.69-1.04-.48-1.12-.45-2.4-.45-6.55Z"/><path class="cls-4" d="M60.7,169.6c-.23.48-.48.96-.74,1.41-3.25,5.94-7.95,10.26-13.74,11.62l-.34.06-.31-.06c-5.8-1.36-10.52-5.68-13.77-11.62-.25-.45-.51-.93-.74-1.41h3.2c.25.48.48.96.74,1.41,2.69,4.86,6.14,7.58,10.89,8.79,4.78-1.22,8.17-3.93,10.89-8.79.25-.45.48-.93.74-1.41h3.2Z"/><polygon class="cls-2" points="89.83 34.26 0 66.96 0 36.76 89.83 4.06 89.83 34.26"/><path class="cls-4" d="M7.64,36.72l3.22-1.17.67,7.38c.22,2.34.48,10.26.48,10.26l.22-.08s.25-8.11.57-10.65l1.02-7.99,2.42-.88,1.02,7.25c.32,2.31.57,10.23.57,10.23l.22-.08s.25-8.11.48-10.61l.67-7.86,3.22-1.17-2.42,25.44-3.38,1.23-.64-4.82c-.32-2.3-.86-8.32-.86-8.32l-.19.07s-.54,6.41-.86,8.94l-.64,5.29-3.38,1.23-2.42-23.68Z"/><path class="cls-4" d="M29.89,11.52l3.19-1.16v28.44l1.91-.7v-11.34l3.19-1.16v24.56l-3.19,1.16v-10.18l-1.91.69v10.04s-3.18,1.16-3.18,1.16V11.52Z"/><path class="cls-4" d="M46.16,34.98c0-4.58,0-8.34.6-10.41.51-1.74,1.94-3.09,3.54-3.67s3.03-.27,3.53,1.1c.61,1.62.61,5.38.61,9.96s0,8.27-.61,10.41c-.51,1.78-1.91,3.08-3.53,3.67-1.63.59-3.03.31-3.54-1.1-.6-1.69-.6-5.19-.6-9.96ZM50.3,43.01c.38-.14.76-.49.83-1.31.13-1.49.13-5.1.13-8.57s0-7.04-.13-8.51c-.06-.77-.51-.79-.83-.67-.35.13-.77.46-.83,1.28-.13,1.56-.13,5.28-.13,8.6s0,7.08.13,8.48c.06.77.44.85.83.71Z"/><path class="cls-4" d="M62.42,16.79l3.19-1.16v21.52l2.87-1.04v3.03l-6.06,2.21v-24.56Z"/><path class="cls-4" d="M76.13,11.79l6.06-2.2v3.03l-2.87,1.04v7.44l2.55-.93v2.82l-2.55.93v8.23l2.87-1.04v3.03l-6.06,2.21V11.79Z"/><path class="cls-4" d="M31.07,153.49v16.11h3.2v-17.27l-3.2,1.16Z"/><polygon class="cls-2" points="35.41 102.85 29.71 105.02 29.7 104.31 35.4 102.14 35.41 102.85"/><polygon class="cls-2" points="35.42 103.69 29.72 105.86 29.71 105.29 35.41 103.12 35.42 103.69"/><polygon class="cls-2" points="35.43 104.54 29.73 106.7 29.73 106.26 35.42 104.09 35.43 104.54"/><polygon class="cls-2" points="35.44 105.38 29.75 107.55 29.74 107.24 35.44 105.07 35.44 105.38"/><polygon class="cls-2" points="35.46 106.22 29.76 108.39 29.76 108.22 35.45 106.05 35.46 106.22"/><polygon class="cls-2" points="61.93 93.13 56.24 95.3 56.23 94.59 61.92 92.42 61.93 93.13"/><polygon class="cls-2" points="61.95 93.97 56.25 96.14 56.24 95.57 61.94 93.4 61.95 93.97"/><polygon class="cls-2" points="61.96 94.82 56.26 96.98 56.25 96.54 61.95 94.37 61.96 94.82"/><polygon class="cls-2" points="61.97 95.66 56.27 97.83 56.27 97.52 61.97 95.35 61.97 95.66"/><polygon class="cls-2" points="61.98 96.5 56.29 98.67 56.28 98.5 61.98 96.33 61.98 96.5"/><polygon class="cls-2" points="34.42 9.88 28.72 12.05 28.71 11.35 34.41 9.18 34.42 9.88"/><polygon class="cls-2" points="34.43 10.73 28.73 12.9 28.73 12.32 34.42 10.15 34.43 10.73"/><polygon class="cls-2" points="34.44 11.57 28.75 13.74 28.74 13.3 34.44 11.13 34.44 11.57"/><polygon class="cls-2" points="34.46 12.42 28.76 14.59 28.75 14.28 34.45 12.11 34.46 12.42"/><polygon class="cls-2" points="34.47 13.26 28.77 15.43 28.77 15.25 34.47 13.08 34.47 13.26"/><polygon class="cls-2" points="35.39 152.52 29.69 154.69 29.68 153.98 35.38 151.81 35.39 152.52"/><polygon class="cls-2" points="35.4 153.36 29.71 155.53 29.7 154.96 35.39 152.79 35.4 153.36"/><polygon class="cls-2" points="35.42 154.21 29.72 156.38 29.71 155.94 35.41 153.77 35.42 154.21"/><polygon class="cls-2" points="35.43 155.05 29.73 157.22 29.73 156.91 35.42 154.74 35.43 155.05"/><polygon class="cls-2" points="35.44 155.9 29.74 158.07 29.74 157.89 35.44 155.72 35.44 155.9"/><path class="cls-4" d="M13.31,85.28c-.54-1.44-1.98-1.78-3.79-1.13l-3.82,1.39v24.57l3.82-1.41c1.98-.71,3.28-1.89,3.85-3.93.62-2.12.62-5.2.62-9.95s-.06-7.89-.68-9.53ZM10.68,104.11c-.08.79-.48,1.3-1.16,1.56l-.62.23v-18.49l.62-.23c.71-.25,1.07.06,1.16.93.11,1.47.11,4.52.11,7.86s0,6.65-.11,8.14Z"/><path class="cls-4" d="M24.37,91.28v-.03c.4-.34.71-.68.96-1.07.85-1.33.85-2.77.85-4.84,0-1.89,0-4.75-1.16-5.74-.68-.59-1.84-.42-3.05.03l-4.07,1.47v24.57l3.17-1.16v-10.26l.71-.25c.57-.2.85-.08,1.02.2.2.45.2,1.58.2,2.12v7.49l3.2-1.16v-7.15c0-2.06-.14-3.31-.88-3.87-.28-.17-.57-.34-.93-.34ZM21.71,91.19l-.65.23v-8.43l.79-.31c.62-.2.88,0,.96.45.17.85.17,2.94.17,3.39,0,.74,0,2.83-.23,3.56-.2.62-.51.9-1.05,1.1Z"/><path class="cls-4" d="M30.53,55.87v45.1l3.2-1.16v-45.1l-3.2,1.16Z"/><path class="cls-4" d="M57.51,143.42v26.18h3.2v-27.34l-3.2,1.16Z"/><path class="cls-4" d="M57.51,3.03v12.81l3.08-1.13.11-.03V1.87l-3.2,1.16Z"/><path class="cls-4" d="M41.28,94.1v-21.52l-3.2,1.16v24.57l6.08-2.21v-3.05l-2.88,1.05Z"/><path class="cls-4" d="M50.92,90.6v-21.52l-3.2,1.16v24.57l6.05-2.21v-3.05l-2.86,1.05Z"/><path class="cls-4" d="M57.51,66.62v24.79l3.2-1.16v-24.79l-3.2,1.16Z"/><path class="cls-4" d="M70.8,61.9v4.07c0,2.21.76,10.01.76,10.01l-.08.06-3.79-13.06-2.63.96v24.55l3.2-1.16v-4.16c0-2.23-.76-9.95-.76-9.95l.08-.08,3.82,13.06,2.6-.93v-24.52l-3.2,1.16Z"/><path class="cls-4" d="M82.02,73.07l.96-.34v5.26c0,.99-.4,1.39-.96,1.58-.37.14-.74.03-.82-.71-.14-1.39-.14-5.01-.14-8.48s0-7.04.14-8.6c.08-.79.48-1.16.82-1.27.34-.11.74-.06.79.68.14,1.13.17,3.48.17,6.19l3.2-1.16c-.03-3.65-.06-6.31-.62-7.66-.57-1.33-1.92-1.67-3.53-1.1-1.58.59-3.03,1.95-3.53,3.68-.59,2.06-.59,5.83-.59,10.41s0,8.4.59,9.95c.54,1.41,1.61,1.81,2.83,1.36,1.61-.57,2.38-1.5,2.71-3.08l.11-.03.37,1.67,1.67-.59v-12.3l-4.16,1.53v3.03Z"/><polygon class="cls-2" points="61.93 142.25 56.24 144.42 56.23 143.71 61.92 141.54 61.93 142.25"/><polygon class="cls-2" points="61.95 143.09 56.25 145.26 56.24 144.69 61.94 142.52 61.95 143.09"/><polygon class="cls-2" points="61.96 143.94 56.26 146.11 56.25 145.67 61.95 143.5 61.96 143.94"/><polygon class="cls-2" points="61.97 144.78 56.27 146.95 56.27 146.64 61.97 144.47 61.97 144.78"/><polygon class="cls-2" points="61.98 145.63 56.29 147.8 56.28 147.62 61.98 145.45 61.98 145.63"/><polygon class="cls-2" points="34.96 54.82 29.26 56.99 29.25 56.29 34.95 54.12 34.96 54.82"/><polygon class="cls-2" points="34.97 55.67 29.27 57.84 29.26 57.26 34.96 55.09 34.97 55.67"/><polygon class="cls-2" points="34.98 56.51 29.28 58.68 29.28 58.24 34.98 56.07 34.98 56.51"/><polygon class="cls-2" points="34.99 57.36 29.3 59.53 29.29 59.22 34.99 57.05 34.99 57.36"/><polygon class="cls-2" points="35.01 58.2 29.31 60.37 29.31 60.19 35 58.02 35.01 58.2"/><polygon class="cls-2" points="61.9 44.89 56.21 47.06 56.2 46.36 61.89 44.19 61.9 44.89"/><polygon class="cls-2" points="61.92 45.74 56.22 47.91 56.21 47.33 61.91 45.16 61.92 45.74"/><polygon class="cls-2" points="61.93 46.58 56.23 48.75 56.23 48.31 61.92 46.14 61.93 46.58"/><polygon class="cls-2" points="61.94 47.43 56.24 49.6 56.24 49.29 61.94 47.12 61.94 47.43"/><polygon class="cls-2" points="61.95 48.27 56.26 50.44 56.25 50.26 61.95 48.09 61.95 48.27"/><polygon class="cls-2" points="61.82 1.8 56.12 3.96 56.11 3.26 61.81 1.09 61.82 1.8"/><polygon class="cls-2" points="61.83 2.64 56.14 4.81 56.13 4.24 61.82 2.07 61.83 2.64"/><polygon class="cls-2" points="61.85 3.48 56.15 5.65 56.14 5.21 61.84 3.04 61.85 3.48"/><polygon class="cls-2" points="61.86 4.33 56.16 6.5 56.16 6.19 61.85 4.02 61.86 4.33"/><polygon class="cls-2" points="61.87 5.17 56.17 7.34 56.17 7.17 61.87 5 61.87 5.17"/></g></svg>