<?xml version="1.0" encoding="UTF-8"?>
<svg id="Layer_1" data-name="Layer 1" xmlns="http://www.w3.org/2000/svg" viewBox="0 0 900.44 205.66">
  <defs>
    <style>
      .cls-1, .cls-2, .cls-3 {
      stroke-width: 0px;
      }

      .cls-2 {
      fill: #000;
      }

      .cls-3 {
      fill: #ffd400;
      }
    </style>
  </defs>
  <path class="cls-3"
    d="m459.66,120.66c-2.4-4.49-1.27-19.62-.93-23.46-.98-5.5-3.26-10.68-6.64-15.12-.07-.07-.13-.15-.18-.23-3.17-5.09-18.41-14.92-20.76-17.06,0,0,11.93-20.47,30.21-19.51-3.02,2.48-5.72,5.31-8.06,8.44,1.43-.68,2.88-1.29,4.08-1.74,0,0-8.24,11.6-9.82,19.21,2.01,1.71,3.9,3.56,5.64,5.54.8-2.77,1.21-5.64,1.23-8.52.18-3.5.35-6.8,2.25-9.16,4.15-5.18,11.53-18.69,10-21.52-.14-.26-1-.2-1.14-.19-22.19,1.77-46.24,23.74-46.24,23.74l-.8-.2c-1.13-.28-20.52-3-35.15,4.09-.59-11-13-32.91-20.29-37.93-11.31,19.17-17.63,42.38-17,61.91,2.85-4.19,6.24-7.99,10.08-11.29,2.62-6.39,6.17-17.33,3.45-24.67,0,0,4.65,6.49,6.16,13.28,2.88-13.32-1-27.13-1-27.13,8.19,7.78,11.4,29.09,11.4,29.09-4.77,2-20.85,12.37-29.75,28.86h0c-.03.07-.06.14-.1.2-17.64,27.79-10.48,64.83-12.46,70.67,2.77-.31,6.9-.73,11.64-1.12-1.74-3.87-3.13-7.88-4.15-12-1.33-5.18-2.33-19.66,1.23-31.78h0c7-26.12,24.36-31,24.36-31-8,6.25-13.57,14.34-16,21.66-3.25,9.42-4.83,19.33-4.65,29.29,0,.57.02,1.14.07,1.71.09,1.68.23,3.32.42,4.93.68,5.75,2.07,11.4,4.15,16.81.19.49.39.98.58,1.47.35.86.72,1.7,1.09,2.52,6.95,15.22,17.55,24.09,20.84,26,.4-2.63,1.1-5.19,2.11-7.65l-.49-.74c-.48-.77-1.14-1.85-1.86-3.18-2.74-4.72-5.01-9.7-6.79-14.87l-.17-.5c-.38-1.14-.75-2.33-1.1-3.57-.29-1.03-.57-2.1-.83-3.2-.4-1.67-.75-3.42-1-5.24v-.21c-.11-.71-.22-1.43-.32-2.16.31.87.63,1.72.95,2.55l.07.18c.85,2.2,1.73,4.27,2.62,6.19.3.67.6,1.29.89,1.87.58,1.18,1.16,2.31,1.74,3.38l.39.71c2.54,4.7,5.58,9.1,9.08,13.14,7.71-10.81,20.88-12.87,24.49-13.24l-1.75-1.46-.93-.73c-.29-.21-.55-.41-.93-.66-1.38-.92-2.66-1.75-3.86-2.48-1.78-1.15-3.73-2.03-5.77-2.59-.44-.11-.89-.18-1.35-.19-.13,0-.25,0-.38,0h-.68c-1.29-.05-2.45-1-2.25-2.16.5-2.75,4.54-2.13,5.64-2,2.66.65,5.23,1.63,7.64,2.92,1.4.74,2.83,1.61,4.28,2.56.33.21.77.51,1.18.8s.76.57,1.14.86l2.11,1.72c2.74,2.28,5.66,4.51,8.83,5.67.76.27,1.54.46,2.34.57,2.57.37,5.18.28,7.71-.27,1.7-.32,3.37-.76,5-1.33.75-.26,1.44-.52,2.11-.81l.55-.23.46-.21c.33-.15.64-.29.95-.45,1.22-.62,2.33-1.23,3.28-1.84s1.76-1.17,2.42-1.65,1.16-.82,1.49-1.09c.18-.14.34-.31.48-.49.23-.27.6-.37.93-.25.31.2.43.58.29.92,0,0-.08.17-.27.59-.28.61-.62,1.2-1,1.75-.59.88-1.26,1.7-2,2.46-.88.92-1.84,1.75-2.86,2.5,4.35,3.59,7.86,11.4,8.62,16.87,7.69-9.92,11.15-28.58,11.93-34.51.59-3.71.5-7.51-.25-11.19l-.28-1,.64-.85c6.46-8.57,2.86-17.53,1-21Zm-16.35,11c-.2,1-4.16,8.86-7.48,8.9-1.68,0-2.93-4.66-7.12-7.2-.81-.49-2.27-.94-2.87-1.31-2.84-1.82,18.6-4.85,17.47-.39Zm-19.48-39.74c-4.83-20.56-16.12-27.09-16.12-27.09,18.37,6.83,16.12,27.09,16.12,27.09Zm-14.07,2l.91.58h0c.16-1.26.28-3.7-1.54-7.9-.07-.16,3.92,4.29,4.77,8.35.37,2.3.37,4.65,0,6.95l-2.9-2.24c-15.47-11.13-31.95-12.42-31.94-12.82s16.13-.82,30.7,7.06v.02Zm-24.43,46.09c-.25.12-6.05,3.1-6,12.23v3.75l-1.33-3.51c-.12-.29-2.38-7-.64-10.88,1.84-4.11,7.57-3,7.83-2.93l2,.4-1.86.94Zm23.95-26.35c-.85.56-3.73,1-8,1.34-2.63.18-8.38,1.18-18.28-10.89-2.79.05-12.87,3-18.89,16.52-3.5,8.19-4.97,17.12-4.27,26-3.18-10.13-3.15-21.01.1-31.12,2.4-7.16,11.11-18.78,30.72-18.5.93,0,1.82,0,2.67.07,6.33.25,10.64,1.08,13.43,2.32,1.23.5,2.33,1.29,3.19,2.3,1.57,2,13.17,25,11.95,26-4.73,4.43-20.74,3.58-20.74,3.58,21.47-2.54,10.57-16.06,8.12-17.62Zm42.9,38.07c-.43.86-1.88,1.3-1.88,1.3,0,0-10.67-1.3-14.37-4.13-2.88,2.18-7.56,5.72-12,7.07l-.42.13c-4.96,1.41-10.07,2.18-15.22,2.3-1.18.02-2.36-.07-3.53-.28-2-.39-3-1-3.21-1.84-.05-.2-.05-.4,0-.6.18-.58.72-.97,1.32-.95,3.28.71,6.66.87,10,.48,13.76-1.39,22.86-12.34,22.86-12.34l.3.78c1.71,3.16,4.61,5.49,8.06,6.48,5.22,1.59,6.45-.5,7.59.1.16.09.3.22.39.38.06.09.11.2.14.31.01.08.01.16,0,.24.05.2.03.41-.04.6v-.03Zm2.63-16.07c-.74-2.95-2.57-5.51-5.12-7.17-3.2-2.2-6.61-2.83-6.64-3.08h0l-.32-1c-1.19-2.7-7-16.49-6.16-26,0,0-.13-2.19-.17-3.28.05-2.53.64-5.02,1.75-7.29-.4,2.28-.29,4.62.31,6.85h0l.5-.51c8.31-7,15.86-4.53,15.93-4.2s-6.46-.51-14.13,7.38c4.16-.76,8.42-.87,12.61-.32-.16,1.3,0,8.09-.32,9.31-1.57,6.5-7.75,7.7-11.43,7.75l3.6,10.26c2.88.77,5.5,2.32,7.57,4.47,1.64,1.87,2.38,4.37,2.02,6.83Z" />
  <g>
    <path class="cls-2"
      d="m556.19,137.18c.82-.03,1.6.31,2.15.91.55.61.85,1.41.83,2.23v21.85c.02.82-.28,1.62-.83,2.23-.55.6-1.33.94-2.15.91h-71.51c-2.1,0-3.15-1.05-3.14-3.14V52.6c0-2.09,1.05-3.14,3.14-3.14h22.84c2.09,0,3.14,1.05,3.14,3.14v81.6c-.03.82.3,1.6.91,2.15.61.55,1.41.85,2.23.83h42.39Z" />
    <path class="cls-2"
      d="m659,50.2c.32.61.26,1.36-.17,1.9l-37.28,67.56c-.49.88-.85,1.83-1.08,2.81-.26.98-.4,1.99-.41,3v36.75c.02.82-.28,1.62-.83,2.23-.55.6-1.33.94-2.15.91h-23c-1.72.02-3.12-1.36-3.14-3.08,0-.02,0-.04,0-.06v-36.79c-.01-1.01-.15-2.02-.41-3-.23-.98-.59-1.93-1.08-2.81l-37.09-67.52c-.43-.54-.5-1.29-.17-1.9.43-.55,1.12-.84,1.82-.75h24.83c.91,0,1.8.27,2.57.75.79.46,1.44,1.11,1.9,1.9l22.18,43.56,22.18-43.53c.48-.81,1.17-1.46,2-1.9.8-.48,1.72-.74,2.65-.75h24.83c.7-.1,1.4.17,1.85.72Z" />
    <path class="cls-2"
      d="m769.59,50.36c.6.58.93,1.39.91,2.23v109.58c.02,1.72-1.36,3.12-3.08,3.14-.02,0-.04,0-.06,0h-23.84c-.93-.01-1.85-.27-2.65-.75-.83-.44-1.52-1.09-2-1.9l-36.58-67.53v67c0,2.1-1.05,3.15-3.14,3.14h-22.83c-2.1,0-3.15-1.05-3.14-3.14V52.6c0-2.09,1.05-3.14,3.14-3.14h23.5c.93.01,1.85.27,2.65.75.83.44,1.52,1.09,2,1.9l36.75,67.7V52.6c-.02-1.72,1.36-3.12,3.08-3.14.02,0,.05,0,.07,0h23c.83-.02,1.64.3,2.22.9Z" />
    <path class="cls-2"
      d="m900.25,164.57c-.43.55-1.12.84-1.82.75h-24.83c-.93-.01-1.85-.27-2.65-.75-.83-.44-1.52-1.09-2-1.9l-24.15-34.6-24.33,34.59c-.48.81-1.17,1.46-2,1.9-.8.48-1.72.74-2.65.75h-24.82c-.7.09-1.39-.2-1.82-.75-.33-.5-.22-1.13.33-1.9l35.59-54.46c.88-1.66.88-3.64,0-5.3l-33.43-50.8c-.55-.77-.66-1.41-.33-1.9.43-.55,1.12-.84,1.82-.75h24.84c.93.01,1.85.27,2.65.75.83.44,1.52,1.1,2,1.9l22.15,31.12,22-31.12c.48-.81,1.17-1.46,2-1.9.8-.48,1.72-.74,2.65-.75h24.83c.7-.09,1.39.2,1.82.75.33.5.22,1.13-.33,1.9l-33.44,50.82c-.88,1.66-.88,3.64,0,5.3l35.59,54.44c.55.78.66,1.42.33,1.91Z" />
    <path class="cls-2"
      d="m26.31,74.44h44.56v20.71H0v66.94c0,2.1,1.05,3.15,3.15,3.15h71.7c1.03-.01,2.06-.12,3.07-.33,1.02-.17,2-.51,2.9-1l15.24-15.25c.38-.91.68-1.85.91-2.81.26-.98.4-1.99.41-3v-19.53c-.03-1-.25-1.99-.66-2.9-.37-.92-.87-1.79-1.49-2.57l-6.79-8.28c-1.16-1.37-1.23-3.35-.17-4.8l7.12-9.11c.61-.77,1.09-1.64,1.41-2.57.36-.92.56-1.91.58-2.9v-18.4c-.02-1.04-.16-2.07-.41-3.07-.22-.99-.53-1.96-.91-2.9l-15.25-15.23c-.94-.38-1.91-.69-2.9-.91-1-.25-2.03-.39-3.07-.41H3.11c-1.72,0-3.11,1.39-3.11,3.11,0,.01,0,.02,0,.03v16.58l26.34,20-.03-14.55Zm44.57,65.44H26.31v-22.53h44.56v22.53Z" />
    <path class="cls-2"
      d="m122,165.07h23c1.57.09,2.91-1.1,3-2.67,0-.11,0-.22,0-.33v-29.81c-.03-.82.31-1.6.91-2.15.61-.55,1.41-.85,2.24-.83h32.85c.82-.02,1.62.28,2.23.83.6.55.94,1.33.91,2.15v29.82c-.09,1.57,1.1,2.91,2.67,3,.11,0,.22,0,.33,0h23c.83.02,1.63-.27,2.24-.83.6-.55.94-1.33.91-2.15v-90.44c-.02-1.04-.16-2.07-.41-3.07-.21-1-.51-1.98-.88-2.93l-15.25-15.24c-.94-.38-1.91-.69-2.9-.91-1-.25-2.03-.39-3.07-.41h-52.52c-1.01.01-2.02.15-3,.41-.96.23-1.91.53-2.82.91l-15.22,15.24c-.36.86-.64,1.74-.83,2.65-.22.99-.39,1.93-.5,2.82v91c-.03.82.3,1.6.91,2.15.61.55,1.41.85,2.23.83m26-90h39.1v29.33h-39.1v-29.33Z" />
    <path class="cls-2"
      d="m266.28,119.51c.48.88.85,1.83,1.08,2.81.26.98.39,1.99.41,3v36.78c-.02,1.72,1.35,3.13,3.07,3.15.03,0,.05,0,.08,0h23c.82.03,1.6-.3,2.15-.91.56-.61.85-1.41.83-2.24v-36.79c.01-1.01.15-2.02.41-3,.23-.98.59-1.93,1.08-2.81l37.28-67.6c.43-.55.5-1.3.17-1.91-.44-.55-1.14-.83-1.84-.73h-24.81c-.93.01-1.85.27-2.65.74-.83.44-1.52,1.1-2,1.91l-22.2,43.57-22.2-43.57c-.46-.79-1.12-1.45-1.91-1.91-.77-.48-1.66-.73-2.57-.74h-24.84c-.69-.09-1.38.19-1.82.74-.33.61-.26,1.36.17,1.91l37.11,67.6Z" />
  </g>
  <path class="cls-1" d="m423.85,91.94s2.25-20.28-16.12-27.09c0,0,11.27,6.53,16.12,27.09Z" />
  <path class="cls-1"
    d="m460.07,61.66c.1-.13,6.64-9,9.6-16.88,6.64-8.83,18.33-25.73,18.33-25.73-1.68,1.37-3.54,2.52-5.52,3.41,1-2.16.91-4.66-.24-6.74-1.11,4.48-11.3,14.08-14.39,15.84-3.16.82-6.35,1.71-9.15,2.53-19.82,4-39.68,22.27-40,22.51-5.99-1.23-12.13-1.56-18.22-1-4.69.61-9.32,1.66-13.82,3.13-4.79-18-29.83-58.73-29.83-58.73.31,2.12.47,4.25.46,6.39l-6.16-3c6.19,11.16,4.53,26,4,29.73-10.71,21.86-15.11,43.42-12.77,62.8-5.63,12.87-8.75,23.4-9.69,34.2-.28,3.19-.47,9.18-.47,15.37.12,13.27.32,19.4-3.21,23.66l-3.29,4,5.11-.66c.15,0,7.36-.93,16.72-1.65,10.4,20.42,27.86,34.82,27.86,34.82.08-.2,3.64-33.52,32.63-32,9.69,5.34,17.48,3.66,19.5,3.22,1.93-.4,3.81-.99,5.63-1.76l.95-.42c6.53,4.37,11.86,21.9,11.86,21.9l1.57-2c19.08-24.43,15.92-46.83,15.08-51.17,7.15-10.27,3-20.71.78-24.79-1.38-2.58-1.07-14-.41-21.37v-.34l-.07-.33c-1.32-5.68-3.59-11.09-6.73-16,2.09-4.18,2.33-8.56,2.51-12.14.19-2.92.31-5.45,1.38-6.8Zm-5.62,6.56c-.03,2.88-.45,5.74-1.25,8.5-1.73-1.98-3.61-3.82-5.61-5.53,1.58-7.62,9.82-19.21,9.82-19.21-1.2.44-2.64,1.06-4.08,1.74,2.34-3.13,5.04-5.96,8.06-8.44-18.28-1-30.27,19.67-30.27,19.67.46.44,18.12,12.3,21,17.13s4.67,6.68,6.64,15.12c-.33,3.83-1.47,19,.93,23.46,1.85,3.46,5.45,12.42-1,21l-.64.85.28,1c.75,3.68.84,7.48.25,11.19-.78,5.93-4.24,24.59-11.93,34.51-.76-5.46-4.27-13.28-8.62-16.87,1.02-.75,1.98-1.58,2.86-2.5.85-.9,4.32-5,2.94-5.72-.67-.36-1.06.4-1.42.67-9.28,6.87-14.35,7.36-16.06,7.65s-6.25,1.13-10.23-.28c-3.17-1.13-6.09-3.38-8.83-5.66-2.7-2.27-5.61-4.26-8.71-5.94-2.41-1.31-4.97-2.29-7.64-2.92-3.74-.74-5.64.46-5.64,2,.04,1.21,1.04,2.17,2.25,2.16.81,0,1.61.07,2.41.19,2.02.63,3.96,1.5,5.77,2.59,2,1.14,3.91,2.44,5.71,3.87l1.75,1.46c-3.61.37-16.78,2.43-24.49,13.24-3.5-4.04-6.54-8.44-9.08-13.14-2.2-3.89-4.09-7.95-5.64-12.15l-.07-.18c-.32-.83-.64-1.68-.95-2.55.09.73.24,1.52.31,2.24.4,3.93,3.12,12.47,3.17,12.63,2.28,6.61,5.35,12.92,9.14,18.8-1.01,2.46-1.71,5.02-2.11,7.65-3.29-1.87-13.89-10.73-20.84-26-.37-.82-.74-1.66-1.09-2.52-.2-.48-.39-.97-.58-1.47-2.09-5.4-3.5-11.05-4.19-16.8-.19-1.61-.33-3.25-.42-4.93,0-.57-.02-1.14-.07-1.71-.18-9.96,1.4-19.87,4.65-29.29,2.44-7.32,8-15.42,16-21.66,0,0-17.33,4.9-24.36,31-.83,3.14-1.47,6.32-1.93,9.53-1.08,7.39-.84,14.92.71,22.23,1.03,4.12,2.43,8.13,4.18,12-4.73.38-8.81.81-11.58,1.12,4.27-17.3,0-30.92,2.24-40.43,1.52-6.44,3.81-18.23,9.78-29.61l1.74-3.12c9.08-15.17,23.88-24.67,28.43-26.6,0,0-2.46-20.18-11.36-29.09,0,0,3.84,13.8,1,27.13-1.51-6.79-6.15-13.31-6.15-13.31,2.71,7.34-.83,18.35-3.45,24.64h0c-3.85,3.32-7.25,7.13-10.1,11.34-.62-19.52,5.7-42.71,17-61.88,7.3,5,19.7,27,20.29,37.93,16.64-7.63,35.95-3.89,35.95-3.89,0,0,25.37-22.54,46.24-23.74.17,0,1-.06,1.14.19,1.56,2.83-5.83,16.34-10,21.52-1.9,2.42-2.08,5.72-2.26,9.22v-.03Z" />
</svg>