<?xml version="1.0" encoding="UTF-8"?>
<svg id="Layer_1" data-name="Layer 1" xmlns="http://www.w3.org/2000/svg" viewBox="0 0 234 134.62">
  <defs>
    <style>
      .cls-1 {
      fill: #2e3192;
      }

      .cls-1, .cls-2, .cls-3, .cls-4, .cls-5 {
      stroke-width: 0px;
      }

      .cls-2 {
      fill: #231f20;
      }

      .cls-3 {
      fill: #be1e2d;
      }

      .cls-4 {
      fill: #bcbec0;
      }

      .cls-5 {
      fill: #fff;
      }
    </style>
  </defs>
  <path class="cls-3"
    d="m175.31,76.22l-7.79-6.34.27-.09c.85-.3,1.77-.37,2.65-.21,1.98.37,3.54,1.85,3.97,3.77.23.99.53,1.94.9,2.87Z" />
  <path class="cls-3"
    d="m68.69,111.91c-.71,3.35-2.96,6.23-6.02,7.72l-1.32.64c-.22.11-.35.1-.44.09-.23-.04-.5-.25-.8-.47-.43-.32-.93-.69-1.59-.81-.44-.08-.89-.04-1.34.13-.42.17-.78.38-1.07.63l-8.68-11.85c1.99-.72,4.18-1.29,6.62-1.93,2.21-.58,4.7-1.23,7.36-2.1,2.01-.64,3.66-.85,4.9-.62.93.17,1.61.6,2.07,1.29.91,1.38,1.02,3.89.31,7.28Z" />
  <path class="cls-1"
    d="m195.68,48.97c-1.95-.19-4.15.16-6.99,1.11L40.99,98.99c-2.04.69-7.04,3.36-9.75,6.2-2.26,2.36-4.43,5.33-5.97,8.18l-8.34,16.06-9.74-13.81c-.67-.95-1.37-1.82-2.03-2.67-1.77-2.24-3.31-4.17-3.01-5.72.08-.41.91-4.3,5.96-12.84,5.55-9.4,11.81-15.22,18.6-17.32l134.31-41.29c3.01-.92,7.55-2.31,11.01-1.88.23.03.47.06.71.09.77.09,1.64.2,2.53.36,2.32.44,4.06,1.18,5.48,2.36l14.92,12.25Z" />
  <path class="cls-3"
    d="m203.45,69.8c-.04.1-.08.19-.13.29-.93-.26-1.86-.55-2.81-.87-.53-.18-1.06-.37-1.57-.55,1.58-4.54.65-9.11-2.5-10.84-.53-.29-1.09-.49-1.69-.6-3.52-.66-7.64,1.89-10.07,6.22-.14.16-.25.34-.33.53-.05.12-.09.25-.14.37-2.39,5.01-1.62,10.43,1.88,12.36.52.28,1.09.49,1.68.6,2.13.4,4.48-.38,6.55-2.01,1.22.46,2.47.91,3.75,1.34.26.09.53.17.79.26-3.38,3.63-7.66,5.95-11.7,6.01-4.1.06-7.04-1.79-9.14-5.78-.69-1.31-1.21-2.73-1.55-4.22-.63-2.74-2.85-4.85-5.64-5.37-1.25-.23-2.54-.13-3.74.29l-57.42,20.32c-3.31,1.17-6.19,3.25-8.34,6.02-5.35,6.89-15.4,19.36-22.56,25.42-5.79,4.9-10.27,6.72-14.53,5.92-1.29-.24-2.58-.73-3.94-1.48-2.94-1.62-3.01-2.46-3.01-2.46.02-.06.21-.24.55-.37.1-.04.14-.03.17-.02.17.03.44.23.7.42.43.32.96.71,1.66.84.57.11,1.16.02,1.74-.26l1.3-.63c3.61-1.74,6.27-5.12,7.1-9.05.84-3.95.62-6.9-.62-8.76-1.6-2.4-4.77-2.95-9.3-1.5-2.57.83-4.9,1.44-7.16,2.02-7.69,2-13.76,3.58-18.76,12.12-1.44,2.44-2.88,5.18-4.15,7.58-1.55,2.95-3.02,5.73-3.92,6.86-1.62,2.07-4.47,1.79-5.62,1.58-1.28-.24-2.2-.7-2.63-1.04l8.81-16.97c1.44-2.67,3.49-5.48,5.63-7.71,2.43-2.55,7.09-5.04,8.9-5.66l147.68-48.92c2.85-.95,5-1.24,6.77-.91,1.12.21,2.03.64,3.09,1.13.38.18.78.37,1.19.54l.16.13c.58.47,1.18.96,1.63,1.54.62.78,1.17,1.69,1.6,2.66,1.73,3.62,1.61,7.99-.33,12.63Z" />
  <g>
    <g>
      <path class="cls-5"
        d="m48.24,93.4l-7.8-6.86-2.72-.1,1.11-1.31-8.89-7.82,11.13-3.42c.32-.1.67-.15,1.04-.15.28,0,.58.03.89.09.72.13,1.31.39,1.75.78l3.56,3.08-4.06,2.47-2.23,1.41,1.45-1.85-2.51-2.18c-.11-.09-.25-.16-.41-.19-.07-.01-.15-.02-.22-.02-.08,0-.16.01-.23.03l-1.96.61c-.06.02-.14.05-.16.1,0,0,.01.03.08.09l13.49,11.78c.11.1.25.16.43.19.08.01.15.02.22.02.09,0,.18-.01.26-.04l1.96-.64c.07-.02.12-.06.13-.08,0,0,0-.04-.1-.12l-4.91-4.27.56-.64-2.53,1.56-2.9-2.53,5.96-3.69,10.16,8.78c.5.43.69.9.57,1.38-.12.47-.49.81-1.11,1.01l-12.1,3.97.07-1.43Z" />
      <path class="cls-2"
        d="m42.11,74c.27,0,.55.03.84.08.68.13,1.22.36,1.63.72l3.3,2.85-3.77,2.29-1,.63.7-.89-2.69-2.34c-.14-.12-.32-.21-.53-.25-.09-.02-.18-.03-.26-.03-.11,0-.21.01-.3.04l-1.96.61c-.17.05-.28.14-.32.26-.04.12,0,.24.15.37l13.49,11.78c.15.13.33.21.56.25.09.01.18.02.26.02.12,0,.23-.02.34-.05l1.96-.64c.17-.05.27-.14.3-.26.03-.12-.03-.24-.18-.37l-4.72-4.1,1.49-1.71-3.78,2.34-2.51-2.18,5.52-3.41,10.02,8.66c.42.37.59.74.49,1.13-.1.39-.41.66-.94.84l-11.76,3.85.06-1.19-7.95-6.99-2.3-.08.94-1.11-8.74-7.68,10.71-3.29c.3-.09.62-.14.96-.14m0-.5h0c-.39,0-.77.05-1.11.16l-10.71,3.29-.86.26.67.59,8.37,7.36-.62.74-.66.78,1.03.04,2.12.08,7.64,6.72-.05.95-.04.73.69-.23,11.76-3.85c.87-.28,1.17-.8,1.27-1.19.1-.4.08-1.01-.64-1.63l-10.02-8.66-.28-.24-.31.19-5.52,3.41-.5.31-1.93-1.69.98-.62,1-.63,3.76-2.29.59-.36-.52-.45-3.3-2.85c-.48-.41-1.11-.69-1.87-.83-.32-.06-.64-.09-.94-.09h0Zm-3.68,4.65l1.75-.55s.1-.02.16-.02c.05,0,.11,0,.17.02.12.02.22.07.3.13l2.33,2.03-.41.52-.76.97-3.54-3.09h0Zm9.2,8.04l.24-.15,1.45-.9.25.22,4.55,3.95-1.73.57c-.05.02-.11.03-.18.03-.06,0-.11,0-.18-.02-.13-.02-.24-.06-.31-.13l-4.09-3.57h0Z" />
    </g>
    <g>
      <path class="cls-5"
        d="m63.31,88.48l-7.81-6.73-2.67-.1,1.06-1.29-8.91-7.67,12.91-3.97,8.97,7.6-.77.99,2.04.1,9.27,7.85-5.15,1.69-8.23-7.01-2.67,1.67.78-.25,7.53,6.44-6.39,2.09.04-1.4Zm-4.24-9.75l2.65-1.64-.76.24-5.54-4.72-3.01.93-.24.15.74-.23,6.16,5.27Z" />
      <path class="cls-2"
        d="m57.83,69.01l8.68,7.35-.92,1.18,2.44.11,8.86,7.5-4.6,1.51-8.26-7.04-4.52,2.83,2.56-.82,7.08,6.06-5.63,1.84.03-1.16-7.97-6.86-2.25-.09.89-1.08-8.76-7.54,12.34-3.79m-7.52,5.53l2.55-.79,6.19,5.3,4.5-2.79-2.53.8-5.53-4.72-3.14.97-2.04,1.23m7.64-6.09l-.26.08-12.34,3.79-.87.27.69.59,8.39,7.22-.58.71-.64.78,1.01.04,2.08.08,7.65,6.59-.02.93-.02.71.67-.22,5.63-1.84.85-.28-.68-.58-7.08-6.06h0s1.6-1.01,1.6-1.01l7.98,6.8.21.18.27-.09,4.6-1.51.85-.28-.68-.58-8.86-7.5-.13-.11h-.17s-1.48-.08-1.48-.08l.32-.42.29-.38-.37-.31-8.68-7.35-.21-.18h0Zm-4.58,5.07l2.01-.62,5.33,4.54h0s-1.6.99-1.6.99l-5.73-4.91h0Z" />
    </g>
    <g>
      <path class="cls-5"
        d="m78.05,83.67l-7.82-6.6-2.62-.11,1.01-1.26-8.93-7.54,10.59-3.25c.3-.09.63-.14.98-.14.27,0,.57.03.88.09.7.13,1.28.38,1.72.75l17.96,14.92-5.03,1.65-8.75-7.31-2.53,1.6.72-.23,8.06,6.76-6.23,2.04v-1.37Zm-4.92-10.03l2.51-1.57-.69.22-4.65-3.88c-.09-.08-.22-.13-.38-.16-.07-.01-.14-.02-.21-.02-.08,0-.15.01-.21.03l-2.47.77-.21.13.7-.22,5.62,4.71Z" />
      <path class="cls-2"
        d="m71.25,65.03c.26,0,.54.03.83.08.66.12,1.2.35,1.61.7l17.62,14.63-4.47,1.47-8.79-7.34-2.4,1.52-1.97,1.23,2.49-.79,7.61,6.38-5.48,1.79v-1.14s-7.97-6.73-7.97-6.73l-2.21-.09.85-1.06-8.77-7.4,10.15-3.12c.28-.09.58-.13.91-.13m-6.29,4.96l2.49-.77,5.65,4.74,2.41-1.51,1.95-1.21-2.46.78-4.54-3.79c-.13-.1-.29-.18-.49-.22-.09-.02-.18-.03-.26-.03-.1,0-.2.01-.29.04l-2.47.77-1.98,1.2m6.29-5.46h0c-.38,0-.73.05-1.06.15l-10.15,3.12-.88.27.7.59,8.4,7.09-.55.68-.62.77.99.04,2.04.08,7.67,6.47v.91s0,.69,0,.69l.66-.22,5.48-1.79.85-.28-.69-.58-7.61-6.38,1.52-.96,8.51,7.11.21.18.26-.09,4.47-1.47.86-.28-.7-.58-17.62-14.63c-.48-.4-1.09-.67-1.84-.8-.32-.06-.63-.09-.92-.09h0Zm-3.29,4.46l1.6-.5s.09-.02.14-.02.11,0,.16.02c.12.02.21.06.27.11l4.53,3.78-1.52.95-5.18-4.35h0Z" />
    </g>
    <g>
      <path class="cls-5"
        d="m92.39,78.99l-7.83-6.48-2.57-.11.96-1.23-8.95-7.4,12.28-3.78,10.41,8.48-5.72,3.66,7.53,6.2-6.08,2-.03-1.34Zm-4.34-9.26l1.88-1.2-5.47-4.49c-.07-.06-.15-.1-.24-.14-.09-.04-.19-.06-.31-.06,0,0-.01,0-.02,0-.15,0-.21.01-.25.02l-2.41.75-.18.11.67-.21,6.33,5.21Z" />
      <path class="cls-2"
        d="m86.23,60.27l10.04,8.18-5.72,3.66,7.45,6.13-5.33,1.75-.02-1.12-7.98-6.61-2.17-.09.81-1.04-8.78-7.26,11.71-3.6m-6.99,5.28l2.42-.75,6.37,5.24,2.33-1.48-5.74-4.7c-.09-.07-.19-.13-.31-.18-.12-.04-.25-.07-.39-.08-.02,0-.05,0-.07,0-.11,0-.21.01-.28.03l-2.41.75-1.91,1.17m7.1-5.84l-.26.08-11.71,3.6-.89.27.71.59,8.4,6.95-.51.65-.6.77.97.04,2.01.08,7.68,6.35.02.89v.68s.66-.21.66-.21l5.33-1.75.86-.28-.7-.58-6.92-5.69,5.14-3.29.58-.37-.54-.44-10.04-8.18-.21-.17h0Zm-4.15,4.87l1.53-.47s.04-.01.13-.01h.05c.09,0,.17.02.23.04.06.03.12.06.17.1l5.21,4.27-1.44.91-5.88-4.84h0Z" />
    </g>
    <g>
      <polygon class="cls-5"
        points="105.77 74.63 97.94 68.26 95.41 68.15 96.32 66.95 87.36 59.66 92.21 58.18 100.63 64.98 102.96 63.5 102.3 63.71 94.54 57.46 99.37 55.98 118.93 71.64 114.12 73.22 105.36 66.17 103.01 67.68 103.7 67.46 111.78 73.99 105.83 75.94 105.77 74.63" />
      <path class="cls-2"
        d="m99.31,56.25l19.1,15.3-4.25,1.39-8.79-7.08-4.09,2.63,2.36-.76,7.62,6.16-5.2,1.7-.05-1.09-7.98-6.49-2.14-.09.77-1.02-8.78-7.14,4.27-1.31,8.46,6.83,4.08-2.6-2.34.74-7.29-5.87,4.25-1.31m.11-.56l-.25.08-4.25,1.31-.9.28.73.59,7.27,5.85-1.37.87-8.18-6.61-.21-.17-.25.08-4.27,1.31-.9.28.73.59,8.41,6.83-.48.63-.58.76.95.04,1.97.09,7.68,6.24.04.87.03.66.63-.21,5.2-1.7.87-.29-.71-.58-7.6-6.15,1.37-.88,8.51,6.85.21.17.26-.08,4.25-1.39.88-.29-.72-.58-19.1-15.3-.21-.17h0Z" />
    </g>
    <g>
      <polygon class="cls-5"
        points="119.43 70.17 111.59 63.92 109.1 63.81 109.98 62.63 101.01 55.47 105.75 54.01 125.32 69.55 119.51 71.45 119.43 70.17" />
      <path class="cls-2"
        d="m105.7,54.29l19.1,15.17-5.07,1.66-.07-1.07-7.98-6.37-2.1-.1.74-.99-8.78-7.01,4.17-1.28m.1-.56l-.25.08-4.17,1.28-.9.28.74.59,8.41,6.71-.45.61-.56.75.94.04,1.94.09,7.68,6.13.06.85.04.64.61-.2,5.07-1.66.88-.29-.73-.58-19.1-15.17-.21-.16h0Z" />
    </g>
    <g>
      <path class="cls-5"
        d="m125.82,68.09l-7.83-6.2-2.47-.11.85-1.17-8.97-7.1,9.75-3c.27-.08.57-.13.9-.13.27,0,.55.03.85.08.67.12,1.23.36,1.67.71l5.73,4.47-3.44,2.22-1.88,1.19,7.49,5.9c.12.09.25.15.42.18.07.01.14.02.21.02.08,0,.15,0,.21-.03l1.7-.55c.06-.02.04-.07-.04-.13l-6.16-4.83,3.58-2.34,8.28,6.46c.5.39.72.81.66,1.24-.04.31-.24.72-.93.94l-10.48,3.43-.1-1.27Zm-4.85-9.04l1.12-1.57-4.66-3.65c-.07-.05-.15-.1-.24-.13-.09-.03-.19-.05-.3-.06h-.03c-.14,0-.19.01-.22.02l-2.27.7-.12.07.61-.19,6.1,4.8Z" />
      <path class="cls-2"
        d="m118.05,50.63c.25,0,.52.03.81.08.63.12,1.15.34,1.56.66l5.46,4.26-3.14,2.03-.85.54.55-.77-4.84-3.8c-.09-.07-.19-.13-.31-.17-.11-.04-.24-.07-.38-.07-.03,0-.05,0-.07,0-.1,0-.19.01-.26.03l-2.27.7-1.76,1.11,2.28-.71,13.51,10.63c.15.12.32.19.53.23.09.01.17.02.25.02.11,0,.2-.01.29-.04l1.7-.55c.08-.03.15-.07.2-.14.05-.07.06-.14.02-.21-.03-.07-.09-.14-.19-.22l-5.88-4.61,3.14-2.05,8.13,6.35c.43.33.61.67.57,1.01-.05.34-.3.59-.76.74l-10.18,3.34-.08-1.06-7.98-6.32-2.08-.1.72-.98-8.78-6.95,9.29-2.86c.25-.08.52-.11.82-.11m0-.5h0c-.35,0-.67.05-.97.14l-9.29,2.86-.91.28.75.59,8.41,6.65-.43.6-.55.75.93.04,1.92.09,7.68,6.08.06.84.05.64.61-.2,10.18-3.34c.81-.27,1.04-.77,1.1-1.15.07-.53-.18-1.02-.76-1.47l-8.13-6.35-.28-.22-.3.2-3.14,2.05-.58.38.55.43,5.64,4.42-1.34.44s-.08.02-.13.02-.11,0-.16-.02c-.13-.02-.23-.06-.31-.13l-7.21-5.68.72-.46.85-.54,3.15-2.04.59-.38-.55-.43-5.46-4.26c-.47-.37-1.07-.62-1.78-.76-.32-.06-.62-.09-.9-.09h0Zm-2.69,4.18l1.36-.42s.03,0,.11,0h.05c.08,0,.16.02.22.04.06.02.12.06.17.1l4.47,3.5-.28.38-.55.77-5.55-4.37h0Z" />
    </g>
    <g>
      <path class="cls-5"
        d="m138.87,63.83c-1.64-1.3-3.1-2.44-4.36-3.42l-.27-.21,3.52-2.34,3.66,2.9c.11.09.25.14.41.17.07.01.14.02.2.02.08,0,.14,0,.2-.03l2.01-.66-.3.03-.03.03-5.66-4.36-5.13,3.4-2.1-1.64-2.43-.12.81-1.14-8.97-6.98,9.52-2.93c.26-.08.56-.12.87-.12.26,0,.55.03.85.08.66.12,1.21.36,1.65.7l4.78,3.67-3.34,2.18-1.75,1.2.66.51,5.12-3.36,12.51,9.6-12.3,4.03-.16-1.23Zm-5.86-9.58l1.01-1.56-3.71-2.86c-.07-.05-.15-.1-.24-.13-.09-.03-.19-.05-.3-.06h-.03c-.14,0-.19,0-.21.02l-2.21.68-.09.06.58-.18,5.2,4.03Z" />
      <path class="cls-2"
        d="m130.85,46.7c.25,0,.52.03.8.08.62.12,1.14.33,1.55.65l4.5,3.46-3.04,1.98-.8.55.5-.78-3.89-3c-.09-.07-.19-.13-.3-.17-.11-.04-.24-.07-.37-.07-.03,0-.05,0-.08,0-.1,0-.19.01-.25.03l-2.21.68-1.71,1.08,2.22-.69,5.93,4.59,5.12-3.36,11.99,9.2-11.56,3.79-.13-1.03c-1.68-1.33-3.16-2.49-4.44-3.49l3.08-2.04,3.52,2.79c.15.11.32.19.53.22.09.01.17.02.24.02.1,0,.19-.01.28-.04l4.37-1.42-2.72.31-5.69-4.39-5.13,3.4-2.02-1.58-2.05-.1.68-.96-8.78-6.83,9.06-2.79c.24-.07.51-.11.8-.11m13.14,13.37s.02.02.03.02l-.03-.02m.03.02l.05.04s-.03-.02-.05-.04m-13.17-13.89c-.34,0-.66.04-.95.13l-9.06,2.79-.92.28.76.59,8.4,6.54-.41.57-.53.75.91.04,1.89.09,1.9,1.48.28.22.3-.2,4.83-3.21,5.18,3.99-1.27.41s-.07.02-.12.02-.1,0-.16-.02c-.12-.02-.22-.06-.31-.13l-3.51-2.79-.28-.23-.3.2-3.08,2.04-.58.38.55.43c1.24.97,2.67,2.09,4.28,3.36l.11.83.08.6.57-.19,11.56-3.79.9-.3-.75-.58-11.99-9.2-.28-.22-.3.19-4.82,3.16-.25-.19.67-.46.8-.55,3.03-1.98.59-.39-.56-.43-4.5-3.46c-.47-.36-1.06-.61-1.76-.74-.31-.06-.61-.09-.89-.09h0Zm-1.24,3.7s.03,0,.1,0h.05c.08,0,.16.02.22.04.06.02.12.06.17.1l3.53,2.72-.25.39-.48.75-4.64-3.59,1.29-.4h0Z" />
    </g>
    <g>
      <path class="cls-5"
        d="m157.33,57.8l-7.83-5.94-2.37-.12.75-1.11-8.97-6.82,9.21-2.83c.25-.08.54-.12.84-.12.26,0,.54.03.84.08.64.12,1.19.35,1.63.68l5.73,4.29-3.2,2.12-1.71,1.11,7.47,5.64c.12.09.25.14.41.17.07.01.14.02.2.02.07,0,.13,0,.19-.03,0,0,1.6-.52,1.6-.52.03,0,0-.04-.07-.1l-6.15-4.63,3.33-2.23,8.26,6.19c.5.37.73.77.69,1.19-.02.3-.19.7-.86.92l-9.85,3.23-.16-1.21Zm-5.1-8.67l.97-1.46-4.65-3.5c-.07-.05-.15-.1-.24-.13-.09-.03-.19-.05-.29-.06h-.03c-.14,0-.18.01-.2.02l-2.13.66-.06.04.55-.17,6.08,4.6Z" />
      <path class="cls-2"
        d="m148.98,41.12c.24,0,.51.03.79.08.61.12,1.12.33,1.53.63l5.45,4.08-2.9,1.93-.79.51.49-.74-4.84-3.64c-.09-.07-.19-.12-.3-.16-.11-.04-.23-.07-.37-.07-.03,0-.05,0-.08,0-.1,0-.18,0-.24.03l-2.13.66-1.63,1.05,2.14-.66,13.48,10.19c.15.11.32.18.52.22.09.01.17.02.24.02.1,0,.19-.01.27-.04l1.6-.52c.08-.03.14-.07.18-.13.04-.06.05-.13.01-.2-.03-.07-.1-.14-.19-.21l-5.87-4.42,2.9-1.94,8.12,6.08c.42.32.62.64.6.97-.03.33-.26.56-.69.7l-9.57,3.14-.13-1.01-7.97-6.05-2-.1.64-.93-8.77-6.66,8.74-2.69c.23-.07.49-.11.77-.11m0-.5c-.33,0-.64.04-.91.13l-8.74,2.69-.93.29.78.59,8.4,6.38-.37.54-.5.74.89.04,1.84.09,7.68,5.83.11.8.08.6.57-.19,9.57-3.14c.84-.27,1-.83,1.03-1.14.04-.51-.23-.98-.79-1.41l-8.12-6.08-.28-.21-.29.2-2.9,1.94-.58.39.56.42,5.6,4.22-1.18.39s-.05.01-.11.01c-.05,0-.1,0-.16-.02-.12-.02-.22-.06-.3-.12l-7.18-5.43.62-.4.79-.51,2.91-1.93.59-.39-.57-.42-5.45-4.08c-.47-.35-1.05-.6-1.74-.73-.31-.06-.61-.09-.88-.09h0Zm-1.11,3.62s.03,0,.09,0h.05c.08,0,.15.02.21.04.06.02.12.06.18.1l4.46,3.36-.23.34-.47.7-5.5-4.16,1.2-.37s0,0,0,0h0Z" />
    </g>
    <g>
      <path class="cls-5"
        d="m171.6,54.23c-.25,0-.53-.03-.81-.08-.64-.12-1.19-.36-1.65-.7l-7.35-5.49-2.33-.12.71-1.08-7.1-5.31c-.48-.36-.71-.75-.68-1.15.02-.29.2-.68.88-.89l6.93-2.13c.25-.08.52-.11.82-.11.26,0,.54.03.83.08.63.12,1.18.35,1.62.67l16.04,11.84c.49.36.73.76.71,1.17-.02.3-.18.7-.83.91l-6.92,2.27c-.27.09-.57.13-.89.13Zm.34-3.36c.1.07.23.12.38.15.07.01.14.02.2.02.07,0,.13,0,.18-.03l1.56-.51s-.02-.05-.05-.07l-13.54-10.04c-.09-.07-.22-.12-.37-.15-.07-.01-.13-.02-.2-.02s-.12,0-.16.02l-2.08.64-.04.03.53-.16,13.6,10.12Z" />
      <path class="cls-2"
        d="m161.04,37.41c.24,0,.5.03.78.08.6.11,1.11.32,1.52.63l16.04,11.84c.42.31.63.63.61.95-.02.32-.24.55-.66.69l-6.92,2.27c-.25.08-.52.12-.81.12-.24,0-.5-.03-.77-.08-.61-.12-1.12-.34-1.54-.65l-7.41-5.54-1.97-.1.6-.92-7.29-5.45c-.41-.31-.6-.62-.58-.93.03-.31.26-.53.71-.67l6.93-2.13c.22-.07.47-.1.75-.1m-4.83,4.27l2.09-.65,13.5,10.04c.13.1.29.16.49.19.09.01.17.02.24.02.1,0,.18-.01.26-.04l1.56-.51c.06-.02.11-.05.15-.09.04-.04.06-.08.06-.12,0-.04-.02-.09-.05-.15-.04-.06-.08-.11-.14-.15l-13.55-10.05c-.13-.09-.28-.16-.47-.19-.09-.02-.17-.03-.24-.03-.09,0-.16.01-.24.03l-2.08.64-1.58,1.03m4.83-4.77c-.32,0-.62.04-.89.13l-6.93,2.13c-.82.25-1.03.74-1.06,1.11-.04.49.22.95.78,1.37l6.91,5.17-.34.52-.48.73.87.05,1.81.09,7.29,5.45c.48.36,1.07.61,1.75.74.3.06.59.09.86.09.35,0,.67-.05.97-.15l6.92-2.27c.83-.27.98-.83,1-1.13.03-.5-.24-.96-.81-1.38l-16.04-11.84c-.47-.35-1.05-.59-1.72-.71-.31-.06-.61-.09-.88-.09h0Zm-2.16,3.93l1.14-.35s.05-.01.09-.01c.05,0,.1,0,.15.02.11.02.2.06.26.11l13.24,9.82-1.12.37s-.05.01-.1.01c-.05,0-.1,0-.16-.01-.12-.02-.21-.05-.28-.1l-13.22-9.83h0Z" />
    </g>
    <g>
      <polygon class="cls-5" points="179.2 48.98 181.95 48.09 184.84 50.22 182.1 51.12 179.2 48.98" />
      <path class="cls-2"
        d="m181.9,48.37l2.4,1.76-2.16.71-2.4-1.77,2.16-.7m.09-.55l-.24.08-2.16.7-.93.3.78.58,2.4,1.77.21.15.24-.08,2.16-.71.92-.3-.78-.58-2.4-1.76-.21-.15h0Z" />
    </g>
  </g>
  <g>
    <path class="cls-3"
      d="m17.09,74.65l7.9-29.34,14.52-4.5c7.56-2.34,5.41,8.35-.01,12.52,2.07.06,2.93,2.79,1.92,6.52-1.18,4.39-4.41,8.62-7.19,9.48l-17.15,5.32Zm17.81-14.43c.49-1.84.14-3.62-1.38-3.19l-7.07,2.79-1.47,6.39,6.77-2.1c1.51-.47,2.69-2.14,3.16-3.89Zm1.85-10.57c.4-1.56-.09-1.96-1.72-1.45l-5.67,1.76-1.54,4.78c1.63-.27,8.27-2.47,8.94-5.09Z" />
    <path class="cls-3"
      d="m44.21,57.08l5.22-19.38,6.12-1.9-5.27,19.56c-.93,3.47.66,3.87,2.5,3.35,1.88-.58,4.05-2.23,4.98-5.67l5.27-19.56,6.12-1.9-5.22,19.38c-2.03,7.53-5.74,11.85-12.92,14.08-6.2,1.92-8.81-.53-6.8-7.97Z" />
    <path class="cls-3"
      d="m63.72,60.19l7.9-29.34,18.88-5.85-1.76,6.55-12.74,3.95-2.1,7.79,9.48-2.64-1.53,5.69-9.48,2.64-2.51,9.31-6.15,1.9Z" />
    <path class="cls-3"
      d="m84.71,53.68l7.9-29.34,18.88-5.85-1.76,6.55-12.74,3.95-2.1,7.79,9.48-2.64-1.53,5.69-9.48,2.64-2.51,9.31-6.15,1.9Z" />
    <path class="cls-3"
      d="m118.14,43.32l.98-17.82-10.18,20.67-6.64,2.06,16.13-31.89,6.81-2.11-.17,26.94-6.94,2.15Z" />
    <path class="cls-3"
      d="m127.11,40.54l7.9-29.34,6.15-1.9-6.14,22.79,12.27-3.8-1.76,6.55-18.41,5.71Z" />
    <path class="cls-3"
      d="m150.82,19.53c2.1-7.79,7.85-16.67,15.48-19.03,7.73-2.4,9.46,4.27,7.34,12.15-2.13,7.91-8.13,17.05-15.89,19.46-7.41,2.3-9.08-4.57-6.93-12.57Zm16.24-4.65c1.28-4.77.87-9.04-2.4-8.03-3.27,1.01-6.09,6.1-7.35,10.75-1.28,4.77-.93,9.12,2.24,8.13,3.37-1.04,6.25-6.17,7.51-10.86Z" />
  </g>
  <path class="cls-2"
    d="m232.95,57.02c-1.92-5.44-6.17-10.35-12.3-14.23-5.59-3.53-12.53-6.43-19.57-8.16-1.14-.28-2.29-.53-3.4-.74-4.16-.78-10.11-1.45-14.84-.18-.54.15-.99.5-1.26.97-1.6-1.18-3.5-1.96-5.92-2.41-.96-.18-1.87-.29-2.67-.38-.24-.03-.47-.06-.7-.09-3.92-.49-8.72.99-11.89,1.96l-1.49.46c-.43.12-.87.25-1.32.39l-117.21,36.01c-.34.08-2.13.56-4.74,1.49l-9.57,2.94c-7.3,2.25-13.96,8.4-19.79,18.26-3.97,6.71-5.81,11.38-6.21,13.52-.47,2.5,1.34,4.77,3.43,7.42.66.82,1.33,1.67,1.96,2.57l10.91,15.5c.67.94,2.27,1.75,4.18,2.11,3.18.6,6.05-.28,7.66-2.35,1.02-1.27,2.46-4.01,4.13-7.18,1.26-2.39,2.68-5.1,4.1-7.5,2.65-4.52,5.48-6.86,8.92-8.43l10.04,13.62c.5,1.04,1.76,2.1,3.84,3.25,1.56.86,3.06,1.42,4.58,1.7,4.95.93,9.97-1.04,16.29-6.38,7.3-6.18,17.46-18.78,22.87-25.73,1.9-2.45,4.45-4.29,7.38-5.33l54.83-19.4,13.68,11.12c1.58,1.56,3.45,2.54,5.65,2.95.85.16,1.75.23,2.68.22,4.96-.08,10.07-2.93,13.92-7.44,1.73.5,3.45.91,5.13,1.22,2.58.49,5.07.76,7.38.79,6.15.07,10.99-1.26,14.4-3.96,2.98-2.33,4.81-6.11,5.52-8.86v-.02c.76-3.04.54-6.4-.6-9.71ZM7.19,115.62c-.67-.94-1.37-1.83-2.04-2.66-1.77-2.25-3.31-4.18-3.01-5.73.08-.42.91-4.3,5.96-12.84,5.55-9.39,11.81-15.22,18.6-17.31l134.31-41.29c3-.92,7.54-2.31,11.01-1.88.23.04.47.06.71.09.78.09,1.65.19,2.53.36,2.32.44,4.06,1.18,5.48,2.36l14.93,12.25c-1.95-.19-4.15.16-6.99,1.11L41,98.99c-2.04.7-7.05,3.36-9.75,6.2-2.26,2.36-4.44,5.33-5.97,8.18l-8.34,16.06-9.74-13.81Zm198.51-59.33c-.5-1.11-1.14-2.17-1.85-3.07-.58-.76-1.32-1.36-1.96-1.88l-.2-.17s-.08-.07-.14-.11l-12.52-10.28c2.07.01,4.46.27,7.03.76,1.02.19,2.07.41,3.13.68,6.32,1.57,12.51,4.16,17.42,7.27,5.98,3.76,8.4,7.78,9.37,10.47.78,2.26.93,3.57.54,4.99v.03c-.4,1.62-1.32,3.02-2.76,4.15-2.3,1.81-5.73,2.73-9.91,2.65-1.92-.02-3.99-.24-6.18-.65-.75-.14-1.51-.31-2.28-.49,2.18-5.23,2.27-10.19.3-14.34ZM55.99,119.81l-8.59-11.66c1.96-.7,4.13-1.27,6.54-1.9,2.18-.56,4.64-1.21,7.27-2.05,1.99-.63,3.62-.84,4.85-.61.92.17,1.59.59,2.04,1.27.91,1.36,1.01,3.83.32,7.16-.7,3.3-2.93,6.13-5.95,7.59l-1.3.63c-.22.1-.35.1-.43.08-.23-.04-.5-.25-.8-.47-.43-.32-.92-.67-1.57-.79-.43-.08-.88-.04-1.32.13-.41.16-.77.38-1.06.62Zm111.54-49.93l.26-.1c.85-.3,1.77-.37,2.66-.2,1.98.37,3.53,1.85,3.97,3.77.23.99.54,1.94.9,2.87l-7.79-6.34Zm19.65,13c-4.11.06-7.04-1.79-9.15-5.78-.69-1.31-1.21-2.73-1.55-4.23-.63-2.74-2.84-4.84-5.64-5.37-1.25-.23-2.54-.13-3.75.29l-57.42,20.32c-3.31,1.17-6.2,3.25-8.34,6.02-5.35,6.9-15.4,19.36-22.56,25.42-5.79,4.89-10.27,6.72-14.53,5.92-1.3-.24-2.59-.72-3.94-1.48-2.94-1.62-3.02-2.46-3.01-2.46.02-.05.21-.23.54-.36.1-.04.14-.03.17-.03.17.03.44.23.71.43.42.31.95.71,1.66.84.57.11,1.16.02,1.73-.26l1.3-.62c3.61-1.73,6.27-5.12,7.1-9.05.84-3.95.62-6.9-.61-8.76-1.6-2.4-4.77-2.96-9.3-1.51-2.57.83-4.9,1.44-7.15,2.03-7.69,1.99-13.77,3.57-18.77,12.11-1.44,2.44-2.88,5.18-4.15,7.58-1.55,2.95-3.01,5.73-3.92,6.87-1.62,2.07-4.47,1.79-5.61,1.57-1.28-.24-2.2-.69-2.63-1.04l8.81-16.96c1.44-2.67,3.49-5.49,5.63-7.71,2.43-2.54,7.09-5.04,8.9-5.66l147.69-48.92c2.85-.95,5.01-1.24,6.77-.9,1.12.21,2.03.63,3.08,1.13.38.18.78.37,1.19.54l.16.14c.58.47,1.18.96,1.62,1.54.62.78,1.17,1.69,1.6,2.66,1.72,3.62,1.62,7.99-.33,12.63-.04.09-.08.19-.13.29-.92-.26-1.86-.55-2.81-.87-.53-.17-1.05-.36-1.57-.55,1.59-4.54.65-9.11-2.49-10.85-.53-.29-1.1-.48-1.69-.59-3.52-.66-7.65,1.88-10.07,6.21-.14.16-.25.34-.33.54-.06.12-.09.24-.14.37-2.39,5.01-1.61,10.43,1.88,12.36.53.28,1.1.48,1.69.59,2.13.4,4.48-.38,6.54-2.01,1.22.47,2.48.92,3.75,1.33.27.09.53.17.79.26-3.38,3.63-7.66,5.95-11.7,6.01Zm9.8-14.98c-4.17-1.67-7.51-3.5-9.47-4.85-.01-.01-.03-.01-.04-.02,1.97-2.63,4.68-4.16,6.91-3.74.37.07.73.2,1.06.38,2.19,1.2,2.75,4.71,1.54,8.24Zm-11.98,3.08c1.95,1.12,4.35,2.27,6.98,3.36-1.28.76-2.61,1.1-3.8.87-.37-.07-.73-.19-1.06-.38-1.25-.68-1.96-2.11-2.12-3.86Z" />
  <path class="cls-4"
    d="m231.51,66.22c-.71,2.71-2.45,5.91-4.8,7.74-3.02,2.39-7.39,3.57-13.06,3.5-2.28-.04-4.64-.3-7.01-.75-2.67-.5-5.34-1.23-7.89-2.09-5.31-1.77-10.17-3.91-13.45-5.9.13-1.29.46-2.61,1.01-3.92,3,2.06,7.97,4.56,13.54,6.42,2.42.82,4.93,1.51,7.45,1.98,2.21.41,4.41.66,6.52.68,4.99.09,8.74-1.12,11.26-3.11,1.81-1.43,2.99-3.24,3.49-5.3.54-2.04.23-3.83-.59-6.21-1.44-3.99-4.77-8.12-10.24-11.57-5.35-3.38-11.88-5.99-18.05-7.52-1.09-.27-2.18-.51-3.24-.71-3.51-.66-6.77-.93-9.47-.72l-3.59-2.98c3.51-.95,8.49-.81,13.9.21,1.08.2,2.18.43,3.29.71,6.45,1.6,13.3,4.34,18.94,7.9,6.04,3.81,9.8,8.52,11.43,13.13,1.03,2.95,1.21,5.87.56,8.51Z" />
</svg>