<?xml version="1.0" encoding="UTF-8"?>
<svg id="Layer_1" data-name="Layer 1" xmlns="http://www.w3.org/2000/svg" viewBox="0 0 436.4 306.13">
  <defs>
    <style>
      .cls-1 {
      fill: #f6e06a;
      }

      .cls-1, .cls-2, .cls-3, .cls-4, .cls-5 {
      stroke-width: 0px;
      }

      .cls-2 {
      fill: #2d344b;
      }

      .cls-3 {
      fill: #221f20;
      }

      .cls-4 {
      fill: #fff;
      }

      .cls-5 {
      fill: #008aa5;
      }
    </style>
  </defs>
  <g>
    <path class="cls-1"
      d="m406.45,51.29c-5.75-7.62-8-22.28-19.33-21.52-30.33-2.27-60.8-4.42-89.77-13.45-13.5-6.05-18.89,11.33-30.93,14.52-6.15,3.1-13.31,7.64-20.2,6.33,12.4-6.63,25.64-13.87,32.52-25.59-8.49-10.49-25.04,25.82-77.42,11.87-11.06-3.13-21.48-9.42-29.56-17.98-.28.13-.66.27-1.13.42-1.91.68-3.58,1.11-5.02,1.35-22.34,5.38-93.03,17.89-98.27,25.54-6.48,4.12-35.56,33.82-21.7,15.15,4.9-5.86,11.98-11.42,14.82-18.63-12.39,3.54-20.49,20.98-29.78,29.36-28.5,21.43,41.89,6.52,54.64,10.27,9.58.14,19.43.61,29.24,1.06,4.54-.05-3.83-10.85,1.33-10.31,13.52,14.18,3.92,35.73-3.38,50.77-8.66,24.71-20.41,48.19-30.71,72.35-4.17,16.26-22.74,30.61-18.45,47.89,11.89,36.03-15.6,78.04,38.7,66.06,23.77-.5,73.32-9.6,19.95-7.71-.93-1.03-7.16.46-6.41-1.65,43.31-6.01,87.72-9.03,131.51-4.38,25.63,2.71,50.92,7.34,76.58,10.54,9.06-.91,31.01,9.94,32.94-.01,3.35-22.79,4.59-46.09,11.06-68.07-15.03-54.04-44.84-103.71-52.16-160.3.37-4.57,3.1-10.56,8.12-10.99-2.92,3.76-5.8,13.57-.76,15.94,21.38,2.45,43.94,3.7,65.83,3.41,13.13,2.02,17.38-.43,10.86-13.31-8.22-24.64,5.43,9.68,12.61,13.58,14.68,3.54-4.07-16.42-5.73-22.51ZM156.39,15.96c1.13-1.66,2.83-1.99,4.48-.96,1.76,1.08,3.1,2.88,4.67,4.22,1.44,1.22,3.7,4.15,5.75,3.95.29.15.58.3.87.45-.04,1,.38,1.65,1.38,1.93.69.2,1.35.47,2.02.71.48.55,1.11.77,1.81.85.95,2.27,4,2.7,5.93,3.68,2.48,1.26,4.32,2.54,7.13,3.1.48.09.96.17,1.44.25,1.6,1.27,3.32,2.25,5.43,2.35.37.02.52.35.41.87-1.4.41-2.91-.1-4.35.21-.8-.1-1.6-.2-2.4-.3-.56-1.41-2.27-.85-3.38-1.19-1.32-.4-2.28-1.35-3.6-1.85-1.41-.54-2.9-.77-4.28-1.42-1.44-.67-2.71-1.61-4.2-2.18-6.51-2.51-12.33-6.68-17.93-10.8v-.03c-.7-1.55-2.38-2.09-1.18-3.84Zm166.4,216.66c.82.05,1.64.1,2.45.15.95.75,2.1.54,3.11.45,2.52-.23,4.26,1.6,6.77,1.98-.95.63-1.86.03-2.39.8h-1.43c-1.35-.67-2.71-.63-4.06,0h-1.43c-.87-.72-1.91-.38-2.87-.39-24.12-.16-48.25.25-72.37-.47-11.06-.32-22.12-.45-33.18-.59-3.82-.06-7.64-.31-11.46.01-.67-.01-1.33-.02-1.99-.04-.61-1.35-7.38-.92-8.81-1.02-3.6-.27-7.21-.45-10.82-.6-6.9-.29-13.79-.44-20.69-.61-7.16-.18-14.31-.49-21.46-.72-6.66-.21-13.54-1.1-20.19-.42-3.64-.23-7.29-.16-10.94-.12-.62-1.03-3.2.04-3.21-1.48,7.37-1.83,15.23-1.58,22.77-1.8,8.03-.24,16.07-.38,24.1-.43,28.33-.18,56.64.06,84.96.92,14.09.43,28.22.78,42.28,1.88,6.88.55,13.73,1.28,20.62,1.64,3.74.2,7.49.36,11.22.64,2.9.21,6.15.73,9.02.22Z" />
    <path class="cls-3"
      d="m375.04,222.53c4-6.67,21.41-2.76,29.49-6.78-9.45-4.3-25.14,2.07-33.2-5.03-6.35-15.34-14.86-30.81-18.42-47.02-10.95-27.47-21.82-57.11-28.62-86.02,32.03,3.11,64.7,2.96,97.22,3.66,17.97,1.36-4.3-21.46-7.12-29.09-7.91-8.63-9.35-28.61-22.51-29-28-1.78-56.2-2.87-83.01-11.11-14.55,0-26.68-10.67-40.54-11.76-28.33,4.1-60.54,6.16-89.18.08-7.1-.95-12.29-.32-15.62.88-12.36,2.47-115.45,22.51-121.88,34.81-9.6,13.23-29.12,25.07-32.11,40.82,35.2,1.33,70.93-4.19,105.91.76-1.4,15.03-8.61,28.44-13.96,42.61-15.51,31.48-24.68,69.68-48.05,95.85-10.91,1.16-21.36,1.54-32.49,2.73,5.83,3.26,15.8,1.99,23.06,2.89,28.44,2.84-28.98,7.19-38.98,5.94-14.3.6,5.88,1.84,11.05,2,59.97-1.43,39.09,14.34,46.04,62.79-2.39,32.09,105.27-2.76,127.33-2.41,37.58-5.15,75.32,1.71,111.71,7.12,65.24,6.79,61.49,25.78,67.53-45.91-1.08-35.66,44.5-16.15,67.71-23.07-20.18-2.98-41.75-2.31-61.36-5.74ZM243.28,11.74c-12.56,5.71-40.34,6.43-50.64-2.42,16.32-.5,34.5.13,50.64,2.42Zm113.34,281.8c-1.93,9.95-23.88-.9-32.94.01-25.66-3.2-50.95-7.83-76.58-10.54-43.79-4.65-88.2-1.63-131.51,4.38-.75,2.11,5.48.62,6.41,1.65,53.37-1.89,3.82,7.21-19.95,7.71-54.3,11.98-26.81-30.03-38.7-66.06-4.29-17.28,14.28-31.63,18.45-47.89,10.3-24.16,22.05-47.64,30.71-72.35,7.3-15.04,16.9-36.59,3.38-50.77-5.16-.54,3.21,10.26-1.33,10.31-9.81-.45-19.66-.92-29.24-1.06-12.75-3.75-83.14,11.16-54.64-10.27,9.29-8.38,17.39-25.82,29.78-29.36-2.84,7.21-9.92,12.77-14.82,18.63-13.86,18.67,15.22-11.03,21.7-15.15,5.24-7.65,75.93-20.16,98.27-25.54,1.44-.24,3.11-.67,5.02-1.35.47-.15.85-.29,1.13-.42,8.08,8.56,18.5,14.85,29.56,17.98,52.38,13.95,68.93-22.36,77.42-11.87-6.88,11.72-20.12,18.96-32.52,25.59,6.89,1.31,14.05-3.23,20.2-6.33,12.04-3.19,17.43-20.57,30.93-14.52,28.97,9.03,59.44,11.18,89.77,13.45,11.33-.76,13.58,13.9,19.33,21.52,1.66,6.09,20.41,26.05,5.73,22.51-7.18-3.9-20.83-38.22-12.61-13.58,6.52,12.88,2.27,15.33-10.86,13.31-21.89.29-44.45-.96-65.83-3.41-5.04-2.37-2.16-12.18.76-15.94-5.02.43-7.75,6.42-8.12,10.99,7.32,56.59,37.13,106.26,52.16,160.3-6.47,21.98-7.71,45.28-11.06,68.07Z" />
    <path class="cls-3"
      d="m197.71,37.36c-1.4.41-2.91-.1-4.35.21-.8-.1-1.6-.2-2.4-.3-.56-1.41-2.27-.85-3.38-1.19-1.32-.4-2.28-1.35-3.6-1.85-1.41-.54-2.9-.77-4.28-1.42-1.44-.67-2.71-1.61-4.2-2.18-6.51-2.51-12.33-6.68-17.93-10.8v-.03c-.7-1.55-2.38-2.09-1.18-3.84,1.13-1.66,2.83-1.99,4.48-.96,1.76,1.08,3.1,2.88,4.67,4.22,1.44,1.22,3.7,4.15,5.75,3.95.29.15.58.3.87.45-.04,1,.38,1.65,1.38,1.93.69.2,1.35.47,2.02.71.48.55,1.11.77,1.81.85.95,2.27,4,2.7,5.93,3.68,2.48,1.26,4.32,2.54,7.13,3.1.48.09.96.17,1.44.25,1.6,1.27,3.32,2.25,5.43,2.35.37.02.52.35.41.87Z" />
    <path class="cls-3"
      d="m335.12,235.2c-.95.63-1.86.03-2.39.8h-1.43c-1.35-.67-2.71-.63-4.06,0h-1.43c-.87-.72-1.91-.38-2.87-.39-24.12-.16-48.25.25-72.37-.47-11.06-.32-22.12-.45-33.18-.59-3.82-.06-7.64-.31-11.46.01-.67-.01-1.33-.02-1.99-.04-.61-1.35-7.38-.92-8.81-1.02-3.6-.27-7.21-.45-10.82-.6-6.9-.29-13.79-.44-20.69-.61-7.16-.18-14.31-.49-21.46-.72-6.66-.21-13.54-1.1-20.19-.42-3.64-.23-7.29-.16-10.94-.12-.62-1.03-3.2.04-3.21-1.48,7.37-1.83,15.23-1.58,22.77-1.8,8.03-.24,16.07-.38,24.1-.43,28.33-.18,56.64.06,84.96.92,14.09.43,28.22.78,42.28,1.88,6.88.55,13.73,1.28,20.62,1.64,3.74.2,7.49.36,11.22.64,2.9.21,6.15.73,9.02.22.82.05,1.64.1,2.45.15.95.75,2.1.54,3.11.45,2.52-.23,4.26,1.6,6.77,1.98Z" />
  </g>
  <path class="cls-5"
    d="m324.91,196.48c-5.56-24.92-15.41-48.72-22.41-73.03-9.89-20.68-4.28-54.43-28.43-63.74-6.87,3.84-2.3,11.38-4.4,17.16-6.11-2.15-2.5-13.17-4.08-18.75-1.16-.82-1.78-8.5-4.16-6.2-2.25,3.54,1.21,11.93-5.58,11.14-5.34,12.61-.23-3.75-22.48-.49-17.28,1.77-38.08-4.86-53.94,2.13-1.55,1.69-3.17,8.66-6.01,4.56,1.86-7.12-3.59-8.09-9.78-7.75-6.97-1.09-9.2,2.76-11.38,8.12-7.32,27.18-16.76,54.17-24.83,81.57-3.77,12.22-9.79,24-10.72,37.18,1.36,25.97,13.81-4.47,18.66-10.74,7.05,4.46-1.9,16.89,1.11,24.28,13.53,2.35,1.52,9.35,7.42,12.81,3.18-3.58,10.13-36.01,13.75-15.82-2.35,10.85,47.86,2.98,58.02,6.64,23.94-2.05,49.66,7.52,71.22-.8,8.79-16.46,14.92,6.05,19.84,13.35,11.08,7.23-5.67-29.89,8.4-24.88.37,4.06,10.21,11.29,9.77,3.28Z" />
  <path class="cls-2"
    d="m103.85,16.12c-1.16,1.46-1.61,2.94-3.26,3.45-1.24-.57-1.72-1.65-2.08-2.94,1.58-1.08,3.21-.92,5.35-.51Z" />
  <path class="cls-2" d="m244.77,38.09c-1.26,1.33-2.08.11-2.98,0h2.98Z" />
  <path class="cls-2" d="m38.68,55.98c.19.17.72-.06.58.5-.52.2-.39-.34-.58-.5Z" />
  <g>
    <path class="cls-4"
      d="m245.11,151.07c-2.17,7.9,2.76,18.08-3.71,24.56-.27,2.59-2.31,2.4-2.89.1-1.85-7.93-1.19-16.46-1.5-24.56-1.01-7.49-2.53-15.07-2.51-22.69-.02-3.58,3.1-4.07,6-4.07,3.12,2.62,4.01,5.74,4.75,9.53,2.33,2.43,1.91,6.91,3.88,9.76.82,1.49,2.03,7.2,3.77,7.46.02-8.77-3.33-18.33-.86-27,9.49,12.94,6.66,30.77,11.87,45.41,1.18,2.95,1.32,5.97-2.14,7.43-5.87,1.62-6.79-8.03-9.84-11.25-.39-.73-.27-1.48-.54-2.15-3.12-3.47-4.23-8.37-6.28-12.53Z" />
    <path class="cls-4"
      d="m205.53,159.84c1.96,4.94,2.04,12.66-1.2,16.93-3.63-2.52-1.83-15.96-7.88-15.78-4.74,1.02-2.18,10.11-9.01,15.97-2.29-3.93.44-9.67.89-13.93.61-4.61-2.74-8.21-1.45-12.97.96-.88,2.13-.15,3.2-.99,2.85-17.04-2.34-7.71-2.27-15.78.4-8.93,15.73-9.98,20.69-4.7,6.37,9.28,5.9,23.71-2.96,31.26Zm-7.61-21.88c-.18,4.15-.15,8.44-1.47,12.52,2.39,2.59,4.08.22,6.39-.8,4.53-1.29,9.03-9.45,2.86-11.51-2.65-.98-5.2-2-7.77-.21Z" />
    <path class="cls-4"
      d="m159.38,161.03c-1.8,5.85-3.93,13.61-9.82,16.57-.57-5.69,3.54-11.57,4.53-17.24.92-3.43-3.56-13.68,3.31-11.78.22-3.6,1.86-6.78,2.62-10.12-4.1-1.69-2.5-7.12-.57-10.03,1.06-1.18,2.42-1.48,3.64-2.39,1.41-1.04,1.56-1.91,3.51-1.68,17.33-1.67,16.3,16.78,10.19,27.68-3.49,6.63-10.91,7.57-17.4,8.99Zm9.2-25.48c-3.03,3.82-3.57,8.86-4.98,13.35-.87,4.36,5.95.45,7.82-.47,4.6-1.65,8.21-9.61,1.82-11.28-1.79-.94-2.34-2.16-4.66-1.6Z" />
    <path class="cls-4"
      d="m272.86,139.61c-5.54-3.02-11.61,3.69-12.53-11.35,1.38-6.48,14.61-3.63,19.45-3.13,2.59,1.5,7.51.09,8.25,3.63.61,6.45-1.52,8.33-7.35,9.39-1.22,5.13,2.77,10.57,3.19,15.82.44,7.9,6.47,17.37-.36,24.06-2.93-.63-2.59-5.2-3.13-7.51-1.62-5.47-3.25-10.9-4-16.55-1.75-4.35-3.77-9.57-3.51-14.36Z" />
    <path class="cls-4"
      d="m220.94,174.84c.36-16.61-1.26-33.52-.67-50.03,9.7-5.11,7.88,17.6,7.8,22.83-1.33,5.63,1.61,28.81-7.13,27.2Z" />
    <path class="cls-4"
      d="m263.22,109.22c-1.58-.83-1.72-3.89-2.05-5.44-1.93-6.42-.98-13.84-3.62-19.9.58-.75,1.07-1.58,1.25-2.48,4.3-1.23,5.25,4.23,7.09,7.01.45.98.01,2.52,1.37,2.84.96-3.23-1.4-6.25-.54-9.56.77-.28,1.62-.26,2-.14,3.51,4.51,4.07,10.57,4.86,16.03.54,3.37,6.06,12.92-1.19,11.6-2.73-1.31-2.52-7.75-5.91-8-.88,2.79.31,6.54-3.26,8.04Z" />
    <path class="cls-4"
      d="m170.12,94.56c-6.15-10.21,15.09-20.92,11.42-8.29-1.08.51-2.09,1.15-3.25,1.43-.97.23-2.16-.07-2.46,1.18-.23,1.94,3.11,1.97,3.65,4.05,5.45,6.78-3.87,23.03-11.31,14.04-2.37-4.1-1.09-9.15,1.95-12.42Zm.44,1.34c-.69,1.9,0,5.89,2.31,6.35,1.47.29,4.44-.62,4.06-2.52-.33-1.65-4.79-4.34-6.37-3.83Z" />
    <path class="cls-4"
      d="m246.34,88.68c.57,2.9,1.78,2.03,3.99,1.74,4.18,1.5-.9,7.02-3.43,7.54-.25,1.05.1,1.56.77,1.97,5.09-2,12.81-3.62,7.26,4.42-1.81.68-4.22,1.14-5.83,2.24-1.42.98-1.76,2.19-3.56,2.73-5,1.52-2.91-7.08-3.17-9.65.28-10.03-7.06-19.66,8.68-18.55,1.19.98,1.29,3.63.45,4.81-1.21,1.72-3.74,1.32-5.16,2.75Z" />
    <path class="cls-4"
      d="m214.71,109.17c-1.93-1.83-2.37-4.43-3.11-7.18-4.36,1.3-1.34,7.51-6.32,7.53-1.14-2.47-.11-6.34-.28-9.01-.72-2.87-.63-5.44.87-8.01.86-2.87-1.99-4.32-1.64-6.89.38-2.74,4.32-3.39,6.55-3.32,5.84-.33,8.62,5.77,8.01,10.84-.38,2.89-2.9,4.73-3.01,7.57-.07,1.87,1.17,7.61-1.07,8.47Zm-3.81-20.74c-.19,2.23-.31,4.32-.02,6.39,5.68.23,6.79-7.83.02-6.39Z" />
    <path class="cls-4"
      d="m223.55,83.61c3.42-2.84,7.22-2.08,10.84-2.13.6.85,1.07,1.61,1.24,2.59-3.51,2.52-.42,2.97-6.67,4.39-.36,1.01-.28,1.76.66,2.4,1.19-.19,2.46-.67,3.78-.27,2.52,5.11-5.55,5.41-4.26,9.42,2.41-.67,8.14-3.38,9.65,0-1.32,2.97-3.37,5.32-6.68,5.95-2.23,1.3-4.03,2.74-6.4,3.76-2.23-.74-2.17-2.66-2.69-4.26,3.13-6.68.15-14.68.52-21.84Z" />
    <path class="cls-4"
      d="m198.4,96.05c1.16,1.96,1.19,4.02-.21,5.78-.64,9.39-12.38,9.52-13.08.02-.32-2.64-.59-5.81,1.23-7.92.22-3.12,1.21-5.93,3.56-8.13,1.72-1.92,7.28-6.57,7.97-1.45.73,4.92-1.78,5.27-5.73,5.99-2.79,1.59-4.05,7.23-2.74,9.93,2.67,5.47,7.31-1.66,9-4.21Z" />
  </g>
</svg>