<?xml version="1.0" encoding="UTF-8"?>
<svg id="Layer_1" data-name="Layer 1" xmlns="http://www.w3.org/2000/svg" viewBox="0 0 33.83 33.83">
  <defs>
    <style>
      .cls-1 {
      stroke-width: 1.63px;
      }

      .cls-1, .cls-2, .cls-3 {
      fill: none;
      stroke: #010101;
      stroke-linejoin: round;
      }

      .cls-2 {
      stroke-width: 1.83px;
      }

      .cls-4 {
      fill: #a8a9ac;
      }

      .cls-4, .cls-5 {
      stroke-width: 0px;
      }

      .cls-5 {
      fill: #fff;
      }

      .cls-3 {
      stroke-width: 2.44px;
      }
    </style>
  </defs>
  <path class="cls-2"
    d="m16.92.92c-1.78,0-3.5.29-5.1.83C5.48,3.88.92,9.86.92,16.91c0,3.05.85,5.9,2.34,8.33,2.81,4.6,7.88,7.67,13.66,7.67,8.84,0,16-7.16,16-16S25.75.92,16.92.92Z" />
  <g>
    <path class="cls-3"
      d="m27.78,11.46c-.21.14-4.17,8.63-5.13,11.48-1.03-.02-9.37,1.34-9.72,5.79-.54.12,0-11.79-.19-11.78v.02s0-.02,0-.02l-.73,4.56c-1.49-.01-5.34.84-8.14,3.14C-1.02,16.81,3.18,5.39,12.04,2.62l4.96,4.52c.25-.14,2.24-1.26,2.43-1.36.26.11,7.64,4.7,8.36,5.68h0Z" />
    <path class="cls-4"
      d="m27.78,11.46c-.21.14-4.17,8.63-5.13,11.48-1.03-.02-9.37,1.34-9.72,5.79-.54.12,0-11.79-.19-11.78v.02s0-.02,0-.02l-.73,4.56c-1.49-.01-5.34.84-8.14,3.14C-1.02,16.81,3.18,5.39,12.04,2.62l4.96,4.52c.25-.14,2.24-1.26,2.43-1.36.26.11,7.64,4.7,8.36,5.68h0Z" />
  </g>
  <g>
    <path class="cls-1"
      d="m22.96,5.19c.07-.08.17-.12.27-.12.46.02.31.43.1.69-.33.51-.74.96-1.16,1.4-.44.46-.9.91-1.32,1.38-.42.48-.79.98-1.06,1.56,0,.19.18.32.33.39,1.42.36.57,2.29-.75,2.1-2.48-.08-2.16-2.89-1.13-3.85.82-.91,2.06-1.3,2.99-2.08.61-.45,1.18-.94,1.72-1.46h0Z" />
    <path class="cls-5"
      d="m22.96,5.19c.07-.08.17-.12.27-.12.46.02.31.43.1.69-.33.51-.74.96-1.16,1.4-.44.46-.9.91-1.32,1.38-.42.48-.79.98-1.06,1.56,0,.19.18.32.33.39,1.42.36.57,2.29-.75,2.1-2.48-.08-2.16-2.89-1.13-3.85.82-.91,2.06-1.3,2.99-2.08.61-.45,1.18-.94,1.72-1.46h0Z" />
  </g>
</svg>