<?xml version="1.0" standalone="no"?>
<!DOCTYPE svg PUBLIC "-//W3C//DTD SVG 20010904//EN"
 "http://www.w3.org/TR/2001/REC-SVG-20010904/DTD/svg10.dtd">
<svg version="1.0" xmlns="http://www.w3.org/2000/svg"
 width="500.000000pt" height="500.000000pt" viewBox="0 0 500.000000 500.000000"
 preserveAspectRatio="xMidYMid meet">
<metadata>
Created by potrace 1.14, written by Peter Selinger 2001-2017
</metadata>
<g transform="translate(0.000000,500.000000) scale(0.100000,-0.100000)"
fill="#000000" stroke="none">
<path d="M2265 4994 c-604 -66 -1137 -322 -1551 -746 -367 -375 -595 -824
-685 -1349 -20 -117 -23 -168 -23 -399 0 -231 3 -282 23 -399 60 -351 187
-679 370 -958 104 -158 182 -256 315 -391 377 -386 846 -630 1387 -723 116
-20 169 -23 399 -23 232 0 282 2 399 23 541 93 983 321 1367 705 384 384 612
827 705 1367 20 117 23 167 23 399 0 232 -3 282 -23 399 -93 540 -321 983
-705 1367 -381 381 -815 607 -1346 701 -123 22 -180 26 -380 28 -129 2 -253 1
-275 -1z m-139 -649 l378 -344 30 18 c17 10 101 58 186 106 l155 86 60 -27
c33 -16 64 -31 69 -35 4 -4 -43 -37 -105 -74 -253 -150 -355 -250 -427 -421
-134 -320 101 -654 436 -620 118 12 206 59 260 139 86 126 81 279 -14 374
l-45 45 54 66 c30 37 99 113 153 169 l99 103 290 -216 c160 -118 324 -249 366
-291 l77 -75 -85 -171 c-215 -431 -619 -1348 -682 -1547 l-11 -35 -123 -17
c-258 -36 -591 -136 -812 -243 -158 -77 -257 -145 -360 -249 -114 -114 -159
-198 -190 -351 -6 -28 -7 -29 -18 -10 -9 15 -12 242 -11 895 1 481 0 870 -3
864 -2 -6 -27 -159 -57 -340 -52 -324 -53 -329 -77 -332 -309 -35 -546 -103
-816 -232 -141 -68 -279 -150 -360 -216 l-42 -35 -15 23 c-35 54 -147 301
-180 398 -86 255 -120 467 -120 750 0 374 66 669 223 995 120 249 242 424 431
619 180 185 372 329 595 443 110 57 280 131 302 132 6 1 181 -154 389 -344z
m1369 -56 c13 -41 -73 -153 -322 -411 -135 -141 -246 -296 -241 -338 2 -20 16
-31 61 -52 92 -45 119 -114 78 -203 -26 -57 -70 -91 -138 -105 -141 -30 -266
27 -328 149 -49 97 -41 201 23 326 55 105 132 174 313 282 153 91 309 207 424
316 47 44 67 56 92 57 23 0 33 -5 38 -21z"/>
</g>
</svg>
