<?xml version="1.0" encoding="UTF-8"?>
<svg id="Layer_1" data-name="Layer 1" xmlns="http://www.w3.org/2000/svg" viewBox="0 0 249.98 107.66">
  <defs>
    <style>
      .cls-1 {
      opacity: .25;
      }

      .cls-1, .cls-2 {
      fill: #fff;
      stroke-width: 0px;
      }

      .cls-3 {
      opacity: .75;
      }
    </style>
  </defs>
  <g>
    <path class="cls-2"
      d="m44.69,100.06c3.77,3.47,8.59,5.5,13.27,7.41C11.14,111.25-10.1,58.88,17.63,24.24c11.19-14.12,30.61-20.57,48.03-15.95.52.13.91.34,1.17.86,2.4,4.82,3.91,9.86,3.73,15.31-.08,2.44-.32,4.86-.82,7.27-.14.66-.38.86-1.05.85-5.88.08-11.99.33-17.59,2.05,5.55.2,11.33.05,16.93.72.48.03.61.17.4.67-6.28,16.07-29.59,24.37-32.44,41.49-.09.09-.16.18-.13.32-.02.29-.03.57-.06.86-.1.09-.13.21-.09.33-.01.16-.02.33-.02.49-1,7.93,2.76,15.69,8.99,20.54Z" />
    <path class="cls-2"
      d="m65.19,90.56c-1.54,0-3.07-.02-4.61.01-.57.01-.79-.18-.89-.74-.83-5.6-1.81-11.19-2.58-16.8-.02-.23-.01-.52-.31-.52s-.18.31-.22.47c-1.11,5.7-2.2,11.4-3.27,17.11-.07.36-.25.47-.59.47-1.74,0-3.47-.01-5.21,0-.54,0-.51-.28-.43-.67,1.59-7.34,3.19-14.69,4.67-22.06.13-.62.36-.8.99-.8,3.01.03,6.04.03,9.05,0,.57-.01.75.16.83.71.87,5.61,1.8,11.2,2.75,16.79.03.2-.1.54.22.55.29,0,.24-.34.28-.55,1.06-5.69,2.16-11.37,3.25-17.05.07-.37.18-.46.53-.46,1.74.01,3.47.02,5.21,0,.53-.01.51.2.41.61-1.57,7.36-3.18,14.74-4.69,22.13-.11.57-.32.8-.94.78-1.45-.02-2.96.01-4.46.01Z" />
    <path class="cls-2"
      d="m81.02,90.56c-2.64,0-4.86-.02-7.08.01-.62.01-.71-.17-.59-.72,1.47-6.87,2.89-13.75,4.38-20.62.16-.7.03-1.69.55-2.04,4.28-.39,8.96.03,13.34-.12,2.44-.01,5.46.84,5.27,3.81-.05,3.02-1.11,6.91-4.55,7.49-.22.05-.54-.01-.52.29.02.31.36.17.56.21,4.41.65,2.3,6.4.87,8.97-2.57,3.94-8.54,2.43-12.24,2.73Zm2.54-5.06h0c2.67.13,5.16.09,5.23-3.07.09-1.07-.26-1.44-1.33-1.54-1.85-.16-3.7-.05-5.54-.08-.33-.01-.48.11-.55.48-.24,1.25-.52,2.51-.8,3.75-.11.46.14.47.45.47.84-.01,1.7-.01,2.55-.01Zm1.86-8.98c1.41-.09,4.04.4,4.59-1.54.29-1.14.88-2.71-.84-2.78-1.78-.24-3.56-.05-5.35-.12-.47-.01-.56.3-.64.64-.24,1.08-.46,2.16-.7,3.23-.09.41.01.57.45.56.77-.01,1.54,0,2.5,0Z" />
    <path class="cls-2"
      d="m107.74,67.07c3.42.3,11.65-1.45,11.47,4.35-.11,4.07-1.24,9.25-5.98,9.9-.35.05-.35.43.02.41,4.78.31,2.55,5.35,2.08,8.31-.07.36-.24.52-.63.51-1.74-.02-3.47-.01-5.21,0-.4,0-.47-.1-.38-.49.36-1.99,1.99-5.75-1.36-5.74-1.37-.01-2.74.05-4.09-.02-.75-.03-.97.29-1.08.93-1.51,6.81.24,5.08-6.57,5.32-.53.01-.7-.1-.57-.67,1.48-6.92,2.93-13.86,4.42-20.78.14-.66.01-1.54.51-1.92.53-.4,1.37-.11,2.07-.13,1.62,0,3.24.01,5.31.01Zm-.66,11.83v-.05c4.41.28,4.69-.36,5.37-4.58.33-3-4.91-1.56-6.73-1.89-.32-.01-.41.16-.48.46-.38,1.83-.78,3.66-1.2,5.49-.37,1.02,2.42.39,3.04.56Z" />
  </g>
  <path class="cls-1"
    d="m77.98,94.24c-11.41-.09-22.81,0-34.22-.03-1.21,0-1.18,0-.93-1.17,1.93-9.11,3.86-18.23,5.78-27.33.46-2.2.43-2.21,2.7-2.2,13.51,0,27.02,0,40.55.02,1.6,0,3.17.28,4.65.93.48.22.69.17.74-.33.05-.53.34-.63.82-.62,1.65-.02,3.3.09,4.94.07.37.01.47-.2.54-.52,2.89-15.45-1.85-32.13-12.67-43.56C57.87-14.71,4.69,8.81,1.38,54.59c-.17.16-.14.34-.09.54-.03,1.59-.07,3.17-.11,4.75-.02.02-.06.05-.06.06.01.05.03.09.06.14.03,1.13.07,2.27.1,3.39-.05.16-.03.31.07.44.02.11.06.22.06.33,0,.18.1.47-.17.48-.23.01-.25-.28-.28-.47C.08,59.25-.24,54.23.19,49.15,2.64,17.59,33.26-5.28,64.21,1.06c26.81,4.98,46.18,31.23,43.1,58.31-.09,1.1-.29,2.2-.46,3.29-.09.6-.03.9.74.89,2.67-.02,5.35-.09,8.02.2,3.56.38,6.05,2.33,6.92,5.52.18,2.15.24,2.08,2.27,1.46,4.06-.57,9.08-.82,12.18,2.35.22.23.38.4.68.09,1.91-1.98,4.37-2.55,6.98-2.71,3.63-.1,7.94-.46,10.84,2.13.25.25.41.25.7.03,2.51-1.93,5.39-2.44,8.45-2.12.52.06.61-.13.7-.55.39-1.89.84-3.77,1.22-5.66.1-.54.24-.77.85-.77,3.73.03,7.45.02,11.19,0,.53,0,.67.09.54.66-.41,1.79-.76,3.6-1.15,5.4-.22,1.01-.23,1.01.75,1.01,8.6.07,17.19-.06,25.76-.08,1.57.09,2.89,1.32,4.45.53,2.37-.92,4.8-.86,7.19-.06.51.17.64.14.76-.43.43-2.14.94-4.25,1.37-6.39.1-.51.3-.64.78-.64,3.73.01,7.45.02,11.19,0,.64,0,.68.22.56.76-.41,1.85-.74,3.73-1.18,5.57-.16.68.02.75.61.75,6.56.08,13.29-.19,19.77.08-2.46,3.59-5.46,7.13-8.14,10.67-.63.8-.83,1.46-.46,2.5,1.14,3.1,2.08,6.29,3.17,9.42.28.8.03.86-.66.86-18.72-.01-37.45,0-56.18-.03-.77,0-1.15.23-1.48.92-1.43,2.93-3.51,5.14-6.8,5.98-3.1.8-6.27.32-9.41.21-.47-.02-.7-.08-.55-.7.45-1.84.78-3.71,1.2-5.55.15-.64.01-.85-.68-.84-2.51.03-5.01-.01-7.51.02-2.49.14-5.11.42-7.44-.71-.38-.17-.64-.24-.68.31-.03.56-.47.38-.77.38-4.59-.06-9.16.06-13.73.15-1.98-.15-3.81-.62-5.28-2.02-.18-.18-.33-.37-.64-.14-4.19,2.83-10.55,2.87-15.16,1.09-.37-.17-.49-.1-.53.3-.05.54-.38.63-.89.63-8.57-.01-17.13-.01-25.7-.02-.25,0-.67.21-.69-.34-.01-.2-.18-.16-.32-.13-.39.09-.76.2-1.07.47-4.08,3.69-8.66,6.62-13.65,8.9-3.46,1.38-7.17,3.18-10.89,3.35-1.68-.62-3.36-1.21-5.04-1.82-.16-.06-.45-.02-.43-.3,0-.06.3-.1.47-.13,8.56-.97,16.68-4.33,23.64-9.36.17-.13.48-.25.43-.47-.08-.31-.44-.16-.66-.15-1.86.07-3.68-.13-5.5.14Zm15.41-3.61c-.03.63-.78,1.8.36,1.76,2.88-.03,5.75-.02,8.62-.01.43,0,.63-.08.72-.59.3-1.64.69-3.28,1.01-4.91.1-.51.28-.79.87-.75.77.27,3.32-.6,2.93.77-.33,1.55-.55,3.13-.97,4.66-.22.82.08.83.7.82,2.64-.02,5.29-.03,7.95.01.79.01,1.31-.1,1.31-1.05,0-.38.2-.77.28-1.15.07-.32.15-.41.39-.1,2.82,3.79,14.19,3.3,16.72-.8.25-.33.33-.15.43.11,1.37,3.72,5.91,3.19,9.11,2.99,2.36-.09,4.73-.01,7.08-.02,2.17.29,2.11-.03,2.4-2.06.06-.31.13-.43.38-.09,1.24,1.68,3.02,2.2,4.99,2.32,4.43-.23,8.85-.19,13.3-.17.76-.01.91.2.74.92-.45,1.93-.8,3.88-1.23,5.81-.07.33-.08.45.3.46,5.88.7,11.1-.07,13.39-6.33.29-.64.61-.86,1.31-.86,18.33.02,36.66.01,54.99.01.91,0,.92,0,.63-.85-.92-2.77-1.82-5.55-2.79-8.3-.28-.77-.13-1.3.37-1.92,2.17-2.74,4.29-5.52,6.43-8.29.13-.17.44-.32.34-.54-.11-.3-.45-.13-.68-.13-5.89-.01-11.79-.01-17.67,0-.59,0-.79-.08-.63-.76.45-1.87.76-3.78,1.2-5.66.15-.63-.02-.72-.59-.71-2.53.02-5.07.03-7.6-.01-.59-.01-.79.23-.9.75-.47,2.33-.95,4.67-1.43,7-.23,1.1-.22,1.1-1.14.41-2.71-1.68-6.05-1.6-8.84-.07-.41.23-.69.36-1.1-.01-2.06-1.62-4.86-.97-7.27-.94-7.8.03-15.6-.01-23.4.02-.53.01-.83.02-.64-.71.47-1.87.82-3.77,1.22-5.66.11-.51.08-.78-.59-.77-2.56.03-5.12.02-7.68.01-.46,0-.68.08-.78.62-.39,2.09-.87,4.16-1.29,6.26-.09.46-.17.56-.69.45-3.9-.82-7.49-.49-10.14,2.97-.23.3-.36.3-.49-.07-.72-1.89-2.27-2.7-4.13-3.01-4.78-.51-11.58-1.14-13.83,4.2-.05.31-.38.68-.45.12-.47-2.3-1.95-3.71-4.15-4.13-4.09-.89-8.14-.69-11.87,1.37.51-3.54.02-7.08-3.98-8.15-5.5-1.18-11.25-.33-16.85-.6q-1.25,0-1.51,1.18c-.17.48-.15,1.21-.39,1.61-.25.08-.29-.22-.39-.36-1.56-2.07-4.41-2.42-6.81-2.43-7.43-.02-14.86,0-22.29-.03-.75,0-.98.24-1.09.91-.52,2.87-1.07,5.74-1.6,8.61-.03.16.02.37-.22.39-.02,0-.07-.25-.09-.38-.47-2.89-.94-5.76-1.39-8.65-.09-.59-.24-.87-.94-.87-4.01.05-8.03.03-12.04.01-.57,0-.78.17-.9.74-.84,4.06-1.7,8.11-2.56,12.16-.95,4.48-1.9,8.98-2.86,13.47-.14.66-.05.86.68.85,12.22-.39,8.09,2.42,10.89-9.35.02-.13,0-.34.15-.36.17-.01.13.21.14.32.45,2.83.91,5.67,1.32,8.5.09.63.29.89.99.87,9.51-.05,19.01-.02,28.52-.07,1.99-.01,3.88-.48,5.5-1.74.07-.03.15-.02.23-.01Z" />
  <g class="cls-3">
    <path class="cls-2"
      d="m44.73,100.06c-5.83-4.6-9.52-11.44-9.05-19.01.23-.47.3-.98.3-1.49,1.56-9.42,9.17-15.78,16.26-21.37,4.63-3.98,9.59-7.58,13.9-11.91,2.67-2.77,4.82-5.89,6.22-9.49.24-.63.47-.85,1.21-.66,2.72.78,6.08,1.08,7.93,3.46.17.35.31.25.41-.03.6-1.63,1.18-3.25,1.76-4.89.16-.45-.24-.47-.48-.51-2.98-.56-5.99-1.01-9.02-1.29-.53-.06-.45-.35-.37-.72,1.88-7.13.69-14.61-1.66-21.45.02-.02.06-.06.08-.08,20.41,8.06,32.46,31.53,27.77,52.86-.8.21-2.65-.49-2.78.63-.05.51-.25.55-.74.33-1.47-.67-3.04-.93-4.65-.93-13.51-.01-27.02-.01-40.55-.02-2.28,0-2.24.01-2.7,2.2-1.91,9.12-3.85,18.23-5.78,27.33-.25,1.18-.26,1.17.93,1.17,11.41.03,22.81-.06,34.22.03-9.82,6.16-21.91,7.92-33.23,5.82Z" />
    <path class="cls-2"
      d="m211.99,90.6c-.73-.18-2.98.55-2.53-.74.66-2.93,1.25-5.86,1.85-8.81.18-.99.53-2.74-.85-2.97-1.68-.34-2.97.36-3.6,1.97-1,3.23-1.43,6.64-2.17,9.95-.08.41-.26.62-.74.61-1.25-.03-2.51-.01-3.76-.01-.97,0-.98-.01-.78-.94.64-3.02,1.28-6.04,1.93-9.05,1.07-3.55-3.76-3.24-4.54-.62-1.01,3.31-1.44,6.74-2.28,10.11-.08.41-.28.52-.63.52-1.43,0-2.84-.01-4.27,0-.46,0-.47-.17-.39-.59,1.09-5.06,2.15-10.13,3.22-15.2.09-.44.24-.71.77-.7,1.31.03,2.62.03,3.92,0,1.28-.03-.17,1.7.3,2.3.15.09.23-.08.31-.21.91-1.4,2.27-1.98,3.85-2.17,2.09-.18,5.23-.22,5.28,2.58.01.17-.09.45.18.48.18.02.25-.2.32-.34,1.23-2.62,4.37-3.12,6.95-2.62,2.13.39,3.23,2.06,2.79,4.29-.76,3.86-1.6,7.7-2.37,11.57-.2,1.11-1.95.42-2.77.61Z" />
    <path class="cls-2"
      d="m167.26,90.56c-2.8-.07-2.84.58-2.04-2.39.03-.14.09-.31-.06-.38-.17-.08-.22.1-.3.22-1.93,2.75-5.46,3.62-8.48,2.12-3.66-1.84-.83-8.57-.08-11.68,1.16-3.27,3.83-4.77,7.64-4.46,1.53.13,2.79.53,3.28,2.18.03.14.09.3.28.25.21-.05.2-.25.23-.41.43-2.02.85-4.04,1.28-6.06.29-.84.13-2.21.69-2.74.58-.49,1.63-.13,2.47-.15.71-.02,1.43.02,2.13-.01.49-.02.61.08.49.61-.7,3.17-1.37,6.36-2.05,9.54-.85,4.07-1.7,8.14-2.54,12.21-.23,1.13-.22,1.14-1.4,1.14-.52.01-1.02.01-1.54.01Zm-2.97-12.51c-3.62-.38-3.51,3.84-4.11,6.38-.23,1.4.18,2.13,1.25,2.24,1.54.2,3.53,0,4.12-1.69.64-1.46.99-3.01,1.16-4.59.29-1.93-.6-2.39-2.43-2.35Z" />
    <path class="cls-2"
      d="m177.36,74.12c.77.19,2.94-.53,2.85.64.26,4.13.05,8.55.44,12.56.32.07.33-.32.41-.53,1.2-2.91,2.38-5.83,3.58-8.74.48-1.18.98-2.36,1.46-3.54.11-.28.28-.39.57-.39,1.48.01,2.96.01,4.44,0,.75,0,.41.43.29.72-2.62,5.92-5.23,11.83-7.89,17.73-1.5,4.2-4.98,5.66-9.22,5.27-1.15.2.08-2.45,0-3.13.08-.46.35-.51.72-.48,2.01.11,3.23-1.13,3.73-2.93.38-1.08-.89-.66-1.53-.75-1.25,0-1.26,0-1.37-1.29-.31-3.93-.61-7.87-.93-11.81-.07-.93-.17-1.86-.29-2.79-.05-.41.07-.57.49-.56.77.05,1.51.03,2.24.02Z" />
    <path class="cls-2"
      d="m146.7,73.95c9.3-.47,7.48,3.65,6.06,10.53-.31,1.84-.78,3.66-1.15,5.49-.08.38-.18.63-.63.63-1.43-.01-2.84,0-4.27,0-.39,0-.6-.09-.41-.56.16-.57.5-1.2.38-1.79-.94,1.49-2.2,2.28-3.92,2.43-2.69.4-6.98-.01-6.49-3.65.12-3.35,2.32-6.42,5.82-6.43,1.73-.04,4.52-.58,5.39,1.39.05.13.06.29.24.3s.23-.13.25-.28c.11-1.47,1.74-4.28-.49-4.77-1.06-.19-2.8-.19-3.3.93-.21.82-.74.84-1.41.82-1.14-.03-2.28-.05-3.42,0-.69.03-.83-.17-.63-.83.96-3.72,4.76-4.31,7.98-4.21Zm-2.7,13.43v.02c1.49,0,3.1-.35,3.29-2.08.13-.74-.23-1.29-.97-1.44-1.01-.21-2.02-.26-3.04-.01-2.11.68-2.27,3.91.71,3.51Z" />
    <path class="cls-2"
      d="m129.25,83.21c-1.56,0-3.13.01-4.69-.01-.52-.01-.76.15-.83.7-.17,1.13-.45,2.95,1.09,3.09,1.37.1,3.4.34,3.96-1.29.14-.39.34-.6.8-.59,1.33.03,2.68.02,4.01,0,.47-.01.55.1.44.59-1.05,5.38-7.81,5.47-12.21,4.74-5.87-1.04-3.09-8.63-1.74-12.38,1.04-2.45,3.05-3.67,5.62-3.97,7.23-.7,11.06.14,9.06,8.39-.1.55-.31.71-.83.69-1.56-.07-3.12.05-4.69.03Zm-2.02-2.81c.8-.13,2.12.31,2.7-.26.59-.98-.07-2.32-1.21-2.42-.6-.05-1.2-.06-1.78-.01-1.35.09-2.15.89-2.31,2.2-.14.94,1.98.33,2.6.49Z" />
    <path class="cls-2"
      d="m236.66,90.6c-.79,0-1.6-.02-2.39.01-.48.01-.69-.13-.79-.64-.25-1.37-.57-2.71-.89-4.07-.03-.17.03-.46-.23-.48-.23-.02-.3.24-.39.39-.87,1.37-1.74,2.74-2.59,4.12-.31.51-.69.71-1.31.7-1.72-.14-3.61.17-5.26-.11-.15-.24.09-.41.22-.59,1.82-2.36,3.63-4.73,5.5-7.06.53-.67.69-1.24.39-2.06-.71-1.94-1.31-3.92-1.98-5.88-.2-.59-.13-.82.56-.79,1.56.03,3.13.03,4.69,0,.51-.01.67.15.75.64.2,1.12.46,2.22.7,3.32.03.15-.05.38.2.4.9-.77,1.84-2.76,2.61-3.84.22-.36.44-.53.86-.53,1.68.12,3.89-.19,5.42.11.11.22-.1.36-.22.51-1.69,2.17-3.37,4.35-5.07,6.52-.32.41-.41.76-.23,1.3.83,2.38,1.59,4.8,2.41,7.18.73,1.49-2.01.63-2.97.85Z" />
    <path class="cls-2"
      d="m218.9,90.6c-.59-.15-2.83.44-2.47-.55,1.12-5.11,2.21-10.22,3.27-15.35.1-.49.31-.57.74-.57,1.33.01,2.67.02,4,0,.53-.01.67.09.54.69-1.09,4.99-2.15,9.99-3.19,15-.24,1.4-1.91.58-2.89.79Z" />
    <path class="cls-2"
      d="m223.89,67.06c.71,0,1.43.02,2.13-.01.38-.01.49.09.41.47-.23,1.05-.45,2.1-.67,3.16-.07.32-.23.46-.59.46-1.45-.02-2.9-.01-4.35-.01-.31,0-.46-.05-.37-.44.25-1.08.46-2.16.67-3.24.07-.37.3-.41.62-.4.71.02,1.43.01,2.14.01Z" />
  </g>
</svg>