<?xml version="1.0" encoding="UTF-8"?>
<svg id="Layer_1" data-name="Layer 1" xmlns="http://www.w3.org/2000/svg" viewBox="0 0 569.31 107.98">
  <defs>
    <style>
      .cls-1 {
      opacity: .65;
      }

      .cls-1, .cls-2, .cls-3, .cls-4 {
      fill: #fff;
      stroke-width: 0px;
      }

      .cls-2 {
      opacity: .85;
      }

      .cls-3 {
      opacity: .5;
      }
    </style>
  </defs>
  <polygon class="cls-4"
    points="40.47 1.04 40.47 34.7 17.56 1.04 0 1.04 0 61.88 17.68 61.88 17.68 28.47 40.47 61.88 58.19 61.88 58.19 1.04 40.47 1.04" />
  <path class="cls-4"
    d="m107.9,1.04h18.76v36.25c0,3.6-.56,6.99-1.68,10.18-1.12,3.19-2.88,5.99-5.27,8.38-2.39,2.39-4.9,4.07-7.53,5.04-3.65,1.35-8.04,2.03-13.16,2.03-2.96,0-6.19-.21-9.69-.62-3.5-.42-6.43-1.24-8.78-2.47-2.35-1.23-4.5-2.98-6.45-5.25-1.95-2.27-3.29-4.6-4.01-7.01-1.16-3.87-1.74-7.3-1.74-10.29V1.04h18.76v37.12c0,3.32.92,5.91,2.76,7.78,1.84,1.87,4.39,2.8,7.66,2.8s5.78-.92,7.62-2.76c1.84-1.84,2.76-4.44,2.76-7.82V1.04Z" />
  <polygon class="cls-4"
    points="136.52 1.04 161.25 1.04 170.79 38.06 180.25 1.04 204.97 1.04 204.97 61.88 189.57 61.88 189.57 15.48 177.7 61.88 163.76 61.88 151.92 15.48 151.92 61.88 136.52 61.88 136.52 1.04" />
  <path class="cls-4"
    d="m212.22,31.5c0-9.93,2.77-17.67,8.3-23.2,5.53-5.53,13.24-8.3,23.12-8.3s17.93,2.72,23.41,8.15c5.48,5.44,8.22,13.05,8.22,22.85,0,7.11-1.2,12.94-3.59,17.49-2.39,4.55-5.85,8.09-10.38,10.63-4.52,2.53-10.16,3.8-16.91,3.8s-12.54-1.09-17.04-3.28c-4.5-2.19-8.14-5.64-10.94-10.38-2.8-4.73-4.19-10.65-4.19-17.76m18.8.08c0,6.14,1.14,10.56,3.42,13.24,2.28,2.69,5.39,4.03,9.32,4.03s7.16-1.31,9.38-3.94c2.21-2.63,3.32-7.35,3.32-14.15,0-5.73-1.16-9.91-3.46-12.56-2.31-2.64-5.44-3.96-9.4-3.96s-6.83,1.34-9.13,4.03c-2.3,2.68-3.45,7.12-3.45,13.32" />
  <path class="cls-4"
    d="m319.8,61.71V2.25h30.63c5.68,0,10.02.49,13.02,1.46,3,.97,5.42,2.78,7.26,5.42,1.84,2.64,2.76,5.85,2.76,9.64,0,3.3-.7,6.15-2.11,8.54-1.41,2.39-3.34,4.33-5.8,5.82-1.57.95-3.72,1.73-6.45,2.35,2.19.73,3.78,1.46,4.78,2.19.68.49,1.65,1.53,2.94,3.12,1.28,1.6,2.14,2.83,2.57,3.7l8.9,17.23h-20.76l-9.82-18.17c-1.24-2.35-2.35-3.88-3.33-4.58-1.33-.92-2.83-1.38-4.5-1.38h-1.62v24.14h-18.46Zm18.46-35.37h7.75c.84,0,2.46-.27,4.87-.81,1.22-.24,2.21-.87,2.98-1.87.77-1,1.16-2.15,1.16-3.45,0-1.92-.61-3.39-1.83-4.42-1.22-1.03-3.5-1.54-6.86-1.54h-8.07v12.09Z" />
  <polygon class="cls-4"
    points="381.64 2.25 405.81 2.25 415.13 38.43 424.38 2.25 448.53 2.25 448.53 61.71 433.49 61.71 433.49 16.36 421.89 61.71 408.27 61.71 396.69 16.36 396.69 61.71 381.64 61.71 381.64 2.25" />
  <polygon class="cls-4"
    points="458.01 2.25 503.44 2.25 503.44 15.02 476.47 15.02 476.47 25.41 499.51 25.41 499.51 37.42 476.47 37.42 476.47 61.71 458.01 61.71 458.01 2.25" />
  <path class="cls-4"
    d="m540.91,40.17v-12.37h28.4v25.35c-5.44,3.7-10.24,6.23-14.42,7.56-4.18,1.34-9.13,2.01-14.87,2.01-7.06,0-12.81-1.2-17.26-3.61-4.45-2.41-7.9-5.99-10.34-10.75-2.45-4.76-3.67-10.22-3.67-16.39,0-6.49,1.34-12.14,4.02-16.94,2.68-4.8,6.6-8.44,11.76-10.93,4.03-1.92,9.45-2.88,16.27-2.88s11.49.6,14.74,1.78c3.26,1.19,5.96,3.04,8.11,5.54,2.15,2.5,3.77,5.67,4.85,9.51l-17.73,3.16c-.73-2.24-1.97-3.96-3.71-5.15-1.74-1.19-3.97-1.78-6.67-1.78-4.03,0-7.24,1.4-9.63,4.2-2.39,2.8-3.59,7.23-3.59,13.28,0,6.44,1.21,11.03,3.63,13.79,2.42,2.76,5.79,4.14,10.12,4.14,2.06,0,4.02-.3,5.88-.89,1.87-.6,4-1.61,6.41-3.04v-5.6h-12.29Z" />
  <rect class="cls-3" x="291.07" y="1.04" width="12.92" height="72.91" />
  <polygon class="cls-1"
    points="0 80.67 20.33 80.67 20.33 85.91 7.6 85.91 7.6 89.81 19.41 89.81 19.41 94.82 7.6 94.82 7.6 99.66 20.7 99.66 20.7 105.21 0 105.21 0 80.67" />
  <polygon class="cls-1"
    points="23.11 80.67 31.46 80.67 35.81 88.22 40.03 80.67 48.31 80.67 40.67 92.56 49.03 105.21 40.5 105.21 35.66 97.33 30.81 105.21 22.34 105.21 30.8 92.42 23.11 80.67" />
  <polygon class="cls-1"
    points="49.73 80.67 72.79 80.67 72.79 86.73 65.05 86.73 65.05 105.21 57.47 105.21 57.47 86.73 49.73 86.73 49.73 80.67" />
  <polygon class="cls-1"
    points="76.2 80.67 96.53 80.67 96.53 85.91 83.8 85.91 83.8 89.81 95.61 89.81 95.61 94.82 83.8 94.82 83.8 99.66 96.9 99.66 96.9 105.21 76.2 105.21 76.2 80.67" />
  <polygon class="cls-1"
    points="101.03 80.67 108.12 80.67 117.36 94.25 117.36 80.67 124.51 80.67 124.51 105.21 117.36 105.21 108.17 91.74 108.17 105.21 101.03 105.21 101.03 80.67" />
  <path class="cls-1"
    d="m129.65,80.67h11.27c2.22,0,4.02.3,5.38.9,1.37.6,2.5,1.47,3.39,2.6.89,1.13,1.54,2.44,1.94,3.93.4,1.5.6,3.08.6,4.76,0,2.62-.3,4.66-.9,6.1-.6,1.45-1.43,2.66-2.49,3.63-1.06.98-2.2,1.63-3.42,1.95-1.66.45-3.17.67-4.52.67h-11.27v-24.55Zm7.59,5.56v13.41h1.86c1.59,0,2.71-.18,3.38-.53.67-.35,1.2-.97,1.57-1.84.38-.88.57-2.3.57-4.26,0-2.6-.42-4.38-1.27-5.34-.85-.96-2.26-1.44-4.22-1.44h-1.89Z" />
  <rect class="cls-1" x="156.52" y="80.67" width="7.6" height="24.55" />
  <polygon class="cls-1"
    points="169.62 80.67 176.7 80.67 185.94 94.25 185.94 80.67 193.09 80.67 193.09 105.21 185.94 105.21 176.75 91.74 176.75 105.21 169.62 105.21 169.62 80.67" />
  <path class="cls-1"
    d="m210.47,96.32v-5.11h11.72v10.46c-2.24,1.53-4.23,2.57-5.95,3.12-1.73.55-3.77.83-6.14.83-2.91,0-5.29-.5-7.12-1.49s-3.26-2.47-4.27-4.44c-1.01-1.97-1.51-4.22-1.51-6.77,0-2.68.55-5.01,1.66-6.99,1.11-1.98,2.73-3.48,4.86-4.51,1.66-.79,3.9-1.19,6.71-1.19s4.74.24,6.09.74,2.46,1.25,3.35,2.29c.89,1.03,1.55,2.34,2,3.93l-7.32,1.31c-.3-.93-.81-1.64-1.53-2.13-.72-.49-1.64-.74-2.76-.74-1.66,0-2.99.58-3.98,1.73-.99,1.16-1.48,2.98-1.48,5.48,0,2.66.5,4.56,1.5,5.69,1,1.14,2.39,1.71,4.18,1.71.85,0,1.66-.12,2.43-.37.77-.25,1.65-.66,2.65-1.26v-2.31h-5.07Z" />
  <polygon class="cls-1"
    points="238.11 80.67 258.44 80.67 258.44 85.91 245.72 85.91 245.72 89.81 257.52 89.81 257.52 94.82 245.72 94.82 245.72 99.66 258.81 99.66 258.81 105.21 238.11 105.21 238.11 80.67" />
  <path class="cls-1"
    d="m284.7,101.63c.95.66,1.57,1.07,1.86,1.24.44.24,1.02.53,1.76.85l-2.11,4.25c-1.06-.51-2.11-1.12-3.15-1.83-1.04-.71-1.76-1.24-2.18-1.6-1.68.72-3.77,1.09-6.3,1.09-3.73,0-6.67-.97-8.82-2.91-2.54-2.3-3.82-5.53-3.82-9.7s1.11-7.18,3.34-9.42c2.23-2.24,5.34-3.36,9.33-3.36s7.22,1.09,9.44,3.28c2.22,2.19,3.32,5.32,3.32,9.39,0,3.63-.89,6.53-2.68,8.71m-5.81-3.89c.6-1.08.9-2.7.9-4.86,0-2.48-.46-4.25-1.38-5.31-.92-1.06-2.19-1.59-3.81-1.59-1.51,0-2.73.54-3.67,1.62-.94,1.08-1.41,2.77-1.41,5.07,0,2.68.46,4.56,1.37,5.64.92,1.08,2.17,1.62,3.77,1.62.51,0,1-.05,1.46-.15-.64-.62-1.64-1.2-3.01-1.74l1.19-2.73c.67.12,1.19.27,1.57.45s1.1.65,2.18,1.41c.26.18.54.36.84.55" />
  <path class="cls-1"
    d="m307.43,80.67h7.57v14.62c0,1.45-.23,2.82-.68,4.11-.45,1.29-1.16,2.41-2.13,3.38-.97.96-1.98,1.64-3.04,2.03-1.47.55-3.24.82-5.31.82-1.19,0-2.5-.08-3.91-.25-1.41-.17-2.59-.5-3.54-.99-.95-.5-1.82-1.2-2.6-2.12-.79-.92-1.33-1.86-1.62-2.83-.47-1.56-.7-2.94-.7-4.15v-14.62h7.57v14.97c0,1.34.37,2.38,1.11,3.14.74.75,1.77,1.13,3.09,1.13s2.33-.37,3.07-1.11c.74-.74,1.11-1.79,1.11-3.15v-14.97Z" />
  <rect class="cls-1" x="320.33" y="80.67" width="7.6" height="24.55" />
  <path class="cls-1"
    d="m333.34,80.67h12.61c2.75,0,4.8.65,6.17,1.96,1.37,1.31,2.05,3.17,2.05,5.58s-.74,4.41-2.23,5.81c-1.49,1.39-3.76,2.09-6.82,2.09h-4.15v9.11h-7.62v-24.55Zm7.62,10.47h1.86c1.46,0,2.49-.25,3.08-.76.59-.51.89-1.16.89-1.95s-.26-1.42-.77-1.96c-.51-.54-1.48-.8-2.9-.8h-2.16v5.48Z" />
  <polygon class="cls-1"
    points="358.05 80.67 368.02 80.67 371.87 95.6 375.69 80.67 385.66 80.67 385.66 105.21 379.45 105.21 379.45 86.49 374.66 105.21 369.04 105.21 364.26 86.49 364.26 105.21 358.05 105.21 358.05 80.67" />
  <polygon class="cls-1"
    points="390.48 80.67 410.81 80.67 410.81 85.91 398.08 85.91 398.08 89.81 409.89 89.81 409.89 94.82 398.08 94.82 398.08 99.66 411.18 99.66 411.18 105.21 390.48 105.21 390.48 80.67" />
  <polygon class="cls-1"
    points="415.31 80.67 422.4 80.67 431.64 94.25 431.64 80.67 438.79 80.67 438.79 105.21 431.64 105.21 422.45 91.74 422.45 105.21 415.31 105.21 415.31 80.67" />
  <polygon class="cls-1"
    points="442.1 80.67 465.16 80.67 465.16 86.73 457.42 86.73 457.42 105.21 449.84 105.21 449.84 86.73 442.1 86.73 442.1 80.67" />
  <polygon class="cls-1"
    points="480.03 80.67 487.61 80.67 487.61 99.17 499.45 99.17 499.45 105.21 480.03 105.21 480.03 80.67" />
  <rect class="cls-1" x="503.2" y="80.67" width="7.6" height="24.55" />
  <polygon class="cls-1"
    points="516.28 80.67 535.03 80.67 535.03 85.94 523.9 85.94 523.9 90.23 533.41 90.23 533.41 95.18 523.9 95.18 523.9 105.21 516.28 105.21 516.28 80.67" />
  <polygon class="cls-1"
    points="539.1 80.67 559.43 80.67 559.43 85.91 546.7 85.91 546.7 89.81 558.51 89.81 558.51 94.82 546.7 94.82 546.7 99.66 559.8 99.66 559.8 105.21 539.1 105.21 539.1 80.67" />
  <rect class="cls-2" x="563.36" y="99.64" width="5.95" height="5.58" />
</svg>