<svg id="Layer_1" data-name="Layer 1" xmlns="http://www.w3.org/2000/svg" viewBox="0 0 1368 505.11"><defs><style>.cls-1{fill:#9fcc3b;}.cls-2{fill:#6bcce0;}.cls-3{fill:#3d53a4;}.cls-4{fill:#00a651;}.cls-5{fill:#0054a6;}.cls-6{fill:#201b56;}.cls-7{fill:#f26322;}.cls-8{fill:#fff;}.cls-9{fill:#f7921e;}.cls-10{fill:#010101;}.cls-11{fill:#f26723;}</style></defs><path class="cls-1" d="M198.06,0s193.09-7.68,650.5,399.43"/><path class="cls-1" d="M197.35,105.68S390.44,98,847.84,505.11"/><path class="cls-1" d="M486.74,80.74s193.09-7.68,650.5,399.43"/><path class="cls-1" d="M1011.71,70.41c-.81-11.24-8.73-21-18.83-25.49-5.89-2.64-12.41-2.72-18.71-2-6.6.71-13.19,1.82-19.75,2.79-13.22,2-26.39,5.09-39.37,8.28a96.87,96.87,0,0,0-30.76,13.28A39.39,39.39,0,0,0,876,74.52c-4.44,1.71-6.17,6.58-6.3,11.31-.11.19-.21.37-.3.56A22,22,0,0,1,867,90a5.19,5.19,0,0,0,1.31,7.14c4.8,3.16,7.53,8.56,12.6,11.48a51,51,0,0,0,16.72,5.49,24.06,24.06,0,0,0,14.51-2.37c4-1.93,7.61-4.65,11.86-6.05,6-2,12.37-1.87,18.62-1.69,6.63.2,13.26.07,19.89-.11,11.4-.3,23.87-1.09,34.13-6.62a28.18,28.18,0,0,0,15.05-26.88"/><path class="cls-1" d="M890.38,123.41a4.91,4.91,0,0,0-2.55-1.67,24.29,24.29,0,0,0-6-11.15A30.62,30.62,0,0,0,870.14,103a3.83,3.83,0,0,0-1.25-1.07c-4-2.15-8-3.09-11.78-1.91a4.92,4.92,0,0,0-2.55-.28c-8.66,1.21-15.7,8.61-20.07,15.72a40.5,40.5,0,0,0-5.24,13.59c-1,5.19-1.09,10.59-2.54,15.69-2.7,9.44-8.53,17.65-11.09,27.14-2.44,9-2.45,20.25,5.46,26.67,7.1,5.76,19.06,3.78,23.86-4.05,4.19-6.84,1.88-15.46,4.81-22.77s9.19-12.16,15.26-16.64c3.84-2.85,7.86-5.63,11.57-8.74a6.14,6.14,0,0,0,1.13,0c5.85-.42,9.14-5.89,10-11.6a2.74,2.74,0,0,0,2.74-1.73c1.41-3.15,2.45-6.74,0-9.65"/><path class="cls-1" d="M1104.62,116.41a31.31,31.31,0,0,0-11.09-10.85c-5-2.87-9.13-7.22-14.21-9.8-2.18-1.11-4.52-2-6.61-3.27a22.26,22.26,0,0,1-5.78-5.59c-1.49-1.87-3.49-3.15-5-4.94-2-2.25-3.63-4.79-5.38-7.2a48.35,48.35,0,0,0-12.63-11.94c-4.95-3.25-9.42-6.2-15.61-4.64-4.77,1.2-8.24,4.41-10.68,8.57-1.93,3.29-4,7.56-3,11.41a22.09,22.09,0,0,0-.25,9.06c1.74,10,8.94,18.26,17.5,23.29,4.53,2.66,9.68,4.24,14,7.21a36.3,36.3,0,0,0,6.78,3.79,13.72,13.72,0,0,1,3.6,1.61,15.35,15.35,0,0,1,1.79,2.37c1.41,1.76,3.68,3,4.86,4.94,1.41,2.27,1.76,4.87,3.37,7.14a50.2,50.2,0,0,1,3.53,5.05,18.59,18.59,0,0,0,4.41,6c3.56,2.8,8.57,2.71,12.86,2.32,5-.46,9.16-3.19,12.53-6.78,3.9-4.16,5.67-8.43,6.71-14,.92-4.91,1.17-9.37-1.62-13.75"/><path class="cls-1" d="M1124.54,202.88c-1.75-3.6-4-6.87-5.5-10.61a39.26,39.26,0,0,1-2.75-13c-.23-8.5,2.83-16.64,2.15-25.21a9.82,9.82,0,0,0-3.53-7.22,4.66,4.66,0,0,0-1.67-2.28c-2.7-2.09-6.81-1.54-9.7,0a22.8,22.8,0,0,0-3.44,2.73,16.84,16.84,0,0,1-2.24,1.41c-.21.12-.46.22-.59.31a4.53,4.53,0,0,0-5.19,3.2,9.14,9.14,0,0,0-3.12,1.63c-1.49,1.33-2.17,3.25-3.06,5a50.74,50.74,0,0,0-2.77,5.13c-1.4,3.58-.57,7.46.75,10.93,1.44,3.77,2.64,7.71,4.7,11.19a61.73,61.73,0,0,1,8,24.46c.73,7.24-3.46,17.93,5.42,21.85,6.53,2.87,15.31-1.74,19.57-6.76a20.69,20.69,0,0,0,3-22.71"/><path class="cls-2" d="M1006.57,234.54s0,0,0,0a0,0,0,1,0,0,0"/><path class="cls-1" d="M1112.32,240.07a10.35,10.35,0,0,0-6.27-3.2,6.62,6.62,0,0,0-4.49.32l0,0a14.72,14.72,0,0,0-3.88,1.71l-.5.07c-2.08.31-2.85,1.54-4.19,3a21.73,21.73,0,0,0-4.3,5.59c-2.5,5.16-2.36,11-3.31,16.6s-5.44,10.13-8.79,14.55-7.54,9.29-8.11,15.17c0,.11,0,.22,0,.34h0a6,6,0,0,0-.65-.37c-2.36-1.09-4.62-2.24-7.28-1.64s-4.22,2.58-6.16,4.16a33,33,0,0,1-13.06,5.91c-2.09.51-4.19,1-6.31,1.37a5,5,0,0,0-2.53-6.77c-11.2-4.82-23-7.6-34.42-11.65-10.94-3.86-20.78-10.69-29.53-18.22a143.14,143.14,0,0,1-12.2-12.06c-4.18-4.58-8.6-8.94-12.55-13.73-4.12-5-8.18-10.07-12.27-15.1-2.85-3.49-5.91-6.68-9-9.88a6.45,6.45,0,0,0,0-.76,5.91,5.91,0,0,0-1.7-3.77c-.55-3.56-3.16-7.08-4.73-10.13-2-3.93-4.11-7.75-5.22-12.08-.38-1.45-1-2.8-1.52-4.2a2.33,2.33,0,0,0,.11-.28,4,4,0,0,0,.25-2.08,3.88,3.88,0,0,0-.48-2c-.24-.37-.49-.74-.73-1.12a7.34,7.34,0,0,0-.64-.61c-.07-.36-.13-.73-.19-1.1a42.35,42.35,0,0,1,.34-12.86,68.19,68.19,0,0,1,8.25-22.89,66.78,66.78,0,0,1,6.7-10c2.51-3.05,5.14-5.8,7.81-8.77a.64.64,0,0,0,.1-.13c2.75-1.23,5.42-3.61,8.26-4.59,6.45-2.22,11.66-5.22-1-1.43a82.2,82.2,0,0,0-8,2.66c-2.62,1.08-5,2.55-7.67,3.59a85.65,85.65,0,0,0-15.17,8c-4.5,2.92-9,5.62-13.41,8.76A84.45,84.45,0,0,0,882,151.23c-3.49,3.68-7.13,7.33-9.95,11.56A102,102,0,0,0,864.25,177c-2.32,5.07-4.73,10.25-6.16,15.65-.64,2.45-1,5-1.69,7.41-.75,2.65-1.42,4.93-1.09,7.72a2.16,2.16,0,0,0,.14.57,3.34,3.34,0,0,0-.55,2.28,25.81,25.81,0,0,0-14.47-6.17A19.11,19.11,0,0,0,829,206.83a15.37,15.37,0,0,0-11.44,8.63c-2.37,5-1.42,10.56,1.36,15.21,3.09,5.17,7,9.88,9.59,15.31,2.47,5.07,2.59,10,3,15.55s1.83,10.65,6.11,14.21a15.85,15.85,0,0,0,2.84,1.84c0,.09,0,.18,0,.27a5.38,5.38,0,0,0,4.84,5.61,8.67,8.67,0,0,0,4.36-.59,9.82,9.82,0,0,1,1,1.21c2.83,4.26,6.12,9.09,12,8.1,4.08-.68,6.8-4.06,8.09-7.78.19-.54.36-1.12.51-1.72a19.93,19.93,0,0,0,4,7.87,6.66,6.66,0,0,0-1.84-.42c-3.35-.25-5.93,2.69-7.6,5.13-4.52,6.62-.62,12.9,6.12,15.77a8.53,8.53,0,0,1,3.41,2c1.07,1.23,1.35,2.74,2.69,3.8,3.06,2.43,6.8.75,8.67-2.18.09-.15.17-.31.25-.47a2.26,2.26,0,0,0,0,.37c-.92,1.93-1.26,5.17-.19,6.67.91,1.28,2,1.37,3.37,1.84,2.19.75,3.82,1.67,6.21,2.11,2.83.51,3.58,2.2,5.4,4a28,28,0,0,0,4.5,3.05,7.5,7.5,0,0,0,5,1.1,6.05,6.05,0,0,0,2.73-1,3,3,0,0,0,1.13-1.06c.06-.12.12-.21.17-.31a3.17,3.17,0,0,0-.8-5,32.31,32.31,0,0,1,7.64,2.1,6.34,6.34,0,0,0-.63,0,1.91,1.91,0,0,0-.66.22l-.56.37-.45.5-.31.6a2.09,2.09,0,0,0-.15.7c0,.11,0,.23,0,.35a1.41,1.41,0,0,0,.13.67,2.69,2.69,0,0,0,.11.33l.1.15a1.9,1.9,0,0,0,.4.58,1.52,1.52,0,0,0,.37.39,1.55,1.55,0,0,0,.27.24l0,0a3,3,0,0,0,2.05.42l.66-.22a2.68,2.68,0,0,0,1-.89,4.06,4.06,0,0,0,.35-.69c0-.06.15-.67.16-.73,0-.24,0-.48,0-.72a5.06,5.06,0,0,1,.51.91,18.17,18.17,0,0,0,2.13,3.87,3.1,3.1,0,0,0-1.22,1.86c-.9-.2-1.84-.29-2.7-.42a58,58,0,0,0-6-.58,2,2,0,0,0-2.06,1.33,107.33,107.33,0,0,1-14.38-4.69c-1.33-.59-2.07,1.53-.76,2.13,6,2.73,11.57,5.95,17.84,8s12.21,4.21,18.51,5.9a87.43,87.43,0,0,0,19,3c3.25.11,6.52,0,9.78,0,2.94,0,6.06.19,8.78-1a2.34,2.34,0,0,0,1.19-1.08,4.88,4.88,0,0,0,2.89-1.18,25.8,25.8,0,0,0,4.6.38,5.25,5.25,0,0,0,4.63-3l.15-.05a7.45,7.45,0,0,0,.74-.41,8.78,8.78,0,0,0,5.34-1.8,5.31,5.31,0,0,0,2.44-.25,5.85,5.85,0,0,0,6.45-1.22,4.7,4.7,0,0,0,5.83-1.94c.15-.26.29-.52.43-.79l.18.06a2.69,2.69,0,0,0,.37,1.75c1.59,2.82,7.46,2.71,10.18,2.55,4.25-.25,8.67-1.32,11.84-4.35a5.74,5.74,0,0,0,1.66-4.83c0-.65,0-.28,0,0v-.36a15.14,15.14,0,0,0,0-1.52,5.21,5.21,0,0,0-.25-1.19,4.65,4.65,0,0,0,2.26-1.76l.23.33c3.43,4.49,9.52,2.55,13.5.18.39-.23.76-.47,1.12-.72a4.33,4.33,0,0,0,1.11-.2,5.37,5.37,0,0,0,3.37-2.13l.2-.31.11-.18c.42-.31.84-.61,1.28-.9a33.9,33.9,0,0,0,4.78-3.26l.5-.38a5.92,5.92,0,0,0,1.06-.87c.53-.42,1.05-.84,1.56-1.28a4.81,4.81,0,0,0,3-2.37,1.81,1.81,0,0,0,1.9-.39,3.64,3.64,0,0,0,1.24-2.51,8.19,8.19,0,0,0-.13-1c0-.35.11-.52.27-.85a.89.89,0,0,0,0-.82v0a3.73,3.73,0,0,0,.85-3.39,5.73,5.73,0,0,0-1.42-4.84,8.18,8.18,0,0,0,1.21-1.69,9.15,9.15,0,0,0,6.9,3.65c5.43.11,9.84-5.39,12.15-9.73,2.51-4.72,3.64-9.9,5.5-14.87,2.26-6,6.16-10.76,10.41-15.52,1.13-1.25,2.59-2.16,3.58-3.56a8.1,8.1,0,0,0,.81-1.5c5.14-5.18,7.16-15.12,1.88-20.57M865.53,259.58a5.39,5.39,0,0,0-5.68-.13l.06-.59a5.32,5.32,0,0,0,1-1.56,22.94,22.94,0,0,0,1.61-6.83,5.22,5.22,0,0,0,.64-1.12,15.7,15.7,0,0,0,.86-3.21l0,.46a40.51,40.51,0,0,0,3.34,14.53,10.14,10.14,0,0,0-1.9-1.55m5.24,7.19a7.05,7.05,0,0,1,1,4.2,23,23,0,0,0-1-4.2m23.88,45a5.1,5.1,0,0,0-1.81-.3,2.6,2.6,0,0,0-3-.51,7.59,7.59,0,0,0-2,1.33,2.08,2.08,0,0,0-.21.21,11.94,11.94,0,0,0-.1-7.27,8.24,8.24,0,0,0-1.79-3.07l9,9.67-.11-.06m7.12,7.4c-.56-.3-1.12-.58-1.69-.86a2.22,2.22,0,0,0-1.05-.17,15,15,0,0,0-1.42-1.54,5.09,5.09,0,0,0-.19-1.92c1.44,1.55,2.88,3.09,4.4,4.53l-.05,0m7,5.9a10.34,10.34,0,0,1-3.18-1.52,13.79,13.79,0,0,0-1.94-.78,2.86,2.86,0,0,0-.56-2.32l-.27-.38a24.6,24.6,0,0,0,8.33,5.12,18.65,18.65,0,0,1-2.38-.12"/><path class="cls-2" d="M1048.46,269.59s0,0,0,.05,0,0,0-.05"/><path class="cls-3" d="M1060.62,302.84s0,0,0,0,0,0,0,0"/><path class="cls-4" d="M889.23,126.12h0a1.45,1.45,0,0,0-.77-1.29c-.11-.71-.25-1.42-.41-2.13a12.89,12.89,0,0,0-.12-1.37.68.68,0,0,0-.47-.53c-.75-1-2.59-.45-2.27,1a18.18,18.18,0,0,1,.36,2.17,17.14,17.14,0,0,1-7.71,8.57c-5,2.6-9.56,1.13-14.71,0-4.18-.94-8.23-.82-11.45,2.31a17.38,17.38,0,0,0-4.78,10.52c-.65,5.86,0,11.74-.77,17.59a59.58,59.58,0,0,1-4.78,16.41c-2.13,4.77-5.34,11.49-10.24,14.05-6.6,3.46-13.78-2.32-13-9.34a.58.58,0,0,0-.75-.62c.29-3.14,1.14-6.27.85-9.43a.34.34,0,0,0-.6-.12c-3.92,5.89-3.87,17.33,1.09,22.64,6.25,6.7,15.89,8,23.32,2.36a15.22,15.22,0,0,0,6-11.43c.33-5,.46-9.62,2.22-14.42a39.9,39.9,0,0,1,19.45-21.89c4.93-2.5,9.52-5.24,13.12-9.53l0-.06a1.93,1.93,0,0,0,2.57-.74,21.87,21.87,0,0,0,3.42-11.72c.16-1,.3-2,.5-2.95"/><path class="cls-4" d="M1006.78,80.57a14.18,14.18,0,0,0,2.82-9.38c-.14-2.78-4.5-3.17-4.39-.33.24,6.07-5.21,9.32-10,11.82a35.07,35.07,0,0,1-17.63,3.93,46,46,0,0,1-17.11-4.37c-5.38-2.48-10.23-6.16-16.05-7.62-12.33-3.1-21.36,5.47-29.88,13-9.31,8.24-19.73,15-32.53,15.67a2.56,2.56,0,0,0-1.05,4.94,20.29,20.29,0,0,0,7.26,1.8,2.59,2.59,0,0,0,1.44,3,6,6,0,0,0,.51.49,1.47,1.47,0,0,0,.74.32,4.41,4.41,0,0,0,2,1.44c9.93,3.74,20.23-1.63,28.59-6.68,4.53-2.73,9-5.47,14.25-6.43s10.7-.58,16-.47c5.74.12,11.47.28,17.21.29,5.13,0,10.47.35,15.51-.78a31.78,31.78,0,0,0,12.05-5.83,49.75,49.75,0,0,0,5.73-4.47,20.25,20.25,0,0,0,1.66-1.94,31.83,31.83,0,0,0,3.42-3.83,3,3,0,0,0-.5-4.58"/><path class="cls-3" d="M1017.73,92.33s0,0,0,0,0,0,0,0"/><path class="cls-4" d="M1107.42,122.11a1.24,1.24,0,0,0-2-.64c-1.48,1.24-2.33,3.12-3.51,4.65-1,.67-2,1.73-2.76,2.25a12.4,12.4,0,0,1-16.39-1.86c-2.42-2.85-4.13-6.26-6.73-9a25.65,25.65,0,0,0-8.65-5.81c-7.94-3.33-16.62-2.94-25-3.93a35.47,35.47,0,0,1-12.2-3.24c-5-2.59-7.77-6.64-10.68-11.34-.91-1.49-3.38-.34-2.47,1.21,3.71,6.3,7.59,12.54,14.32,15.88a33.87,33.87,0,0,0,6.72,2.45,2.44,2.44,0,0,0,2,2.34c8.25,2,15.74,7.17,21.25,13.49a50.86,50.86,0,0,1,7,10.69c1.82,3.58,3.7,7.4,7,9.82,6.46,4.69,15.44,3.12,21.51-1.4,7.8-5.81,9-15,11.21-23.8a1.68,1.68,0,0,0-.6-1.79"/><path class="cls-4" d="M1125.88,207v0a3.71,3.71,0,0,0-.26-1.55,15.64,15.64,0,0,0-.86-2.78c-1.2-2.94-3.39-5.27-5-7.94a.27.27,0,0,0-.49,0,2,2,0,0,1-.07.23c-.24-1.16-.55-2.29-.89-3.4a.38.38,0,0,0,.11-.28,16.06,16.06,0,0,0-.5-3.39,5,5,0,0,0-.36-1.88,4.27,4.27,0,0,0-.25-.79.34.34,0,0,0,0-.27,2.44,2.44,0,0,0-.86-1.54c.1-1.8.16-3.62.08-5.43a10.21,10.21,0,0,0-.16-2.79.51.51,0,0,0-.46-.41,30.83,30.83,0,0,0,1.33-5.06,25.18,25.18,0,0,0,.69-4.87c.75-2.09,1.34-4.33.77-6.45-.12-.41-.75-.65-1-.2-1.33,2.31-1.4,5.17-1.89,7.78-1.35,4.24-2.12,8.67-3.61,12.84l0,0c-2.86,4.4-6.59,6.37-11.68,4.75-1.3-.58-2.63-1.09-4-1.59-5.71-2.73-11.63-7.46-11.87-13.72,0-.86-1.39-1-1.35-.1a14.83,14.83,0,0,0,3.26,8.51,1.46,1.46,0,0,0-.52,2.12c1,1.5,1.92,3,2.8,4.59a.64.64,0,0,0-.22.87c3.23,6.46,6.41,13,9.49,19.49.06.13.12.27.19.41a2.12,2.12,0,0,0-1.21,2.13,44.55,44.55,0,0,1-.51,13.24c-.61,3.45-.62,6.35,1.51,9.29,1.75,2.41,4.22,5,7.29,5.5,3.46.58,6.08-1.58,8.66-3.53,2.9-2.19,6.3-4.38,8.29-7.49s2.58-6.92,3.25-10.44a19,19,0,0,0,.25-5.87m-12.49,3c-2.62,2.7-6.35,4.83-9.19.83s-4.25-9.16-6.45-13.56l0-.09c0-.06,0-.12,0-.18-.66-1.91-1.15-3.06-.67-5.12s.94-2.37,2.79-3.19,3.72-1.33,5.57-2c3-1.05,7.31-3.62,9.94-.65a.42.42,0,0,0,.38.13,20.43,20.43,0,0,1,1.15,2.8c.12,1.83.24,3.66.34,5.49.16,2.61,1,5.42.71,8-.28,3-2.43,5.4-4.47,7.48"/><path class="cls-3" d="M1038.86,318.18a0,0,0,1,0,0,0s0,0,0,0"/><path class="cls-3" d="M1046.86,317.09s0,0,0,0,0,0,0,0"/><path class="cls-4" d="M1071.07,306.25c-1.86-1.54-4.83-.7-6.85,0-2.64,1-5,2.83-7.39,4.21a54.27,54.27,0,0,0-7.76,5.26c-.77.64-1.5,1.32-2.23,2-.13.11-.27.23-.39.35l-.73.67c-1.34,1.19-5.27,3.55-6.6,1-.61-1.19-2.77-.6-2.31.78a5.29,5.29,0,0,0,.53,1.15,2.19,2.19,0,0,0-.81,1.38c-.37,2.38-1.84,4.15-1,6.66a4.83,4.83,0,0,0,2.83,2.92c3.85,1.63,8.54-.23,12-2.22a3.2,3.2,0,0,0,2.45-1.48,71.36,71.36,0,0,0,12-8.6c3.69-3.52,5.41-7.24,6.94-12a1.91,1.91,0,0,0-.69-2.13"/><path class="cls-3" d="M1117.89,397.14s0,0,0,0,0,0,0,0"/><path class="cls-4" d="M1114.71,245.88a0,0,0,0,0-.09,0,13.34,13.34,0,0,1-2.26,6.1c-1.16,2-1.69,3.85-3.46,5.47a38.49,38.49,0,0,1-7.7,5.82,7.72,7.72,0,0,1-9.88-2.33c-2.32-3.06-1.86-8.6-1.72-12.26a.72.72,0,0,0-1.44-.11c-.26,4-1.09,7.75-.28,11.5a1,1,0,0,0-.16.36c-.39,1-.39,2.17-.68,3.21a2.45,2.45,0,0,0-.07.83,4.4,4.4,0,0,0-.08,1.77c-1.52.7-2.83,1.72-3.06,3.44-.35.4-.7.83-1,1.19a7.44,7.44,0,0,0-1.52,2.59.58.58,0,0,0,0,.41,14.75,14.75,0,0,0-1.67,2.34.86.86,0,0,0-.35.09,3.86,3.86,0,0,0-1.87,2.53,2.62,2.62,0,0,0-2.44.68,21.43,21.43,0,0,0-5.67,8.77c-.91,2.62-1.86,5.72-1.52,8.55a2.28,2.28,0,0,0-3.13-1,39.7,39.7,0,0,1-5.15,2.45,4.64,4.64,0,0,0-5.5-3.18c-6.11,1.41-12.4,3.17-17.22,6.61-.56-.4-1.12-.8-1.69-1.19a4.63,4.63,0,0,0-3.78-.81,26,26,0,0,0-3.43-1.95c-2.62-1.21-5.37-2-8-3.11a2,2,0,0,0-1.77-1.35l-3.11-.46c-10.56-1.89-19.74-7.29-28.57-13.38-4.49-3.1-8.91-6.31-13.32-9.52-2.37-1.74-4.6-3.71-7.12-5.23a43,43,0,0,1-4-2.34c-1-.76-1.73-1.74-2.7-2.54-2.26-1.88-4.68-3.26-6.8-5.42a71.76,71.76,0,0,1-4.92-5.68c-1.38-1.72-2.74-3.46-4.11-5.2a2.14,2.14,0,0,0-1.42-1.81c-1.64-2.08-3.27-4.17-4.92-6.25-4.74-6-9.68-11.75-13.76-18.09q-2.83-5.79-5.37-11.7c-.48-1.45-.94-2.92-1.37-4.39a2.45,2.45,0,0,0-1-1.43c-2-4.93-3.74-9.93-5.3-15a.64.64,0,0,0-.36-.42c-.73-3.76-1.21-7.55-1.66-11.36a79.3,79.3,0,0,1,.51-10.06.35.35,0,0,0-.42-.41c2.9-14.34,10.08-28.39,21.22-37.63a1.38,1.38,0,0,0,.35,0l.49-.08a1.34,1.34,0,0,0,1.05-1.41c.7-.52,1.4-1,2.13-1.52a.35.35,0,0,0,.17-.23q2.61-1.12,5.18-2.29c1-.47.48-2.21-.64-1.9-6.26,1.74-11.68,4.43-17.56,7.1a124.65,124.65,0,0,0-17.24,9.51c-2.44,1.61-4.93,3.19-7.25,5-1.38,1.06-2.79,2.58-4.51,3.06-2,.56-3.22.53-4.83,2a98.28,98.28,0,0,0-12.66,15.16c-7.36,10.56-14.12,21.82-18,34.16-1.68,5.39-4.45,12.32.08,17,4.92,5.11,6.95,10.95,7.59,18,.75,8.11-.86,16.19-.29,24.28a18.45,18.45,0,0,0,3.35,10,2.4,2.4,0,0,0,1.75,2,16,16,0,0,0,1.7,1.42h0a30.51,30.51,0,0,1,.61,8.22.46.46,0,0,0,.72.42,50.46,50.46,0,0,0-.06,5.5,18,18,0,0,0,1.75,6.57,1.33,1.33,0,0,0-1.68-.41c-.19.13-.36.25-.52.38l-.25,0a1.87,1.87,0,0,0-1.72,2.22,3.53,3.53,0,0,0,.28,1.14,1.73,1.73,0,0,0,2.3.79,2,2,0,0,0,.86-1h0a3.35,3.35,0,0,0,.22-1c.11-.1.21-.2.33-.29a1.33,1.33,0,0,0,.43-1.34,24.62,24.62,0,0,0,1.35,2.3c2.59,3.93,7.34,6.95,10.56,10.77.62,1,1.59,2.42,2.4,3.79a10.93,10.93,0,0,1,.92,4.26,1.2,1.2,0,0,0,1.72,1.16,3.2,3.2,0,0,0,1.27-1.16c2.25,2.57,4.7,4.93,6.9,7.54s4.47,5.51,7.53,7.16c2.8,1.51,5.83,1.72,8.74,2.85,1.38.53,2.71,1.39,4.21,1.44h.91a60.36,60.36,0,0,0,6.8,3.68c.08.1.17.2.25.31-.18-.23.18.32.25.43a2.27,2.27,0,0,0,.79.81,3.76,3.76,0,0,0,2.11.68,10.88,10.88,0,0,0,1.16-.27H932a44.32,44.32,0,0,0,6.91,1.76,19.75,19.75,0,0,0,4.31.64,5.08,5.08,0,0,0,1.36.22,17.4,17.4,0,0,0,7.35.46.64.64,0,0,0,.1-1.22c-.43-.15-.86-.28-1.3-.4a19.68,19.68,0,0,0-4.71-1.16.76.76,0,0,0-.16-.06c-12.87-3.65-24.62-8.84-34.59-18-10.16-9.28-17.21-20.86-23-33.26A149.67,149.67,0,0,1,876,197.65a127.94,127.94,0,0,1,8.35-29.81l1.23-2.81c.18-.43.37-.85.55-1.27q.95-2.07,1.95-4.11a47.35,47.35,0,0,1,4.21-6.83c.23-.31.47-.61.71-.91-.08.2-.15.4-.22.6a90.19,90.19,0,0,0-3.6,14.37,152.14,152.14,0,0,0-2.23,33.35c.49,10.14,1.71,20.31,5.25,29.88a79.72,79.72,0,0,0,4.13,9.25c7,15.53,17.45,29.67,29.11,41.88A189.76,189.76,0,0,0,972,316.64a192.7,192.7,0,0,0,29.94,13.26.74.74,0,0,0,.51,0l.26.07a5.53,5.53,0,0,0,.66.2,106.07,106.07,0,0,1-14.58,7.29A109,109,0,0,1,958,344.61a104.74,104.74,0,0,1-17.71-.12c-5-.45-10-1.62-15-2-1.29-.46-2.58-.92-3.86-1.41-4.32-1.62-8.51-3.57-12.73-5.45-4.56-2,9.83,7.18,5.4,4.91-.87-.44-21-9.44-20.11-9,4.38,2.34,8.29,5.37,12.83,7.47,4.75,2.2,9.69,4,14.58,5.87,9.3,3.56,18.81,6.48,28.75,7.5,10.48,1.08,20.85-.26,31.33-.46,8-.15,17.39-.15,23.56-6.05.91-.86.25-2.82-1.16-2.39-2.66.8-5.29,1.54-7.93,2.21,1.8-.84,3.5-1.85,5.24-2.88a22,22,0,0,0,3.91-2.53c.6-.56,1-1.07,1.42-1.55a1.17,1.17,0,0,0,.06.2.89.89,0,0,0,.18.38,1.35,1.35,0,0,0,.43.46,1.74,1.74,0,0,0,.93.28,1.79,1.79,0,0,0,1.07-.13,1.55,1.55,0,0,0,.47-.36,3.3,3.3,0,0,0,.48,1.49c1.35,2.22,4.26,1.76,6.48,1.5,5.45-.63,15.69-3,16.83-9.46.23-1.3-1.33-2.05-2.36-1.6-3.06,1.33-4.9,4.57-7.9,6.13a20.72,20.72,0,0,1-5.49,1.71,26.3,26.3,0,0,1-2.78.43c-.59.05-4.7,0-2.68-1.2,1.05-.63.29-2.3-.84-1.74a3.21,3.21,0,0,0-1.32,1.16,1.38,1.38,0,0,0-.23-.49,1.24,1.24,0,0,0-.44-.47,1.85,1.85,0,0,0-.37-.19c1.55-1.23,2.88-2.91,4.3-4.27,2-1.92,4.29-4.11,5.51-6.6a1.39,1.39,0,0,0,.14-.84,37.26,37.26,0,0,1,6.89-2.61c1.48-.38,3-.63,4.48-1a2.18,2.18,0,0,0-.65,2.68c.19.38.41.74.62,1.11a2.67,2.67,0,0,0,1.1,1.06c0,.18,0,.36,0,.54.23,1.72,2.8,1.18,2.63-.52a4.7,4.7,0,0,1,0-.53,2.27,2.27,0,0,0,.57-2.07,4.69,4.69,0,0,1,.42-.67,3.64,3.64,0,0,0,.35-.24h0a2.16,2.16,0,0,0,.74-1.27,2.36,2.36,0,0,0-.79-2.27,7.7,7.7,0,0,0,1.68-2l.11-.18a4.92,4.92,0,0,0,1.53-2.91s0-.05,0-.08a6.78,6.78,0,0,1,2.51-2.79c2.49-1.38,5.85-.06,8.51-1.4,2.49-1.25,4.37-3.51,6.83-4.89,2.3-1.3,4.61-3,7.11-4a2.44,2.44,0,0,0,1.32,1.11l.34.13a2.63,2.63,0,0,0,2.63-.49l.24-.26a3.35,3.35,0,0,0,.77-1.25,10.06,10.06,0,0,0,9.65,4.67c.81.59,2,.77,3.74.17l.75-.26a2.19,2.19,0,0,0,.63-.36c2.57.29,5.39-2.29,4.68-5a0,0,0,0,1,0,0,1.9,1.9,0,0,0,.49-.49,32.53,32.53,0,0,0,2.55-4.37l.35-.52a.43.43,0,0,0,.43-.18c2.46-3.32,2.59-7.56,3.3-11.52.08-.4.15-.8.23-1.2.39-.9.94-1.88,1.2-2.46.4-.87.82-1.63,1.15-2.4,0-.06.11-.12.16-.19.74-1.08,1.42-2.16,2.08-3.26a2.17,2.17,0,0,0,.36-.6c.25-.41.49-.82.73-1.24.65-1.11,1.56-2.05,2.3-3.09,2-.29,3.93-3.07,5.16-4.41a29.35,29.35,0,0,0,3.27-4.11c1.08-1.73,1.24-3.25,1.71-5.22a1,1,0,0,0-.12-.79,5.37,5.37,0,0,0,.29-.65c.69-2.07.58-4.8.64-7m-241-9.52c3.24,28.56,12.63,57.9,32.35,79.41a70.64,70.64,0,0,0,6.41,6.14c-1-.63-2.07-1.34-3.07-2l-.19-.13c-4-3.69-8.46-6.88-12.19-10.87a85.11,85.11,0,0,1-12.09-16.68A72.64,72.64,0,0,1,881,284c-.63-1.81-1.21-3.64-1.76-5.49-2-6.71-3.15-13.56-4.51-20.42-.06-.29-.11-.59-.17-.89-.07-.67-.16-1.34-.26-2-.23-3.94-.63-7.86-.84-11.59q-.35-6.33-.29-12.64c.14,1.81.3,3.61.51,5.4m35.51-27.51a137.74,137.74,0,0,0,8.39,21.48.75.75,0,0,0,0,.16c-2-3.61-4-7.32-5.69-11.14-7.55-16.77-10.31-36.41-6.05-54.43-.52,3.09-.88,6.2-1.09,9.29a96.16,96.16,0,0,0,4.39,34.64M937.17,273q-3.57-2.43-7-5c-1.91-1.47-3.81-3-5.68-4.5s-3.49-3.17-5.18-4.82c-2.43-2.84-4.8-5.74-7.16-8.64a74.88,74.88,0,0,1-15.56-31.11,94.57,94.57,0,0,1-1.36-34.16c.18-1.33.4-2.68.64-4,.12,1.57.34,3.12.54,4.55a122.42,122.42,0,0,0,3.3,14.91c.09.32.17.64.26,1A76.6,76.6,0,0,0,902.63,212,70.23,70.23,0,0,0,906,222.23a25.26,25.26,0,0,0,1.08,2.29A69,69,0,0,0,913.37,237c1.56,2.37,3,4.84,4.6,7.23l.48.81c5.89,9.57,12.25,18.83,18.82,27.94l-.1-.06m70,25.64c-1.32-.77-2.63-1.57-3.94-2.37l3.89.4a3.26,3.26,0,0,0,.35,1.53,3.41,3.41,0,0,0-.3.44M1094.44,275a19.25,19.25,0,0,1-7.59,8.45c-2,1.12-3.75,1.4-5.37-.42-1.41-1.59-.9-3.2-.8-4.94,0-.13.11-.25.17-.37a17.71,17.71,0,0,1,4.87-6.15l.09-.05c.8-.3,1.37-1,2.18-1.25s1.78-.52,2.65-.77a1,1,0,0,0,.18-.07c1.45-.16,2.4.19,3.51,1.81a3.15,3.15,0,0,1,.42.91,16,16,0,0,1-.31,2.85"/><path class="cls-3" d="M979.09,239.11s0,0,0,0,0,0,0,0"/><path class="cls-3" d="M1053.86,193.77s0,0,0,0,0,0,0,0"/><path class="cls-3" d="M1055.19,195.58s0,0,0,0,0,0,0,0"/><path class="cls-5" d="M1098.69,231.64a19.79,19.79,0,0,0-2.24.78c.08-3.41-1-6.81-1.26-10.18-.35-4.3.7-8.74.22-13.1s-2.1-8.37-2.74-12.65a1.44,1.44,0,0,0-.05-1.43c-.66-1.15-.67-2.66-1.69-3.56,0-.1-.06-.2-.08-.3a.42.42,0,0,0-.74-.16c-.28.36-.7.54-.95.93a3.14,3.14,0,0,0-.43,1.52,5,5,0,0,0,.28,1.69,2.11,2.11,0,0,0-.43,1.48c.27,3.83,1.7,7.31,2.33,11.06.69,4.09-1,8.24-.49,12.26.3,2.25.85,4.87,1.22,7.55a.54.54,0,0,0-.5.68c.1.45.1.89.17,1.34l0,.15a2.31,2.31,0,0,0-.74.85,17.84,17.84,0,0,0-.75,4.07,1.88,1.88,0,0,0,.47,1.7c-.4.47-.75,1-1.16,1.56a2.24,2.24,0,0,0,.38,2.93.86.86,0,0,0-.19.31c-1.09,3.25-2.58,6.4-3.67,9.66a.87.87,0,0,0-.34.15,6.24,6.24,0,0,0-2.25,3.85c-1.73,5.89-4.66,11.33-7.2,16.9a3.29,3.29,0,0,0-2.47.9,13.43,13.43,0,0,0-3.67,5,14.51,14.51,0,0,0-.76,2.57c-1.07.67-2.11,1.4-3.26,2.23-2.46,1.77-5.51,3.14-8.16,4.71a51.85,51.85,0,0,1-14.06,5.51l-.67.12c-3.6.63-7.26,1.3-10.93,1.83a87,87,0,0,1-15.59-.58,62.5,62.5,0,0,0-17,.11l-7.44-.65a224.64,224.64,0,0,1-31.17-4.61c-2.38-.58-4.75-1.18-7.11-1.84-1.07-.3-1.66,1.29-.58,1.64q4.71,1.51,9.49,2.82c4.38,1.43,8.74,2.91,13.23,4a100.2,100.2,0,0,0,12.79,2.24,40.52,40.52,0,0,0,7.75,1.76,135,135,0,0,0,14.71,1.87,152.9,152.9,0,0,0,15.29.21c1.3-.06,2.58-.18,3.85-.35l-.89.34c-2.1.83-4.11,1.9-6.17,2.81a31.65,31.65,0,0,0-5,2.59l0,0a.66.66,0,0,0,.38,1.16c3.85.25,8.71-.83,12.39-1.94,1.38-.41,2.74-.89,4.1-1.4,3.35-.7,6.68-1.48,10-2.08,4.14-.72,8.19-1.69,12.26-2.7,3.87-1,7.09-3.52,10.29-5.77a.86.86,0,0,0-.25-1.46,1.52,1.52,0,0,0,.22-.34l.12-.05c1.86-1,2.17-3.14,2.39-5l.84-.58c2-1.36,3.39-2.79,3.92-4.81,1.34-1.15,2.1-2.86,3.32-4a3.34,3.34,0,0,0,1.12-3.2,25.35,25.35,0,0,0,4.76-8.88,18.31,18.31,0,0,0,.64-3.3,12.74,12.74,0,0,0,.83-4.55c.29-.81.57-1.62.83-2.45a1.53,1.53,0,0,0-.26-1.47c.26-.7.55-1.4.87-2.14a.86.86,0,0,0-.62-1.19c1-3,2.85-5.59,4.37-8.43a1.37,1.37,0,0,0,1.61-.23,16.62,16.62,0,0,0,2.08-2.76,8.59,8.59,0,0,1,2.55-.91,8.32,8.32,0,0,0,4.52-2.74c1.49-1.72-.55-4.64-2.67-4.07"/><path class="cls-5" d="M1019.69,343.43a19,19,0,0,0-7,.2,3.63,3.63,0,0,1-1.82-.84c-1.34-1.16-2.05-2.78-3.5-3.89a2.28,2.28,0,0,0-2.81.14,3.12,3.12,0,0,0-.43.15,2.39,2.39,0,0,0-1,.27,49.76,49.76,0,0,1-12.1,4.69,23.54,23.54,0,0,0-4.82,1.31c-2.14,1-4.11.87-6.41,1.24-4.08.66-7.92,1.42-12.09,1.21A39.59,39.59,0,0,0,956,349.47a1,1,0,0,0,.12,2,47,47,0,0,0,5.29.62,1.51,1.51,0,0,0,.77.19c9.82-.11,19.86-.05,29.64-1.25,4.89-.6,9.85-1.63,14.68-2.59a46.34,46.34,0,0,0,7.4-2.22c.55-.07,1.09-.2,1.62-.27a.94.94,0,0,0,.88-.7l3.38-1.34c.27-.11.14-.46-.1-.51"/><path class="cls-5" d="M1044.21,333.26c-2.3.58-4.83-.34-7.13-.75l-.24,0c-.48-1.35-3-.79-2.59.82a8.29,8.29,0,0,1,.21,3.84l-.12.2a4.58,4.58,0,0,0-1.51,1.83c-.28.74.55,1.23,1.11,1h0l0,0a.62.62,0,0,0,.21-.15c.54-.43.81-1,1.36-1.47l.22-.16a8.13,8.13,0,0,0,1.31-.79,1.19,1.19,0,0,0,1.06-.57l.51-.23c.9-.41,1.85-.73,2.74-1.16a21,21,0,0,1,3-1.51c.52-.17.38-1-.17-.85"/><path class="cls-5" d="M1083.1,305.19c-1.65,1.17-3.39,1.14-5.21,1.8a8.25,8.25,0,0,0-1.3.64l-.42.14-.45.07a3.8,3.8,0,0,1-1.58-.57.5.5,0,0,0-.27-.08l0-.25c-.27-1.58-2.74-.91-2.16.73a6,6,0,0,1-.77,5.65,15.45,15.45,0,0,0-1.71,2.83c-.46.88.52,2,1.39,1.25,2-1.79,4.21-3.34,6.25-5.1a59.59,59.59,0,0,0,4.55-4,27.3,27.3,0,0,0,2.73-1.94c.79-.64-.21-1.75-1-1.18"/><path class="cls-5" d="M1123.24,224c-1.14,2.2-2.33,4.26-3.36,6.35a.54.54,0,0,0-.65.07c-.29.31-.58.6-.86.88a1.5,1.5,0,0,0-.72.32,11.85,11.85,0,0,0-1,.91,1.14,1.14,0,0,0-.55,0c-1.41.24-2.12,1.3-3.18,1.95a4,4,0,0,0-1.44.55,4,4,0,0,0-2.58.18,1,1,0,0,0,.1,1.79c2.78.86,5.93,4.82,6.64,8.32,0,1.11-.12,2.23-.2,3.39a1.15,1.15,0,0,0,.37,1c-.11.54-.23,1.08-.39,1.61a62.62,62.62,0,0,1-3.48,8c-.78,1.7-1.37,3.49-2.7,4.87-1,1.06-2.35,1.77-3.33,2.89a151.07,151.07,0,0,0-10.9,13.92,7.58,7.58,0,0,0-1.45,3.31c-.19,1.49.65,2.69.54,4.16-.19,2.53-2.36,5-3.07,7.42-.16.57.54,1.19,1,.7a26.53,26.53,0,0,0,4-6.13c1.7-3.05,3.39-6.1,5.1-9.14,3.49-6.19,8.18-11.62,11.54-17.84,2.9-5.36,5.93-11.28,7.1-17.31.64-3.33.93-6.79,1.45-10.15.6-4,2.16-7.41,3.39-11.18.27-.85-1-1.6-1.45-.75"/><path class="cls-5" d="M1124.87,201.38a19.7,19.7,0,0,1-2.09-4.34.18.18,0,0,0,0-.14c-.17-1.13-.35-2.27-.52-3.41-.15-1.64-.47-3.83-.72-5.49a42.47,42.47,0,0,1-.13-8.51,41.7,41.7,0,0,0,.14-5.12,81.48,81.48,0,0,0,.35-11.58c-.27-4.15-.88-10.75-4.42-13.54a.29.29,0,0,0-.44.29c.56,3.76,1,7.55,1.49,11.32.62,4.4-.1,8.36-.33,12.73-.39,7.31.12,14.35,2.57,21.26,0,.11.22,0,.19-.07a36.66,36.66,0,0,1-1.07-8.76c.27,5.64,1.22,10.79,4.5,15.65.17.25.61,0,.44-.29m-6.1-47.56c-.53-1.73-1.61-5.79,0-1.36a23.86,23.86,0,0,1,1.16,5.81c-.33-1.5-.7-3-1.15-4.45"/><path class="cls-6" d="M1083.64,153.4a1.82,1.82,0,0,0-1.74.23c-.18-.09-.37-.18-.57-.26a1.23,1.23,0,0,0-1.41.35l-.38-.35v0h0l-.2-.18a.9.9,0,0,0-1.17,0,4.76,4.76,0,0,0-2.7-1.45.78.78,0,0,0-.65,1.28c1.2,1.69,2.13,3.9,3.36,5.76.1.26.19.51.28.76.36,1,.72,1.92,1.06,2.83a2.3,2.3,0,0,0,.18.5,19.11,19.11,0,0,1,1.09,4.32c.14,1.12,1.79.76,1.7-.33a11.72,11.72,0,0,1,.2-2.56,1.57,1.57,0,0,0,.44-.89v-.08a1.33,1.33,0,0,0-.29-1c0-.19-.07-.37-.11-.56a1.12,1.12,0,0,0-.08-.26.57.57,0,0,0,.08-.13,2.12,2.12,0,0,0,1.62-2.25.68.68,0,0,0,0-.14,2,2,0,0,0,1.08-2.14,4.67,4.67,0,0,0,.9-1.42c.7-1.54-1.41-3-2.67-2"/><path class="cls-5" d="M1064.21,138.44a30.11,30.11,0,0,0-2.69-3.43,1.06,1.06,0,0,0,.13-.82c-1.11-4.06-4.79-6.52-8.11-8.74q-7.24-4.83-14.59-9.51a119.28,119.28,0,0,1-14.81-10.53c-3.55-3.1-8.76-9.31-8.87-14.27a2.4,2.4,0,0,0-.83-1.83,6.94,6.94,0,0,0-.13-2.38c-.47-2-3.57-1.94-3.7.22-.2,3.35-4.19,4-5.39,6.73-1,.63-1.86,1.17-2.47,1.56-2.79,1.77-5.23,4-8.13,5.6a44.09,44.09,0,0,1-9.42,4c-.87.25-1.74.47-2.61.71-1.22.12-2.45.22-3.67.3-4.68.33-9.34,0-14,.22-2.15.1-4.31.15-6.47.19-.91-.08-1.83-.14-2.74-.18a82.11,82.11,0,0,0-18,.87,1,1,0,0,0-.61-.4,7,7,0,0,0-3.11.14,5.23,5.23,0,0,0-1.14.21,1.14,1.14,0,0,0-.62.4,17.6,17.6,0,0,0-1.74.86l-.18.12a78.72,78.72,0,0,0-11.42,3,46.86,46.86,0,0,0-6.08,2.08,64.74,64.74,0,0,0-9.43,4.79l-.11.08a1.16,1.16,0,0,0-1.19-.63,12.84,12.84,0,0,0-5.05,1.36,8.1,8.1,0,0,1-4.34-1.65c-1.36-.92-3.61.67-2.6,2.25.9,1.4-.24,3.7.2,5.35a9.32,9.32,0,0,0,1.94,3.4,1.53,1.53,0,0,0,1.78.36l.16-.07a15.8,15.8,0,0,0-4.35,6.43c-.86,1.21-1.71,2.46-2.7,3.63a1.93,1.93,0,0,0,1.08,3,95.61,95.61,0,0,0-7.17,6.44,2.43,2.43,0,0,0-2.73.07c-4.64,3.2-9.4,6.21-14.1,9.32a33.9,33.9,0,0,0-11,12c-2.92,5.17-3.43,11-4.4,16.8-.43,2.57-.68,5.75-1.53,8.15-1,2.7-3.72,3.61-5.51,5.58-1.44,1.58-.53,4.58,2,4,2-.43,3.85.12,5.79.34a5.24,5.24,0,0,0,.66.89l.09.09a6.27,6.27,0,0,0,.68.84,2.06,2.06,0,0,0,2.89.2,6.14,6.14,0,0,0,1.55,3,1,1,0,0,0,1.55-1.34,5.5,5.5,0,0,1-.81-2.32,1.1,1.1,0,0,0,.12-.6c0-.67-.06-1.34-.07-2a51.57,51.57,0,0,1,1.94-7c1.54-5.31,3.52-10.49,5.33-15.71a78.17,78.17,0,0,1,16.1-26.24c13.87-15,31.72-25.17,50.35-33,6-2.53,12.17-4.31,18.34-6.32,3-1,6.07-2.1,9.13-3,3.23-.48,6.44-1,9.63-1.72,1-.22,2.07-.5,3.16-.79,3.44,0,6.91,0,10.31-.23,1,.07,2,.13,3,.13a.78.78,0,0,0,.77-.61c.58-.06,1.14-.12,1.64-.13a38.87,38.87,0,0,1,6.2.15,6.82,6.82,0,0,0,3.39-.1,11.72,11.72,0,0,0,2,.28c6.11,1.15,12.19,2.32,18.37,3.23,3.31.93,6.58,2,9.75,3.11,7.28,2.58,14.15,6.59,20.68,10.67,6,3.77,12.23,7.69,16.24,13.73.79,1.19,2.47-.27,1.69-1.45"/><path class="cls-5" d="M1139.53,136s0,0,0,0,0,0,0,0"/><path class="cls-5" d="M1113.85,142.35a2.69,2.69,0,0,0-.32-.27,1,1,0,0,0-.17-.24l-.46-.45a2.71,2.71,0,0,0-.55-.92,7.93,7.93,0,0,1-1.81-4.17,44.69,44.69,0,0,0,.31-6.94c-.1-2.45-.88-4.66-1.2-7.05a12.86,12.86,0,0,0-1.49-5.38,1.51,1.51,0,1,0-2.52,1.66,16.39,16.39,0,0,1,2.35,8.78,1.71,1.71,0,0,0-.14.27c-.91,2.36-.88,5.09-.87,7.64,0,.16-.08.33-.13.49a9.34,9.34,0,0,1-1.36,2.59,22.29,22.29,0,0,0-1.79,2.08,1.61,1.61,0,0,0-.34,1.54l0,.1a2,2,0,0,0,3.29,1.14c.16-.12.3-.24.44-.36a1.36,1.36,0,0,0,.33.14s.89.32.8.17a2.47,2.47,0,0,0,3.65.8,13.2,13.2,0,0,0,1.7,1.54,8,8,0,0,1,2.37,2c0,.07.16,0,.14-.07-.57-1.86-.75-3.71-2.26-5.1"/><path class="cls-5" d="M1172.33,112.46s0,0,0,0,0,0,0,0"/><path class="cls-5" d="M1128.28,58.58a0,0,0,1,0,0,0s0,0,0,0"/><path class="cls-5" d="M1128.53,63.59a0,0,0,1,0,0,0s0,0,0,0"/><path class="cls-5" d="M957.82,335.35a17.42,17.42,0,0,0-5.5-1.53c-2.18-.13-4.4.17-6.6.05-4.44-.24-8.78-1.41-13.18-2a11.92,11.92,0,0,0-4.87.14c-1.66.48-2.89,1.85-4.65,1.93s-3.41-1.14-5.18-1.43a10.21,10.21,0,0,0-4.79.68c-1,.31-1.87.65-2.79.9a25.5,25.5,0,0,1-4.52-.35c-.67-.13-1.35-.29-2-.46-1-.47-1.89-1-2.78-1.56-3.58-2.14-6.7-4.94-10.27-7-3.4-2-6.22-4.48-9.74-6.27-3.78-1.93-6.59-5-10.33-7a1.16,1.16,0,0,0-.57-.15c-2.21-2-4.36-4.13-6.47-6.27-.33-.74-.68-1.47-1-2.24a7.24,7.24,0,0,1-.52-2.47,4.82,4.82,0,0,0,.08-2.35c0-.51.11-1,.15-1.54a1.2,1.2,0,0,0-1.1-1.28l-.36-.05a16.1,16.1,0,0,0-2.33-2.59,26.35,26.35,0,0,1-4.81-5.3c-1.42-2.26-2-3.4-4.57-4.46a1.8,1.8,0,0,0-1.88.33,11.11,11.11,0,0,0-1.63-.39c-.57-.09-.84.49-.72,1l-1.74-1.26c-3.1-2.22-5.74-5.34-8.41-8a1,1,0,0,0-.38-.25,28.65,28.65,0,0,1-3-5.71,87.76,87.76,0,0,1-3.47-11.48c.22.48.44.95.67,1.41a.31.31,0,0,0,.58-.11,52.49,52.49,0,0,0-1.71-14.76c-1.32-4.89-4.77-8.41-7.78-12.34a.67.67,0,0,0-.82-.17c-.41-.69-.8-1.39-1.14-2.11a.41.41,0,0,0,0-.35,23,23,0,0,1-.91-8.84c.39-2.11,1.11-4.16,1.62-6.26a3.47,3.47,0,0,0,1.1-1.26,16.79,16.79,0,0,0,.89-2.28,1.21,1.21,0,0,0,.56-.1,1,1,0,0,0,.63-.77,36.48,36.48,0,0,1,3.56-1.35,6.54,6.54,0,0,0,3.72-3.2.81.81,0,0,0-.6-1.25,23.31,23.31,0,0,1-6-1.9,2,2,0,0,0-.4-.78,35.39,35.39,0,0,1-3.74-6.1c-.43-.82-.86-1.62-1.34-2.4a7.24,7.24,0,0,0-1.12-1.41,13.1,13.1,0,0,1-.5-3.66,1.39,1.39,0,0,0-.7-1.24,63.86,63.86,0,0,1,1-7.2c.46-2.37,1.55-4.57,2-6.94.11-.56-.72-.78-1-.36-2.59,3.79-3.66,9.38-4,13.9a49.21,49.21,0,0,0,1.24,15,56,56,0,0,1,1.56,16.3c-.21,3-.57,6.14.1,9.05a26.69,26.69,0,0,0,3.42,9.79.66.66,0,0,0,.11.46c.14.19.26.39.39.58.83,1.76,1.75,3.45,2.7,5.13a34.28,34.28,0,0,0,1.31,4.06c.35.86.69,1.71,1,2.56,1.19,4.39,2,8.94,3.06,13.25,1.15,4.64,2.94,9.7,5.89,13.69a1,1,0,0,0,.18.56c2.06,3,3.52,5.86,6.28,8.32,1.21,1.09,2.47,2.12,3.7,3.18,12.15,13.18,23.36,27.69,38.11,38,6.56,4.61,14.21,9.81,22.24,11.64a13.76,13.76,0,0,0,6.34,1.32,30.75,30.75,0,0,0,3.29-.5c1.73,0,3.46,0,5.18.1.81.18,1.62.39,2.45.56,3.77.79,6.73-1.79,10.43-1A63.54,63.54,0,0,0,944.08,339a60.27,60.27,0,0,0,6.72-.37,36.18,36.18,0,0,0,6.9-1.75.81.81,0,0,0,.12-1.54"/><path class="cls-7" d="M1089.83,202.78c-.33-3.91-.83-7.79-1.12-11.7-.26-3.62-1.56-6.6-3.1-9.82s-1.8-6.62-2-10a10.18,10.18,0,0,0-2.88-7.14c-.59-.65-.58-1.74-1.29-1.8a6.21,6.21,0,0,0-.26-.59,2.77,2.77,0,0,0-.2-.34c-.27-.69-.52-1.37-.71-2a1.49,1.49,0,0,0-.74-1,10.79,10.79,0,0,0-1-3l-.08-.12a1.14,1.14,0,0,0-1.11-.78,7.7,7.7,0,0,0-.41-.81c-.94-1.63-2.25-3-3.08-4.73a1.33,1.33,0,0,0-2.51.48c-.3,2.43,1,5.24,1.65,7.53.94,3.37,2.14,6.71,2.8,10.16.71,20.49-11.6,39.54-25.41,54.17-14.67,15.52-35.27,22.61-55.85,26.21-12.74,2.23-26.88,5.09-38.49-2.29a1.41,1.41,0,0,0-.92-.22c-2.13-1.32-4.24-2.72-6.23-4.12-3.43-2.42-6.08-5.42-9.31-8-.1-.08-.23,0-.18.15a15.91,15.91,0,0,0,.91,1.68L936.36,233c-.66-.54-1.51.34-1.19,1,2.12,4.66,6.43,7.31,10.25,10.46,2.71,2.23,5.24,4.84,7.82,7.23,2.3,2.14,4.18,4.66,6.49,6.81a31.61,31.61,0,0,0,3.88,4.14c3.65,3.23,7.61,6.19,11.5,9.12,3.33,2.51,6.74,5.66,10.88,6.63a11.71,11.71,0,0,0,1.34.22,27.37,27.37,0,0,0,4,2.56,68.49,68.49,0,0,0,8.78,4.39,89.06,89.06,0,0,0,18,5.6c3.22.57,6.44.77,9.69,1.07,3.44.32,6.79,1.06,10.26.79,3.22-.26,6.17-1.52,9.4-1.62,3-.11,5.83.08,8.41-1.67,2-1.38,3.54-3.7,5.64-4.91,1.06-.61,2.42-.74,3.5-1.36a20.64,20.64,0,0,0,3.77-3.08,40.88,40.88,0,0,0,9.71-14.26c2.59-6.19,4.81-12.54,7.33-18.76,5.81-14.33,5.25-29.53,4-44.64m-81.38,44.11c2.29-.69,4.56-1.43,6.81-2.24a31.06,31.06,0,0,1-6.81,2.24"/><path class="cls-8" d="M989.34,135.83c-3.35-8-12.66-11.39-20.78-9.77a2.77,2.77,0,0,0-1,0c-10.23,1.37-17.61,9.29-24.88,15.84-7.62,6.86-15.1,16.09-14.53,26.95.89,17,21.72,13.62,32.32,8.7A72.64,72.64,0,0,0,981.27,163c6.79-7,12.19-17.36,8.07-27.17"/><path class="cls-8" d="M1001.44,162.85a8.73,8.73,0,0,0-3.28-7.14,3.42,3.42,0,0,0-3.6-.66,6.11,6.11,0,0,0-3.27.41,3.59,3.59,0,0,0-1.44.56c-4.67,3-6.33,8.72-7.06,14-.66,4.74.19,11.66,5.39,13.61,5.93,2.23,10.88-4.38,12.88-9a15.81,15.81,0,0,0,.38-11.71"/><path class="cls-9" d="M1081.68,195.07c-.43-9.72-1.54-19.7-4.55-29a102.28,102.28,0,0,0-4.67-12.16,23.72,23.72,0,0,0-2.31-4,2.22,2.22,0,0,0,.1-.39,6.35,6.35,0,0,0-1-3.69c-.83-1.42-1.81-1.44-2.94-2.23-1.47-3.22-5.4-6.06-7.86-8.34a93.76,93.76,0,0,0-11.65-9c-2.93-2-5.67-4.22-9.06-4.7-2.22-1.2-4.49-2.4-6.8-3.37-3.18-1.33-6.19-3.14-9.52-4-3.6-1-7.22-2-10.87-2.76a102.64,102.64,0,0,0-10.78-1.78c-3.09-.34-6.5-.89-9.56-.13-2.26-1.3-5-1-7.42,0a25,25,0,0,0-3.51-.53c-2.37-.13-4.72.86-7.08,1.1-2.61.27-5.19.75-7.78,1.2-5.4.95-11.09,1.45-16.13,3.7-3.76,1.68-8.89,3.1-12.22,6.05a2.76,2.76,0,0,0-.4.06,5.87,5.87,0,0,0-4.63,2.17,4.88,4.88,0,0,0-.8,1.27,4,4,0,0,0-1.09,1.09,10.07,10.07,0,0,0-.65,1,68.4,68.4,0,0,0-5.45,4.84c-1,1.18-1.31,2.67-2.33,3.9-.62.74-1.52,1.22-2.11,2a11.42,11.42,0,0,0-2.07,4.4,1.84,1.84,0,0,0-.67.71,111,111,0,0,0-6.56,14.43c-.92,2.54-.17,4.75-.77,7.2a31.11,31.11,0,0,0-.9,7.92c.08,4.94.93,10.75,3,15.26.61,1.31,1.31,2.14,1.5,3.63a14.61,14.61,0,0,0,.74,3.65c.94,2.46,1.81,5,2.79,7.45a77.5,77.5,0,0,0,7.94,14.62,20.93,20.93,0,0,0,2.09,2.7c.76.81,2,1.48,2.61,2.31,1.67,2.16,1.63,5,3.56,7.08a8.78,8.78,0,0,0,2.84,2.18l.41.11a12.91,12.91,0,0,0,.59,1.95,24,24,0,0,0,3.87,5.84c1.26,1.56,2.21,3.37,3.55,4.85a17.05,17.05,0,0,0,6,3.94,5.09,5.09,0,0,0,1.55.45,5.17,5.17,0,0,0,.86,3.37,16.29,16.29,0,0,0,6.31,5,4.31,4.31,0,0,0,.88,1.95c5.24,6.49,15.83,7.24,23.59,7.62,4.72.23,9.43,0,14.16.3a72.85,72.85,0,0,0,12.17-.54c14.2-1.56,28.63-5,41.34-11.73s23.45-16.85,28.27-30.53c3.17-9,3.84-18.92,3.43-28.38"/><path class="cls-5" d="M1122.17,193.17c-4.22-9.68-2.91-19.62-1.9-29.75.71-7-.87-16.39-7.61-20.23a11,11,0,0,0-7.85-1.17c4.25-7.12,6.11-16.35,3.2-24.13-1.79-4.79-5.46-7.8-9.26-11a66.86,66.86,0,0,0-12.81-8.23,80.8,80.8,0,0,1-13.88-8.58c-4.46-3.57-7.91-8.06-11.21-12.68-3-4.14-5.84-8.39-9.59-11.86a48.65,48.65,0,0,0-11.88-7.68c-8.36-4.06-16.5-3-21.75,5.2a29.76,29.76,0,0,0-2.85,5.83c-.77-8.57-6.28-16.67-13.12-21.72-11.31-8.34-27.14-6.81-40.26-5.38-14.75,1.61-29.61,3-43.84,7.45-6.2,1.93-12.28,4.29-18.33,6.63a89.55,89.55,0,0,0-16.54,8A45.79,45.79,0,0,0,869.9,76.61c-2.88,4.1-7.83,10.35-6.51,15.76.54,2.21,2.11,4.06,3.53,5.75l.72.87c-7.1-2.68-14.42-1.9-21.27,2.48A39.69,39.69,0,0,0,829,124.75c-1.44,5.45-1.9,11.07-3.4,16.54-1.61,5.87-3.17,11.65-5.35,17.34C816.63,168,812.35,178,813,188.21c.49,7.55,5.87,13.17,12.82,15.76.57.21,1.15.39,1.73.55-4.66,1.66-8.67,4.51-10.95,8.85-3.65,7-.66,14.29,2.84,20.61,1.11,2,2.36,3.92,3.45,5.93s1.64,3.89,2.55,5.79c1.89,4,3.34,7.66,2.47,12.15a1.44,1.44,0,0,0,.58,1.53l-.06.49a18.33,18.33,0,0,0,.61,6.42,25.2,25.2,0,0,0,4.69,9.15,29.29,29.29,0,0,0,8.51,7.71,10.88,10.88,0,0,0,4.43,1.16c3,.33,4.09,1.27,5.4,3.84s2.06,5.1,4.48,6.72a8.5,8.5,0,0,0,5.26,1.52,9.19,9.19,0,0,0-.68,4.69c.59,6.16,5.44,10,10.84,12.1,3,1.17,2.85,3.58,4.76,5.77a5,5,0,0,0,5.78,1.36,5.17,5.17,0,0,0,.71-.35c-.31,2.22.64,4.31,3.63,5.74s6.38,1.23,9.14,2.87c2.92,1.74,5.43,4.15,8.42,5.77,3.78,2,10,1.76,13.18-1.55a4.43,4.43,0,0,0,3.11,3.48,5.24,5.24,0,0,0,6.43-2.71,5.44,5.44,0,0,0-1.88-6.78c-1.49-1-4.47-1.28-6,0a5.12,5.12,0,0,0-7.15-3.19,1.26,1.26,0,0,0-.39.26c-1.82-1.1-3.84-1.91-5.65-3a22.32,22.32,0,0,1-4.82-3.91l0-.08q-1.1-1.49-2.28-2.85c-2.23-3.28-4.33-6.11-7.46-8.19-2.5-3-4.11-6.71-6.89-9.4-2.34-2.27-5.34-3.85-7.78-6a11.85,11.85,0,0,1-4-8.66,25.4,25.4,0,0,0,.41-5.41,34.5,34.5,0,0,0,.74-6.4,11.81,11.81,0,0,0-3.39-7.72c-1.17-1.28-2.68-2.42-3.49-4s-.54-3-.46-4.62c.24-4.79.75-9.57.87-14.36.33-13.55-3.53-30.3-18.15-35a33.85,33.85,0,0,0-6.66-1.35,18.14,18.14,0,0,0,5.31-4.63,19.28,19.28,0,0,0,3.81-13.23c-.16-3-.55-5.87.46-8.73a21.29,21.29,0,0,1,3.91-6.11,70.51,70.51,0,0,1,10.46-11c4-3.26,8.71-5.62,12.85-8.74,8.39-6.32,16.86-16.27,13.63-27.44a23.48,23.48,0,0,0-1.77-4.41,26.23,26.23,0,0,0,15,1c5.47-1.33,10.25-4.42,15.16-7,6.07-3.25,12-5.26,18.91-5.49s13.71.76,20.55,1.08c14.48.68,29.91-.52,41.9-9.47a33.57,33.57,0,0,0,9.77-11.76,35.28,35.28,0,0,0,1.15,6.38c2.58,9.14,10,16.73,18.15,21.4,4.87,2.8,10.09,4.9,15,7.58a36.35,36.35,0,0,1,13.54,12.1c.95,1.43,1.85,3,2.74,4.52l-2-1.88c-13.8-12.82-31.63-21.67-49.94-25.81-19.22-4.35-38.66-3-57.59,2-9.23,2.48-18.09,5.4-25.22,12.06s-13,15.62-17,24.67c-8.56,19.18-4,39.23,5.54,57.12a226.91,226.91,0,0,0,36.12,49.44c13.77,14.32,30,26.1,48.74,33.08a94.16,94.16,0,0,0,28.09,5.86c9.11.47,19.25-.08,27.58-4.17a45.56,45.56,0,0,0,18.8-18c2.36-4.12,3.75-8.6,5.62-12.93,1.23-2.85,2.53-5.68,3.82-8.51-.08.55-.15,1.11-.19,1.69-.33,4.77-.31,9.22-2.79,13.48a76.66,76.66,0,0,1-6.3,9.09c-4,5-8.43,11.15-9.23,17.77a2,2,0,0,0-1,2.13,25.08,25.08,0,0,0,1.32,4.88c-.16-.06-.31-.12-.48-.17-7.87-2.51-12.47,7.73-19.53,9-3.63-1.53-7.17-.13-9.68,3a10.4,10.4,0,0,0-2.25,6,10.7,10.7,0,0,1-1,4.86,10.49,10.49,0,0,0-1.37,3,7.44,7.44,0,0,0-.11,1.12c-.21-.31-.43-.6-.65-.88a2.31,2.31,0,0,0-.3-3.64c-2.92-1.9-6.31-3.29-9.66-1.59-2.71,1.36-4.11,4.14-5.69,6.58-1.87,2.88-4.3,4.64-6.78,6.93-1.71,1.58-4.11,4-2.94,6.52,1.4,3.07,6.49,3.56,9.38,3.81a27.41,27.41,0,0,0,12-1.54c3.33-1.33,7.07-4.61,7.37-8.42a7.88,7.88,0,0,0-.36-2.8c3,2.08,8.13,2,11.38.62,4-1.65,7.88-4.73,11.42-7.19,4.12-2.87,9-5.91,12-10a12.14,12.14,0,0,0,2.55-8.89,8.49,8.49,0,0,0,2.3.73c5.82.95,11.07-2.14,14.2-6.86a44.05,44.05,0,0,0,4.49-8.54c1.67-4.48,1.74-9.36,4.43-13.45a83.88,83.88,0,0,1,7.28-9.23c2.32-2.64,5.12-5.11,7-8.15,4.74-7.9,6.76-19.93-2.7-25.26-.23-.13-.46-.24-.69-.35,9.64-1.86,17.79-11.18,19.44-20.81,1.36-8-3.3-15.1-6.37-22.13M923,329.54c.8.39,1.54,1,1,2a2.67,2.67,0,0,1-.87.81,1.55,1.55,0,0,1-1.16.17.89.89,0,0,1-.48-.28c.06.09-.08-.08-.1-.22s0-.46,0-.52a2,2,0,0,0-.83-2.2,3.36,3.36,0,0,1,.78-.14,3.23,3.23,0,0,1,1.6.41m-32.85-20.62a3.91,3.91,0,0,0-.48.05c0-.18,0-.37,0-.56l.49.51m-2,5.53a.83.83,0,0,0,1-.56,0,0,0,0,0,0,0,1,1,0,0,0,.24-.31,2.65,2.65,0,0,1,1.07-1.15c.18,0,.36,0,.56,0,.45,0,.91,0,1.35,0a1.39,1.39,0,0,0,.93-.37c.66.63,1.33,1.25,2,1.87a32.59,32.59,0,0,0,4,6.15c3.23,3.63,8.56,7.52,13.69,6.83a.9.9,0,0,0,.8-.84c1.33.2,1.71,1.43,1.57,2.61s-.75,1.74-1.88,2.22a10.83,10.83,0,0,1-5.3.74c-3.78-.56-5.93-4.21-9-6.08a28.08,28.08,0,0,0-7.61-3c-3.83-1-6.6-2.43-3.21-6.23a1.2,1.2,0,0,0-.21-1.85M871,291.5a1.12,1.12,0,0,0-.34-2.09l.15-.35c2.5,3.7,6.44,6.31,10.4,8.75,2.81,1.73,4.25,5.1,6.16,7.87a19.29,19.29,0,0,1,.07,2.74s0,0,0,.07c-1.55,2.6-2.73,6.87-6.14,7.72-2.14.53-2.36-1.51-3.21-3a7.52,7.52,0,0,0-3.06-3c-4-2.21-7.82-2.74-9.58-7.59-1.93-5.3,1.17-8.69,5.6-11.13m-23.21-83.11c10.55,3.55,13.92,15.28,14.44,26.11a1.3,1.3,0,0,0-.19.5,27,27,0,0,0,.14,6.9c0,.75-.09,1.49-.16,2.21-.2,2.32-.58,4.75-.79,7.18-.23,1-.49,1.92-.77,2.8a26.88,26.88,0,0,1-4.07,7.42c-1.53,2.08-4.14,3.76-5,6.26a1,1,0,0,0,.9,1.37c4.28,0,7.75-5.19,9.71-9.5,1,1.79,2.61,3,3.94,4.74a10.78,10.78,0,0,1,2.58,7.79c-.1,2.54-.42,5.13-.39,7.69l-.51,1.74c-.81,2.8-2.73,5.64-3.33,8.59a5.82,5.82,0,0,1-5.54,1.63c-4.77-1.19-4.41-8.37-9-10.23a20.88,20.88,0,0,0-3.77-.79,10.44,10.44,0,0,1-4.39-2.3,28,28,0,0,1-6.77-7.17,18.1,18.1,0,0,1-2.83-9.5,41,41,0,0,0-.26-5c1.44-14.16-15.29-22.27-14.43-36.47.84-14,20.31-15.37,30.5-11.93m29.51-63.07c-12.36,8.22-30.54,19.29-30.64,36.21,0,4.82.84,9.06-2.18,13.26a14.47,14.47,0,0,1-9.81,5.81c-6.51,1-15.26-2.57-17.57-9.08-2.91-8.2,1.2-17.41,4.15-24.93,3.58-9.17,6.82-18.44,8.6-28.13,1-5.56,1.67-11.14,4.41-16.18,2.31-4.24,5.75-7.94,9-11.5,3.36-3.72,7.26-7.89,12.23-9.35a14.6,14.6,0,0,1,10.08,1.1,1.57,1.57,0,0,0,.66.94c3.56,2.34,7.62,3.72,11.15,6,1.28,1.21,2.61,2.37,4,3.45a38,38,0,0,1,5.94,9c4.76,9.88-2.08,18.05-10,23.32m129.82-67.67c-.6,3.41-2.65,6.49-2.72,9.9a34.19,34.19,0,0,1-7,6.49c-9.3,6.38-21.86,7.64-32.85,7.65-11.28,0-22.93-2.21-34,.72-9.85,2.59-17.74,10.56-27.94,12-11.77,1.63-21.54-9-29-16.57a29.81,29.81,0,0,1-4.7-5.46c-1.43-2.47.13-4.8,1.46-7a61.11,61.11,0,0,1,11.11-13.84c7.83-7.06,18.49-10.4,28.15-14.11,12-4.61,24.53-7.09,37.26-8.55,14.11-1.62,30.88-4.33,44.34,1.53,4.55,2,7.82,6,10.8,9.78,2.53,3.25,5.86,9.09,4.87,13.41a4,4,0,0,0,.43,3c0,.37-.09.74-.15,1.1m24.14,261.15a9.69,9.69,0,0,1-4.86,2.9,25,25,0,0,1-9.29.36,23.88,23.88,0,0,1-5.12-.82c-1.29-.41-2-.5-1.47-1.73.74-1.64,3.58-2.94,4.94-4a17.92,17.92,0,0,0,4.09-4.67c1.09-1.7,2-3.9,3.49-5.27,1.91-1.72,4.18,0,6,1.32.22,2.3,1.81,4.25,2.66,6.39s1.09,3.76-.4,5.51m27.11-214.88a48.32,48.32,0,0,0-10.65-7.26c-7.89-4.14-16.9-7-23.45-13.25-3.3-3.15-6.61-7.26-8-11.67a36.59,36.59,0,0,1-1.09-14.32c1-9.17,7.8-21.13,18.57-18.19,8.73,2.38,16.35,8.54,21.6,15.71,5.39,7.36,10.23,14.61,17.57,20.23s15.89,9.06,23.33,14.41c4,2.88,8.41,7.78,9.28,12.79,1,5.44-1.55,11.18-4.24,15.8-4.5,7.73-11.79,10.52-20,12.06a19.94,19.94,0,0,1-6.26-2.6c-4-2.9-6-8.66-8.46-12.77-2.38-3.91-4.84-7.81-8.21-10.94m27.13,31.16a22,22,0,0,0-4.52,8.54c-.63-1.42-1.28-2.83-2-4.21a60,60,0,0,0-3.56-6.11,24,24,0,0,0,3.17,1,2,2,0,0,0,1.7.44h.09l3.21.67a2.25,2.25,0,0,0,1.89-.37m-6.13,103.83c-1.84,4.26-3.11,8.72-5.44,12.77a34.11,34.11,0,0,1-8.66,10c-14.46,11.21-34.47,11.06-51.48,6.75-37.44-9.48-63.72-38.44-85-69-10.81-15.52-21.34-34.12-20-53.7.72-10.39,5.22-19.84,10.95-28.39,5.87-8.75,12.82-15.41,22.58-19.55,17.08-7.24,37.17-9.57,55.54-7.75,18.57,1.83,36.64,7.91,51.9,18.77a109.11,109.11,0,0,1,14.83,12.66,41,41,0,0,0,6.34,8.95,13.47,13.47,0,0,0,2.68,2,81.34,81.34,0,0,1,7,12.93,17.13,17.13,0,0,0-.21,2.4c-.16,7.88,4.13,14.48,7.43,21.35a104.3,104.3,0,0,1,1.44,11.17c.7,9.43,1.86,18.91.81,28.37a36.46,36.46,0,0,1-3.94,13.76.62.62,0,0,0,.33.88c-2.21,5.28-4.88,10.42-7.12,15.62m20.15-23.49a18.91,18.91,0,0,0-4.9,2.53,23.6,23.6,0,0,0-5.06,4.7,35.23,35.23,0,0,0,2.07-12,.62.62,0,0,0-.25-.51,75.63,75.63,0,0,0,.41-14.27,203,203,0,0,0-2.48-23.52l.27.65c2,5.11,4.13,11,4.68,16.46.47,4.69-.71,8.58-1.47,13.12-1,6.22,1.3,11.22,6.73,12.82m-33.23,82.29c-3.55,3.86-8.11,6.88-12.49,9.71a28.49,28.49,0,0,1-11.44,4.71c-1.61.22-3.49.29-4.86-.75-2.53-1.92-1.3-4.59,0-6.79,1.43-2.45.7-4.86,1.45-7.48.88-3.08,4-6.14,7.28-4.23a1.82,1.82,0,0,0,2.6-.92c4.63-1.14,8.35-6.35,12.35-8.57a8.6,8.6,0,0,1,7.31-.49A11.28,11.28,0,0,0,1071,306a5.91,5.91,0,0,1,.13,1.3c-.06,3.7-2.41,7.73-4.85,10.37m47.47-72.91c1.15,4,0,8.68-1.73,12.31-2.34,4.95-6.55,8.74-10.14,12.76-4.41,4.92-7.39,9.9-8.78,16.41-1.36,6.35-3.84,14.88-10.36,17.86-3,1.36-6.81,1.3-9.28-1-2.1-2-2.72-5.16-3.14-7.89a1.86,1.86,0,0,0-.6-1.16,18.24,18.24,0,0,1,2.29-6.5c1.4-2.24,3.38-4.39,5-6.51,3.25-4.25,7-8.29,9.31-13.18,2.64-5.64,2.16-11.14,2.71-17.18.59-6.48,6.06-11.81,12.34-13.24a10.83,10.83,0,0,1,12.38,7.36m-8.94-12a2,2,0,0,0-.51-.41c-1.91-1-5-2.33-6.21-4.27s-.6-4.22-.28-6.19a86.5,86.5,0,0,0,1.41-9.45,40.52,40.52,0,0,0-1.62-11.78c-2-7.59-6.24-14.3-9.68-21.29-3.53-7.16-6.44-15.55-.87-22.47a28,28,0,0,1,4.58-4.39A21,21,0,0,0,1102,146a17.94,17.94,0,0,1,4-1.13c10.11-1.6,11.88,10.53,11.14,17.82-.79,7.88-2.53,15.49-1,23.44,1.41,7.53,6,13.55,8.46,20.69,3.75,11.08-7.78,26.74-19.66,26"/><path class="cls-10" d="M1026.73,172.18c-1.77-8.09-5.31-15.79-8.19-23.55-.35-1-.75-2-1.21-3.09a13.55,13.55,0,0,0-1.44-3.09,18.62,18.62,0,0,0-4.3-5.7l-.22-.37a31.94,31.94,0,0,0-2.9-4.35,9.32,9.32,0,0,0-1.72-2l-.19-.19c-.39-.51-.79-1-1.2-1.51-2.18-2.61-4.62-4.14-7.19-6-.26-.34-.53-.67-.82-1-1.23-1.39-3-2.13-4.27-3.48-.24-.24-.69,0-.52.34a10.6,10.6,0,0,0,1.49,2.12c.48.93,1.61,2.73,1.82,3.05.85,1.26,1.89,2.39,2.77,3.64,1.85,2.62,3.42,5.38,5.13,8.07a15.12,15.12,0,0,0,1.16,1.72s0,.1.07.15c10.72,18.1,13.62,39.15,13.29,59.94a95.05,95.05,0,0,1-2.47,19.4,66.29,66.29,0,0,0-2.55,9.32c-.08.43-.13.87-.2,1.3-.35,1.23-.72,2.47-1.09,3.7-3.35,11.12-7,22.39-11.2,33.21-.39,1,1,1.54,1.57.8a52.83,52.83,0,0,0,5.92-9,5.54,5.54,0,0,0,.85-1.64c2.64-5.24,4.8-10.76,7.33-16a115.34,115.34,0,0,0,10.45-31.81c1.88-11.34,2.3-22.7-.17-34"/><path class="cls-8" d="M973.61,121.45c-6.23-3-12.48-2.25-18.31.41a1,1,0,0,0-.45.11c-11.18,5.38-21.07,14.25-27,25.27a26.41,26.41,0,0,0-2.79,6.2c-2.14,6-2.74,12.87,0,18.79,3,6.59,9.45,9.9,16.59,9.35,13.6-1.06,26.67-12.26,33.33-23.58a55.46,55.46,0,0,0,7.31-19.72c1.09-7.39-2-13.55-8.72-16.83"/><path class="cls-8" d="M995.75,143.56c-2.24-2.84-6.2-5.47-9.57-2.6-.14.12-.26.25-.39.38a4.52,4.52,0,0,0-2.06,4.82l0,.09a28,28,0,0,0,.31,7.42c.81,5.32,2.45,11.4,7.53,14a4.49,4.49,0,0,0,5.23-1.68c4.16-7.09,4.11-15.82-1.08-22.41"/><path class="cls-11" d="M682.33,146.27a65.56,65.56,0,0,0-13.1-14.09C654.07,120,632.89,113.51,608,113.35l-94.47-.14L454.62,188l18.09,0-.06,46.37-68.8-98.85c-11.34-16.51-26.29-25-44.45-25.07h-.31c-18,0-33.15,8.3-44.89,24.74L236.36,243.33q-7.34-8.49-13.42-15a59.3,59.3,0,0,0,9.29-9.94,63.54,63.54,0,0,0,12.21-38c0-24.38-11.92-44.13-33.65-55.6-18.47-9.75-40.5-11.91-55.73-12h-.93l-96-.13L0,187.41l17.8,0-.13,97.84,82.34.12,0-34.27,36.44,0,26.16,34.3,110.48.16h0l235.35.33h0l46.22.06,0-33,52,.07c25.23,0,46.63-6.18,61.88-18a63.33,63.33,0,0,0,24.73-46.72l37.12.05-.14,97.84,82.55.11.14-97.83,36.61,0,57.73-74.84-199.78-.28Z"/><path class="cls-11" d="M1333.12,247.3q-8.44-9.87-15.31-17.23a59.15,59.15,0,0,0,9.28-9.93,63.59,63.59,0,0,0,12.21-38.06c0-24.38-11.92-44.13-33.65-55.6-18.48-9.74-40.5-11.91-55.73-12H1249l-96-.13-58.12,74.83,17.81,0-.14,97.83,82.34.12.05-34.27,36.44,0,26.17,34.3,110.47.16Z"/><path class="cls-5" d="M171.24,270.27,145.07,236l-62.33-.09,0,34.26L35,270.08l.1-72.25L160,198c11.35,0,17.55-3.9,17.56-13,0-8.87-6.17-12.6-17.53-12.61l-124.67-.18L66.58,132l87.51.12c31.17,0,73.06,9.39,73,50.26,0,20.64-12.23,38.78-33.7,43.91,3.71,2.49,13,10.76,31.74,32.66L235,270.36Z"/><path class="cls-5" d="M312,270.46,341,230.87l31,0c6.61,0,14.45,0,18.79.44a155.84,155.84,0,0,1-9.48-13l-23.07-33.68-61.83,85.78-56.56-.08,88.51-122.89c6.62-9.28,15.92-17.52,30.78-17.5,14.45,0,23.73,7.67,30.53,17.59l85.69,123.13Z"/><path class="cls-5" d="M537.44,237.75l-.05,33-47.47-.07.1-72.24,124.05.17c9.91,0,14.25-6.17,14.26-13.19,0-6.6-4.73-12.39-14.23-12.4l-123.84-.17,31.64-40.21,85.24.12c44,.06,69.12,22,69.07,52.94,0,31.16-25.25,52.18-69.42,52.12Z"/><polygon class="cls-5" points="747.71 271.07 747.85 173.24 685.1 173.15 716.12 132.94 872.16 133.16 841.15 173.37 795.74 173.3 795.6 271.14 747.71 271.07"/><path class="cls-5" d="M1266.1,272l-26.17-34.3-62.33-.09,0,34.26-47.68-.06.1-72.24,124.88.17c11.35,0,17.55-3.9,17.56-13,0-8.87-6.17-12.6-17.53-12.61L1130.22,174l31.22-40.2,87.51.12c31.17,0,73.06,9.39,73,50.26,0,20.64-12.23,38.78-33.7,43.91,3.71,2.49,13,10.76,31.74,32.66l9.89,11.37Z"/><path class="cls-3" d="M1027.57,136.67a0,0,0,1,0,0,.06,0,0,0,0,0,0-.06"/></svg>