<?xml version="1.0" encoding="UTF-8"?>
<svg id="Layer_1" data-name="Layer 1" xmlns="http://www.w3.org/2000/svg" viewBox="0 0 250 92.31">
  <defs>
    <style>
      .cls-1, .cls-2, .cls-3, .cls-4, .cls-5 {
      stroke-width: 0px;
      }

      .cls-1, .cls-2, .cls-3, .cls-5 {
      fill: #fff;
      }

      .cls-1, .cls-6 {
      opacity: .41;
      }

      .cls-2 {
      opacity: .16;
      }

      .cls-7 {
      opacity: .15;
      }

      .cls-3 {
      opacity: .6;
      }


    </style>
  </defs>
  <g class="cls-7">
    <path class="cls-5" d="m36.19,0s35.29-1.4,118.88,72.99" />
    <path class="cls-5" d="m36.06,19.31s35.29-1.4,118.87,72.99" />
    <path class="cls-5" d="m88.95,14.76s35.29-1.4,118.88,72.99" />
  </g>
  <path class="cls-5"
    d="m179.53,64.35c-.64.02-1.27.05-1.91.07-.84-.01-2,.18-2.79-.13-.31-.12-.3-.25,0-.41.35-.19.99-.22,1.38-.24.9-.07,1.78-.07,2.69-.2.91-.13,1.77-.39,2.65-.64.81-.23,1.55-.61,2.34-.88.29-.1.17-.03.37-.22.16-.14.29-.33.45-.48.32-.3.65-.56.93-.9.45-.54.73-1.33,1.44-1.57.55-.19,1.79.06,1.83.8-.05.05-.06.08-.02.1,0-.03.01-.07.02-.1.46-.69.26-1.51.7-2.2.36-.56.95-.9,1.62-.79.75.12,1.27-.4,1.83-.86.63-.51,1.2-.87,2.05-.71,0,0,0,0,0,0,0,.01,0,.02.02.02,0,0,0,0-.01-.01-.05-.33-.22-.63-.19-.98-.34.02-.84.55-1.18.69-.46.2-.98.29-1.46.4-1.08.25-2.19.4-3.26.71-.54.15-1.06.35-1.61.45-.19.03-1.14.23-1.27.07-.31-.36,1.79-.99,1.97-1.22-2.15.24-4.68.07-6.77-.49-.99-.27-2.02-.34-3.02-.59-1.05-.27-2.07-.61-3.1-.93-.15-.05-1.41-.31-1.01-.6.21-.15,1.13.25,1.36.3,1.13.26,2.27.46,3.41.61,1.05.14,2.11.27,3.17.32,1.12.06,2.23-.08,3.36-.02-.71-.32-1.55-.44-2.28-.71-.71-.26-1.41-.57-2.09-.9-1.4-.7-2.72-1.55-3.96-2.51-2.26-1.77-4.23-3.92-5.97-6.2-1.74-2.28-3.42-4.78-4.47-7.47-1.03-2.64-1.28-5.52-.22-8.2.98-2.46,2.65-4.71,4.98-6-.52-.03-1.17.37-1.64.57-.57.24-1.13.49-1.69.76-1,.48-1.98,1.01-2.92,1.6-1.79,1.11-3.45,2.45-4.82,4.05-1.29,1.51-2.17,3.24-2.82,5.11-.33.95-.69,1.9-.93,2.88-.1.39-.21.82-.06,1.21.14.39.52.61.76.94,1.16,1.57,1.34,3.74,1.22,5.61-.03.52-.08,1.04-.11,1.56-.02.4-.11.86.08,1.24.21.41.65.66.9,1.05.24.36.34.76.34,1.18,0,.89-.38,1.84-.09,2.71.31.9,1.17,1.25,1.84,1.84.69.61,1.01,1.47,1.7,2.07.71.62,1.12,1.49,1.81,2.13.33.3.72.52,1.12.72.4.21.5.17.91.14.39-.03.57.14.83.38.18.17.11.18.35.17.15,0,.28-.06.45-.05.37.04.7.29.82.64.03.09,0,.37.09.42.11.08.52-.02.64-.01.97.06,1.91.45,2.89.38.29,0,2.19-.04,2.02.49-.07.22-.77.3-.98.34-.47.1-.96.14-1.44.14-1,0-1.99-.39-2.98-.32-.42.03-.81.23-1.23.2-.53-.04-1-.16-1.54-.14-.13.04-.28.02-.41.08-.14,0-.28,0-.41,0-.32-.02-.62-.1-.92-.22-.08-.03-.16-.08-.25-.03-.83-.38-1.65-.7-2.43-1.17-.8-.49-1.58-1.03-2.31-1.62-1.52-1.21-2.83-2.64-4.12-4.08-.62-.7-1.22-1.43-1.88-2.09-.62-.63-1.21-1.13-1.69-1.89-.47-.73-.89-1.47-1.15-2.29-.29-.9-.42-1.85-.67-2.76-.47-1.7-1.64-3.16-1.76-4.95-.06-.98.13-1.94,0-2.92-.13-.96-.42-1.87-.47-2.84-.09-2.01.64-3.81,1.32-5.66.67-1.81,1.17-3.67,1.51-5.57.29-1.62.96-3.1,2.17-4.24.63-.59,1.4-1.14,2.23-1.43.45-.16.92-.24,1.4-.23.24,0,.48.03.72.08.15.03.46.19.62.13-.21-.46-.62-.72-.69-1.27-.08-.6.2-1.17.49-1.67.52-.91,1.18-1.76,1.94-2.49,1.71-1.61,4-2.37,6.17-3.14,2.48-.88,5.02-1.33,7.63-1.62,2.43-.27,5.19-.83,7.57.03,2.1.76,3.47,2.46,3.93,4.63.51-1.07,1.13-2.08,2.41-2.29,1.23-.2,2.52.51,3.49,1.2,2.14,1.51,3.07,4.12,5.26,5.61,1.04.71,2.22,1.19,3.27,1.89.97.65,2.14,1.53,2.66,2.61.23.47.29,1.09.38,1.6.13.71-.15,1.58.13,2.23.21.5.65.94.93,1.41.33.55.69,1.06.85,1.69.35,1.36.14,2.82.08,4.21-.03.68-.03,1.37.06,2.04.09.69.39,1.23.67,1.86.53,1.17.86,2.32.4,3.58-.22.61-.61,1.14-.84,1.75-.26.69-.31,1.38-.4,2.1-.34,2.59-1.74,4.54-3.1,6.69-.73,1.16-1.34,2.39-2.08,3.53-.33.5-.63,1.08-1.08,1.48-.47.42-1,.8-1.49,1.2-.32.26-.63.51-.95.77-.13.11-.29.28-.44.36-.11.05-.23.04-.34.1-.26.15-.5.49-.75.68-.34.25-.69.49-1.03.73-.61.43-1.21.91-1.87,1.24-.6.3-1.24.53-1.85.83-.61.3-1,.82-1.58,1.15-.56.31-1.24.43-1.88.45-.35,0-.64-.02-.98.09-.34.11-.67.23-1.01.32-.73.19-1.48.32-2.22.45-.06,0-.12-.01-.16.04,0,0,0,0,0,0-.84.1-1.68.2-2.53.24Zm6.8-1.76c.65.07,2.55-.13,2.38-1.19-.03-.28-.13-.53-.28-.77-.16-.36-.24-.8-.58-1.04-.39-.27-.71-.21-.99.14-.28.35-.44.77-.72,1.12-.29.37-.68.57-1.03.87-.34.1-.49.45-.21.63.35.23,1.02.18,1.43.23Zm3.54-4.19c0,.53-.23.86-.39,1.33-.12.34-.08.69.25.89.76.48,2.06-.26,2.71-.63.86-.5,1.76-1.11,2.44-1.85.36-.4,1.29-1.67.81-2.23-.18-.24-.3-.49-.6-.59-.3-.1-.73-.01-1.01.12-.59.28-1.02.83-1.54,1.2-.26.19-.54.32-.82.46-.33.17-.31.09-.68.02-.71-.13-1.14.67-1.16,1.27Zm14.15-24.15s0-.08-.04-.11c0,0,0,0,0,0-.01-.87-.11-1.68-.02-2.56.08-.79.28-1.59.23-2.39.03-.83-.17-1.95-.91-2.45-.61-.41-1.51-.27-2.04.19-.36.31-.66.6-1.11.79-.4.17-.73.31-1.05.61-.67.63-1.04,1.43-.93,2.36,0,1.01.65,2.05,1.1,2.92.49.92.97,1.84,1.29,2.84.33,1.03.44,2.07.3,3.14-.11.83-.6,1.91.24,2.5.41.29.83.54,1.35.49.43-.05.83-.22,1.2-.44.7-.42,1.23-1.05,1.6-1.76.47-.9.58-1.88.2-2.84-.37-.95-.91-1.82-1.28-2.77-.05-.17-.09-.34-.14-.51Zm-4.87,11.21c-.24.44-.14,1.21-.18,1.7-.04.55-.11,1.09-.31,1.6-.4,1.04-1.2,1.88-1.88,2.74-.64.82-1.37,1.57-1.13,2.67.18.83.53,1.59,1.5,1.59,2.35.01,2.37-3.25,3.1-4.77.92-1.93,3.39-3.17,3.38-5.51.1-1.06-.76-2.04-1.82-2.09-1.16-.05-2.42.92-2.66,2.05Zm-37.13-23.45c-.77-1.66-2.35-2.25-3.79-3.16-1.8-1.13-3.48.73-4.56,1.99-.63.73-1.2,1.47-1.51,2.39-.32.95-.4,1.97-.62,2.94-.23,1.03-.55,2.04-.91,3.03-.34.95-.84,1.9-1.07,2.89-.36.94-.56,2.13-.14,3.08.35.8,1.25,1.34,2.08,1.5,1.51.29,3.17-.56,3.27-2.21.06-.96-.06-1.86.29-2.78.29-.75.76-1.42,1.31-2.01,1.26-1.35,2.86-2.21,4.31-3.31,1.4-1.06,2.38-2.69,1.33-4.36Zm40.03.25c-.04-.93-1.15-1.83-1.84-2.31-.95-.67-2.01-1.16-3-1.77-.92-.57-1.77-1.25-2.49-2.07-.78-.89-1.4-1.91-2.16-2.82-1.06-1.27-3.36-3.19-5.13-2.25-.96.51-1.52,1.62-1.75,2.64-.22.99-.29,2.46.22,3.38.14.84,1.12,1.73,1.76,2.23.79.63,1.7,1.04,2.61,1.46.98.45,1.96.92,2.81,1.6.82.65,1.41,1.5,1.93,2.4.51.87.82,1.83,1.71,2.39.86.54,1.76.26,2.64-.12.91-.4,1.61-1.07,2.09-1.93.44-.78.92-1.92.59-2.82Zm-18.06-9.6c.01-.54-.53-1.23-.84-1.64-.34-.44-.71-.89-1.14-1.25-.92-.76-2.17-1.02-3.33-1.12-2.35-.21-4.8.17-7.11.53-2.3.36-4.49,1.01-6.65,1.87-1.88.75-3.54,1.59-4.84,3.19-.45.56-1.49,1.7-1.31,2.47.11.46.63.9.95,1.22.37.38.76.74,1.14,1.11,1.48,1.47,3.3,2.38,5.35,1.55.89-.36,1.69-.89,2.54-1.33.82-.42,1.7-.66,2.61-.75,1.98-.21,3.97.18,5.96.07,1.82-.1,3.71-.4,5.21-1.52.31-.23.68-.51.91-.81.23-.31.26-.78.39-1.15.17-.5.26-.81.21-1.33-.03-.38.12-.74-.05-1.12Zm5.09,40.58c1.87.01,3.78-.42,5.32-1.49.77-.53,1.22-1.21,1.79-1.91.57-.7.79-1.72,1.13-2.54.75-1.8,1.78-3.57,1.95-5.55.17-2.03-.19-3.99-.27-6-.06-1.62-1.29-2.82-1.48-4.42-.06-.46.03-.92-.13-1.37-.11-.32-.3-.62-.46-.92-.33-.62-.64-1.02-1.15-1.49-.35-.32-.65-.76-.89-1.16-.2-.33-.33-.49-.6-.74-.5-.47-.96-.97-1.51-1.4-1.33-1.06-2.78-1.93-4.35-2.59-3.32-1.4-6.99-1.86-10.56-1.49-3.39.35-6.9,1.37-9.11,4.12-2.18,2.73-3.19,6.01-2.25,9.44.94,3.41,3.17,6.43,5.32,9.18,4.22,5.39,10.06,10.24,17.24,10.34Zm-37.02-6.51s.04,0,.06,0c0,.88-.09,1.76.31,2.57.34.69.94,1.34,1.59,1.76.64.41,1.42.25,1.88.94.42.63.68,1.69,1.69,1.34.38-.13.42-.38.56-.72.15-.38.36-.74.47-1.14.18-.63.25-1.59.12-2.23-.08-.38-.27-.69-.51-.99-.1-.12-.52-.72-.67-.67-.12.04-.39.69-.5.83-.21.27-.45.54-.77.69-.31.14-.75.2-.6-.26.1-.32.47-.57.68-.82.46-.51.8-1.12.99-1.78.26-.89.23-1.82.23-2.73,0-.83.02-1.62-.21-2.44-.37-1.35-1.07-2.53-2.47-2.97-1.46-.46-3.45-.47-4.7.56-1.11.93-.95,2.62-.23,3.74.83,1.28,2.13,2.67,2.08,4.3Zm6.04,8.17c.11,1.41,1.55,1.33,2.29,2.21.3.36.33.94.92.63.4-.21.75-.87.87-1.29.16-.55-.35-1.2-.7-1.59-.42-.46-.99-.71-1.47-1.1-.14-.12-.36-.44-.54-.49-.24-.06-.48.17-.65.3-.44.34-.74.75-.73,1.33Zm7.99,5.77c.32,0,1.68-.23,1.16-.87-.16-.2-.26-.03-.47.01-.28.06-.65-.05-.91-.16-.59-.23-1.1-.65-1.51-1.13-.31-.36-.54-1.1-.96-1.32-.64-.35-.84.29-1.04.69-.11.22-.32.38-.22.65.09.24.46.33.68.4.63.19,1.21.37,1.75.75.47.33.88.98,1.52.97Zm2.22-.44c.15.2.02.75.44.54.49-.25-.14-.61-.44-.54Zm3.24-38.56s0,.02.02.02v-.02s-.02,0-.02,0Zm-13.02-3.59s-.02-.02-.03,0c0,.02.02.02.03,0Z" />
  <path class="cls-3"
    d="m188.9,59.54c-.04-.73-1.29-.98-1.83-.8-.71.25-.99,1.03-1.44,1.57-.28.34-.61.6-.93.9-.16.15-.29.33-.45.48-.2.19-.08.12-.37.22-.79.27-1.53.66-2.34.88-.88.25-1.74.51-2.65.64-.9.13-1.78.14-2.69.2-.39.03-1.03.05-1.38.24-.29.16-.3.29,0,.41.79.31,1.96.12,2.79.13-2.2.24-4.42.09-6.56-.47-1.05-.28-2.07-.65-3.09-1.04-1.01-.39-2.05-.75-2.99-1.32.09-.05.17,0,.25.03.29.12.6.21.92.22.29.15.58.31.91.39,0,.02,0,.04.03.02-.01,0-.02-.01-.03-.02-.13-.17-.35-.24-.49-.4.13-.06.27-.05.41-.08.44.36,1.31.58,1.86.75.68.21,1.39.28,2.1.37,1.46.18,2.9.27,4.37.14,2.85-.26,5.62-1.13,8.07-2.6-2.92-.82-5.76-2.36-8.29-4.02-4.52-2.97-8.48-7.04-10.93-11.89-.63-1.25-1.21-2.55-1.54-3.92-.33-1.36-.44-2.76-.49-4.15-.11-2.84.21-5.73,1.05-8.44-.24.08-.48.63-.59.83-.19.32-.35.66-.51,1-.3.64-.57,1.3-.81,1.97-.5,1.39-.87,2.82-1.1,4.28-.83,5.27,0,10.71,2.22,15.55,1.01,2.22,2.34,4.36,4.14,6.03,1.86,1.72,4.18,2.76,6.61,3.41-.98.07-1.92-.31-2.89-.38-.13,0-.53.1-.64.01-.08-.06-.05-.33-.09-.42-.12-.35-.46-.6-.82-.64-.16-.02-.29.04-.45.05-.24,0-.17,0-.35-.17-.26-.25-.44-.41-.83-.38-.42.03-.51.07-.91-.14-.4-.2-.79-.42-1.12-.72-.69-.64-1.1-1.51-1.81-2.13-.69-.6-1.01-1.46-1.7-2.07-.67-.59-1.53-.93-1.84-1.84-.3-.86.09-1.82.09-2.71,0-.43-.1-.83-.34-1.18-.25-.38-.69-.64-.9-1.05-.19-.37-.1-.83-.08-1.24.03-.52.08-1.04.11-1.56.12-1.88-.06-4.05-1.22-5.61-.24-.33-.62-.55-.76-.94-.15-.4-.03-.82.06-1.21.25-.98.6-1.93.93-2.88.65-1.87,1.53-3.6,2.82-5.11,1.37-1.6,3.03-2.94,4.82-4.05.94-.59,1.92-1.11,2.92-1.6.55-.27,1.12-.52,1.69-.76.47-.2,1.12-.6,1.64-.57-2.33,1.29-4,3.54-4.98,6-1.06,2.67-.82,5.55.22,8.2,1.05,2.69,2.72,5.19,4.47,7.47,1.74,2.28,3.71,4.43,5.97,6.2,1.23.97,2.56,1.81,3.96,2.51.68.34,1.37.64,2.09.9.74.27,1.57.39,2.28.71-1.12-.06-2.24.08-3.36.02-1.06-.06-2.12-.19-3.17-.32-1.15-.15-2.29-.35-3.41-.61-.22-.05-1.14-.45-1.36-.3-.4.28.86.55,1.01.6,1.03.32,2.06.66,3.1.93,1,.26,2.03.33,3.02.59,2.1.56,4.62.73,6.77.49-.18.24-2.28.86-1.97,1.22.14.16,1.08-.04,1.27-.07.55-.1,1.07-.3,1.61-.45,1.07-.3,2.18-.46,3.26-.71.49-.11,1-.21,1.46-.4.34-.15.83-.68,1.18-.69-.04.34.14.64.18.98-.84-.16-1.41.2-2.04.71-.56.46-1.08.98-1.83.86-.67-.11-1.26.23-1.62.79-.44.68-.24,1.5-.7,2.2h0Zm-22.55-1s.03.04.05,0c0,0-.02-.02-.03-.03-.03-.02-.05-.04-.08-.06-.92-1.1-1.89-2.1-2.67-3.31-.76-1.18-1.4-2.44-1.92-3.75-1.14-2.83-1.69-5.78-2.08-8.78-.03,3.08.32,6.35,1.42,9.25.52,1.37,1.27,2.63,2.19,3.76.46.56.96,1.09,1.5,1.58.47.43.99.96,1.53,1.28.03.02.05.03.08.05Zm4.83-8.73s.02.02.03.02c.03-.02,0-.03,0-.04-.38-.7-.93-1.34-1.38-2-.44-.66-.88-1.32-1.31-1.98-.82-1.26-1.66-2.52-2.33-3.87-.69-1.39-1.16-2.85-1.52-4.35-.35-1.46-.71-2.92-.91-4.41-.6,3.23-.32,6.84,1.19,9.79,1.41,2.74,3.58,5.24,6.23,6.85Zm-5.71-18.98c-.65,3.79.1,7.32,1.93,10.66-1.48-3.4-2.42-6.9-1.93-10.66Zm.04-.26h0v.1s0,0,0,0v-.11Zm1.93,11.02h0s0,0,0,0h.01Z" />
  <path class="cls-3"
    d="m179.53,64.35c.85-.04,1.69-.15,2.53-.24-.37.13-.77.17-1.16.2-.46.04-.91.07-1.37.05Z" />
  <path class="cls-3" d="m182.06,64.11c.04-.06.11-.04.16-.04-.05.04-.1.04-.16.04Z" />
  <path class="cls-2"
    d="m189.08,53.24c-7.18-.09-13.02-4.95-17.24-10.34-2.15-2.75-4.39-5.76-5.32-9.18-.94-3.43.07-6.71,2.25-9.44,2.2-2.76,5.72-3.77,9.11-4.12,3.57-.37,7.25.1,10.56,1.49,1.56.66,3.02,1.53,4.35,2.59.55.44,1,.93,1.51,1.4.27.25.39.41.6.74.25.4.54.84.89,1.16.51.47.82.87,1.15,1.49.16.3.35.6.46.92.16.45.08.9.13,1.37.19,1.6,1.42,2.8,1.48,4.42.08,2.01.44,3.97.27,6-.17,1.98-1.2,3.75-1.95,5.55-.34.82-.56,1.85-1.13,2.54-.58.7-1.03,1.38-1.79,1.91-1.55,1.07-3.46,1.5-5.32,1.49Z" />
  <path class="cls-1"
    d="m168.76,29.9c0,1.14.43,2.27,1.43,2.89,1.02.63,2.32.53,3.41.14,2.02-.72,3.76-2.41,4.79-4.26.97-1.76,2.1-4.7.07-6.14-2.1-1.48-4.62-.06-6.33,1.36-1.75,1.46-3.33,3.66-3.37,6.02Z" />
  <path class="cls-1"
    d="m187.99,34.56c.02-2.32-.65-4.39-1.49-6.52-.36-.93-.64-1.94-1.3-2.72-.63-.73-1.08-1.59-1.83-2.23-.38-.33-.78-.65-1.16-.97-.13-.11-.7-.67-.77-.46-.05.16.61.94.71,1.08.26.35.5.69.73,1.05,1.04,1.59,1.9,3.21,2.42,5.04,1.12,3.91,1.11,8.13.02,12.02-.55,1.97-1.12,3.92-1.82,5.84-.11.3-.22.59-.33.89-.06.16-.24.44-.23.61.02.43.28.2.47-.04.6-.77,1.01-1.63,1.42-2.51.81-1.78,1.7-3.53,2.27-5.41.56-1.84.86-3.75.88-5.68Z" />
  <path class="cls-1"
    d="m179.78,27.22c.05,1.1.23,2.71,1.28,3.36,1.12.69,1.63-1.01,1.69-1.82.08-1.05-.31-2.37-1.25-2.96-.44-.28-.9-.29-1.31.05-.45.37-.41.84-.41,1.38Z" />
  <path class="cls-3"
    d="m160.87,19.05c.15-.17.37-.13.56-.15,1.77-.15,3.27-.92,4.66-1.96.79-.6,1.5-1.3,2.27-1.92.65-.52,1.33-1,2.14-1.27,1-.33,1.97-.23,2.92.19.68.3,1.3.7,1.96,1.03,1.25.61,2.57.96,3.97.88,1.44-.09,2.73-.61,3.82-1.55.37-.32.58-.75.56-1.26,0-.19.04-.35.26-.39.17.37.02.74.05,1.12.05.52-.04.83-.21,1.33-.12.36-.15.84-.39,1.15-.23.31-.6.58-.91.81-1.49,1.12-3.39,1.42-5.21,1.52-1.99.11-3.98-.28-5.96-.07-.91.1-1.79.34-2.61.75-.85.43-1.65.97-2.54,1.33-2.05.83-3.87-.07-5.35-1.55Z" />
  <path class="cls-3"
    d="m185.91,17.05c.42-.3.6.27.79.56.26.38.54.75.88,1.05.57.49,1.29.77,2.02.94,1.82.41,3.78.12,5.53.87.65.28,1.23.69,1.7,1.21.52.59.82,1.37,1.48,1.83.55.38,1.25.5,1.89.32.33-.09.63-.26.89-.48.37-.31.57-.82.96-1.1.33.9-.15,2.04-.59,2.82-.48.86-1.19,1.54-2.09,1.93-.88.38-1.78.66-2.64.12-.89-.56-1.21-1.51-1.71-2.39-.52-.9-1.11-1.75-1.93-2.4-.85-.67-1.83-1.15-2.81-1.6-.91-.42-1.82-.83-2.61-1.46-.63-.5-1.61-1.39-1.76-2.23Z" />
  <path class="cls-3"
    d="m149.56,32.08c.03.41-.1.79-.11,1.19,0,.2.05.21.09.38.04.16,0,.34.03.5.12.72.73,1.33,1.46,1.41,1.71.17,2.63-2.29,3.09-3.55.31-.86.53-1.75.59-2.66.07-.93-.04-1.88.1-2.81.11-.73.37-1.47.97-1.95.76-.6,1.64-.41,2.52-.22.91.19,1.75.23,2.53-.35.36-.27.68-.62.89-1.01.16-.31-.06-.88.3-1.01,1.05,1.67.07,3.3-1.33,4.36-1.46,1.1-3.05,1.96-4.31,3.31-.55.59-1.02,1.25-1.31,2.01-.35.92-.24,1.82-.29,2.78-.1,1.64-1.76,2.5-3.27,2.21-.83-.16-1.73-.71-2.08-1.5-.42-.95-.22-2.14.14-3.08Z" />
  <path class="cls-3"
    d="m198.16,30.68c.11.02.1.12.11.19.08.75.52,1.28,1.07,1.75.56.47,1.23.76,1.91.99,1.01.34,1.89-.38,2.1-1.09.29-.95.57-1.91.72-2.9.02-.15.05-.3.13-.44.05.8-.15,1.6-.23,2.39-.09.87,0,1.69.02,2.56-.51-.5-1.03-.3-1.62-.09-.48.18-1.3.31-1.66.69-.66.71.29,2.2.6,2.89.2.44.5,1.2,1.03,1.32.53.12,1.05-.4,1.36-.75.96-1.06.46-2.16.47-3.45.36.95.91,1.82,1.28,2.77.37.96.26,1.93-.2,2.84-.37.72-.9,1.34-1.6,1.76-.37.22-.77.4-1.2.44-.52.06-.93-.2-1.35-.49-.84-.59-.36-1.67-.24-2.5.15-1.07.03-2.11-.3-3.14-.32-1-.8-1.92-1.29-2.84-.45-.86-1.09-1.91-1.1-2.92Z" />
  <path class="cls-3"
    d="m203.63,45.5c.01,2.34-2.46,3.58-3.38,5.51-.72,1.52-.75,4.78-3.1,4.77-.96,0-1.31-.76-1.5-1.59-.24-1.1.48-1.85,1.13-2.67.68-.86,1.48-1.7,1.88-2.74.2-.52.26-1.05.31-1.6.04-.49-.06-1.26.18-1.7.01,1.06-.02,3.13,1.64,2.85,1.44-.24,2.22-1.68,2.83-2.81Zm-3.55,4.48c.03-.89-.91-.71-1.42-.43-.51.29-1.05.89-1.16,1.49-.17.96.74,1.09,1.36.66.48-.33,1.26-1.07,1.21-1.72Z" />
  <path class="cls-3"
    d="m195.68,55.9c.49.56-.44,1.83-.81,2.23-.68.74-1.57,1.35-2.44,1.85-.65.38-1.94,1.11-2.71.63-.32-.2-.37-.55-.25-.89.17-.47.39-.8.39-1.33.4.48.88.19,1.28-.14.46-.38.9-.78,1.4-1.11.87-.58,2.01-1.51,3.13-1.25Z" />
  <path class="cls-3"
    d="m185.12,61.73c.06.26-.35.26.06.39.36.12.92-.07,1.27-.17.84-.24,1.22-.97,1.98-1.31.16.23.25.49.28.77-.23.29-.51.51-.84.68-.49.25-1.02.37-1.54.51-.4-.05-1.08,0-1.43-.23-.28-.19-.14-.53.21-.63Z" />
  <path class="cls-3" d="m188.9,59.54s-.01.07-.02.1c-.04-.02-.03-.05.02-.1,0,0,0,0,0,0Z" />
  <path class="cls-3" d="m204.03,34.25s-.05-.07-.04-.11c.04.03.05.07.04.11Z" />
  <path class="cls-3" d="m171.56,21.67s.01,0,.02,0v.02s-.02,0-.02-.02Z" />
  <path class="cls-3" d="m195.1,54.99s0,0,0,.01c-.01,0-.02,0-.02-.02,0,0,.01,0,.02,0Z" />
  <path class="cls-3"
    d="m187.99,34.56c-.02,1.92-.32,3.84-.88,5.68-.57,1.88-1.46,3.63-2.27,5.41-.4.88-.82,1.74-1.42,2.51-.19.25-.45.47-.47.04,0-.16.17-.45.23-.61.11-.3.22-.59.33-.89.7-1.92,1.27-3.87,1.82-5.84,1.08-3.9,1.09-8.12-.02-12.02-.52-1.83-1.38-3.45-2.42-5.04-.23-.36-.48-.71-.73-1.05-.1-.14-.76-.92-.71-1.08.07-.21.65.35.77.46.39.33.78.65,1.16.97.74.64,1.2,1.49,1.83,2.23.66.77.94,1.79,1.3,2.72.84,2.13,1.51,4.2,1.49,6.52Z" />
  <g class="cls-6">
    <path class="cls-1"
      d="m173.13,61.03c-2.43-.65-4.75-1.69-6.61-3.41-1.8-1.67-3.13-3.81-4.14-6.03-2.21-4.84-3.04-10.28-2.22-15.55.23-1.46.59-2.89,1.1-4.28.24-.67.52-1.32.81-1.97.16-.34.32-.67.51-1,.11-.19.35-.75.59-.83-.83,2.72-1.16,5.6-1.05,8.44.05,1.39.17,2.79.49,4.15.33,1.36.91,2.67,1.54,3.92,2.45,4.85,6.41,8.91,10.93,11.89,2.52,1.66,5.37,3.2,8.29,4.02-2.45,1.48-5.22,2.35-8.07,2.6-1.47.13-2.91.05-4.37-.14-.71-.09-1.41-.16-2.1-.37-.55-.17-1.41-.38-1.86-.75.54-.02,1.01.1,1.54.14.43.03.81-.17,1.23-.2.99-.07,1.98.32,2.98.32.48,0,.97-.04,1.44-.14.21-.04.91-.12.98-.34.16-.54-1.74-.49-2.02-.49Z" />
    <path class="cls-3"
      d="m160.87,19.05c-.38-.37-.77-.73-1.14-1.11-.32-.33-.84-.76-.95-1.22-.18-.77.85-1.91,1.31-2.47,1.3-1.61,2.95-2.44,4.84-3.19,2.16-.86,4.35-1.51,6.65-1.87,2.32-.36,4.76-.74,7.11-.53,1.16.1,2.41.36,3.33,1.12.43.35.81.8,1.14,1.25.31.4.85,1.1.84,1.64-.22.04-.27.21-.26.39.02.51-.19.94-.56,1.26-1.1.95-2.38,1.47-3.82,1.55-1.4.08-2.72-.27-3.97-.88-.66-.32-1.28-.73-1.96-1.03-.95-.42-1.92-.52-2.92-.19-.81.26-1.49.74-2.14,1.27-.77.62-1.48,1.32-2.27,1.92-1.39,1.04-2.89,1.81-4.66,1.96-.19.02-.4-.02-.56.15Z" />
    <path class="cls-3"
      d="m185.91,17.05c-.51-.91-.44-2.39-.22-3.38.23-1.02.79-2.13,1.75-2.64,1.77-.94,4.06.98,5.13,2.25.76.91,1.38,1.93,2.16,2.82.71.82,1.57,1.5,2.49,2.07.99.61,2.04,1.1,3,1.77.69.48,1.8,1.38,1.84,2.31-.38.28-.59.78-.96,1.1-.26.22-.56.39-.89.48-.64.18-1.35.06-1.89-.32-.66-.46-.96-1.25-1.48-1.83-.47-.53-1.05-.94-1.7-1.21-1.75-.75-3.71-.46-5.53-.87-.73-.17-1.44-.44-2.02-.94-.35-.3-.63-.67-.88-1.05-.19-.29-.38-.85-.79-.56Z" />
    <path class="cls-3"
      d="m152.07,46.73c.05-1.63-1.25-3.02-2.08-4.3-.72-1.11-.89-2.81.23-3.74,1.24-1.03,3.24-1.03,4.7-.56,1.4.44,2.09,1.62,2.47,2.97.23.81.21,1.6.21,2.44,0,.91.03,1.85-.23,2.73-.19.66-.53,1.27-.99,1.78-.22.24-.58.5-.68.82-.15.46.29.4.6.26.32-.15.56-.42.77-.69.11-.15.38-.79.5-.83.15-.05.57.54.67.67.24.29.43.61.51.99.14.64.06,1.6-.12,2.23-.11.39-.32.76-.47,1.14-.13.34-.17.58-.56.72-1,.35-1.26-.72-1.69-1.34-.46-.68-1.24-.52-1.88-.94-.65-.42-1.25-1.07-1.59-1.76-.4-.81-.31-1.69-.31-2.57-.02,0-.04,0-.06,0Z" />
    <path class="cls-3"
      d="m149.56,32.08c.22-.98.73-1.94,1.07-2.89.36-.99.68-2,.91-3.03.22-.97.3-1.99.62-2.94.31-.92.89-1.66,1.51-2.39,1.08-1.26,2.76-3.13,4.56-1.99,1.44.91,3.02,1.5,3.79,3.16-.36.12-.14.7-.3,1.01-.21.4-.53.75-.89,1.01-.78.58-1.62.54-2.53.35-.87-.19-1.75-.38-2.52.22-.6.48-.86,1.21-.97,1.95-.14.93-.04,1.87-.1,2.81-.07.91-.28,1.81-.59,2.66-.46,1.26-1.38,3.72-3.09,3.55-.73-.07-1.35-.69-1.46-1.41-.03-.17,0-.34-.03-.5-.04-.17-.1-.18-.09-.38.01-.4.14-.78.11-1.19Z" />
    <path class="cls-3"
      d="m198.16,30.68c-.11-.93.26-1.73.93-2.36.32-.3.66-.44,1.05-.61.44-.19.75-.48,1.11-.79.53-.45,1.43-.6,2.04-.19.75.5.94,1.62.91,2.45-.08.13-.11.29-.13.44-.15.99-.43,1.95-.72,2.9-.22.71-1.09,1.43-2.1,1.09-.69-.23-1.35-.52-1.91-.99-.55-.46-.99-.99-1.07-1.75,0-.07,0-.17-.11-.19Z" />
    <path class="cls-3"
      d="m203.63,45.5c-.61,1.13-1.4,2.58-2.83,2.81-1.67.27-1.63-1.79-1.64-2.85.24-1.13,1.5-2.1,2.66-2.05,1.06.05,1.93,1.03,1.82,2.09Z" />
    <path class="cls-3"
      d="m204.17,34.76c0,1.29.49,2.39-.47,3.45-.32.35-.83.87-1.36.75-.53-.13-.83-.88-1.03-1.32-.31-.7-1.26-2.18-.6-2.89.36-.39,1.17-.52,1.66-.69.59-.22,1.11-.42,1.62.09,0,0,0,0,0,0,0,.04,0,.08.04.11.05.17.09.34.14.51Z" />
    <path class="cls-3"
      d="m158.11,54.9c0-.58.29-.99.73-1.33.17-.13.41-.37.65-.3.18.05.4.38.54.49.48.39,1.05.64,1.47,1.1.35.39.85,1.04.7,1.59-.12.42-.47,1.08-.87,1.29-.59.31-.62-.28-.92-.63-.73-.88-2.17-.8-2.29-2.21Z" />
    <path class="cls-3"
      d="m166.09,60.67c-.64,0-1.05-.64-1.52-.97-.54-.38-1.13-.56-1.75-.75-.22-.07-.59-.16-.68-.4-.1-.27.11-.43.22-.65.2-.41.4-1.04,1.04-.69.42.23.65.96.96,1.32.41.47.92.89,1.51,1.13.26.1.62.21.91.16.21-.04.31-.21.47-.01.52.64-.84.87-1.16.87Z" />
    <path class="cls-3"
      d="m195.68,55.9c-1.11-.26-2.25.67-3.13,1.25-.5.33-.94.72-1.4,1.11-.4.33-.88.61-1.28.14.02-.6.45-1.4,1.16-1.27.37.07.35.15.68-.02.28-.14.56-.27.82-.46.52-.37.95-.92,1.54-1.2.27-.13.71-.22,1.01-.12.3.1.41.34.6.59Z" />
    <path class="cls-5"
      d="m185.12,61.73c.35-.3.73-.5,1.03-.87.28-.35.44-.78.72-1.12.28-.35.6-.4.99-.14.34.23.42.68.58,1.04-.76.35-1.13,1.07-1.98,1.31-.35.1-.91.29-1.27.17-.41-.13,0-.13-.06-.39Z" />
    <path class="cls-5"
      d="m186.34,62.59c.52-.14,1.05-.26,1.54-.51.33-.17.61-.39.84-.68.17,1.06-1.73,1.26-2.38,1.19Z" />
    <path class="cls-4" d="m168.31,60.22c.3-.07.92.29.44.54-.41.21-.29-.34-.44-.54Z" />
    <path class="cls-4"
      d="m167.06,62.22c-.32-.08-.61-.24-.91-.39.14,0,.28,0,.41,0,.14.16.36.22.49.4h0Z" />
    <path class="cls-5"
      d="m171.17,49.82c-2.65-1.61-4.82-4.11-6.23-6.85-1.51-2.95-1.79-6.57-1.19-9.79.19,1.5.55,2.95.91,4.41.36,1.51.84,2.96,1.52,4.35.67,1.35,1.51,2.61,2.33,3.87.43.67.87,1.33,1.31,1.98.45.66,1,1.3,1.38,2,0,0-.01.01-.02.02Z" />
    <path class="cls-5"
      d="m166.26,58.5c-.55-.32-1.07-.86-1.53-1.28-.54-.49-1.04-1.02-1.5-1.58-.92-1.13-1.67-2.39-2.19-3.76-1.1-2.9-1.45-6.17-1.42-9.25.39,3.01.93,5.96,2.08,8.78.53,1.3,1.16,2.56,1.92,3.75.78,1.22,1.75,2.21,2.67,3.31,0,.01-.02.02-.02.03Z" />
    <path class="cls-5"
      d="m165.46,30.83c-.49,3.76.44,7.26,1.93,10.66-1.83-3.34-2.58-6.87-1.93-10.66Z" />
    <path class="cls-4" d="m165.51,30.57v.11s0,0,0,0v-.1h0Z" />
    <path class="cls-4"
      d="m166.29,58.47s.05.04.08.06c0,0-.01.01-.02.02-.03-.02-.05-.03-.08-.05,0-.01.02-.02.02-.03Z" />
    <polygon class="cls-4" points="167.44 41.58 167.43 41.59 167.43 41.57 167.44 41.58" />
    <path class="cls-4" d="m171.19,49.8s.04.02,0,.04c0,0-.02-.01-.03-.02,0,0,.01-.01.02-.02Z" />
    <path class="cls-4" d="m166.36,58.53s.03.02.03.03c-.02.03-.03,0-.05,0,0,0,.01-.01.02-.02Z" />
    <path class="cls-4" d="m167.06,62.22s.02.01.03.02c-.03.02-.03,0-.03-.02,0,0,0,0,0,0Z" />
    <path class="cls-3"
      d="m200.09,49.98c.05.65-.73,1.39-1.21,1.72-.63.43-1.53.3-1.36-.66.11-.6.64-1.2,1.16-1.49.51-.29,1.45-.46,1.42.43Z" />
  </g>
  <g>
    <path class="cls-5"
      d="m124.69,26.73c-.67-.97-1.47-1.84-2.39-2.57-2.77-2.23-6.64-3.41-11.19-3.44l-17.26-.03-10.77,13.67h3.31v8.47s-12.58-18.06-12.58-18.06c-2.07-3.02-4.8-4.57-8.12-4.58h-.06c-3.29,0-6.06,1.52-8.2,4.52l-14.22,19.76c-.89-1.03-1.71-1.95-2.45-2.74.63-.54,1.2-1.15,1.7-1.82,1.47-2.02,2.25-4.45,2.23-6.94,0-4.46-2.18-8.06-6.15-10.16-3.38-1.78-7.4-2.18-10.18-2.19h-.17l-17.54-.02L0,34.25h3.25l-.02,17.88,15.05.02v-6.26h6.66l4.78,6.27,20.19.03,43.01.06h8.45s0-6.02,0-6.02h9.5c4.61.01,8.52-1.12,11.31-3.28,2.68-2.05,4.33-5.17,4.52-8.54h6.78s-.03,17.89-.03,17.89l15.09.02.03-17.88h6.69l10.55-13.68-36.51-.05-4.6,6.02ZM31.29,49.39l-4.78-6.26-11.39-.02v6.26l-8.72-.02.02-13.2,22.82.03c2.07,0,3.21-.71,3.21-2.38,0-1.62-1.13-2.3-3.2-2.3l-22.78-.03,5.71-7.35,15.99.02c5.7,0,13.35,1.72,13.34,9.18,0,3.77-2.23,7.09-6.16,8.02.68.46,2.38,1.97,5.8,5.97l1.8,2.09-11.65-.02Zm25.72.03l5.3-7.23h5.67c1.21,0,2.64,0,3.43.08-.62-.76-1.2-1.55-1.73-2.38l-4.22-6.15-11.3,15.68h-10.34s16.17-22.47,16.17-22.47c1.21-1.7,2.91-3.2,5.62-3.2,2.64,0,4.34,1.4,5.58,3.21l15.66,22.5-29.85-.04Zm53.87-5.96h-12.67s0,6.02,0,6.02h-8.67s.02-13.21.02-13.21l22.67.03c1.81,0,2.6-1.13,2.61-2.41,0-1.21-.86-2.26-2.6-2.27l-22.63-.03,5.78-7.35,15.58.02c8.04.01,12.63,4.02,12.62,9.67,0,5.69-4.61,9.54-12.69,9.52Zm48.5-19.13l-5.67,7.35h-8.3s-.03,17.87-.03,17.87h-8.75s.03-17.89.03-17.89l-11.47-.02,5.67-7.35,28.52.04Z" />
    <path class="cls-5"
      d="m243.62,45.19c-1.03-1.2-1.96-2.25-2.8-3.15.63-.54,1.2-1.15,1.7-1.81,1.47-2.02,2.25-4.46,2.23-6.96,0-4.46-2.18-8.06-6.15-10.16-3.38-1.78-7.4-2.18-10.18-2.19h-.17l-17.54-.02-10.62,13.67h3.25l-.03,17.88,15.05.02v-6.26h6.67l4.78,6.27,20.19.03-6.38-7.31Zm-12.25,4.51l-4.78-6.27-11.39-.02v6.26h-8.71s.02-13.21.02-13.21l22.82.03c2.07,0,3.21-.71,3.21-2.38,0-1.62-1.13-2.3-3.2-2.3l-22.79-.02,5.71-7.35,15.99.02c5.7,0,13.35,1.72,13.34,9.18,0,3.77-2.23,7.09-6.16,8.02.68.46,2.38,1.97,5.8,5.97l1.81,2.08-11.66-.02Z" />
  </g>
</svg>