<svg id="Layer_1" data-name="Layer 1" xmlns="http://www.w3.org/2000/svg" viewBox="0 0 250 94.91">

  <path class="cls-1" d="m18.11,31.1s4.09-.65,5.92-.93c0,0,10.08-1.77,9.9,8.07-.17,8.97-7.66,13.05-15.07,14.41-.16,1.74-.33,3.48-.49,5.22,3.23-.38,14.3-.8,13.97,11.71-.32,11.99-7.44,17.73-16.91,20.14-.15,1.61-.29,3.21-.44,4.83,2.89-.37,5.94-1,8.97-1.94,1.04-.31,2.07-.66,3.09-1.06.27-.1.53-.19.8-.3.09-.04.18-.06.27-.1.17-.07.32-.16.48-.23,9.86-4.14,18.39-11.64,18.71-23.3.33-12.16-8.4-14.08-13.73-14.13,8.01-3.7,14.79-10.15,15.05-19.9.35-13.03-11.44-12.5-14.62-12.12-.02,0-.04,0-.06,0-1.06.1-2.1.26-3.15.42l-.02-.02c-7.25,1.12-11.86,1.78-19.11,2.92-2.02.32-4.04.7-6.05,1.06v.08L0,83.72l2.71-.43s0,0,0,0l17.74-2.71s-6.58-1.59-6.3-6.63c0-.09,0-.17,0-.25,1.31-14.2,2.56-28.32,3.95-42.37l.02-.24Z"/>
  <path class="cls-1" d="m246.79,13.66c-1.56-2.12-3.37-3.98-5.44-5.59-1.21,1.58-2.88,3.58-5.02,6.01-2.6,2.94-4.81,5.23-6.64,6.87l1.27,3.15,7.81-8.01c.94.83,1.64,1.55,2.09,2.15,1.42,1.87,2.26,3.89,2.51,6.04.25,2.12-.17,3.79-1.25,5.01-.84.94-2.03,1.53-3.55,1.77-1.1.17-1.97-.04-2.63-.63-.66-.59-1.05-1.46-1.19-2.63l-.04-1.06-2.93.46-.58,6.93c.9.2,1.61.32,2.13.38,1.6.19,2.98.19,4.13.01,3.67-.57,6.72-2.12,9.15-4.63,2.6-2.67,3.71-5.72,3.3-9.14-.26-2.22-1.3-4.59-3.13-7.11m-21.33-.85c-2.97.47-5.71,2.58-8.21,6.35-1.6,2.41-2.73,3.94-3.39,4.58l1.04-8.57-7.27,1.14-1.82,23.19,6.67-1.04c.29-1.26.59-2.52.9-3.79.79-2.83,1.66-5.17,2.61-7.05,1.33-2.61,2.69-4.02,4.08-4.24.59-.09,1.14.13,1.65.68.51.55.83,1.31.95,2.31l.09,1.15,2.89-.45,1.08-14.46-1.28.2Zm-23.84,6.47c-1.88-1.26-4.44-1.64-7.68-1.13-4.02.63-7.29,2.6-9.82,5.9-2.34,3.07-3.32,6.23-2.94,9.48.35,2.99,1.48,5.17,3.39,6.56,2.06,1.5,4.88,1.97,8.47,1.41,2.28-.36,4.46-1.09,6.55-2.19,2.09-1.1,3.76-2.41,5-3.93l-2.56-2.99c-.92,1.5-2.03,2.72-3.33,3.66-1.31.95-2.64,1.53-4.01,1.74-1.69.26-3.05-.12-4.08-1.16-1.04-1.04-1.67-2.57-1.91-4.59-.32-2.69.15-5.18,1.39-7.49,1.24-2.31,2.68-3.59,4.31-3.84.94-.15,1.72.05,2.34.58.62.53.98,1.23,1.08,2.1.13,1.14-.21,2.13-1.04,2.97-1.02,1.05-2.71,1.75-5.07,2.12l-1.21.19-.17,2.36,14.54-2.28c.1-.32.15-.6.15-.83.05-.72,0-1.69-.14-2.92-.3-2.55-1.39-4.46-3.27-5.72m-21.37,17.79c-.17.2-.3.33-.4.42-.62.57-1.2.9-1.77.99-.88.14-1.56-.38-2.02-1.56-.32-.83-.6-2.29-.84-4.38l-.35-2.99c-.33-2.79-.76-4.78-1.31-5.98-.8-1.73-1.99-2.47-3.57-2.23-.96.15-1.91.79-2.84,1.92-.62.77-1.53,2.17-2.74,4.18-1.43,2.42-2.52,4.18-3.27,5.28.11-1.81.18-3.19.21-4.14.14-2.96.26-4.65.35-5.07l-7.71,1.21-1.86,23.2,6.14-.96c.37-1.24.76-2.48,1.16-3.73.95-2.82,1.88-5.12,2.79-6.92,1.28-2.53,2.43-3.88,3.45-4.04,1.37-.21,2.39,2.15,3.08,7.09.69,4.94,2.22,7.23,4.61,6.85,1.61-.25,3.5-1.51,5.69-3.78.71-.72,1.63-1.81,2.77-3.27l-1.55-2.09Zm-30.98,5.41c-.17.2-.3.33-.4.42-.62.54-1.17.84-1.65.92-.64.1-1.73-.91-3.26-3.04-1.53-2.12-3.15-3.05-4.87-2.78,1.1-1.05,2.58-2.74,4.44-5.05,1.69-2.09,2.91-3.68,3.65-4.78l-2.58-3.14c-.98,1.67-2.39,3.69-4.24,6.04-2.54,3.2-4.92,5.67-7.15,7.4.26-2,.58-6.15.97-12.46.39-6.31.55-9.82.46-10.51l-6.55,1.03-2.86,35.61,5.06-.79c.39-1.78.74-3.12,1.04-4.01.94-2.71,1.95-4.16,3.05-4.33.91-.14,2.46,1.24,4.66,4.13,2.19,2.9,4.01,4.24,5.46,4.01,1.29-.2,2.67-1.42,4.15-3.64.49-.72,1.08-1.79,1.79-3.22l-1.19-1.79Zm-34.33-11.64c-4.02.63-7.38,2.52-10.09,5.69-2.59,3.01-3.7,6.12-3.32,9.34.35,2.95,1.56,5.18,3.65,6.67,2.08,1.5,4.65,2.01,7.7,1.53,2.97-.47,5.64-1.54,8.01-3.23.78-.56,1.67-1.36,2.66-2.39l-1.95-3.04c-.93.89-1.68,1.56-2.26,2.03-1.75,1.39-3.26,2.18-4.55,2.38-1.34.21-2.45-.12-3.35-1-.89-.87-1.44-2.12-1.63-3.75-.29-2.49.13-4.74,1.27-6.76,1.14-2.02,2.47-3.15,4-3.39,1.07-.17,1.93.17,2.57,1.02.55.72.91,1.83,1.09,3.33l3.25-.51.73-9.13-7.79,1.22Zm-13.48,19.34c-.49.52-.86.9-1.13,1.14-.84.74-1.56,1.16-2.14,1.25-.48.08-.9-.07-1.26-.44-.36-.37-.57-.88-.65-1.54-.05-.43-.06-1.1-.03-2.02.03-.92.08-1.89.15-2.91l.96-12.06-6.31.99c-.48,1.46-.97,2.91-1.45,4.33-1.15,3.22-2.26,5.93-3.34,8.12-1.43,2.93-2.63,4.47-3.59,4.62-.48.08-.91-.08-1.28-.46-.37-.38-.6-.94-.69-1.67-.07-.63.1-3.07.53-7.33.13-1.41.36-3.47.66-6.18l-6.87,1.08c-.45,2.88-.77,5.1-.93,6.68-.56,4.75-.74,7.97-.54,9.66.21,1.79.86,3.26,1.95,4.41,1.09,1.15,2.29,1.62,3.6,1.41,1.71-.27,3.46-1.54,5.24-3.81,1.57-2,3.21-4.81,4.94-8.43l.17,2.47c.37,3.17.98,5.37,1.82,6.61.84,1.24,2.05,1.74,3.63,1.49,1.66-.26,3.38-1.15,5.17-2.66.6-.5,1.33-1.23,2.2-2.19l-.79-2.57Zm-30.86-13.1c-2.97.47-5.71,2.58-8.21,6.35-1.6,2.41-2.73,3.94-3.39,4.58l1.04-8.57-7.27,1.14-1.82,23.19,6.67-1.05c.29-1.26.59-2.52.9-3.79.79-2.83,1.66-5.17,2.61-7.05,1.33-2.61,2.69-4.02,4.08-4.24.59-.09,1.14.13,1.65.68.51.55.83,1.31.95,2.31l.09,1.15,2.89-.45,1.08-14.46-1.29.2Z"/>
  <polygon class="cls-1" points="50.08 75.83 50.7 67.85 249.79 36.58 249.47 44.51 50.08 75.83"/>
  <polygon class="cls-1" points="231.99 14.18 235.67 7.66 235.39 0 227.73 .85 228.3 8.45 230.29 8.23 228.64 14.81 231.99 14.18"/>
  <path class="cls-1" d="m249.32,84.08v-2.66h-10.93v2.66h4.01v10.43h2.9v-10.43h4.01Zm-13.16,10.43v-13.09h-2.87v8.06l-6.18-8.06h-2.68v13.09h2.86v-8.32l6.39,8.32h2.47Zm-14.32,0v-2.56h-7.16v-2.75h6.22v-2.56h-6.22v-2.66h7.07v-2.56h-9.93v13.09h10.03Zm-13.21,0v-13.09h-3.12l-3.46,5.53-3.46-5.53h-3.12v13.09h2.86v-8.49l3.65,5.54h.08l3.72-5.59v8.55h2.86Zm-18.26-8.47c0,.56-.2,1.03-.6,1.41-.4.38-.97.57-1.7.57h-2.3v-4h2.24c.73,0,1.3.17,1.72.5.42.34.63.83.63,1.48v.04Zm2.94-.09c0-.67-.12-1.29-.35-1.84-.23-.55-.57-1.03-1-1.43-.43-.4-.96-.71-1.58-.93-.62-.22-1.33-.33-2.12-.33h-5.39v13.09h2.9v-3.93h2.21c.74,0,1.44-.1,2.08-.29.65-.19,1.21-.48,1.7-.87.48-.39.86-.87,1.14-1.44.28-.57.41-1.24.41-2v-.04Zm-13.74-4.53h-2.9v13.09h2.9v-13.09Zm-5.99,7.39v-7.39h-2.9v7.5c0,1.05-.25,1.83-.75,2.36-.5.52-1.2.79-2.09.79s-1.59-.27-2.09-.81c-.5-.54-.75-1.35-.75-2.42v-7.4h-2.9v7.48c0,1.93.51,3.38,1.53,4.36,1.02.97,2.41,1.46,4.18,1.46.88,0,1.68-.12,2.39-.36.72-.24,1.33-.61,1.83-1.1.5-.49.89-1.11,1.16-1.84.27-.74.41-1.6.41-2.6m-16.91-.8c0,.67-.12,1.27-.36,1.8l-2.17-1.94-1.85,2.06,2.15,1.81c-.54.24-1.12.36-1.73.36s-1.13-.11-1.61-.33c-.48-.22-.9-.51-1.26-.89-.36-.37-.63-.81-.83-1.31-.2-.5-.29-1.03-.29-1.59v-.04c0-.56.1-1.09.29-1.58.19-.49.46-.93.81-1.3.35-.37.76-.67,1.24-.88.48-.21,1.02-.32,1.61-.32s1.11.11,1.6.33c.49.22.91.51,1.27.89s.63.81.83,1.31c.19.5.29,1.03.29,1.59v.04Zm3.22,4.86l-1.36-1.14c.38-.55.67-1.14.87-1.78.2-.64.3-1.3.3-1.98v-.04c0-.93-.17-1.81-.52-2.63s-.83-1.53-1.45-2.13c-.62-.6-1.36-1.08-2.21-1.44-.85-.36-1.79-.53-2.81-.53s-1.96.18-2.82.53c-.86.36-1.6.84-2.22,1.46-.62.62-1.11,1.33-1.46,2.15-.35.82-.53,1.69-.53,2.63v.04c0,.93.17,1.81.52,2.63.35.82.83,1.53,1.45,2.13.62.6,1.36,1.08,2.21,1.44.85.36,1.79.53,2.81.53.74,0,1.44-.1,2.09-.29.65-.19,1.26-.47,1.83-.83l1.45,1.29,1.85-2.04Zm-16.23,1.65v-2.56h-7.16v-2.75h6.22v-2.56h-6.22v-2.66h7.07v-2.56h-9.93v13.09h10.03Z"/>
  <path class="cls-1" d="m244.16,74.71c-.3.24-.61.42-.93.55-.32.13-.64.2-.97.2-.54,0-.98-.14-1.33-.42-.35-.28-.52-.66-.52-1.13,0-.32.09-.64.28-.94.19-.31.5-.57.94-.79l2.53,2.54Zm-.29-5.88c-.3.27-.73.51-1.31.72-.28-.31-.47-.59-.59-.83-.12-.24-.18-.51-.18-.81,0-.4.12-.72.35-.97.23-.25.54-.37.93-.37.36,0,.66.11.9.32.23.21.35.52.35.92,0,.42-.15.77-.44,1.04m5.57,7.58l-1.94-1.93c.33-.44.63-.89.92-1.37.29-.47.56-.94.81-1.4l-2.13-1.16c-.21.4-.43.79-.64,1.17-.21.38-.43.74-.64,1.08l-1.75-1.74c.82-.31,1.48-.74,2-1.29.52-.55.77-1.27.77-2.15,0-.46-.09-.89-.26-1.3-.18-.41-.43-.76-.75-1.06-.33-.3-.72-.53-1.17-.7-.45-.17-.96-.25-1.53-.25-.64,0-1.21.1-1.71.29-.5.19-.91.45-1.25.77-.34.32-.6.69-.77,1.1-.18.42-.26.85-.26,1.3s.07.9.22,1.32c.14.42.38.86.71,1.32-.83.37-1.46.86-1.9,1.45-.44.59-.66,1.31-.66,2.16,0,.59.11,1.11.34,1.58.23.47.54.87.93,1.2.4.33.86.58,1.4.76.54.17,1.12.26,1.75.26.77,0,1.47-.13,2.1-.4.63-.27,1.22-.62,1.76-1.06l1.53,1.53,2.13-1.48Zm-18.04,1.22l-5.62-7.54,5.37-5.55h-3.51l-5.35,5.72v-5.72h-2.9v13.09h2.9v-4l1.53-1.57,4.09,5.57h3.49Zm-14.32-2.11l-1.85-1.85c-.52.47-1.03.85-1.55,1.12-.52.27-1.16.41-1.91.41-.57,0-1.08-.11-1.55-.33-.47-.22-.87-.51-1.21-.89-.33-.37-.59-.81-.78-1.31-.19-.5-.28-1.03-.28-1.59v-.04c0-.56.09-1.09.28-1.58.19-.49.45-.93.79-1.3.34-.37.74-.67,1.22-.88.47-.21.98-.32,1.54-.32.67,0,1.27.13,1.8.39.53.26,1.06.62,1.57,1.08l1.85-2.11c-.3-.3-.63-.57-.98-.82-.35-.25-.74-.46-1.15-.64s-.88-.31-1.39-.41c-.51-.1-1.07-.15-1.69-.15-1.02,0-1.95.18-2.79.53-.84.36-1.56.84-2.17,1.46s-1.07,1.33-1.41,2.15-.51,1.69-.51,2.63v.04c0,.93.17,1.81.51,2.64.34.82.81,1.54,1.41,2.14.6.6,1.32,1.08,2.15,1.43.83.35,1.73.52,2.7.52.64,0,1.22-.05,1.73-.16.52-.11.99-.26,1.42-.47.43-.21.83-.45,1.2-.74s.72-.61,1.06-.97m-14.55-3.59v-7.39h-2.9v7.5c0,1.05-.25,1.83-.75,2.36-.5.52-1.2.79-2.09.79s-1.59-.27-2.09-.81c-.5-.54-.75-1.35-.75-2.42v-7.4h-2.9v7.48c0,1.93.51,3.38,1.53,4.36,1.02.97,2.41,1.46,4.18,1.46.88,0,1.68-.12,2.39-.36.72-.24,1.33-.61,1.83-1.1.5-.49.89-1.11,1.16-1.84.27-.74.41-1.6.41-2.6m-16.85-2.88c0,.56-.19,1.01-.57,1.35-.38.34-.93.5-1.65.5h-2.94v-3.76h2.88c.72,0,1.28.16,1.68.47.4.31.6.78.6,1.4v.04Zm3.34,8.58l-3.22-4.67c.84-.31,1.52-.8,2.05-1.47.52-.67.78-1.53.78-2.59v-.04c0-1.36-.44-2.42-1.31-3.18-.87-.76-2.1-1.14-3.67-1.14h-6.03v13.09h2.9v-4.19h2.28l2.83,4.19h3.39Zm-13.63-10.43v-2.66h-10.93v2.66h4.01v10.43h2.9v-10.43h4.01Z"/>
</svg>
