<svg xmlns="http://www.w3.org/2000/svg" viewBox="0 0 690.67 404.6">
  <defs>
    <style>
      .cls-1,
      .cls-2 {
      fill: #fff;
      idk: hello;
      }
    </style>
  </defs>
  <g id="Layer_2" data-name="Layer 2">
    <g id="Layer_1-2" data-name="Layer 1">
      <g id="Enterprise_White" data-name="Enterprise/White">
        <polygon class="cls-1"
          points="384.71 192.07 392.97 192.07 590.33 347.05 555.26 347.05 384.71 192.07 384.71 192.07" />
        <polygon class="cls-1"
          points="354.45 192.07 361.33 192.07 520.19 347.05 487.87 347.05 354.45 192.07 354.45 192.07" />
        <polygon class="cls-1"
          points="272.88 192.07 264.62 192.07 67.26 347.05 102.33 347.05 272.88 192.07 272.88 192.07" />
        <polygon class="cls-1"
          points="303.14 192.07 296.26 192.07 137.41 347.05 169.72 347.05 303.14 192.07 303.14 192.07" />
        <polygon class="cls-1"
          points="15.33 381.79 39.87 381.79 39.87 388.76 15.33 388.76 15.33 396.08 42.01 396.08 42.01 404.3 0 404.3 0 366.7 41.48 366.7 41.48 374.92 15.33 374.92 15.33 381.79 15.33 381.79" />
        <polygon class="cls-1"
          points="75.74 404.3 60.41 404.3 60.41 366.7 86.32 366.7 102.8 395.58 103.42 395.58 102.5 366.7 117.83 366.7 117.83 404.3 91.69 404.3 75.44 375.43 74.82 375.43 75.74 404.3 75.74 404.3" />
        <polygon class="cls-1"
          points="161.3 404.3 145.96 404.3 145.96 375.43 131.25 375.43 131.25 366.7 176.78 366.7 176.78 375.43 161.3 375.43 161.3 404.3 161.3 404.3" />
        <polygon class="cls-1"
          points="205.68 381.79 230.21 381.79 230.21 388.76 205.68 388.76 205.68 396.08 232.36 396.08 232.36 404.3 190.35 404.3 190.35 366.7 231.82 366.7 231.82 374.92 205.68 374.92 205.68 381.79 205.68 381.79" />
        <path class="cls-1"
          d="M250.45,366.7H280c13.27.15,19.78,2,19.78,11.38,0,6.27,0,9.93-10.88,11.58v.4c6.28.15,10.35,2.41,10.35,6.67v7.57H284V399c.16-2.81-1.68-4.71-6.28-4.71H265.79v10H250.45V366.7Zm27.22,18.9c6.59,0,6.36-1.6,6.36-5.86,0-3.36-1.3-4.31-6.36-4.31H265.79V385.6Z" />
        <path class="cls-1"
          d="M316.08,404.3V366.7H345c14.26,0,19.62,4,19.62,13.79,0,10.58-3.6,14.19-19.62,14.19H331.41v9.62ZM341.91,386c6.06-.15,6.9-.6,6.9-5.46,0-3.86-.92-5.06-6.9-5.06h-10.5V386Z" />
        <path class="cls-1"
          d="M379.17,366.7h29.59c13.26.15,19.78,2,19.78,11.38,0,6.27,0,9.93-10.89,11.58v.4c6.29.15,10.35,2.41,10.35,6.67v7.57H412.67V399c.15-2.81-1.69-4.71-6.29-4.71H394.5v10H379.17V366.7Zm27.21,18.9c6.6,0,6.37-1.6,6.37-5.86,0-3.36-1.31-4.31-6.37-4.31H394.5V385.6Z" />
        <polygon class="cls-1"
          points="460.43 404.3 445.1 404.3 445.1 366.7 460.43 366.7 460.43 404.3 460.43 404.3" />
        <path class="cls-1"
          d="M504.74,381.44c17,.8,21.23,2.21,21.23,10.83,0,6.22.39,12.33-24.91,12.33-14.64,0-24.38-.2-24.38-12.53H491.4c0,3.91,2.15,4.31,9.66,4.31,7.2,0,9.58-.3,9.58-3.46s-.84-3.21-8.05-3.51l-3.37-.15c-14.18-.65-22.46-.6-22.46-11.38s9.27-11.48,24.3-11.48c12.57,0,23.3.15,23.3,10.53v1.55H509.64c0-3.86-2.45-3.86-8.58-3.86-8.28,0-9,1.11-9,3.21,0,3,2.22,3.11,6.29,3.31l6.36.3Z" />
        <polygon class="cls-1"
          points="557.63 381.79 582.17 381.79 582.17 388.76 557.63 388.76 557.63 396.08 584.31 396.08 584.31 404.3 542.3 404.3 542.3 366.7 583.78 366.7 583.78 374.92 557.63 374.92 557.63 381.79 557.63 381.79" />
        <path class="cls-1"
          d="M628.93,381.44c17,.8,21.23,2.21,21.23,10.83,0,6.22.39,12.33-24.91,12.33-14.64,0-24.38-.2-24.38-12.53h14.72c0,3.91,2.15,4.31,9.66,4.31,7.21,0,9.58-.3,9.58-3.46s-.84-3.21-8.05-3.51l-3.37-.15c-14.18-.65-22.46-.6-22.46-11.38s9.27-11.48,24.3-11.48c12.57,0,23.3.15,23.3,10.53v1.55H633.83c0-3.86-2.45-3.86-8.58-3.86-8.28,0-9,1.11-9,3.21,0,3,2.22,3.11,6.29,3.31l6.36.3Z" />
        <path class="cls-1" d="M637,205.77v114.8l-168.5-114.8H637m14-14H423.06L651,347V191.77Z" />
        <path class="cls-1"
          d="M177.55,223.41l-.25,0-1.76-.35-.76-.15-1.7-.37-.89-.2-1.65-.38-1-.25-1.61-.4-1.11-.3-1.59-.42L164,220.2l-1.55-.44,0,0L14,320.85V205.29H130.38a11.25,11.25,0,0,1-2.18-1.56l-.69-.48h0a87.63,87.63,0,0,1-7.82-6.4h0c-.46-.43-.92-.85-1.36-1.28l0,0c-.44-.42-.87-.85-1.29-1.27l0,0c-1-1-1.91-2-2.79-3H0V347L180.2,223.88C179.32,223.74,178.44,223.58,177.55,223.41Z" />
        <path class="cls-2"
          d="M690.63,24.31h0l-70.15-.07L608,69.38h0l-18.55,0h-9.26l10.39-36.09,2.62-9-37.23,0-37.26,0-3.13,9.6h0c-1.48-2.76-4.23-9.51-15.16-9.63h-1.08l-190.63-.22-1.61,4.42-6,16.61h0c0-.07,2-6.78-.56-12.6-1.79-4.09-5.81-7.73-14.32-8.31-.77-.06-1.59-.09-2.44-.09h0l-57.35-.05H223.5A45.37,45.37,0,0,0,219.39,15a35.83,35.83,0,0,0-3.4-4.72C207.56.42,197.37.16,196.68.16h-.05L130.42.09h-.08L73.24,0,47.64,0,43.85,13.68.78,169l86.3.09,7.48-29.19h0l.48,4.36,1,9.47.26,2.36c0,.11,1.34,11,9.42,24.06A78.58,78.58,0,0,0,117,194.25l0,0c.42.42.85.85,1.29,1.27l0,0c.44.43.9.85,1.36,1.28h0a87.63,87.63,0,0,0,7.82,6.4h0l.69.48a13.19,13.19,0,0,0,2.79,1.92A108.65,108.65,0,0,0,156.73,218l.14,0,2.76.9,1.48.45,1.35.41,1.55.44,1.21.35,1.59.42,1.11.3,1.61.4,1,.25,1.65.38.89.2,1.7.37.76.15,1.76.35.25,0a113.46,113.46,0,0,0,19.26,2h2.62l1.72,0h.49l1.67-.08.47,0,1.62-.12.46,0,1.57-.15.45,0,1.51-.19.45-.06,1.44-.21.46-.08c.46-.07.92-.15,1.37-.24l.46-.08,1.3-.26.47-.1,1.24-.28.47-.12q.6-.14,1.17-.3l.47-.12,1.12-.32.47-.13,1.06-.33.46-.15,1-.34.45-.15,1-.36.41-.16,1-.37.3-.12a47.41,47.41,0,0,0,14.2-8.73,46.51,46.51,0,0,1-4.8-3.93,52.06,52.06,0,0,1-6.11-6.83l-.21-.29-.46-.63a60.12,60.12,0,0,1-10.51-28l-.67-5.39h0l1.93.93,3,1.41a71.53,71.53,0,0,0,14.88,4.53h0c1.12.23,2.28.43,3.49.62h.05q.82.14,1.68.24l.28,0,1.8.21h0l1.85.17.39,0,1.49.09.49,0c1.15.05,2.31.08,3.49.08h.55c.48,0,1,0,1.43,0l.37,0,1.17-.07.24,0c.44,0,.89-.08,1.32-.13l.34,0,1-.14.31,0,1.23-.2.25-.05,1-.19.33-.06,1.13-.25.07,0,1-.26.3-.08.88-.24.17-.05,1-.3.24-.08.74-.24.21-.07.85-.3.16-.06.66-.25.19-.08c.25-.09.49-.19.72-.29h0l.64-.27.14-.06.56-.25h0c1.28-.59,2-1,2-1l.7-.41h0l94.66.05H374l80.05.05h.41l54.09,0,20.89,0H541a9.73,9.73,0,0,0,4-.89c5.82-2.62,9.72-10.5,11.53-16,.29-.88.53-1.71.71-2.44l.53-1.8,9.2-31.4h0l26.67,0h0l-14.34,52.59h0l55.68.05h15.32L690.67,24.31ZM137.08,10l15.15,0h41.71c5.54,0,10.43,2.78,14.09,7.81a30.07,30.07,0,0,1,3.65,6.76c.2.51.39,1,.58,1.57.37,1.08.7,2.2,1,3.37a57.56,57.56,0,0,1,1.65,13.83c0,1.46,0,3-.11,4.49-.05.77-.1,1.54-.17,2.33s-.14,1.58-.23,2.38h0c-.22,2-.51,4-.89,6.12,0,.13,0,.25-.07.38h0c-.18,1-.37,1.92-.56,2.84,0,.07,0,.13,0,.19A81.51,81.51,0,0,1,208,78c-7.95,16.43-22.81,22.17-28.08,22.73a101.65,101.65,0,0,1-11.14.56l-57.12,0,12.73-45.67ZM79.24,156.65l-.65,2.28h0l-65.42-.07L54.38,10l33.17,0,33.26,0-1,3.62Zm138.29,44.19c.52.79,1.08,1.58,1.66,2.37s1.21,1.58,1.87,2.37l0,0,1,1.13,0,0c.5.56,1,1.12,1.55,1.69s1.1,1.13,1.68,1.69l.45.45h0l-.15.06h0l-.71.32-1.43.59-1.26.46-.72.25-.79.26c-.81.26-1.72.53-2.71.8a66,66,0,0,1-6.94,1.49c-.87.14-1.78.27-2.72.38s-1.91.21-2.92.29-2,.14-3.09.18-2.15.05-3.27,0-2.26,0-3.43-.11c-.58,0-1.18-.07-1.77-.12-2.39-.19-4.89-.44-7.47-.77-.87-.11-1.74-.22-2.62-.35-2.35-.34-4.76-.74-7.21-1.22-1.23-.24-2.47-.5-3.71-.78s-2.5-.58-3.76-.9-2.52-.67-3.78-1a108.34,108.34,0,0,1-11.4-4c-1.26-.53-2.52-1.08-3.76-1.67a84.55,84.55,0,0,1-14.46-8.56l-.21-.17h0a74.84,74.84,0,0,1-6.56-5.47c-13-12.19-21.36-25.68-22.69-45.44h0v-.05c0-.77-.08-1.55-.11-2.35v-.09c0-.11,0-.21,0-.31,0-.49,0-1,0-1.49h0c0-.52,0-1,0-1.57h0V139c0-.72,0-1.45,0-2.19h0v-.14h0c0-1,.07-1.95.13-2.95q.18-3,.55-6.22c.08-.71.17-1.42.27-2.15.19-1.45.41-2.93.66-4.43.13-.76.26-1.52.4-2.29q.63-3.45,1.47-7.12h0l52.72,0h0s10.54,0,21.67,9.33c.92.78,1.85,1.63,2.78,2.54q.93.92,1.86,1.92c.62.67,1.23,1.38,1.84,2.12.31.37.61.75.91,1.13.61.78,1.21,1.59,1.8,2.44s1.18,1.73,1.76,2.65q1.31,2.07,2.54,4.41c.28.52.55,1.05.82,1.59.81,1.63,1.59,3.34,2.34,5.16.25.61.49,1.22.74,1.85.48,1.25.95,2.55,1.4,3.9.68,2,1.32,4.14,1.92,6.38.29,1.12.58,2.26.86,3.43s.54,2.38.79,3.6c.21,1.05.41,2.07.61,3.09.78,4,1.45,7.83,2.2,11.43.09.46.18.9.28,1.35.48,2.23,1,4.39,1.61,6.5.12.42.24.84.37,1.26.26.83.53,1.66.82,2.49.59,1.64,1.24,3.27,2,4.87.38.8.78,1.6,1.21,2.4C216.05,198.46,216.75,199.65,217.53,200.84Zm121.54-41.39-52.6-.06h0l2.93-9.33h0A73.67,73.67,0,0,1,272,159.74c-1.4.53-2.85,1-4.39,1.51-.9.28-1.83.54-2.78.79s-1.93.47-2.93.68l-1.51.3h0l-.34.08c-.64.12-1.29.23-2,.33l-1.14.15-.8.1c-.51.06-1,.11-1.55.15l-.39,0c-.6,0-1.21.1-1.84.13h-.53l-1.57.05h-.85c-21.64-.57-43.22-10.57-37.34-33.94,5.67-22.56,22.18-90.38,23.38-95.31l.07-.3,47.18.08a11,11,0,0,1,2.57.27,7.06,7.06,0,0,1,.95.31,4.64,4.64,0,0,1,.74.41,4,4,0,0,1,.58.48,3.28,3.28,0,0,1,.41.53c.06.09.11.19.16.28a4.58,4.58,0,0,1,.22.58,4.46,4.46,0,0,1,.14,1.24,8.54,8.54,0,0,1-.36,2.21l-19.89,75.35h0s-1.05,3.88-1.58,6l0,.19h0a6.21,6.21,0,0,0-.22,2,7.94,7.94,0,0,0,.46,2.41,7.57,7.57,0,0,0,5.93,5c9.65,2.1,18.54-4.36,22.66-19,.06-.2.11-.39.15-.58l.07-.16L310,61.29l7.47-26.66,28.12,0,28.11,0h0l0,.18L339.08,159.45ZM468,159.21l-89.83-.08c-15.86,0-21.45-3.79-21.51-11.78a31.18,31.18,0,0,1,1.16-7.85l10.54-39.44a1.34,1.34,0,0,0,0,.2c0,.08,0,.15,0,.24.09,5.55,12.68,22.39,30.38,22.92l34.32,0h.22s-1.62-1.46-50.18-37.13c-6.34-4.66-8.3-6.36-8.37-8.75a9.65,9.65,0,0,1,.5-2.82c1.25-4.41,1.64-7.46,9.62-35.23.65-2.75,3.07-5,11.83-5l94.72.09c6.08,0,16.37-.27,16.5,8a15.61,15.61,0,0,1-1,5.26l-6.2,22.21s-12.11-15.47-29.26-15.48l-32.14,0,.24.18c3.35,2.48,41.54,30.7,47.16,35,5.42,4.18,6,8.08,6,9.72a4.35,4.35,0,0,1-.08.82l-13.32,46.78C477,153.54,476.94,159.05,468,159.21Zm176.31.48-52.69,0,14-51.58h0l-45.37,0-10.81,37.31c-2.25,8.85-3.6,14.06-11.59,14.06l-48,0L525.43,32.23l55.63,0L568.31,78.74h0l46.69,0,12.27-46.46,51.79,0Z" />
      </g>
    </g>
  </g>
</svg>