<?xml version="1.0" encoding="UTF-8"?>
<svg id="Layer_1" data-name="Layer 1" xmlns="http://www.w3.org/2000/svg" viewBox="0 0 250 146.47">
  <defs>
    <style>
      .cls-1 {
        fill: #fff;
        stroke-width: 0px;
      }
    </style>
  </defs>
  <polygon class="cls-1" points="201.85 140.74 210.73 140.74 210.73 138.22 201.85 138.22 201.85 135.73 211.31 135.73 211.31 132.76 196.3 132.76 196.3 146.36 211.51 146.36 211.51 143.39 201.85 143.39 201.85 140.74"/>
  <path class="cls-1" d="m182.7,138.09c-1.23-.24-4.75.41-4.58-1.31,0-.76.25-1.16,3.24-1.16,2.22,0,3.11,0,3.11,1.4h5.33c.35-4.22-3.6-4.41-8.44-4.37-5.44,0-8.8.26-8.8,4.16-.3,4.28,4.6,3.94,9.35,4.17,2.61.11,2.92.09,2.92,1.27.68,1.82-7.94,1.86-6.97-.31h-5.33c0,4.46,3.52,4.54,8.82,4.54,9.16,0,9.02-2.21,9.02-4.46,0-3.12-1.52-3.63-7.69-3.92Z"/>
  <polygon class="cls-1" points="139.26 69.55 200.99 125.64 213.68 125.64 142.24 69.55 139.26 69.55"/>
  <path class="cls-1" d="m227.65,138.09c-1.23-.24-4.75.41-4.58-1.31,0-.76.25-1.16,3.24-1.16,2.22,0,3.11,0,3.11,1.4h5.33c.35-4.22-3.6-4.41-8.44-4.37-5.44,0-8.8.26-8.8,4.16-.52,6.8,12.05,2.07,12.27,5.44.68,1.82-7.94,1.87-6.97-.31h-5.33c0,4.46,3.52,4.54,8.82,4.54,9.16,0,9.02-2.21,9.02-4.46,0-3.12-1.52-3.63-7.69-3.92Z"/>
  <path class="cls-1" d="m235.64,125.64v-56.2h-82.5l82.5,56.2Zm-5.07-9.58l-60.99-41.55h60.99v41.55Z"/>
  <rect class="cls-1" x="161.11" y="132.76" width="5.55" height="13.61"/>
  <polygon class="cls-1" points="128.3 69.55 176.6 125.64 188.29 125.64 130.79 69.55 128.3 69.55"/>
  <path class="cls-1" d="m108.53,136.88c.55-6.54-13.68-3.42-17.87-4.12v13.61h5.55v-3.61c3.33.26,7.41-1.37,6.58,3.61h5.55c.15-2.7.26-5.23-3.74-5.15v-.15c3.94-.6,3.94-1.92,3.94-4.19Zm-8.02,2.72h0s-4.3,0-4.3,0v-3.68c1.49.3,7.02-.99,6.6,1.56,0,1.54.08,2.12-2.3,2.12Z"/>
  <path class="cls-1" d="m155.12,136.88c.55-6.54-13.68-3.42-17.87-4.12v13.61h5.55v-3.61c3.39.3,7.37-1.44,6.58,3.61h5.55c.15-2.71.26-5.23-3.75-5.15v-.15c3.94-.6,3.94-1.92,3.94-4.19Zm-8.02,2.72h0s-4.3,0-4.3,0v-3.68c1.49.3,7.02-.99,6.6,1.56,0,1.54.09,2.12-2.3,2.12Z"/>
  <path class="cls-1" d="m124.87,132.76h-10.46v13.61h5.55v-3.49h4.91c10.04,1.13,9.5-11.09,0-10.12Zm-1.11,6.97h-3.8v-3.81c1.67.24,6.89-.93,6.3,1.84,0,1.76-.3,1.92-2.5,1.98Z"/>
  <polygon class="cls-1" points="49.74 125.64 61.44 125.64 109.73 69.55 107.24 69.55 49.74 125.64"/>
  <polygon class="cls-1" points="74.45 140.74 83.33 140.74 83.33 138.22 74.45 138.22 74.45 135.73 83.92 135.73 83.92 132.76 68.9 132.76 68.9 146.37 84.11 146.37 84.11 143.39 74.45 143.39 74.45 140.74"/>
  <polygon class="cls-1" points="5.55 140.74 14.43 140.74 14.43 138.22 5.55 138.22 5.55 135.73 15.01 135.73 15.01 132.76 0 132.76 0 146.37 15.21 146.37 15.21 143.39 5.55 143.39 5.55 140.74"/>
  <polygon class="cls-1" points="37.43 143.21 37.21 143.21 31.25 132.76 21.87 132.76 21.87 146.37 27.42 146.37 27.08 135.91 27.3 135.91 33.19 146.37 42.65 146.37 42.65 132.76 37.1 132.76 37.43 143.21"/>
  <polygon class="cls-1" points="47.51 135.91 52.83 135.91 52.83 146.37 58.39 146.37 58.39 135.91 63.99 135.91 63.99 132.76 47.51 132.76 47.51 135.91"/>
  <path class="cls-1" d="m38.44,52.53c-.02-.28-.03-.57-.04-.85.01.29.02.57.04.85Z"/>
  <path class="cls-1" d="m71.24,81.62c4.45.08,9.25-.79,13.08-3.07l-59.97,47.09h12.7l61.73-56.09h-2.99l-8.96,7.03c-5.07-3.78-7.49-9.08-8.15-16.23,4.79,2.71,14.82,4.63,20.56,1.01,28.14.02,64.39.03,92.39.06,5.86.72,8.63-1.33,10.1-7.01,0,0,.19-.65.19-.65,0,0,3.33-11.37,3.33-11.37h9.66s-5.19,19.04-5.19,19.04c4.12,0,21.96.02,25.7.03l14.6-52.65s-25.4-.02-25.4-.02l-4.5,16.34c-2.23,0-7.91,0-10.07,0,.7-2.44,4.08-14.17,4.71-16.34-6.72,0-20.24-.02-26.96-.02l-1.14,3.47c1.73-7.19-71.81-2.07-74.88-3.56-.38,1.04-2.35,6.45-2.77,7.61,1.19-2.9-.84-8.18-6.28-7.6,0,0-20.76-.02-20.76-.02h-1.05c-.69-4.54-7.69-9.34-9.71-8.59,0,0-23.98-.02-23.99-.03-6.26,0-23.93-.03-29.96-.03C16.77,1.71,1.14,58.09.28,61.2l31.24.03,2.71-10.57c.42,5.68,1.19,12.2,7.11,18.6H0v56.38l65.23-44.59c1.98.33,3.99.53,6,.56ZM190.19,11.69l20.14.02-4.62,16.82,16.9.02,4.44-16.82,18.75.02-12.58,46.09-19.07-.02,5.09-18.67-16.42-.02c-6.93,23.68-1.7,17.96-25.49,18.57l12.87-46.01Zm-54.38,15.4c.45-1.59.6-2.7,3.48-12.75.24-1,1.11-1.82,4.28-1.82l34.29.03c2.2,0,5.93-.1,5.97,2.89.16,1.23-2.39,8.59-2.6,9.94-4.39-6.5-13.54-5.77-22.23-5.61,2.05,2.42,19.78,12.34,19.3,16.56,0,0-4.83,16.93-4.83,16.93-.81,2.34-.85,4.33-4.09,4.39,0,0-32.51-.03-32.51-.03-5.74,0-7.76-1.37-7.79-4.27-.34-1.73,3.94-15.15,4.24-17.12,2.45,9.86,14.4,8.57,23.49,8.47,0,0-.59-.53-18.16-13.44-2.78-2.17-3.35-2.23-2.85-4.19Zm-50.57-14.46l.03-.11c27.94.15,19.01-4.54,11.84,29.59h0c-3.22,8.49,8.5,7.22,9.85-1.26,1.8-6.42,6.2-22.04,7.94-28.29,5.07,0,15.28.01,20.35.02,0,.03-12.5,45.12-12.52,45.16,0,0-19.04-.02-19.04-.02l1.06-3.38c-.8,1.22-10,5.52-13.47,5.04h0c-7.94.21-16.78-3.45-14.5-12.26,2.05-8.16,8.03-32.72,8.46-34.5ZM49.62,3.65c5.8.01,12.05.01,17.82.02,9.76-1.67,11.48,10.33,9.85,17.61-3.02,21.5-22.76,14.21-36.88,15.43,2.3-8.24,6.92-24.82,9.22-33.06Zm-20.94,53.07l-.23.83-23.68-.02L19.68,3.64c5.99,0,18.06.02,24.05.03l-.37,1.31-14.68,51.75Zm10.17-12.07c-.05.37-.11.73-.16,1.1.03-.37.1-.74.16-1.1Zm-.41,7.88c-.21-3.2.13-6.42.68-9.58,0,.04-.01.07-.02.11.15-.88.34-1.76.55-2.69,14,.56,27.89-4.31,33.73,14.12,2.47,7.41,1.93,16.28,8.34,21.76h0c-17.01,6.06-41.81-3.74-43.28-23.72ZM5.07,74.33h42.13c3.03,2.05,7.38,4.06,11.59,5.23L5.07,116.16v-41.83Z"/>
</svg>
