<?xml version="1.0" encoding="UTF-8"?>
<svg id="Layer_1"  data-name="Layer 1" xmlns="http://www.w3.org/2000/svg" viewBox="0 0 257.37 254.54">
  <defs>
    <style>
      .cls-1 {
        opacity: .49;
      }

      .cls-1, .cls-2 {
        fill: #fff;
        stroke-width: 0px;
      }
    </style>
  </defs>
  <path class="cls-2" d="m138.87,100.03v-14h-50c-22.02,0-31,5.22-31,18,0,9.17,3.2,13.18,13.7,17.13l5.89,2.22-6.09,1.59c-11.57,3.02-16.5,8.43-16.5,18.06,0,19.9,11.72,23.67,33.35,23.67h50.38l.24-15.67h-6.97v-51h7Zm-44.48-.86h12.48v21.46h-12.21c-7.97,0-11.37-3.29-11.37-10.99,0-6.55,4.15-10.47,11.1-10.47Zm12.68,53.86h-13.03c-3.19,0-5.71,0-7.73-1.12-3.09-1.73-3.44-5.32-3.44-7.88,0-5.47,1.2-12.75,11.59-12.75h12.61v21.75Z"/>
  <path class="cls-1" d="m94.45,135.28c-5.6,0-7.59,2.29-7.59,8.75,0,3.6.97,4.15,1.39,4.38,1.12.62,3.28.62,5.78.62h9.03v-13.75h-8.61Z"/>
  <path class="cls-1" d="m94.38,103.18c-4.71,0-7.09,2.18-7.09,6.47,0,4.93,1.02,6.99,7.37,6.99h8.21v-13.45h-8.48Z"/>
  <g>
    <path class="cls-2" d="m53.87,104.04c0-.65.02-1.27.06-1.88l-23.06-6.12,26.8,21.02c-2.48-3.12-3.81-7.22-3.81-13.02Z"/>
    <polygon class="cls-2" points="126.87 21.04 107.04 82.04 128.39 82.04 126.87 21.04"/>
    <polygon class="cls-2" points="183.66 103.72 177.95 110.26 228.87 93.04 190.37 94.17 190.37 103.72 183.66 103.72"/>
    <polygon class="cls-2" points="194.87 210.04 182.08 171.14 166.54 171.34 194.87 210.04"/>
    <path class="cls-1" d="m128.68,0C57.61,0,0,56.98,0,127.27s57.61,127.27,128.68,127.27,128.68-56.98,128.68-127.27S199.75,0,128.68,0Zm58.21,147.04h4.97v23.97l-5.46.07,17.46,54.95-77-50-72,49,15.35-56.05c-13.68-3.25-19.35-11.31-19.35-25.95,0-8.65,3.66-13.86,8.35-17.15L13.87,89.04h46.16c6.85-5.95,18.34-7,28.84-7h12.55L129.24,5.69l29.13,75.85h32v6.86l53.49.64-63.31,49.13,6.33,8.87Z"/>
    <polygon class="cls-2" points="94.87 170.71 65.87 212.04 124.91 170.71 94.87 170.71"/>
  </g>
  <path class="cls-2" d="m153.8,151.11v16.4l34.07-.45v-16.03h-3.03l-.6-.84-20-28-.92-1.29,1.04-1.19,16.89-19.32.6-.68h4.52v-14.18h-32.23l-.24,14.5h10.79l-3.41,3.41-20.76,20.76,18.23,23.68,2.48,3.22h-7.43Z"/>
</svg>
