<?xml version="1.0" encoding="UTF-8"?>
<svg id="Layer_2" data-name="Layer 2" xmlns="http://www.w3.org/2000/svg" viewBox="0 0 49.64 42.93">
  <defs>
    <style>
      .cls-1 {
      fill: none;
      }

      .cls-1, .cls-2, .cls-3, .cls-4 {
      stroke-width: 0px;
      }

      .cls-2 {
      fill: #1a091a;
      }

      .cls-3 {
      fill: #9d9ea2;
      }

      .cls-4 {
      fill: #e72a25;
      }
    </style>
  </defs>
  <g id="RTC_logo" data-name="RTC logo">
    <path class="cls-1" d="m39.05,8.52l.07-.07-.07.07Z" />
    <path class="cls-2"
      d="m36.25,17.31c.34.24.69.47,1.05.67,1.83,1.07,3.17,1.76,5.07,2.76,1.31.72,2.17,1.72,2.17,3.21,0,2.2-1.69,3.55-4.3,3.55-1.55,0-2.89-.45-3.14-.62-.76-3-1.38-4.79-1.58-5.2l-.72.31c-.41.52-1.65,3.69-1.9,5.03.65.48,4.1,2.37,7.55,2.37,4.07,0,9.2-1.76,9.2-7.13,0-2.14-.72-4.2-4.3-6.07-2.24-1.17-4.03-2.07-5.13-2.69-.13-.07-.26-.14-.38-.21-1.28,1.34-2.44,2.68-3.56,4.02h-.01Z" />
    <path class="cls-4"
      d="m49.15.2c-.59.34-.98.78-1.8,1.07s-.65.78-1.19.93-.72.45-.72.45c0,.15-.37.39-.48.45l-.45.41s-.21.32-.16.24h0s-.95.77-.95.77c-.07.08-.97.96-.97.96,1.2.1,2.18.42,2.75.76.24-.15.5-.27.77-.37.15-.26.29-.52.41-.79.35-.35.66-1.78.93-1.94.17-.12.32-.25.45-.41l.18-.38c.37-.58.78-1.14,1.23-1.66.69-.78.59-.83,0-.49Z" />
    <path class="cls-2"
      d="m19.66,23.65c-1.07.89-2.31,2.01-3.63,3.29-.38.1-.78.15-1.17.14-6.1,0-9.31-4.45-9.31-9.68s3.27-9.79,8.93-9.79c1.55,0,2.62.28,3.31.69.43,1.56.95,3.09,1.55,4.58l1.14-.45c.34-.96,1.41-5.58,1.48-6.48l-.21-.21c-.86.03-2.34.35-3.58.72-.96-.45-2.45-1.04-5.1-1.04h-.03c-5.52,0-13.03,3.59-13.03,12.13s6.65,11.82,13.37,11.82c1.76,0,4.82-.62,5.72-.97.43-.46,1.48-1.99,2.26-3.4-.39-.3-.78-.59-1.15-.89-.19-.15-.37-.32-.54-.49Z" />
    <path class="cls-4"
      d="m42.26,7.41c-1.28,0-2.4.37-3.14,1.04l-.07.07c-1.78,1.67-3.5,3.37-5.3,5.17l-1.6,1.6-5.39,5.3c-.4.4-.78.81-1.14,1.23-1.9-1.72-1.84-1.19-3.49-3.51-.58-.78-1.62-1.67-2.7-2.5s-1.34-.49-2.11-1.01c-1.29-.38-1.54.22-1.92.79-.25.41-.4.87-.42,1.35.05,1.21.45,1.76,1.06,2.35.36.35.45.4.44.4l.11.08c.72.49.97.83,1.47,1.93.84.86.95,1.29,1.61,1.95.17.17.35.33.54.49.37.3.76.59,1.15.89.89.66,1.81,1.32,2.62,2.08l2.26,2.1,2-2.62c.22-.3.46-.58.72-.84.59-.59,1.04-1.35,1.69-2.11,1.86-1.83,3.45-3.75,5.09-5.71.17-.21.35-.41.52-.62,1.12-1.34,2.28-2.69,3.56-4.02.41-.42.83-.84,1.26-1.26,1.04-1.06,1.61-2.32,2.31-3.4.27-.32.58-.6.91-.86-.64-.26-1.33-.39-2.03-.37Z" />
    <path class="cls-2"
      d="m47.95,5.24c-.69.19-1.43.42-1.99.63-.27.09-.53.22-.77.36-.57-.34-1.55-.66-2.75-.76-.25-.02-.5-.04-.77-.04h-.07c-5.13,0-7.96,3.17-8,6.83,0,.48.04.96.13,1.42,1.8-1.79,3.52-3.5,5.3-5.17l.07-.07c.74-.67,1.86-1.04,3.14-1.04.69-.02,1.39.11,2.03.37.13.06.26.13.38.2.24.79,1.27,3.17,1.83,3.96l.79-.41c.55-1.52,1.27-5.34,1.27-5.96l-.61-.34Z" />
    <path class="cls-4"
      d="m4.26,33.94c-.08-.87-.42-1.16-.91-1.16-.68,0-.97.42-.97,2.33s.29,2.33.97,2.33c.51,0,.8-.27.93-1.27h.78c-.13,1.14-.67,1.93-1.71,1.93-1.21,0-1.77-.91-1.77-3s.56-3,1.77-3c1.04,0,1.53.69,1.69,1.82h-.78Z" />
    <path class="cls-4"
      d="m8.8,38.01h-.76v-.63c-.38.39-.93.74-1.31.74-.8,0-1.27-.45-1.27-1.51v-4.38h.8v4.27c0,.67.2.96.63.96.39,0,.74-.27,1.1-.71v-4.51h.8v5.78Z" />
    <path class="cls-4"
      d="m11.79,33.7c-.15-.5-.36-.91-1-.91-.36,0-.65.3-.65.65,0,.01,0,.02,0,.04,0,1.18,2.44,1.24,2.44,3.04.03.85-.64,1.57-1.49,1.6-.03,0-.06,0-.08,0-1.04,0-1.57-.57-1.84-1.53l.73-.15c.17.51.47,1.02,1.06,1.02.47-.03.83-.41.83-.88,0-1.34-2.44-1.36-2.44-3.06,0-.76.62-1.4,1.5-1.4s1.42.51,1.61,1.38l-.67.19Z" />
    <path class="cls-4"
      d="m12.73,32.23h.78v-1.93h.8v1.93h1.07v.67h-1.07v4.04c-.03.29.18.55.47.58.04,0,.07,0,.11,0,.17-.01.33-.05.49-.11v.6c-.24.08-.5.12-.76.11-.76,0-1.11-.36-1.11-1.24v-3.98h-.78v-.67Z" />
    <path class="cls-4"
      d="m17.45,32.12c1.21,0,1.77.91,1.77,3s-.56,3-1.77,3-1.77-.91-1.77-3,.56-3,1.77-3Zm0,5.33c.68,0,.97-.42.97-2.33s-.29-2.33-.97-2.33-.97.42-.97,2.33.28,2.33.97,2.33Z" />
    <path class="cls-4"
      d="m19.66,38.01v-5.78h.73v.63c.31-.37.79-.74,1.34-.74.47,0,.88.29,1.04.73.32-.35.78-.73,1.34-.73.76,0,1.17.51,1.17,1.34v4.55h-.8v-4.45c0-.59-.18-.78-.59-.78-.49,0-.77.35-1.01.59v4.62h-.8v-4.45c0-.59-.21-.78-.63-.78-.49,0-.77.35-.98.59v4.62l-.81.03Z" />
    <path class="cls-2" d="m26.51,32.23l1.16,4.98h.02l1.13-4.98h.8l-1.42,5.78h-1.07l-1.42-5.78h.8Z" />
    <path class="cls-2"
      d="m30.59,35.14v.33c0,1.41.32,1.88,1.08,1.88.61,0,.87-.57.97-1.09l.76.09c-.12.87-.78,1.67-1.83,1.67-1.21,0-1.77-.91-1.77-3s.56-3,1.77-3,1.77,1.09,1.77,2.76v.38h-2.73Zm1.93-.67c-.02-1.24-.24-1.8-.97-1.8-.58,0-.95.42-.97,1.8h1.93Z" />
    <path class="cls-2"
      d="m33.67,29.99h.8v2.88c.34-.39.89-.74,1.27-.74.8,0,1.27.45,1.27,1.51v4.38h-.8v-4.27c0-.67-.2-.96-.63-.96-.39,0-.74.27-1.1.71v4.51h-.8v-8.02Z" />
    <path class="cls-2" d="m37.78,29.99h.8v.93h-.8v-.93Zm0,2.24h.8v5.78h-.8v-5.78Z" />
    <path class="cls-2"
      d="m42.05,33.84c-.08-.87-.42-1.16-.91-1.16-.68,0-.97.42-.97,2.33s.3,2.33.97,2.33c.51,0,.8-.27.93-1.27h.78c-.13,1.13-.67,1.93-1.71,1.93-1.21,0-1.77-.91-1.77-3s.56-3,1.77-3c1.04,0,1.53.69,1.69,1.82h-.78Z" />
    <path class="cls-2" d="m43.29,29.99h.8v8.02h-.8v-8.02Z" />
    <path class="cls-2"
      d="m45.26,35.14v.33c0,1.41.32,1.88,1.08,1.88.61,0,.87-.57.97-1.09l.76.09c-.12.87-.78,1.67-1.83,1.67-1.21,0-1.77-.91-1.77-3s.56-3,1.77-3,1.77,1.09,1.77,2.76v.38h-2.73Zm1.93-.67c-.02-1.24-.24-1.8-.97-1.8-.58,0-.96.42-.97,1.8h1.93Z" />
    <path class="cls-3"
      d="m3.23,40c-.03-.33-.2-.42-.35-.42-.21,0-.33.14-.33.38,0,.65,1.34.96,1.34,2,0,.63-.42.98-1.04.98s-.96-.49-.98-1.06l.62-.09c.03.39.18.58.39.58.19.02.35-.11.38-.29,0-.02,0-.04,0-.06,0-.76-1.34-.96-1.34-2.05,0-.61.37-.95,1.01-.95.53,0,.85.39.91.92l-.62.08Z" />
    <path class="cls-3"
      d="m7.56,39.98c0-.54.32-.98,1-.98s1,.45,1,.98v1.97c0,.54-.32.98-1,.98s-1-.44-1-.98v-1.97Zm.66,1.95c0,.28.08.42.35.42s.35-.14.35-.42v-1.93c0-.29-.08-.42-.35-.42s-.35.14-.35.42v1.93Z" />
    <path class="cls-3" d="m13.34,42.87v-3.82h.66v3.24h1.04v.57h-1.69Z" />
    <path class="cls-3"
      d="m18.6,39.06h.66v2.88c0,.28.11.42.35.42s.35-.14.35-.42v-2.88h.66v2.86c0,.65-.38,1.02-1,1.02s-1.01-.36-1.01-1.02v-2.86Z" />
    <path class="cls-3" d="m24.8,39.62h-.64v-.57h1.93v.57h-.63v3.25h-.66v-3.25Z" />
    <path class="cls-3" d="m29.74,42.87v-3.82h.66v3.82h-.66Z" />
    <path class="cls-3"
      d="m34.28,39.98c0-.54.32-.98,1.01-.98s1,.45,1,.98v1.97c0,.54-.32.98-1,.98s-1.01-.44-1.01-.98v-1.97Zm.66,1.95c0,.28.08.42.35.42s.35-.14.35-.42v-1.93c0-.29-.09-.42-.35-.42s-.35.14-.35.42v1.93Z" />
    <path class="cls-3"
      d="m40.1,42.87v-3.82h.61l.8,2.18h.01v-2.18h.59v3.82h-.57l-.84-2.39h-.01v2.39h-.6Z" />
    <path class="cls-3"
      d="m47.12,40c-.03-.33-.2-.42-.35-.42-.21,0-.33.14-.33.38,0,.65,1.34.96,1.34,2,0,.63-.42.98-1.04.98s-.96-.49-.98-1.06l.62-.09c.03.39.18.58.39.58.18.02.35-.11.38-.29,0-.02,0-.04,0-.06,0-.76-1.34-.96-1.34-2.05,0-.61.37-.95,1.02-.95.53,0,.85.39.91.92l-.62.07Z" />
  </g>
</svg>