<?xml version="1.0" encoding="UTF-8"?>
<svg id="Layer_1" data-name="Layer 1" xmlns="http://www.w3.org/2000/svg" viewBox="0 0 506.76 108.05">
  <defs>
    <style>
      .cls-1 {
        opacity: .62;
      }

      .cls-2 {
        opacity: .6;
      }

      .cls-2, .cls-3 {
        fill: #fff;
        stroke-width: 0px;
      }
    </style>
  </defs>
  <g>
    <path class="cls-3" d="m197.63,41.83c-.54-6.24-2.94-8.31-6.35-8.31-4.72,0-6.74,3.03-6.74,16.79s2.02,16.8,6.74,16.8c3.56,0,5.58-1.92,6.51-9.12h5.42c-.93,8.17-4.65,13.93-11.93,13.93-8.44,0-12.31-6.56-12.31-21.6s3.87-21.6,12.31-21.6c7.28,0,10.69,4.96,11.78,13.12h-5.43Z"/>
    <path class="cls-3" d="m229.83,71.36h-5.31v-4.64c-2.68,2.85-6.63,5.46-9.32,5.46-5.7,0-9.01-3.26-9.01-11.08V29.01h5.79v31.09c0,4.86,1.39,6.96,4.41,6.96,2.7,0,5.18-1.94,7.66-5.18V29.01h5.79v42.34Z"/>
    <path class="cls-3" d="m250.77,39.99c-1.02-3.64-2.51-6.63-7.05-6.63-2.66,0-4.54,2.19-4.54,5.02,0,8.58,17.24,9.06,17.24,22.18,0,6.64-4.7,11.66-11.13,11.66-7.37,0-11.05-4.13-13.01-11.17l5.17-1.13c1.17,3.71,3.29,7.45,7.45,7.45,3.05,0,5.88-2.92,5.88-6.39,0-9.72-17.24-9.88-17.24-22.26,0-5.5,4.38-10.2,10.58-10.2s10.03,3.73,11.36,10.04l-4.7,1.45Z"/>
    <path class="cls-3" d="m257.33,29.01h5.31v-13.93h5.79v13.93h7.72v5.01h-7.72v30.37c0,2.51,1.29,4.35,4.18,4.35,1.13,0,2.58-.5,3.54-.85v3.59c-1.61.5-3.05.83-5.47.83-5.47,0-8.04-2.66-8.04-9.3v-29h-5.31v-5.01Z"/>
    <path class="cls-3" d="m290.74,28.49c-8.54,0-12.46,6.64-12.46,21.86s3.92,21.86,12.46,21.86,12.46-6.63,12.46-21.86-3.92-21.86-12.46-21.86m0,38.86c-4.77,0-6.82-3.08-6.82-17s2.05-16.99,6.82-16.99,6.82,3.07,6.82,16.99-2.05,17-6.82,17"/>
    <path class="cls-3" d="m306.05,71.36V29.01h5.31v4.65c2.18-2.69,5.53-5.46,9.43-5.46,3.19,0,6.23,2.2,7.24,5.37,2.26-2.6,5.45-5.37,9.42-5.37,5.29,0,8.17,3.75,8.17,9.78v33.38h-5.31v-32.38c0-4.37-1.28-5.66-4.32-5.66-3.51,0-5.51,2.51-7.26,4.37v33.67h-5.31v-32.38c0-4.37-1.52-5.66-4.55-5.66-3.52,0-5.51,2.51-7.03,4.37v33.67h-5.79Z"/>
    <path class="cls-3" d="m156.46.74c-1.87,1.26-3.11,2.87-5.71,3.95-2.6,1.08-2.06,2.87-3.77,3.41-1.7.54-2.29,1.65-2.29,1.65,0,.54-1.19,1.45-1.52,1.63l-1.42,1.51s-.67,1.18-.52.9c0,0,0-.01,0-.01.04-.07-3.04,2.82-3.04,2.82-.21.31-3.08,3.53-3.08,3.53,3.82.37,6.93,1.53,8.74,2.79.53-.43,1.39-.88,2.44-1.35.63-1.3,1.2-2.53,1.3-2.91,1.12-1.3,2.1-6.54,2.97-7.15.5-.44.99-.9,1.4-1.49l.58-1.39s1.72-3.22,3.9-6.1c2.18-2.87,1.87-3.05,0-1.8"/>
    <path class="cls-3" d="m134.54,27.23c-4.07,0-7.63,1.36-10,3.84-.08.09-.16.17-.24.26-5.68,6.13-11.15,12.4-16.88,19-1.67,1.92-3.36,3.86-5.09,5.85l-17.14,19.47c-1.28,1.47-2.48,2.99-3.64,4.53-6.06-6.34-5.85-4.38-11.13-12.89-1.86-2.87-5.16-6.15-8.6-9.18-3.44-3.03-4.25-1.79-6.72-3.7-4.12-1.41-4.9.81-6.11,2.92-1.19,2.14-1.38,4.65-1.35,4.96.18,4.46,1.43,6.47,3.37,8.64,1.15,1.29,1.4,1.45,1.39,1.47.1.09.22.18.36.3,2.29,1.79,3.1,3.06,4.69,7.08,2.69,3.17,3.01,4.73,5.13,7.19.47.54,1.03,1.13,1.73,1.79,1.17,1.11,2.4,2.19,3.66,3.27,2.83,2.44,5.77,4.87,8.34,7.62l7.19,7.71,6.36-9.64c.72-1.09,1.47-2.13,2.3-3.08,1.88-2.18,3.33-4.97,5.38-7.76,5.92-6.68,10.99-13.71,16.22-20.93.55-.76,1.1-1.52,1.66-2.28,3.58-4.92,7.27-9.88,11.35-14.77,1.3-1.55,2.62-3.1,4.01-4.63,3.29-3.88,5.13-8.54,7.35-12.49.83-1.18,1.86-2.2,2.89-3.15-1.51-.79-3.69-1.38-6.46-1.38"/>
  </g>
  <g class="cls-1">
    <polygon class="cls-3" points="354.47 29.01 362.74 65.79 362.89 65.79 371 29.01 376.61 29.01 366.51 71.36 358.95 71.36 348.86 29.01 354.47 29.01"/>
    <path class="cls-3" d="m397.68,58.85c-.7,3.8-2.51,7.93-6.83,7.93-5.33,0-7.6-3.4-7.6-13.68v-2.35h19.3v-2.75c0-12.15-3.85-20.07-12.47-20.07s-12.47,6.63-12.47,21.85,3.92,21.86,12.47,21.86c7.44,0,12.08-5.82,12.93-12.13l-5.33-.65Zm-7.48-26.23c5.09,0,6.65,4.04,6.81,13.11h-13.64c.09-10.04,2.75-13.11,6.82-13.11"/>
    <path class="cls-3" d="m404.96,12.86h5.79v20.99c2.35-2.84,6.26-5.44,8.93-5.44,5.63,0,8.92,3.25,8.92,11.02v31.93h-5.79v-31.08c0-4.86-1.39-6.96-4.4-6.96-2.71,0-5.18,1.94-7.66,5.18v32.86h-5.79V12.86Z"/>
    <path class="cls-3" d="m433.91,19.54h5.79v-6.69h-5.79v6.69Zm0,51.82h5.79V29.01h-5.79v42.34Z"/>
    <path class="cls-3" d="m464.15,41.27c-.54-6.24-2.94-8.32-6.36-8.32-4.72,0-6.73,3.04-6.73,16.81s2.02,16.81,6.73,16.81c3.56,0,5.58-1.92,6.51-9.13h5.42c-.93,8.17-4.65,13.93-11.93,13.93-8.44,0-12.32-6.55-12.32-21.6s3.88-21.61,12.32-21.61c7.28,0,10.7,4.96,11.78,13.12h-5.42Z"/>
    <rect class="cls-3" x="472.99" y="12.86" width="5.79" height="58.5"/>
    <path class="cls-3" d="m501.42,58.85c-.71,3.8-2.51,7.93-6.83,7.93-5.33,0-7.61-3.4-7.61-13.68v-2.35h19.3v-2.75c0-12.15-3.84-20.07-12.46-20.07s-12.49,6.63-12.49,21.85,3.92,21.86,12.49,21.86c7.45,0,12.07-5.82,12.94-12.13l-5.33-.65Zm-7.79-26.23c5.09,0,6.65,4.04,6.81,13.11h-13.64c.07-10.04,2.75-13.11,6.82-13.11"/>
    <path class="cls-2" d="m190.44,85.87c-.19-2.39-1.42-3.09-2.46-3.09-1.5,0-2.32,1-2.32,2.73,0,4.75,9.4,7.01,9.4,14.56,0,4.59-2.98,7.13-7.31,7.13s-6.75-3.55-6.94-7.71l4.4-.65c.19,2.81,1.27,4.21,2.77,4.21,1.6,0,2.69-.89,2.69-2.55,0-5.51-9.4-6.97-9.4-14.94,0-4.44,2.61-6.93,7.16-6.93,3.76,0,6,2.81,6.41,6.74l-4.4.5Z"/>
    <path class="cls-2" d="m228.14,78.8c-4.79,0-7,3.17-7,7.04v14.16c0,3.88,2.21,7.04,7,7.04s7-3.16,7-7.04v-14.16c0-3.87-2.21-7.04-7-7.04m2.17,21.03c0,2.05-.59,3.03-2.42,3.03s-2.41-.98-2.41-3.03v-13.81c0-2.05.58-3.03,2.41-3.03s2.42.98,2.42,3.03v13.81Z"/>
    <polygon class="cls-2" points="261.67 106.46 261.67 79.16 266.49 79.16 266.49 102.56 273.73 102.56 273.73 106.46 261.67 106.46"/>
    <path class="cls-2" d="m298.82,79.16h4.82v20.99c0,2.05.77,3.05,2.42,3.05s2.41-1.01,2.41-3.05v-20.99h4.34v20.8c0,4.77-2.65,7.4-6.99,7.4s-7-2.63-7-7.4v-20.8Z"/>
    <polygon class="cls-2" points="342.24 83.06 337.9 83.06 337.9 79.16 351.41 79.16 351.41 83.06 347.06 83.06 347.06 106.46 342.24 106.46 342.24 83.06"/>
    <rect class="cls-2" x="377.46" y="79.16" width="4.82" height="27.86"/>
    <path class="cls-2" d="m416.79,78.81c-4.78,0-7,3.17-7,7.03v14.15c0,3.88,2.22,7.03,7,7.03s6.99-3.15,6.99-7.03v-14.15c0-3.87-2.21-7.03-6.99-7.03m2.17,21.01c0,2.05-.58,3.03-2.41,3.03s-2.42-.98-2.42-3.03v-13.81c0-2.05.59-3.03,2.42-3.03s2.41.98,2.41,3.03v13.81Z"/>
    <polygon class="cls-2" points="450.31 107.02 450.31 79.16 454.65 79.16 460.36 95.32 460.44 95.32 460.44 79.16 464.78 79.16 464.78 107.02 460.85 107.02 454.73 89.74 454.65 89.74 454.65 107.02 450.31 107.02"/>
    <path class="cls-2" d="m499.94,85.87c-.19-2.39-1.42-3.09-2.46-3.09-1.5,0-2.31,1-2.31,2.73,0,4.75,9.4,7.01,9.4,14.56,0,4.59-2.98,7.13-7.31,7.13s-6.75-3.55-6.94-7.71l4.4-.65c.19,2.81,1.26,4.21,2.76,4.21,1.61,0,2.68-.89,2.68-2.55,0-5.51-9.39-6.97-9.39-14.94,0-4.44,2.6-6.93,7.16-6.93,3.77,0,6,2.81,6.41,6.74l-4.4.5Z"/>
    <path class="cls-3" d="m62.58,86.89c-3.39,3.3-7.34,7.38-11.57,12.1-1.32.38-2.19.51-3.73.51-19.42,0-29.62-16.34-29.62-35.6s10.42-35.98,28.41-35.98c4.94,0,8.34,1.02,10.53,2.54,1.2,5.19,3.29,12.29,4.94,16.85l3.62-1.65c1.1-3.55,4.5-20.52,4.72-23.82l-.66-.76c-2.74.13-7.46,1.27-11.41,2.66-3.07-1.65-7.79-3.8-16.24-3.8h-.11C23.92,19.94,0,33.12,0,64.53s21.17,43.46,42.56,43.46c5.6,0,15.36-2.28,18.21-3.55,1.39-1.69,4.72-7.31,7.19-12.49-1.25-1.08-2.49-2.16-3.66-3.27-.7-.66-1.25-1.25-1.73-1.79"/>
    <path class="cls-3" d="m115.41,63.65c1.02.86,2.14,1.68,3.34,2.47,5.82,3.93,10.09,6.46,16.13,10.14,4.17,2.66,6.91,6.33,6.91,11.78,0,8.1-5.37,13.04-13.71,13.04-4.93,0-9.21-1.65-9.98-2.28-2.42-11.02-4.39-17.61-5.05-19.13l-2.3,1.14c-1.32,1.9-5.27,13.56-6.03,18.5,2.08,1.77,13.06,8.74,24.03,8.74,12.95,0,29.29-6.46,29.29-26.22,0-7.86-2.3-15.46-13.71-22.3-7.13-4.31-12.84-7.6-16.35-9.88-.41-.25-.82-.51-1.2-.78-4.08,4.88-7.77,9.85-11.35,14.77"/>
    <path class="cls-3" d="m152.65,19.18c-2.21.72-4.55,1.53-6.33,2.32-1.05.47-1.91.93-2.44,1.35-1.82-1.26-4.93-2.42-8.74-2.78-.79-.07-1.6-.13-2.45-.13h-.22c-16.34,0-25.34,11.66-25.45,25.09-.02,1.86.13,3.6.42,5.24,5.73-6.6,11.19-12.87,16.88-19,.08-.09.15-.17.24-.26,2.37-2.48,5.93-3.85,10-3.85,2.76,0,4.95.59,6.46,1.38.47.24.88.51,1.22.78.77,2.91,4.06,11.66,5.81,14.57l2.52-1.52c1.76-5.58,4.06-19.64,4.06-21.92l-1.97-1.26Z"/>
  </g>
</svg>
