<?xml version="1.0" encoding="UTF-8"?>
<svg id="Layer_1" data-name="Layer 1" xmlns="http://www.w3.org/2000/svg" viewBox="0 0 583.22 348.08">
  <defs>
    <style>
      .cls-1 {
      fill: #1b0f1c;
      }

      .cls-1, .cls-2, .cls-3 {
      stroke-width: 0px;
      }

      .cls-2 {
      fill: #9c9da1;
      }

      .cls-3 {
      fill: #e62c27;
      }
    </style>
  </defs>
  <g>
    <path class="cls-1"
      d="m351.91,91.4c1.8,1.27,3.64,2.48,5.54,3.54,9.66,5.65,16.74,9.29,26.77,14.57,6.92,3.8,11.46,9.08,11.46,16.95,0,11.62-8.92,18.74-22.7,18.74-8.18,0-15.26-2.38-16.58-3.27-4.01-15.84-7.29-25.29-8.34-27.46l-3.8,1.64c-2.16,2.75-8.71,19.48-10.03,26.56,3.43,2.53,21.65,12.51,39.86,12.51,21.49,0,48.58-9.29,48.58-37.65,0-11.3-3.8-22.18-22.7-32.05-11.83-6.18-21.28-10.93-27.09-14.2-.69-.37-1.37-.74-2.01-1.11-6.76,7.08-12.88,14.15-18.8,21.23h-.16Z" />
    <g>
      <path class="cls-3"
        d="m420.02,1.06c-3.12,1.8-5.17,4.12-9.5,5.65-4.33,1.53-3.43,4.12-6.28,4.91s-3.8,2.38-3.8,2.38c0,.79-1.95,2.06-2.53,2.38l-2.38,2.16s-1.11,1.69-.84,1.27h0l-5.02,4.07c-.37.42-5.12,5.07-5.12,5.07,6.34.53,11.51,2.22,14.52,4.01,1.27-.79,2.64-1.43,4.07-1.95.79-1.37,1.53-2.75,2.16-4.17,1.85-1.85,3.48-9.4,4.91-10.24.9-.63,1.69-1.32,2.38-2.16l.95-2.01c1.95-3.06,4.12-6.02,6.49-8.77,3.64-4.12,3.12-4.38,0-2.59Z" />
      <path class="cls-1"
        d="m264.31,124.88c-5.65,4.7-12.2,10.61-19.17,17.37-2.01.53-4.12.79-6.18.74-32.21,0-49.16-23.5-49.16-51.11s17.27-51.69,47.15-51.69c8.18,0,13.83,1.48,17.48,3.64,2.27,8.24,5.02,16.32,8.18,24.18l6.02-2.38c1.8-5.07,7.44-29.46,7.81-34.22l-1.11-1.11c-4.54.16-12.36,1.85-18.9,3.8-5.07-2.38-12.94-5.49-26.93-5.49h-.16c-29.15,0-68.8,18.96-68.8,64.05s35.11,62.41,70.6,62.41c9.29,0,25.45-3.27,30.2-5.12,2.27-2.43,7.81-10.51,11.93-17.95-2.06-1.58-4.12-3.12-6.07-4.7-1-.79-1.95-1.69-2.85-2.59l-.05.16Z" />
      <path class="cls-3"
        d="m383.64,39.13c-6.76,0-12.67,1.95-16.58,5.49l-.37.37c-9.4,8.82-18.48,17.79-27.98,27.3l-8.45,8.45-28.46,27.98c-2.11,2.11-4.12,4.28-6.02,6.49-10.03-9.08-9.72-6.28-18.43-18.53-3.06-4.12-8.55-8.82-14.26-13.2s-7.08-2.59-11.14-5.33c-6.81-2.01-8.13,1.16-10.14,4.17-1.32,2.16-2.11,4.59-2.22,7.13.26,6.39,2.38,9.29,5.6,12.41,1.9,1.85,2.38,2.11,2.32,2.11l.58.42c3.8,2.59,5.12,4.38,7.76,10.19,4.44,4.54,5.02,6.81,8.5,10.3.9.9,1.85,1.74,2.85,2.59,1.95,1.58,4.01,3.12,6.07,4.7,4.7,3.48,9.56,6.97,13.83,10.98l11.93,11.09,10.56-13.83c1.16-1.58,2.43-3.06,3.8-4.44,3.12-3.12,5.49-7.13,8.92-11.14,9.82-9.66,18.22-19.8,26.88-30.15.9-1.11,1.85-2.16,2.75-3.27,5.91-7.08,12.04-14.2,18.8-21.23,2.16-2.22,4.38-4.44,6.65-6.65,5.49-5.6,8.5-12.25,12.2-17.95,1.43-1.69,3.06-3.17,4.8-4.54-3.38-1.37-7.02-2.06-10.72-1.95l-.05.05Z" />
      <path class="cls-1"
        d="m413.69,27.67c-3.64,1-7.55,2.22-10.51,3.33-1.43.48-2.8,1.16-4.07,1.9-3.01-1.8-8.18-3.48-14.52-4.01-1.32-.11-2.64-.21-4.07-.21h-.37c-27.09,0-42.03,16.74-42.24,36.06,0,2.53.21,5.07.69,7.5,9.5-9.45,18.59-18.48,27.98-27.3l.37-.37c3.91-3.54,9.82-5.49,16.58-5.49,3.64-.11,7.34.58,10.72,1.95.69.32,1.37.69,2.01,1.06,1.27,4.17,6.71,16.74,9.66,20.91l4.17-2.16c2.9-8.03,6.71-28.2,6.71-31.47l-3.22-1.8.11.11Z" />
    </g>
  </g>
  <g>
    <path class="cls-3"
      d="m33.62,235.17c-1-10.91-5.27-14.55-11.42-14.55-8.53,0-12.17,5.27-12.17,29.23s3.64,29.23,12.17,29.23c6.4,0,10.04-3.39,11.67-15.93h9.79c-1.63,14.3-8.41,24.21-21.45,24.21-15.18,0-22.2-11.42-22.2-37.64s7.03-37.64,22.2-37.64c13.05,0,19.19,8.66,21.2,22.83h-9.79v.25Z" />
    <path class="cls-3"
      d="m90.58,286.23h-9.53v-7.9c-4.77,4.89-11.67,9.28-16.43,9.28-10.04,0-15.93-5.65-15.93-18.94v-54.95h10.04v53.57c0,8.41,2.51,12.04,7.9,12.04,4.89,0,9.28-3.39,13.8-8.91v-56.58h10.04v72.51l.13-.13Z" />
    <path class="cls-3"
      d="m128.09,232.16c-1.88-6.27-4.52-11.42-12.55-11.42-4.52,0-8.15,3.76-8.15,8.15v.5c0,14.8,30.61,15.56,30.61,38.14.38,10.66-8.03,19.7-18.69,20.07h-1c-13.05,0-19.7-7.15-23.08-19.19l9.16-1.88c2.13,6.4,5.9,12.8,13.3,12.8,5.9-.38,10.41-5.14,10.41-11.04,0-16.81-30.61-17.06-30.61-38.39,0-9.53,7.78-17.56,18.82-17.56s17.81,6.4,20.2,17.31l-8.41,2.38v.13Z" />
    <path class="cls-3"
      d="m139.88,213.72h9.79v-24.21h10.04v24.21h13.42v8.41h-13.42v50.68c-.38,3.64,2.26,6.9,5.9,7.28h1.38c2.13-.13,4.14-.63,6.15-1.38v7.53c-3.01,1-6.27,1.51-9.53,1.38-9.53,0-13.93-4.52-13.93-15.56v-49.93h-9.79v-8.41Z" />
    <path class="cls-3"
      d="m199.09,212.34c15.18,0,22.2,11.42,22.2,37.64s-7.03,37.64-22.2,37.64-22.2-11.42-22.2-37.64,7.03-37.64,22.2-37.64Zm0,66.87c8.53,0,12.17-5.27,12.17-29.23s-3.64-29.23-12.17-29.23-12.17,5.27-12.17,29.23,3.51,29.23,12.17,29.23Z" />
    <path class="cls-3"
      d="m226.82,286.23v-72.51h9.16v7.9c3.89-4.64,9.91-9.28,16.81-9.28,5.9,0,11.04,3.64,13.05,9.16,4.01-4.39,9.79-9.16,16.81-9.16,9.53,0,14.68,6.4,14.68,16.81v57.08h-10.04v-55.83c0-7.4-2.26-9.79-7.4-9.79-6.15,0-9.66,4.39-12.67,7.4v57.96h-10.04v-55.83c0-7.4-2.63-9.79-7.9-9.79-6.15,0-9.66,4.39-12.29,7.4v57.96l-10.16.38v.13Z" />
    <path class="cls-1"
      d="m312.75,213.72l14.55,62.47h.25l14.18-62.47h10.04l-17.81,72.51h-13.42l-17.81-72.51h10.04Z" />
    <path class="cls-1"
      d="m363.93,250.22v4.14c0,17.69,4.01,23.58,13.55,23.58,7.65,0,10.91-7.15,12.17-13.67l9.53,1.13c-1.51,10.91-9.79,20.95-22.96,20.95-15.18,0-22.2-11.42-22.2-37.64s7.03-37.64,22.2-37.64,22.2,13.67,22.2,34.62v4.77h-34.25l-.25-.25Zm24.21-8.41c-.25-15.56-3.01-22.58-12.17-22.58-7.28,0-11.92,5.27-12.17,22.58h24.34Z" />
    <path class="cls-1"
      d="m402.57,185.62h10.04v36.13c4.27-4.89,11.17-9.28,15.93-9.28,10.04,0,15.93,5.65,15.93,18.94v54.95h-10.04v-53.57c0-8.41-2.51-12.04-7.9-12.04-4.89,0-9.28,3.39-13.8,8.91v56.58h-10.04v-100.61h-.13Z" />
    <path class="cls-1"
      d="m454.13,185.62h10.04v11.67h-10.04v-11.67Zm0,28.1h10.04v72.51h-10.04v-72.51Z" />
    <path class="cls-1"
      d="m507.7,233.92c-1-10.91-5.27-14.55-11.42-14.55-8.53,0-12.17,5.27-12.17,29.23s3.76,29.23,12.17,29.23c6.4,0,10.04-3.39,11.67-15.93h9.79c-1.63,14.18-8.41,24.21-21.45,24.21-15.18,0-22.2-11.42-22.2-37.64s7.03-37.64,22.2-37.64c13.05,0,19.19,8.66,21.2,22.83h-9.79v.25Z" />
    <path class="cls-1" d="m523.26,185.62h10.04v100.61h-10.04v-100.61Z" />
    <path class="cls-1"
      d="m547.97,250.22v4.14c0,17.69,4.01,23.58,13.55,23.58,7.65,0,10.91-7.15,12.17-13.67l9.53,1.13c-1.51,10.91-9.79,20.95-22.96,20.95-15.18,0-22.2-11.42-22.2-37.64s7.03-37.64,22.2-37.64,22.2,13.67,22.2,34.62v4.77h-34.25l-.25-.25Zm24.21-8.41c-.25-15.56-3.01-22.58-12.17-22.58-7.28,0-12.04,5.27-12.17,22.58h24.34Z" />
    <path class="cls-2"
      d="m20.7,311.19c-.38-4.14-2.51-5.27-4.39-5.27-2.63,0-4.14,1.76-4.14,4.77,0,8.15,16.81,12.04,16.81,25.09,0,7.9-5.27,12.29-13.05,12.29s-12.04-6.15-12.29-13.3l7.78-1.13c.38,4.89,2.26,7.28,4.89,7.28,2.38.25,4.39-1.38,4.77-3.64v-.75c0-9.53-16.81-12.04-16.81-25.72,0-7.65,4.64-11.92,12.67-11.92,6.65,0,10.66,4.89,11.42,11.54l-7.78,1,.13-.25Z" />
    <path class="cls-2"
      d="m75.02,310.94c0-6.77,4.01-12.29,12.55-12.29s12.55,5.65,12.55,12.29v24.71c0,6.77-4.01,12.29-12.55,12.29s-12.55-5.52-12.55-12.29c0,0,0-24.71,0-24.71Zm8.28,24.46c0,3.51,1,5.27,4.39,5.27s4.39-1.76,4.39-5.27v-24.21c0-3.64-1-5.27-4.39-5.27s-4.39,1.76-4.39,5.27v24.21Z" />
    <path class="cls-2" d="m147.53,347.2v-47.92h8.28v40.65h13.05v7.15h-21.2l-.13.13Z" />
    <path class="cls-2"
      d="m213.52,299.4h8.28v36.13c0,3.51,1.38,5.27,4.39,5.27s4.39-1.76,4.39-5.27v-36.13h8.28v35.88c0,8.15-4.77,12.8-12.55,12.8s-12.67-4.52-12.67-12.8v-35.88h-.13Z" />
    <path class="cls-2" d="m291.3,306.43h-8.03v-7.15h24.21v7.15h-7.9v40.77h-8.28s0-40.77,0-40.77Z" />
    <path class="cls-2" d="m353.27,347.2v-47.92h8.28v47.92h-8.28Z" />
    <path class="cls-2"
      d="m410.23,310.94c0-6.77,4.01-12.29,12.67-12.29s12.55,5.65,12.55,12.29v24.71c0,6.77-4.01,12.29-12.55,12.29s-12.67-5.52-12.67-12.29v-24.71Zm8.28,24.46c0,3.51,1,5.27,4.39,5.27s4.39-1.76,4.39-5.27v-24.21c0-3.64-1.13-5.27-4.39-5.27s-4.39,1.76-4.39,5.27v24.21Z" />
    <path class="cls-2"
      d="m483.24,347.2v-47.92h7.65l10.04,27.35h.13v-27.35h7.4v47.92h-7.15l-10.54-29.98h-.13v29.98h-7.53.13Z" />
    <path class="cls-2"
      d="m571.31,311.19c-.38-4.14-2.51-5.27-4.39-5.27-2.63,0-4.14,1.76-4.14,4.77,0,8.15,16.81,12.04,16.81,25.09,0,7.9-5.27,12.29-13.05,12.29s-12.04-6.15-12.29-13.3l7.78-1.13c.38,4.89,2.26,7.28,4.89,7.28,2.26.25,4.39-1.38,4.77-3.64v-.75c0-9.53-16.81-12.04-16.81-25.72,0-7.65,4.64-11.92,12.8-11.92,6.65,0,10.66,4.89,11.42,11.54l-7.78.88v-.13Z" />
  </g>
</svg>